<svg width="16" height="16" viewBox="0 0 16 16" fill="none" xmlns="http://www.w3.org/2000/svg">
<path d="M10.3537 12.3559C10.4001 12.3994 10.437 12.4511 10.4621 12.508C10.4872 12.5649 10.5002 12.6259 10.5002 12.6875C10.5002 12.7491 10.4872 12.8101 10.4621 12.867C10.437 12.9239 10.4001 12.9756 10.3537 13.0192C10.3072 13.0627 10.252 13.0973 10.1914 13.1208C10.1307 13.1444 10.0656 13.1565 9.99991 13.1565C9.93421 13.1565 9.86915 13.1444 9.80846 13.1208C9.74776 13.0973 9.69261 13.0627 9.64615 13.0192L4.64615 8.33166C4.59967 8.28812 4.56279 8.23642 4.53763 8.17952C4.51246 8.12261 4.49951 8.06162 4.49951 8.00002C4.49951 7.93842 4.51246 7.87742 4.53763 7.82051C4.56279 7.76361 4.59967 7.71191 4.64615 7.66838L9.64615 2.98088C9.73997 2.89292 9.86722 2.84351 9.99991 2.84351C10.1326 2.84351 10.2598 2.89292 10.3537 2.98088C10.4475 3.06883 10.5002 3.18813 10.5002 3.31252C10.5002 3.43691 10.4475 3.5562 10.3537 3.64416L5.70678 8.00002L10.3537 12.3559Z" fill="#C2C2C2"/>
</svg>
