<svg width="73" height="72" viewBox="0 0 73 72" fill="none" xmlns="http://www.w3.org/2000/svg">
<g id="BellRinging">
<path id="Vector" d="M63.5005 19.9968C62.9709 20.2711 62.354 20.3238 61.7855 20.1435C61.217 19.9631 60.7433 19.5644 60.4687 19.0349C58.321 14.7923 55.0703 11.2064 51.058 8.65401C50.808 8.4963 50.5915 8.29088 50.4208 8.04949C50.2501 7.8081 50.1287 7.53545 50.0634 7.24713C49.9981 6.9588 49.9903 6.66044 50.0403 6.36908C50.0903 6.07771 50.1972 5.79905 50.3549 5.54901C50.5126 5.29896 50.718 5.08243 50.9594 4.91177C51.2008 4.74111 51.4735 4.61967 51.7618 4.55438C52.0501 4.48909 52.3485 4.48122 52.6399 4.53124C52.9312 4.58126 53.2099 4.68817 53.4599 4.84588C58.136 7.83989 61.9329 12.0222 64.4624 16.9649C64.7367 17.4946 64.7894 18.1115 64.6091 18.68C64.4287 19.2485 64.03 19.7222 63.5005 19.9968ZM10.544 20.2499C10.9562 20.2498 11.3604 20.1364 11.7126 19.9221C12.0647 19.7078 12.3512 19.401 12.5409 19.0349C14.6885 14.7923 17.9392 11.2064 21.9515 8.65401C22.4565 8.3355 22.8142 7.82943 22.9461 7.24713C23.078 6.66483 22.9731 6.054 22.6546 5.54901C22.3361 5.04402 21.83 4.68624 21.2477 4.55438C20.6654 4.42252 20.0546 4.52737 19.5496 4.84588C14.8736 7.83989 11.0766 12.0222 8.54711 16.9649C8.36946 17.3078 8.28306 17.6907 8.29623 18.0766C8.3094 18.4626 8.42168 18.8387 8.62228 19.1687C8.82287 19.4987 9.10503 19.7715 9.44159 19.9609C9.77816 20.1502 10.1578 20.2498 10.544 20.2499ZM62.8846 49.4831C63.2832 50.1666 63.4945 50.9432 63.4973 51.7345C63.5 52.5258 63.294 53.3038 62.9001 53.9901C62.5062 54.6764 61.9383 55.2466 61.2536 55.6434C60.569 56.0401 59.7918 56.2494 59.0005 56.2499H47.5255C47.0091 58.7931 45.6294 61.0795 43.6201 62.7218C41.6108 64.3641 39.0956 65.2612 36.5005 65.2612C33.9055 65.2612 31.3902 64.3641 29.381 62.7218C27.3717 61.0795 25.992 58.7931 25.4755 56.2499H14.0005C13.2097 56.2484 12.4333 56.0384 11.7494 55.6413C11.0656 55.2441 10.4985 54.6738 10.1052 53.9876C9.71198 53.3015 9.50649 52.5239 9.50945 51.7331C9.51242 50.9423 9.72373 50.1662 10.1221 49.4831C12.6562 45.1096 14.0005 38.8912 14.0005 31.4999C14.0005 25.5326 16.3711 19.8096 20.5906 15.59C24.8102 11.3705 30.5332 8.99994 36.5005 8.99994C42.4679 8.99994 48.1909 11.3705 52.4104 15.59C56.63 19.8096 59.0005 25.5326 59.0005 31.4999C59.0005 38.8884 60.3449 45.1068 62.8846 49.4831ZM42.8624 56.2499H30.1387C30.6048 57.5645 31.4668 58.7024 32.606 59.5072C33.7452 60.312 35.1057 60.744 36.5005 60.744C37.8953 60.744 39.2559 60.312 40.3951 59.5072C41.5343 58.7024 42.3963 57.5645 42.8624 56.2499ZM59.0005 51.7499C56.008 46.6115 54.5005 39.7996 54.5005 31.4999C54.5005 26.726 52.6041 22.1477 49.2285 18.772C45.8528 15.3964 41.2744 13.4999 36.5005 13.4999C31.7266 13.4999 27.1483 15.3964 23.7726 18.772C20.397 22.1477 18.5005 26.726 18.5005 31.4999C18.5005 39.8024 16.9874 46.6143 14.0005 51.7499H59.0005Z" fill="#F5F5F5"/>
</g>
</svg>
