<svg width="20" height="20" viewBox="0 0 20 20" fill="none" xmlns="http://www.w3.org/2000/svg">
<g id="Icon">
<path id="Vector" d="M10 1.875C8.39303 1.875 6.82214 2.35152 5.486 3.24431C4.14985 4.1371 3.10844 5.40605 2.49348 6.8907C1.87852 8.37535 1.71762 10.009 2.03112 11.5851C2.34463 13.1612 3.11846 14.6089 4.25476 15.7452C5.39106 16.8815 6.8388 17.6554 8.4149 17.9689C9.99099 18.2824 11.6247 18.1215 13.1093 17.5065C14.594 16.8916 15.8629 15.8502 16.7557 14.514C17.6485 13.1779 18.125 11.607 18.125 10C18.1227 7.84581 17.266 5.78051 15.7427 4.25727C14.2195 2.73403 12.1542 1.87727 10 1.875ZM10 16.875C8.64026 16.875 7.31105 16.4718 6.18046 15.7164C5.04987 14.9609 4.16868 13.8872 3.64833 12.6309C3.12798 11.3747 2.99183 9.99237 3.2571 8.65875C3.52238 7.32513 4.17716 6.10013 5.13864 5.13864C6.10013 4.17716 7.32514 3.52237 8.65876 3.2571C9.99238 2.99183 11.3747 3.12798 12.631 3.64833C13.8872 4.16868 14.9609 5.04987 15.7164 6.18045C16.4718 7.31104 16.875 8.64025 16.875 10C16.8729 11.8227 16.1479 13.5702 14.8591 14.8591C13.5702 16.1479 11.8227 16.8729 10 16.875ZM10.9375 10C10.9375 10.1854 10.8825 10.3667 10.7795 10.5208C10.6765 10.675 10.5301 10.7952 10.3588 10.8661C10.1875 10.9371 9.99896 10.9557 9.81711 10.9195C9.63525 10.8833 9.4682 10.794 9.33709 10.6629C9.20598 10.5318 9.11669 10.3648 9.08052 10.1829C9.04434 10.001 9.06291 9.81254 9.13387 9.64123C9.20482 9.46993 9.32499 9.32351 9.47916 9.2205C9.63333 9.11748 9.81458 9.0625 10 9.0625C10.2486 9.0625 10.4871 9.16127 10.6629 9.33709C10.8387 9.5129 10.9375 9.75136 10.9375 10ZM14.375 10C14.375 10.1854 14.32 10.3667 14.217 10.5208C14.114 10.675 13.9676 10.7952 13.7963 10.8661C13.625 10.9371 13.4365 10.9557 13.2546 10.9195C13.0727 10.8833 12.9057 10.794 12.7746 10.6629C12.6435 10.5318 12.5542 10.3648 12.518 10.1829C12.4818 10.001 12.5004 9.81254 12.5714 9.64123C12.6423 9.46993 12.7625 9.32351 12.9167 9.2205C13.0708 9.11748 13.2521 9.0625 13.4375 9.0625C13.6861 9.0625 13.9246 9.16127 14.1004 9.33709C14.2762 9.5129 14.375 9.75136 14.375 10ZM7.5 10C7.5 10.1854 7.44502 10.3667 7.34201 10.5208C7.23899 10.675 7.09258 10.7952 6.92127 10.8661C6.74996 10.9371 6.56146 10.9557 6.37961 10.9195C6.19775 10.8833 6.0307 10.794 5.89959 10.6629C5.76848 10.5318 5.67919 10.3648 5.64302 10.1829C5.60684 10.001 5.62541 9.81254 5.69637 9.64123C5.76732 9.46993 5.88749 9.32351 6.04166 9.2205C6.19583 9.11748 6.37708 9.0625 6.5625 9.0625C6.81114 9.0625 7.0496 9.16127 7.22542 9.33709C7.40123 9.5129 7.5 9.75136 7.5 10Z" fill="#9E9E9E"/>
</g>
</svg>
