<svg width="33" height="32" viewBox="0 0 33 32" fill="none" xmlns="http://www.w3.org/2000/svg">
<g id="BugBeetle">
<path id="Vector" d="M26.1665 17.9996H28.1665C28.4317 17.9996 28.6861 17.8942 28.8736 17.7067C29.0611 17.5192 29.1665 17.2648 29.1665 16.9996C29.1665 16.7344 29.0611 16.48 28.8736 16.2925C28.6861 16.1049 28.4317 15.9996 28.1665 15.9996H26.1665V13.9996H28.1665C28.4317 13.9996 28.6861 13.8942 28.8736 13.7067C29.0611 13.5191 29.1665 13.2648 29.1665 12.9996C29.1665 12.7344 29.0611 12.48 28.8736 12.2925C28.6861 12.1049 28.4317 11.9996 28.1665 11.9996H26.1165C25.8956 9.80477 24.9531 7.74518 23.4365 6.14333L25.874 3.70708C25.9669 3.61417 26.0406 3.50387 26.0909 3.38248C26.1412 3.26108 26.1671 3.13097 26.1671 2.99958C26.1671 2.86818 26.1412 2.73808 26.0909 2.61668C26.0406 2.49529 25.9669 2.38499 25.874 2.29208C25.7811 2.19917 25.6708 2.12547 25.5494 2.07519C25.428 2.0249 25.2979 1.99902 25.1665 1.99902C25.0351 1.99902 24.905 2.0249 24.7836 2.07519C24.6622 2.12547 24.5519 2.19917 24.459 2.29208L21.9228 4.82958C20.2395 3.63885 18.2284 2.99944 16.1665 2.99944C14.1046 2.99944 12.0935 3.63885 10.4103 4.82958L7.874 2.29208C7.68636 2.10444 7.43187 1.99902 7.1665 1.99902C6.90114 1.99902 6.64664 2.10444 6.459 2.29208C6.27136 2.47972 6.16595 2.73422 6.16595 2.99958C6.16595 3.26494 6.27136 3.51944 6.459 3.70708L8.8965 6.14333C7.37991 7.74518 6.43738 9.80477 6.2165 11.9996H4.1665C3.90129 11.9996 3.64693 12.1049 3.4594 12.2925C3.27186 12.48 3.1665 12.7344 3.1665 12.9996C3.1665 13.2648 3.27186 13.5191 3.4594 13.7067C3.64693 13.8942 3.90129 13.9996 4.1665 13.9996H6.1665V15.9996H4.1665C3.90129 15.9996 3.64693 16.1049 3.4594 16.2925C3.27186 16.48 3.1665 16.7344 3.1665 16.9996C3.1665 17.2648 3.27186 17.5192 3.4594 17.7067C3.64693 17.8942 3.90129 17.9996 4.1665 17.9996H6.1665V18.9996C6.1665 19.3371 6.184 19.6708 6.2165 19.9996H4.1665C3.90129 19.9996 3.64693 20.1049 3.4594 20.2925C3.27186 20.48 3.1665 20.7344 3.1665 20.9996C3.1665 21.2648 3.27186 21.5192 3.4594 21.7067C3.64693 21.8942 3.90129 21.9996 4.1665 21.9996H6.6265C7.26459 24.03 8.53383 25.8039 10.2496 27.0632C11.9654 28.3225 14.0382 29.0015 16.1665 29.0015C18.2948 29.0015 20.3676 28.3225 22.0834 27.0632C23.7992 25.8039 25.0684 24.03 25.7065 21.9996H28.1665C28.4317 21.9996 28.6861 21.8942 28.8736 21.7067C29.0611 21.5192 29.1665 21.2648 29.1665 20.9996C29.1665 20.7344 29.0611 20.48 28.8736 20.2925C28.6861 20.1049 28.4317 19.9996 28.1665 19.9996H26.1165C26.149 19.6708 26.1665 19.3371 26.1665 18.9996V17.9996ZM16.1665 4.99958C18.1141 5.002 19.9941 5.71407 21.4547 7.00251C22.9152 8.29095 23.8562 10.0675 24.1015 11.9996H8.2265C8.47193 10.0666 9.41362 8.28941 10.8752 7.00086C12.3368 5.7123 14.218 5.00079 16.1665 4.99958ZM17.1665 26.9346V16.9996C17.1665 16.7344 17.0611 16.48 16.8736 16.2925C16.6861 16.1049 16.4317 15.9996 16.1665 15.9996C15.9013 15.9996 15.6469 16.1049 15.4594 16.2925C15.2719 16.48 15.1665 16.7344 15.1665 16.9996V26.9346C13.2344 26.6893 11.4579 25.7483 10.1694 24.2877C8.88099 22.8272 8.16893 20.9472 8.1665 18.9996V13.9996H24.1665V18.9996C24.1641 20.9472 23.452 22.8272 22.1636 24.2877C20.8751 25.7483 19.0986 26.6893 17.1665 26.9346Z" fill="#C2C2C2"/>
</g>
</svg>
