<svg width="20" height="20" viewBox="0 0 20 20" fill="none" xmlns="http://www.w3.org/2000/svg">
<g id="Icon">
<path id="Vector" d="M16.6923 9.55779C16.7504 9.61584 16.7965 9.68477 16.828 9.76064C16.8594 9.83652 16.8756 9.91785 16.8756 9.99998C16.8756 10.0821 16.8594 10.1634 16.828 10.2393C16.7965 10.3152 16.7504 10.3841 16.6923 10.4422L10.4423 16.6922C10.3842 16.7503 10.3153 16.7964 10.2394 16.8278C10.1636 16.8593 10.0822 16.8755 10.0001 16.8755C9.91797 16.8755 9.83664 16.8593 9.76077 16.8278C9.68489 16.7964 9.61596 16.7503 9.55792 16.6922L3.30792 10.4422C3.19064 10.3249 3.12476 10.1658 3.12476 9.99998C3.12476 9.83413 3.19064 9.67507 3.30792 9.55779C3.42519 9.44052 3.58425 9.37463 3.7501 9.37463C3.91596 9.37463 4.07502 9.44052 4.19229 9.55779L10.0001 15.3664L15.8079 9.55779C15.866 9.49968 15.9349 9.45358 16.0108 9.42213C16.0866 9.39068 16.168 9.37449 16.2501 9.37449C16.3322 9.37449 16.4136 9.39068 16.4894 9.42213C16.5653 9.45358 16.6342 9.49968 16.6923 9.55779ZM9.55792 10.4422C9.61596 10.5003 9.68489 10.5464 9.76077 10.5778C9.83664 10.6093 9.91797 10.6255 10.0001 10.6255C10.0822 10.6255 10.1636 10.6093 10.2394 10.5778C10.3153 10.5464 10.3842 10.5003 10.4423 10.4422L16.6923 4.19217C16.8096 4.07489 16.8755 3.91583 16.8755 3.74998C16.8755 3.58413 16.8096 3.42507 16.6923 3.30779C16.575 3.19052 16.416 3.12463 16.2501 3.12463C16.0843 3.12463 15.9252 3.19052 15.8079 3.30779L10.0001 9.11639L4.19229 3.30779C4.07502 3.19052 3.91596 3.12463 3.7501 3.12463C3.58425 3.12463 3.42519 3.19052 3.30792 3.30779C3.19064 3.42507 3.12476 3.58413 3.12476 3.74998C3.12476 3.91583 3.19064 4.07489 3.30792 4.19217L9.55792 10.4422Z" fill="#FF4F20"/>
</g>
</svg>
