<svg width="20" height="20" viewBox="0 0 20 20" fill="none" xmlns="http://www.w3.org/2000/svg">
<path d="M16.6922 7.94219L10.4422 14.1922C10.3841 14.2503 10.3152 14.2964 10.2393 14.3279C10.1635 14.3593 10.0821 14.3755 10 14.3755C9.91787 14.3755 9.83654 14.3593 9.76067 14.3279C9.68479 14.2964 9.61586 14.2503 9.55782 14.1922L3.30782 7.94219C3.22031 7.85478 3.1607 7.74337 3.13655 7.62207C3.11239 7.50076 3.12477 7.37502 3.17211 7.26076C3.21946 7.14649 3.29964 7.04884 3.40252 6.98017C3.50539 6.91151 3.62632 6.8749 3.75 6.875H16.25C16.3737 6.8749 16.4946 6.91151 16.5975 6.98017C16.7004 7.04884 16.7805 7.14649 16.8279 7.26076C16.8752 7.37502 16.8876 7.50076 16.8635 7.62207C16.8393 7.74337 16.7797 7.85478 16.6922 7.94219Z" fill="#BBBBBB"/>
</svg>
