<svg width="20" height="18" viewBox="0 0 20 18" fill="none" xmlns="http://www.w3.org/2000/svg">
<path id="Vector" d="M19.75 16.5C19.75 16.6989 19.671 16.8897 19.5303 17.0303C19.3897 17.171 19.1989 17.25 19 17.25H1C0.801088 17.25 0.610322 17.171 0.46967 17.0303C0.329018 16.8897 0.25 16.6989 0.25 16.5C0.25 16.3011 0.329018 16.1103 0.46967 15.9697C0.610322 15.829 0.801088 15.75 1 15.75H1.75V9.75C1.75 9.55109 1.82902 9.36032 1.96967 9.21967C2.11032 9.07902 2.30109 9 2.5 9H4.75C4.94891 9 5.13968 9.07902 5.28033 9.21967C5.42098 9.36032 5.5 9.55109 5.5 9.75V15.75H7V5.25C7 5.05109 7.07902 4.86032 7.21967 4.71967C7.36032 4.57902 7.55109 4.5 7.75 4.5H10.75C10.9489 4.5 11.1397 4.57902 11.2803 4.71967C11.421 4.86032 11.5 5.05109 11.5 5.25V15.75H13V0.75C13 0.551088 13.079 0.360322 13.2197 0.21967C13.3603 0.0790178 13.5511 0 13.75 0H17.5C17.6989 0 17.8897 0.0790178 18.0303 0.21967C18.171 0.360322 18.25 0.551088 18.25 0.75V15.75H19C19.1989 15.75 19.3897 15.829 19.5303 15.9697C19.671 16.1103 19.75 16.3011 19.75 16.5Z" fill="#F4F4F4" style="fill:#F4F4F4;fill:color(display-p3 0.9569 0.9569 0.9569);fill-opacity:1;"/>
</svg>
