<svg width="32" height="33" viewBox="0 0 32 33" fill="none" xmlns="http://www.w3.org/2000/svg">
<g id="ClipboardText">
<path id="Vector" opacity="0.2" d="M26 6.5V27.5C26 27.7652 25.8946 28.0196 25.7071 28.2071C25.5196 28.3946 25.2652 28.5 25 28.5H7C6.73478 28.5 6.48043 28.3946 6.29289 28.2071C6.10536 28.0196 6 27.7652 6 27.5V6.5C6 6.23478 6.10536 5.98043 6.29289 5.79289C6.48043 5.60536 6.73478 5.5 7 5.5H12C11.3495 6.36476 10.9985 7.4179 11 8.5V9.5H21V8.5C21.0015 7.4179 20.6505 6.36476 20 5.5H25C25.2652 5.5 25.5196 5.60536 25.7071 5.79289C25.8946 5.98043 26 6.23478 26 6.5Z" fill="#C2C2C2"/>
<path id="Vector_2" d="M21 19.4998C21 19.765 20.8946 20.0194 20.7071 20.2069C20.5196 20.3945 20.2652 20.4998 20 20.4998H12C11.7348 20.4998 11.4804 20.3945 11.2929 20.2069C11.1054 20.0194 11 19.765 11 19.4998C11 19.2346 11.1054 18.9802 11.2929 18.7927C11.4804 18.6052 11.7348 18.4998 12 18.4998H20C20.2652 18.4998 20.5196 18.6052 20.7071 18.7927C20.8946 18.9802 21 19.2346 21 19.4998ZM20 14.4998H12C11.7348 14.4998 11.4804 14.6052 11.2929 14.7927C11.1054 14.9802 11 15.2346 11 15.4998C11 15.765 11.1054 16.0194 11.2929 16.2069C11.4804 16.3945 11.7348 16.4998 12 16.4998H20C20.2652 16.4998 20.5196 16.3945 20.7071 16.2069C20.8946 16.0194 21 15.765 21 15.4998C21 15.2346 20.8946 14.9802 20.7071 14.7927C20.5196 14.6052 20.2652 14.4998 20 14.4998ZM27 6.49982V27.4998C27 28.0303 26.7893 28.539 26.4142 28.914C26.0391 29.2891 25.5304 29.4998 25 29.4998H7C6.46957 29.4998 5.96086 29.2891 5.58579 28.914C5.21071 28.539 5 28.0303 5 27.4998V6.49982C5 5.96939 5.21071 5.46068 5.58579 5.08561C5.96086 4.71053 6.46957 4.49982 7 4.49982H11.5325C12.0944 3.87072 12.7828 3.36739 13.5527 3.02277C14.3225 2.67814 15.1565 2.5 16 2.5C16.8435 2.5 17.6775 2.67814 18.4473 3.02277C19.2172 3.36739 19.9056 3.87072 20.4675 4.49982H25C25.5304 4.49982 26.0391 4.71053 26.4142 5.08561C26.7893 5.46068 27 5.96939 27 6.49982ZM12 8.49982H20C20 7.43895 19.5786 6.42154 18.8284 5.67139C18.0783 4.92125 17.0609 4.49982 16 4.49982C14.9391 4.49982 13.9217 4.92125 13.1716 5.67139C12.4214 6.42154 12 7.43895 12 8.49982ZM25 6.49982H21.6562C21.8837 7.14209 22 7.81846 22 8.49982V9.49982C22 9.76504 21.8946 10.0194 21.7071 10.2069C21.5196 10.3945 21.2652 10.4998 21 10.4998H11C10.7348 10.4998 10.4804 10.3945 10.2929 10.2069C10.1054 10.0194 10 9.76504 10 9.49982V8.49982C10 7.81846 10.1163 7.14209 10.3438 6.49982H7V27.4998H25V6.49982Z" fill="#C2C2C2"/>
</g>
</svg>
