<svg width="16" height="16" viewBox="0 0 16 16" fill="none" xmlns="http://www.w3.org/2000/svg">
<path d="M14.5008 8.54124C14.3946 9.77622 13.9379 10.9552 13.1844 11.9394C12.4308 12.9236 11.4119 13.6722 10.2474 14.097C9.08295 14.5218 7.82137 14.6052 6.61111 14.3373C5.40085 14.0695 4.29226 13.4615 3.41577 12.585C2.53928 11.7086 1.93135 10.6 1.66351 9.38971C1.39566 8.17945 1.47905 6.91786 1.90385 5.75338C2.32865 4.5889 3.07719 3.56997 4.06141 2.81646C5.04564 2.06295 6.22459 1.60622 7.45958 1.49999C7.52524 1.49457 7.59132 1.50214 7.65406 1.52226C7.71679 1.54239 7.77495 1.57467 7.82521 1.61727C7.87547 1.65987 7.91685 1.71195 7.94698 1.77054C7.97711 1.82913 7.99541 1.89308 8.00083 1.95874C8.00624 2.0244 7.99867 2.09049 7.97855 2.15322C7.95843 2.21596 7.92615 2.27412 7.88355 2.32437C7.84095 2.37463 7.78887 2.41601 7.73028 2.44614C7.67169 2.47628 7.60774 2.49457 7.54208 2.49999C6.49682 2.5898 5.49895 2.97628 4.66589 3.61397C3.83283 4.25165 3.19924 5.11401 2.83965 6.09957C2.48007 7.08513 2.40946 8.15289 2.63613 9.17722C2.8628 10.2016 3.37732 11.1398 4.11915 11.8817C4.86098 12.6235 5.79926 13.138 6.82359 13.3647C7.84792 13.5914 8.91569 13.5207 9.90125 13.1612C10.8868 12.8016 11.7492 12.168 12.3868 11.3349C13.0245 10.5019 13.411 9.504 13.5008 8.45874C13.5118 8.32613 13.5749 8.2033 13.6764 8.11727C13.7779 8.03124 13.9095 7.98905 14.0421 7.99999C14.1747 8.01093 14.2975 8.0741 14.3835 8.1756C14.4696 8.27711 14.5118 8.40863 14.5008 8.54124ZM7.50083 4.49999V7.99999C7.50083 8.1326 7.5535 8.25978 7.64727 8.35354C7.74104 8.44731 7.86822 8.49999 8.00083 8.49999H11.5008C11.6334 8.49999 11.7606 8.44731 11.8544 8.35354C11.9481 8.25978 12.0008 8.1326 12.0008 7.99999C12.0008 7.86738 11.9481 7.7402 11.8544 7.64644C11.7606 7.55267 11.6334 7.49999 11.5008 7.49999H8.50083V4.49999C8.50083 4.36738 8.44815 4.2402 8.35438 4.14644C8.26061 4.05267 8.13343 3.99999 8.00083 3.99999C7.86822 3.99999 7.74104 4.05267 7.64727 4.14644C7.5535 4.2402 7.50083 4.36738 7.50083 4.49999ZM10.0008 2.99999C10.1492 2.99999 10.2942 2.956 10.4175 2.87359C10.5408 2.79118 10.637 2.67405 10.6937 2.537C10.7505 2.39996 10.7654 2.24916 10.7364 2.10367C10.7075 1.95819 10.636 1.82455 10.5312 1.71966C10.4263 1.61477 10.2926 1.54334 10.1471 1.5144C10.0017 1.48546 9.85086 1.50031 9.71381 1.55708C9.57677 1.61385 9.45964 1.70998 9.37722 1.83331C9.29481 1.95665 9.25083 2.10165 9.25083 2.24999C9.25083 2.4489 9.32984 2.63967 9.4705 2.78032C9.61115 2.92097 9.80191 2.99999 10.0008 2.99999ZM12.2508 4.49999C12.3992 4.49999 12.5442 4.456 12.6675 4.37359C12.7908 4.29118 12.887 4.17405 12.9437 4.037C13.0005 3.89996 13.0154 3.74916 12.9864 3.60367C12.9575 3.45819 12.886 3.32455 12.7812 3.21966C12.6763 3.11477 12.5426 3.04334 12.3971 3.0144C12.2517 2.98546 12.1009 3.00031 11.9638 3.05708C11.8268 3.11385 11.7096 3.20998 11.6272 3.33331C11.5448 3.45665 11.5008 3.60165 11.5008 3.74999C11.5008 3.9489 11.5798 4.13967 11.7205 4.28032C11.8611 4.42097 12.0519 4.49999 12.2508 4.49999ZM13.7508 6.74999C13.8992 6.74999 14.0442 6.706 14.1675 6.62359C14.2908 6.54118 14.387 6.42405 14.4437 6.287C14.5005 6.14996 14.5154 5.99916 14.4864 5.85367C14.4575 5.70819 14.386 5.57455 14.2812 5.46966C14.1763 5.36477 14.0426 5.29334 13.8971 5.2644C13.7517 5.23546 13.6009 5.25031 13.4638 5.30708C13.3268 5.36385 13.2096 5.45998 13.1272 5.58331C13.0448 5.70665 13.0008 5.85165 13.0008 5.99999C13.0008 6.1989 13.0798 6.38967 13.2205 6.53032C13.3611 6.67097 13.5519 6.74999 13.7508 6.74999Z" fill="#C2C2C2" style="fill:#C2C2C2;fill:color(display-p3 0.7600 0.7600 0.7600);fill-opacity:1;"/>
</svg>
