<svg width="16" height="16" viewBox="0 0 16 16" fill="none" xmlns="http://www.w3.org/2000/svg">
<path d="M12.8537 12.1465C12.9001 12.193 12.937 12.2481 12.9621 12.3088C12.9873 12.3695 13.0002 12.4346 13.0002 12.5003C13.0002 12.566 12.9873 12.631 12.9621 12.6917C12.937 12.7524 12.9001 12.8076 12.8537 12.854C12.8072 12.9005 12.7521 12.9373 12.6914 12.9625C12.6307 12.9876 12.5656 13.0006 12.4999 13.0006C12.4342 13.0006 12.3692 12.9876 12.3085 12.9625C12.2478 12.9373 12.1926 12.9005 12.1462 12.854L7.99991 8.70715L3.85366 12.854C3.75984 12.9478 3.63259 13.0006 3.49991 13.0006C3.36723 13.0006 3.23998 12.9478 3.14616 12.854C3.05234 12.7602 2.99963 12.633 2.99963 12.5003C2.99963 12.3676 3.05234 12.2403 3.14616 12.1465L7.29304 8.00028L3.14616 3.85403C3.05234 3.76021 2.99963 3.63296 2.99963 3.50028C2.99963 3.3676 3.05234 3.24035 3.14616 3.14653C3.23998 3.05271 3.36723 3 3.49991 3C3.63259 3 3.75984 3.05271 3.85366 3.14653L7.99991 7.2934L12.1462 3.14653C12.24 3.05271 12.3672 3 12.4999 3C12.6326 3 12.7598 3.05271 12.8537 3.14653C12.9475 3.24035 13.0002 3.3676 13.0002 3.50028C13.0002 3.63296 12.9475 3.76021 12.8537 3.85403L8.70679 8.00028L12.8537 12.1465Z" fill="white"/>
</svg>
