<svg width="12" height="12" viewBox="0 0 12 12" fill="none" xmlns="http://www.w3.org/2000/svg">
<rect width="12" height="12" rx="6" fill="#5D5D5D" fill-opacity="0.5" style="fill:#5D5D5D;fill:color(display-p3 0.3650 0.3650 0.3650);fill-opacity:0.5;"/>
<rect width="12" height="12" rx="6" fill="black" style="fill:black;fill:black;fill-opacity:1;"/>
<path d="M6.49525 6.01503C6.49525 7.12787 5.60087 8.03 4.49766 8.03C3.39445 8.03 2.5 7.12767 2.5 6.01503C2.5 4.9024 3.39438 4 4.49766 4C5.60094 4 6.49525 4.9022 6.49525 6.01503Z" fill="white" style="fill:white;fill:white;fill-opacity:1;"/>
<path d="M8.68712 6.01492C8.68712 7.06241 8.23993 7.91192 7.68829 7.91192C7.13664 7.91192 6.68945 7.06241 6.68945 6.01492C6.68945 4.96742 7.13658 4.11792 7.68822 4.11792C8.23986 4.11792 8.68705 4.96715 8.68705 6.01492" fill="white" style="fill:white;fill:white;fill-opacity:1;"/>
<path d="M9.58337 6.01509C9.58337 6.95339 9.42612 7.7145 9.23208 7.7145C9.03804 7.7145 8.88086 6.95359 8.88086 6.01509C8.88086 5.07658 9.03811 4.31567 9.23208 4.31567C9.42605 4.31567 9.58337 5.07651 9.58337 6.01509Z" fill="white" style="fill:white;fill:white;fill-opacity:1;"/>
</svg>
