<svg width="37" height="37" viewBox="0 0 37 37" fill="none" xmlns="http://www.w3.org/2000/svg">
<rect x="0.5" y="0.509888" width="36" height="36" rx="18" fill="white" style="fill:white;fill:white;fill-opacity:1;"/>
<g clip-path="url(#clip0_19551_155965)">
<path d="M25.4308 11.9729C24.1561 11.388 22.7892 10.9571 21.3599 10.7103C21.3339 10.7055 21.3079 10.7174 21.2945 10.7412C21.1187 11.0539 20.9239 11.4618 20.7876 11.7824C19.2503 11.5523 17.721 11.5523 16.2153 11.7824C16.0789 11.4547 15.8771 11.0539 15.7005 10.7412C15.6871 10.7182 15.6611 10.7063 15.635 10.7103C14.2066 10.9563 12.8396 11.3872 11.5641 11.9729C11.5531 11.9777 11.5436 11.9856 11.5373 11.9959C8.94449 15.8696 8.23421 19.648 8.58265 23.3796C8.58423 23.3978 8.59447 23.4153 8.60867 23.4264C10.3193 24.6827 11.9764 25.4453 13.6027 25.9508C13.6288 25.9588 13.6563 25.9493 13.6729 25.9278C14.0576 25.4025 14.4005 24.8485 14.6946 24.266C14.7119 24.2319 14.6954 24.1914 14.6599 24.1779C14.1159 23.9716 13.598 23.72 13.0998 23.4343C13.0604 23.4113 13.0572 23.3549 13.0935 23.3279C13.1983 23.2494 13.3032 23.1676 13.4033 23.0851C13.4214 23.07 13.4466 23.0668 13.4679 23.0764C16.7411 24.5708 20.2846 24.5708 23.5191 23.0764C23.5404 23.0661 23.5657 23.0692 23.5846 23.0843C23.6847 23.1668 23.7895 23.2494 23.8952 23.3279C23.9314 23.3549 23.9291 23.4113 23.8897 23.4343C23.3914 23.7256 22.8735 23.9716 22.3288 24.1771C22.2933 24.1906 22.2775 24.2319 22.2949 24.266C22.5952 24.8477 22.9381 25.4017 23.3157 25.927C23.3315 25.9493 23.3599 25.9588 23.3859 25.9508C25.0201 25.4453 26.6772 24.6827 28.3879 23.4264C28.4028 23.4153 28.4123 23.3986 28.4139 23.3803C28.8309 19.0662 27.7154 15.3188 25.4568 11.9967C25.4513 11.9856 25.4419 11.9777 25.4308 11.9729ZM15.1834 21.1074C14.1979 21.1074 13.3859 20.2027 13.3859 19.0916C13.3859 17.9806 14.1822 17.0759 15.1834 17.0759C16.1924 17.0759 16.9965 17.9885 16.9807 19.0916C16.9807 20.2027 16.1845 21.1074 15.1834 21.1074ZM21.829 21.1074C20.8435 21.1074 20.0316 20.2027 20.0316 19.0916C20.0316 17.9806 20.8278 17.0759 21.829 17.0759C22.838 17.0759 23.6421 17.9885 23.6264 19.0916C23.6264 20.2027 22.838 21.1074 21.829 21.1074Z" fill="#5865F2" style="fill:#5865F2;fill:color(display-p3 0.3451 0.3961 0.9490);fill-opacity:1;"/>
</g>
<defs>
<clipPath id="clip0_19551_155965">
<rect width="20" height="20" fill="white" style="fill:white;fill:white;fill-opacity:1;" transform="translate(8.5 8.50989)"/>
</clipPath>
</defs>
</svg>
