<svg width="12" height="12" viewBox="0 0 12 12" fill="none" xmlns="http://www.w3.org/2000/svg">
<path d="M9.94857 4.69881L6.19857 8.44881C6.14584 8.50148 6.07435 8.53107 5.99982 8.53107C5.92529 8.53107 5.85381 8.50148 5.80107 8.44881L2.05107 4.69881C2.00139 4.6455 1.97434 4.57498 1.97563 4.50212C1.97692 4.42926 2.00643 4.35974 2.05796 4.30821C2.10949 4.25668 2.17901 4.22716 2.25187 4.22587C2.32474 4.22459 2.39525 4.25163 2.44857 4.30131L5.99982 7.8521L9.55107 4.30131C9.60439 4.25163 9.6749 4.22459 9.74777 4.22587C9.82063 4.22716 9.89015 4.25668 9.94168 4.30821C9.99321 4.35974 10.0227 4.42926 10.024 4.50212C10.0253 4.57498 9.99825 4.6455 9.94857 4.69881Z" fill="#CCCCCC"/>
</svg>
