<svg width="16" height="14" viewBox="0 0 16 14" fill="none" xmlns="http://www.w3.org/2000/svg">
<g id="Vector">
<path d="M2.61979 10.255L3.33479 9.545C2.5519 8.84206 1.93677 7.97234 1.53479 7C2.54979 4.465 5.34979 2.5 7.99979 2.5C8.68173 2.509 9.3575 2.63064 9.99979 2.86L10.7748 2.08C9.89611 1.70866 8.95363 1.51167 7.99979 1.5C6.37005 1.56129 4.79398 2.09878 3.46639 3.04604C2.1388 3.99331 1.11787 5.30882 0.529787 6.83C0.490071 6.93985 0.490071 7.06015 0.529787 7.17C0.973911 8.34851 1.69 9.40551 2.61979 10.255Z" fill="#F4F4F4"/>
<path d="M5.99979 6.865C6.03456 6.38586 6.24063 5.93524 6.58033 5.59554C6.92003 5.25584 7.37064 5.04977 7.84979 5.015L8.75479 4.105C8.24767 3.97147 7.71441 3.97321 7.20817 4.11003C6.70193 4.24685 6.24039 4.51399 5.86958 4.8848C5.49878 5.25561 5.23164 5.71714 5.09482 6.22338C4.95799 6.72962 4.95626 7.26288 5.08979 7.77L5.99979 6.865Z" fill="#F4F4F4"/>
<path d="M15.4698 6.83C14.8965 5.3366 13.8988 4.04351 12.5998 3.11L14.9998 0.705L14.2948 0L0.999787 13.295L1.70479 14L4.25479 11.45C5.39173 12.117 6.68181 12.4787 7.99979 12.5C9.62953 12.4387 11.2056 11.9012 12.5332 10.954C13.8608 10.0067 14.8817 8.69118 15.4698 7.17C15.5095 7.06015 15.5095 6.93985 15.4698 6.83ZM9.99979 7C9.99768 7.35005 9.90374 7.69342 9.72734 7.99578C9.55094 8.29815 9.29828 8.54892 8.99459 8.72303C8.69091 8.89714 8.34684 8.9885 7.99678 8.98797C7.64673 8.98744 7.30294 8.89503 6.99979 8.72L9.71979 6C9.89954 6.30287 9.99613 6.64783 9.99979 7ZM7.99979 11.5C6.95082 11.4817 5.92173 11.2107 4.99979 10.71L6.26979 9.44C6.84746 9.84082 7.54756 10.026 8.24785 9.96323C8.94815 9.90046 9.60415 9.59371 10.1013 9.09654C10.5985 8.59937 10.9052 7.94336 10.968 7.24307C11.0308 6.54277 10.8456 5.84267 10.4448 5.265L11.8798 3.83C13.0271 4.61749 13.9243 5.71771 14.4648 7C13.4498 9.535 10.6498 11.5 7.99979 11.5Z" fill="#F4F4F4"/>
</g>
</svg>
