<svg width="20" height="20" viewBox="0 0 20 20" fill="none" xmlns="http://www.w3.org/2000/svg">
<path d="M18.0156 3.86955C17.9194 3.64729 17.76 3.45822 17.5572 3.32584C17.3544 3.19347 17.1172 3.12363 16.875 3.12502H3.12499C2.88307 3.1255 2.64647 3.19617 2.44392 3.32846C2.24137 3.46076 2.08156 3.64899 1.98388 3.87032C1.88619 4.09165 1.85484 4.33658 1.89362 4.57538C1.9324 4.81418 2.03964 5.03659 2.20234 5.21565L2.20859 5.22268L7.49999 10.8727V16.875C7.49994 17.1013 7.56129 17.3233 7.67749 17.5174C7.79369 17.7115 7.9604 17.8704 8.15983 17.9772C8.35926 18.084 8.58394 18.1347 8.80991 18.1239C9.03588 18.113 9.25468 18.0411 9.44296 17.9156L11.943 16.2485C12.1143 16.1343 12.2549 15.9796 12.352 15.798C12.4492 15.6165 12.5 15.4137 12.5 15.2078V10.8727L17.7922 5.22268L17.7984 5.21565C17.9628 5.03741 18.0711 4.8147 18.1098 4.57531C18.1484 4.33592 18.1156 4.09045 18.0156 3.86955ZM11.5891 10.0219C11.3719 10.252 11.2507 10.5563 11.25 10.8727V15.2078L8.74999 16.875V10.8727C8.75072 10.5551 8.62997 10.2494 8.41249 10.018L3.12499 4.37502H16.875L11.5891 10.0219Z" fill="#F5F5F5"/>
</svg>
