<svg width="16" height="16" viewBox="0 0 16 16" fill="none" xmlns="http://www.w3.org/2000/svg">
<path d="M13.5 4.5H8.16625L6.4325 3.2C6.25975 3.07043 6.04969 3.00027 5.83375 3H2.5C2.23478 3 1.98043 3.10536 1.79289 3.29289C1.60536 3.48043 1.5 3.73478 1.5 4V12.5C1.5 12.7652 1.60536 13.0196 1.79289 13.2071C1.98043 13.3946 2.23478 13.5 2.5 13.5H13.5C13.7652 13.5 14.0196 13.3946 14.2071 13.2071C14.3946 13.0196 14.5 12.7652 14.5 12.5V5.5C14.5 5.23478 14.3946 4.98043 14.2071 4.79289C14.0196 4.60536 13.7652 4.5 13.5 4.5ZM2.5 4H5.83375L7.16687 5L5.83313 6H2.5V4Z" fill="#BBBBBB"/>
</svg>
