<svg width="32" height="33" viewBox="0 0 32 33" fill="none" xmlns="http://www.w3.org/2000/svg">
<g id="FolderSimpleDashed">
<path id="Vector" d="M3 10.5V8.5C3 7.96957 3.21071 7.46086 3.58579 7.08579C3.96086 6.71071 4.46957 6.5 5 6.5H11.6663C12.0988 6.50107 12.5196 6.64132 12.8663 6.9L16.6 9.7C16.7051 9.77879 16.7936 9.87751 16.8605 9.99051C16.9274 10.1035 16.9714 10.2286 16.99 10.3586C17.0085 10.4886 17.0013 10.621 16.9687 10.7482C16.9361 10.8754 16.8788 10.9949 16.8 11.1C16.7212 11.2051 16.6225 11.2936 16.5095 11.3605C16.3965 11.4274 16.2714 11.4714 16.1414 11.4899C16.0114 11.5085 15.879 11.5013 15.7518 11.4687C15.6246 11.4361 15.5051 11.3788 15.4 11.3L11.6663 8.5H5V10.5C5 10.7652 4.89464 11.0196 4.70711 11.2071C4.51957 11.3946 4.26522 11.5 4 11.5C3.73478 11.5 3.48043 11.3946 3.29289 11.2071C3.10536 11.0196 3 10.7652 3 10.5ZM11 25.5H5V24.5C5 24.2348 4.89464 23.9804 4.70711 23.7929C4.51957 23.6054 4.26522 23.5 4 23.5C3.73478 23.5 3.48043 23.6054 3.29289 23.7929C3.10536 23.9804 3 24.2348 3 24.5V25.5775C3.00066 26.0872 3.20342 26.5758 3.56382 26.9362C3.92421 27.2966 4.41282 27.4993 4.9225 27.5H11C11.2652 27.5 11.5196 27.3946 11.7071 27.2071C11.8946 27.0196 12 26.7652 12 26.5C12 26.2348 11.8946 25.9804 11.7071 25.7929C11.5196 25.6054 11.2652 25.5 11 25.5ZM20 25.5H16C15.7348 25.5 15.4804 25.6054 15.2929 25.7929C15.1054 25.9804 15 26.2348 15 26.5C15 26.7652 15.1054 27.0196 15.2929 27.2071C15.4804 27.3946 15.7348 27.5 16 27.5H20C20.2652 27.5 20.5196 27.3946 20.7071 27.2071C20.8946 27.0196 21 26.7652 21 26.5C21 26.2348 20.8946 25.9804 20.7071 25.7929C20.5196 25.6054 20.2652 25.5 20 25.5ZM28 18.5C27.7348 18.5 27.4804 18.6054 27.2929 18.7929C27.1054 18.9804 27 19.2348 27 19.5V25.5H25C24.7348 25.5 24.4804 25.6054 24.2929 25.7929C24.1054 25.9804 24 26.2348 24 26.5C24 26.7652 24.1054 27.0196 24.2929 27.2071C24.4804 27.3946 24.7348 27.5 25 27.5H27.1112C27.612 27.4993 28.092 27.3001 28.4461 26.9461C28.8001 26.592 28.9993 26.112 29 25.6112V19.5C29 19.2348 28.8946 18.9804 28.7071 18.7929C28.5196 18.6054 28.2652 18.5 28 18.5ZM27 9.5H21C20.7348 9.5 20.4804 9.60536 20.2929 9.79289C20.1054 9.98043 20 10.2348 20 10.5C20 10.7652 20.1054 11.0196 20.2929 11.2071C20.4804 11.3946 20.7348 11.5 21 11.5H27V14.5C27 14.7652 27.1054 15.0196 27.2929 15.2071C27.4804 15.3946 27.7348 15.5 28 15.5C28.2652 15.5 28.5196 15.3946 28.7071 15.2071C28.8946 15.0196 29 14.7652 29 14.5V11.5C29 10.9696 28.7893 10.4609 28.4142 10.0858C28.0391 9.71071 27.5304 9.5 27 9.5ZM4 20.5C4.26522 20.5 4.51957 20.3946 4.70711 20.2071C4.89464 20.0196 5 19.7652 5 19.5V15.5C5 15.2348 4.89464 14.9804 4.70711 14.7929C4.51957 14.6054 4.26522 14.5 4 14.5C3.73478 14.5 3.48043 14.6054 3.29289 14.7929C3.10536 14.9804 3 15.2348 3 15.5V19.5C3 19.7652 3.10536 20.0196 3.29289 20.2071C3.48043 20.3946 3.73478 20.5 4 20.5Z" fill="#F4F4F4"/>
</g>
</svg>
