<svg width="16" height="16" viewBox="0 0 16 16" fill="none" xmlns="http://www.w3.org/2000/svg">
<path d="M8 13C8 13.1326 7.94732 13.2598 7.85355 13.3536C7.75979 13.4473 7.63261 13.5 7.5 13.5H2.5C2.23478 13.5 1.98043 13.3946 1.79289 13.2071C1.60536 13.0196 1.5 12.7652 1.5 12.5V4C1.5 3.73478 1.60536 3.48043 1.79289 3.29289C1.98043 3.10536 2.23478 3 2.5 3H5.83313C6.04941 3.00054 6.25978 3.07066 6.43313 3.2L8.16688 4.5H13.5C13.7652 4.5 14.0196 4.60536 14.2071 4.79289C14.3946 4.98043 14.5 5.23478 14.5 5.5V7.5C14.5 7.63261 14.4473 7.75979 14.3536 7.85355C14.2598 7.94732 14.1326 8 14 8C13.8674 8 13.7402 7.94732 13.6464 7.85355C13.5527 7.75979 13.5 7.63261 13.5 7.5V5.5H8.16688C7.95059 5.49946 7.74022 5.42934 7.56688 5.3L5.83313 4H2.5V12.5H7.5C7.63261 12.5 7.75979 12.5527 7.85355 12.6464C7.94732 12.7402 8 12.8674 8 13ZM14.9769 9.95C14.9468 9.85511 14.8891 9.77135 14.8112 9.70944C14.7333 9.64753 14.6386 9.6103 14.5394 9.6025L12.6744 9.45813L11.96 7.80188C11.9214 7.71205 11.8573 7.63552 11.7757 7.58174C11.694 7.52796 11.5984 7.4993 11.5006 7.4993C11.4029 7.4993 11.3072 7.52796 11.2256 7.58174C11.1439 7.63552 11.0799 7.71205 11.0413 7.80188L10.3269 9.45813L8.46188 9.6025C8.36262 9.61032 8.26797 9.6476 8.19003 9.70955C8.11209 9.77151 8.05443 9.85531 8.02442 9.95024C7.99441 10.0452 7.99342 10.1469 8.02159 10.2424C8.04975 10.3379 8.10578 10.4228 8.1825 10.4863L9.58938 11.6481L9.16125 13.38C9.13775 13.4755 9.14293 13.5758 9.17613 13.6684C9.20934 13.7609 9.26911 13.8416 9.34796 13.9004C9.4268 13.9592 9.52123 13.9934 9.61942 13.9988C9.71761 14.0041 9.81521 13.9804 9.9 13.9306L11.5 12.9888L13.1006 13.9306C13.1854 13.9804 13.283 14.0041 13.3812 13.9988C13.4794 13.9934 13.5738 13.9592 13.6527 13.9004C13.7315 13.8416 13.7913 13.7609 13.8245 13.6684C13.8577 13.5758 13.8629 13.4755 13.8394 13.38L13.4113 11.6481L14.8181 10.4863C14.895 10.4229 14.9512 10.3379 14.9795 10.2424C15.0078 10.1468 15.0069 10.045 14.9769 9.95Z" fill="#9E9E9E" style="fill:#9E9E9E;fill:color(display-p3 0.6208 0.6208 0.6208);fill-opacity:1;"/>
</svg>
