<svg width="20" height="20" viewBox="0 0 20 20" fill="none" xmlns="http://www.w3.org/2000/svg">
<path d="M6.25 9.375H13.75C13.9158 9.375 14.0747 9.30915 14.1919 9.19194C14.3092 9.07473 14.375 8.91576 14.375 8.75V5C14.375 4.83424 14.3092 4.67527 14.1919 4.55806C14.0747 4.44085 13.9158 4.375 13.75 4.375H6.25C6.08424 4.375 5.92527 4.44085 5.80806 4.55806C5.69085 4.67527 5.625 4.83424 5.625 5V8.75C5.625 8.91576 5.69085 9.07473 5.80806 9.19194C5.92527 9.30915 6.08424 9.375 6.25 9.375ZM6.875 5.625H13.125V8.125H6.875V5.625ZM15.625 1.875H4.375C4.04348 1.875 3.72554 2.0067 3.49112 2.24112C3.2567 2.47554 3.125 2.79348 3.125 3.125V16.875C3.125 17.2065 3.2567 17.5245 3.49112 17.7589C3.72554 17.9933 4.04348 18.125 4.375 18.125H15.625C15.9565 18.125 16.2745 17.9933 16.5089 17.7589C16.7433 17.5245 16.875 17.2065 16.875 16.875V3.125C16.875 2.79348 16.7433 2.47554 16.5089 2.24112C16.2745 2.0067 15.9565 1.875 15.625 1.875ZM15.625 16.875H4.375V3.125H15.625V16.875ZM7.8125 11.5625C7.8125 11.7479 7.75752 11.9292 7.6545 12.0833C7.55149 12.2375 7.40507 12.3577 7.23377 12.4286C7.06246 12.4996 6.87396 12.5182 6.6921 12.482C6.51025 12.4458 6.3432 12.3565 6.21209 12.2254C6.08098 12.0943 5.99169 11.9273 5.95551 11.7454C5.91934 11.5635 5.93791 11.375 6.00886 11.2037C6.07982 11.0324 6.19998 10.886 6.35415 10.783C6.50832 10.68 6.68958 10.625 6.875 10.625C7.12364 10.625 7.3621 10.7238 7.53791 10.8996C7.71373 11.0754 7.8125 11.3139 7.8125 11.5625ZM10.9375 11.5625C10.9375 11.7479 10.8825 11.9292 10.7795 12.0833C10.6765 12.2375 10.5301 12.3577 10.3588 12.4286C10.1875 12.4996 9.99896 12.5182 9.8171 12.482C9.63525 12.4458 9.4682 12.3565 9.33709 12.2254C9.20598 12.0943 9.11669 11.9273 9.08051 11.7454C9.04434 11.5635 9.06291 11.375 9.13386 11.2037C9.20482 11.0324 9.32498 10.886 9.47915 10.783C9.63332 10.68 9.81458 10.625 10 10.625C10.2486 10.625 10.4871 10.7238 10.6629 10.8996C10.8387 11.0754 10.9375 11.3139 10.9375 11.5625ZM14.0625 11.5625C14.0625 11.7479 14.0075 11.9292 13.9045 12.0833C13.8015 12.2375 13.6551 12.3577 13.4838 12.4286C13.3125 12.4996 13.124 12.5182 12.9421 12.482C12.7602 12.4458 12.5932 12.3565 12.4621 12.2254C12.331 12.0943 12.2417 11.9273 12.2055 11.7454C12.1693 11.5635 12.1879 11.375 12.2589 11.2037C12.3298 11.0324 12.45 10.886 12.6042 10.783C12.7583 10.68 12.9396 10.625 13.125 10.625C13.3736 10.625 13.6121 10.7238 13.7879 10.8996C13.9637 11.0754 14.0625 11.3139 14.0625 11.5625ZM7.8125 14.6875C7.8125 14.8729 7.75752 15.0542 7.6545 15.2083C7.55149 15.3625 7.40507 15.4827 7.23377 15.5536C7.06246 15.6246 6.87396 15.6432 6.6921 15.607C6.51025 15.5708 6.3432 15.4815 6.21209 15.3504C6.08098 15.2193 5.99169 15.0523 5.95551 14.8704C5.91934 14.6885 5.93791 14.5 6.00886 14.3287C6.07982 14.1574 6.19998 14.011 6.35415 13.908C6.50832 13.805 6.68958 13.75 6.875 13.75C7.12364 13.75 7.3621 13.8488 7.53791 14.0246C7.71373 14.2004 7.8125 14.4389 7.8125 14.6875ZM10.9375 14.6875C10.9375 14.8729 10.8825 15.0542 10.7795 15.2083C10.6765 15.3625 10.5301 15.4827 10.3588 15.5536C10.1875 15.6246 9.99896 15.6432 9.8171 15.607C9.63525 15.5708 9.4682 15.4815 9.33709 15.3504C9.20598 15.2193 9.11669 15.0523 9.08051 14.8704C9.04434 14.6885 9.06291 14.5 9.13386 14.3287C9.20482 14.1574 9.32498 14.011 9.47915 13.908C9.63332 13.805 9.81458 13.75 10 13.75C10.2486 13.75 10.4871 13.8488 10.6629 14.0246C10.8387 14.2004 10.9375 14.4389 10.9375 14.6875ZM14.0625 14.6875C14.0625 14.8729 14.0075 15.0542 13.9045 15.2083C13.8015 15.3625 13.6551 15.4827 13.4838 15.5536C13.3125 15.6246 13.124 15.6432 12.9421 15.607C12.7602 15.5708 12.5932 15.4815 12.4621 15.3504C12.331 15.2193 12.2417 15.0523 12.2055 14.8704C12.1693 14.6885 12.1879 14.5 12.2589 14.3287C12.3298 14.1574 12.45 14.011 12.6042 13.908C12.7583 13.805 12.9396 13.75 13.125 13.75C13.3736 13.75 13.6121 13.8488 13.7879 14.0246C13.9637 14.2004 14.0625 14.4389 14.0625 14.6875Z" fill="#CCCCCC"/>
</svg>
