<svg width="24" height="24" viewBox="0 0 24 24" fill="none" xmlns="http://www.w3.org/2000/svg">
<g id="Gift">
<path id="Vector" d="M20.25 6.75033H16.9613C16.9978 6.71939 17.0353 6.68939 17.0709 6.65658C17.3557 6.40362 17.5851 6.09464 17.745 5.74894C17.9049 5.40325 17.9917 5.02829 18 4.64752C18.0123 4.23096 17.9394 3.81629 17.7856 3.42895C17.6319 3.0416 17.4006 2.68977 17.106 2.39505C16.8113 2.10033 16.4596 1.86893 16.0723 1.71508C15.685 1.56122 15.2703 1.48814 14.8538 1.50033C14.4728 1.50854 14.0977 1.59529 13.7518 1.75515C13.406 1.91502 13.0968 2.14455 12.8438 2.42939C12.4936 2.83523 12.2089 3.29325 12 3.78689C11.7911 3.29325 11.5064 2.83523 11.1562 2.42939C10.9032 2.14455 10.594 1.91502 10.2482 1.75515C9.90232 1.59529 9.52718 1.50854 9.14625 1.50033C8.72969 1.48814 8.31503 1.56122 7.92774 1.71508C7.54044 1.86893 7.18868 2.10033 6.89405 2.39505C6.59941 2.68977 6.36812 3.0416 6.21438 3.42895C6.06064 3.81629 5.98768 4.23096 6 4.64752C6.00833 5.02829 6.09514 5.40325 6.255 5.74894C6.41486 6.09464 6.64434 6.40362 6.92906 6.65658C6.96469 6.68752 7.00219 6.71752 7.03875 6.75033H3.75C3.35218 6.75033 2.97064 6.90837 2.68934 7.18967C2.40804 7.47098 2.25 7.85251 2.25 8.25033V11.2503C2.25 11.6482 2.40804 12.0297 2.68934 12.311C2.97064 12.5923 3.35218 12.7503 3.75 12.7503V18.7503C3.75 19.1482 3.90804 19.5297 4.18934 19.811C4.47064 20.0923 4.85218 20.2503 5.25 20.2503H18.75C19.1478 20.2503 19.5294 20.0923 19.8107 19.811C20.092 19.5297 20.25 19.1482 20.25 18.7503V12.7503C20.6478 12.7503 21.0294 12.5923 21.3107 12.311C21.592 12.0297 21.75 11.6482 21.75 11.2503V8.25033C21.75 7.85251 21.592 7.47098 21.3107 7.18967C21.0294 6.90837 20.6478 6.75033 20.25 6.75033ZM13.9688 3.42314C14.0875 3.29201 14.2321 3.18684 14.3934 3.11424C14.5547 3.04164 14.7293 3.00318 14.9062 3.00127H14.9522C15.1595 3.00257 15.3645 3.04523 15.5552 3.12677C15.7458 3.20831 15.9183 3.32709 16.0624 3.47613C16.2066 3.62517 16.3195 3.80149 16.3947 3.99474C16.4698 4.188 16.5056 4.39431 16.5 4.60158C16.4981 4.77849 16.4596 4.95309 16.387 5.11442C16.3144 5.27575 16.2093 5.42033 16.0781 5.53908C15.1884 6.32658 13.7119 6.60408 12.7969 6.70158C12.9094 5.70877 13.2188 4.26596 13.9688 3.42314ZM7.96031 3.45689C8.25088 3.16635 8.64441 3.00227 9.05531 3.00033H9.10125C9.27815 3.00224 9.45275 3.0407 9.61409 3.1133C9.77542 3.1859 9.92 3.29107 10.0388 3.42221C10.8253 4.31096 11.1028 5.78471 11.2003 6.69596C10.2891 6.60221 8.81531 6.32096 7.92656 5.53439C7.79543 5.41564 7.69026 5.27106 7.61766 5.10973C7.54506 4.9484 7.5066 4.7738 7.50469 4.59689C7.49887 4.38618 7.53593 4.17648 7.61361 3.98051C7.69128 3.78455 7.80796 3.6064 7.95656 3.45689H7.96031ZM3.75 8.25033H11.25V11.2503H3.75V8.25033ZM5.25 12.7503H11.25V18.7503H5.25V12.7503ZM18.75 18.7503H12.75V12.7503H18.75V18.7503ZM20.25 11.2503H12.75V8.25033H20.25V11.2503Z" fill="url(#paint0_linear_17068_7909)"/>
</g>
<defs>
<linearGradient id="paint0_linear_17068_7909" x1="2" y1="1.33366" x2="22" y2="20.0003" gradientUnits="userSpaceOnUse">
<stop stop-color="#FF4F20"/>
<stop offset="1" stop-color="#F28162"/>
</linearGradient>
</defs>
</svg>
