<svg width="16" height="17" viewBox="0 0 16 17" fill="none" xmlns="http://www.w3.org/2000/svg">
<g id="GitCommit">
<path id="Vector" d="M15.5 8.00001H11.4637C11.343 7.16752 10.9264 6.40636 10.2904 5.85589C9.65427 5.30541 8.84121 5.00244 8 5.00244C7.15879 5.00244 6.34573 5.30541 5.70964 5.85589C5.07355 6.40636 4.65701 7.16752 4.53625 8.00001H0.5C0.367392 8.00001 0.240215 8.05269 0.146447 8.14646C0.0526784 8.24023 0 8.3674 0 8.50001C0 8.63262 0.0526784 8.7598 0.146447 8.85357C0.240215 8.94733 0.367392 9.00001 0.5 9.00001H4.53625C4.65701 9.83251 5.07355 10.5937 5.70964 11.1441C6.34573 11.6946 7.15879 11.9976 8 11.9976C8.84121 11.9976 9.65427 11.6946 10.2904 11.1441C10.9264 10.5937 11.343 9.83251 11.4637 9.00001H15.5C15.6326 9.00001 15.7598 8.94733 15.8536 8.85357C15.9473 8.7598 16 8.63262 16 8.50001C16 8.3674 15.9473 8.24023 15.8536 8.14646C15.7598 8.05269 15.6326 8.00001 15.5 8.00001ZM8 11C7.50555 11 7.0222 10.8534 6.61107 10.5787C6.19995 10.304 5.87952 9.91354 5.6903 9.45672C5.50108 8.99991 5.45157 8.49724 5.54804 8.01229C5.6445 7.52733 5.8826 7.08188 6.23223 6.73224C6.58186 6.38261 7.02732 6.14451 7.51227 6.04805C7.99723 5.95158 8.49989 6.00109 8.95671 6.19031C9.41352 6.37953 9.80397 6.69996 10.0787 7.11109C10.3534 7.52221 10.5 8.00556 10.5 8.50001C10.5 9.16305 10.2366 9.79894 9.76777 10.2678C9.29893 10.7366 8.66304 11 8 11Z" fill="#8D8D8D"/>
</g>
</svg>
