<svg width="16" height="17" viewBox="0 0 16 17" fill="none" xmlns="http://www.w3.org/2000/svg">
<g id="GitFork">
<path id="Vector" d="M14 4.49997C13.9998 4.12594 13.8947 3.75947 13.6967 3.44216C13.4987 3.12485 13.2157 2.86942 12.8798 2.70489C12.5439 2.54035 12.1686 2.4733 11.7965 2.51135C11.4245 2.5494 11.0705 2.69103 10.7749 2.92015C10.4792 3.14926 10.2538 3.45669 10.1241 3.80751C9.99439 4.15833 9.96568 4.53849 10.0412 4.90481C10.1167 5.27113 10.2935 5.60894 10.5513 5.87986C10.8092 6.15078 11.1379 6.34396 11.5 6.43747V6.99997C11.5 7.26519 11.3946 7.51954 11.2071 7.70708C11.0196 7.89461 10.7652 7.99997 10.5 7.99997H5.5C5.23479 7.99997 4.98043 7.89461 4.7929 7.70708C4.60536 7.51954 4.5 7.26519 4.5 6.99997V6.43747C4.97133 6.31577 5.3821 6.02635 5.65531 5.62347C5.92851 5.22058 6.0454 4.73188 5.98406 4.24897C5.92273 3.76606 5.68737 3.3221 5.32212 3.00031C4.95687 2.67851 4.48679 2.50098 4 2.50098C3.51322 2.50098 3.04314 2.67851 2.67789 3.00031C2.31264 3.3221 2.07728 3.76606 2.01595 4.24897C1.95461 4.73188 2.0715 5.22058 2.3447 5.62347C2.61791 6.02635 3.02868 6.31577 3.5 6.43747V6.99997C3.5 7.5304 3.71072 8.03911 4.08579 8.41418C4.46086 8.78926 4.96957 8.99997 5.5 8.99997H7.5V10.5625C7.02868 10.6842 6.61791 10.9736 6.3447 11.3765C6.0715 11.7794 5.95461 12.2681 6.01595 12.751C6.07728 13.2339 6.31264 13.6778 6.67789 13.9996C7.04314 14.3214 7.51322 14.499 8 14.499C8.48679 14.499 8.95687 14.3214 9.32212 13.9996C9.68737 13.6778 9.92273 13.2339 9.98406 12.751C10.0454 12.2681 9.92851 11.7794 9.65531 11.3765C9.3821 10.9736 8.97133 10.6842 8.5 10.5625V8.99997H10.5C11.0304 8.99997 11.5391 8.78926 11.9142 8.41418C12.2893 8.03911 12.5 7.5304 12.5 6.99997V6.43747C12.9292 6.326 13.3092 6.07532 13.5807 5.72472C13.8521 5.37411 13.9996 4.94337 14 4.49997ZM3 4.49997C3 4.30219 3.05865 4.10885 3.16854 3.9444C3.27842 3.77995 3.4346 3.65178 3.61732 3.57609C3.80005 3.5004 4.00111 3.4806 4.1951 3.51918C4.38908 3.55777 4.56726 3.65301 4.70711 3.79286C4.84696 3.93271 4.9422 4.1109 4.98079 4.30488C5.01938 4.49886 4.99957 4.69993 4.92388 4.88265C4.8482 5.06538 4.72002 5.22156 4.55557 5.33144C4.39113 5.44132 4.19779 5.49997 4 5.49997C3.73479 5.49997 3.48043 5.39461 3.2929 5.20708C3.10536 5.01954 3 4.76519 3 4.49997ZM9 12.5C9 12.6978 8.94136 12.8911 8.83147 13.0555C8.72159 13.22 8.56541 13.3482 8.38269 13.4238C8.19996 13.4995 7.9989 13.5193 7.80491 13.4808C7.61093 13.4422 7.43275 13.3469 7.2929 13.2071C7.15305 13.0672 7.0578 12.889 7.01922 12.6951C6.98063 12.5011 7.00044 12.3 7.07613 12.1173C7.15181 11.9346 7.27999 11.7784 7.44443 11.6685C7.60888 11.5586 7.80222 11.5 8 11.5C8.26522 11.5 8.51958 11.6053 8.70711 11.7929C8.89465 11.9804 9 12.2348 9 12.5ZM12 5.49997C11.8022 5.49997 11.6089 5.44132 11.4444 5.33144C11.28 5.22156 11.1518 5.06538 11.0761 4.88265C11.0004 4.69993 10.9806 4.49886 11.0192 4.30488C11.0578 4.1109 11.153 3.93271 11.2929 3.79286C11.4328 3.65301 11.6109 3.55777 11.8049 3.51918C11.9989 3.4806 12.2 3.5004 12.3827 3.57609C12.5654 3.65178 12.7216 3.77995 12.8315 3.9444C12.9414 4.10885 13 4.30219 13 4.49997C13 4.76519 12.8946 5.01954 12.7071 5.20708C12.5196 5.39461 12.2652 5.49997 12 5.49997Z" fill="#8D8D8D"/>
</g>
</svg>
