<svg width="24" height="24" viewBox="0 0 24 24" fill="none" xmlns="http://www.w3.org/2000/svg">
<path d="M21 12C21.0001 14.1191 20.2524 16.1704 18.8887 17.7924C17.5249 19.4144 15.6325 20.5031 13.5448 20.8669C11.4571 21.2306 9.30798 20.846 7.47601 19.7808C5.64404 18.7155 4.24671 17.038 3.53014 15.0437C2.81357 13.0494 2.82371 10.8662 3.55879 8.87859C4.29387 6.89101 5.70672 5.22656 7.54851 4.17841C9.3903 3.13025 11.5429 2.76563 13.6271 3.14875C15.7114 3.53187 17.5935 4.63817 18.9422 6.27279C19.0091 6.34813 19.0602 6.43618 19.0924 6.5317C19.1245 6.62722 19.1371 6.72824 19.1294 6.82873C19.1216 6.92922 19.0937 7.02712 19.0472 7.11657C19.0008 7.20602 18.9368 7.2852 18.8591 7.34937C18.7814 7.41353 18.6915 7.46138 18.5949 7.49004C18.4983 7.51871 18.3968 7.5276 18.2967 7.5162C18.1966 7.50479 18.0998 7.47332 18.012 7.42366C17.9243 7.374 17.8475 7.30717 17.7863 7.22716C16.6832 5.88965 15.1508 4.9756 13.4497 4.64052C11.7487 4.30544 9.98416 4.57001 8.45621 5.38924C6.92827 6.20847 5.73133 7.53175 5.06902 9.13396C4.40671 10.7362 4.31994 12.5184 4.82346 14.1773C5.32699 15.8363 6.3897 17.2696 7.83083 18.2334C9.27196 19.1972 11.0025 19.632 12.728 19.4637C14.4535 19.2955 16.0675 18.5346 17.2953 17.3106C18.5231 16.0866 19.2889 14.475 19.4625 12.75H12C11.8011 12.75 11.6103 12.671 11.4697 12.5303C11.329 12.3897 11.25 12.1989 11.25 12C11.25 11.8011 11.329 11.6103 11.4697 11.4696C11.6103 11.329 11.8011 11.25 12 11.25H20.25C20.4489 11.25 20.6397 11.329 20.7803 11.4696C20.921 11.6103 21 11.8011 21 12Z" fill="#C2C2C2"/>
</svg>
