<svg width="20" height="20" viewBox="0 0 20 20" fill="none" xmlns="http://www.w3.org/2000/svg">
<path d="M10 1.875C8.39303 1.875 6.82214 2.35152 5.48599 3.24431C4.14984 4.1371 3.10844 5.40605 2.49348 6.8907C1.87852 8.37535 1.71761 10.009 2.03112 11.5851C2.34462 13.1612 3.11846 14.6089 4.25476 15.7452C5.39106 16.8815 6.8388 17.6554 8.41489 17.9689C9.99099 18.2824 11.6247 18.1215 13.1093 17.5065C14.594 16.8916 15.8629 15.8502 16.7557 14.514C17.6485 13.1779 18.125 11.607 18.125 10C18.125 7.84512 17.269 5.77849 15.7452 4.25476C14.2215 2.73102 12.1549 1.875 10 1.875ZM10 16.25C8.98693 16.2499 7.98907 16.0035 7.09237 15.5321C6.19566 15.0607 5.42698 14.3784 4.85254 13.5439C4.2781 12.7095 3.91512 11.7479 3.79485 10.742C3.67458 9.73607 3.80064 8.71601 4.16216 7.76964C4.52368 6.82327 5.10983 5.97897 5.87013 5.30945C6.63042 4.63993 7.54208 4.16526 8.52656 3.92632C9.51105 3.68739 10.5389 3.69134 11.5215 3.93786C12.5041 4.18437 13.4121 4.66605 14.1672 5.34141C14.2877 5.45274 14.3595 5.60698 14.3673 5.77083C14.375 5.93469 14.3181 6.09503 14.2087 6.21725C14.0993 6.33948 13.9462 6.41379 13.7825 6.42416C13.6188 6.43452 13.4575 6.38011 13.3336 6.27266C12.5003 5.52735 11.4413 5.0828 10.3258 5.01002C9.21018 4.93723 8.10239 5.24041 7.17935 5.87113C6.25632 6.50185 5.57128 7.42371 5.23367 8.48946C4.89606 9.55521 4.92536 10.7034 5.31689 11.7505C5.70842 12.7977 6.43959 13.6834 7.39359 14.2662C8.3476 14.849 9.46941 15.0953 10.5798 14.9657C11.6902 14.8361 12.7252 14.3381 13.5193 13.5513C14.3135 12.7645 14.8211 11.7342 14.9609 10.625H10C9.83424 10.625 9.67527 10.5592 9.55806 10.4419C9.44085 10.3247 9.375 10.1658 9.375 10C9.375 9.83424 9.44085 9.67527 9.55806 9.55806C9.67527 9.44085 9.83424 9.375 10 9.375H15.625C15.7908 9.375 15.9497 9.44085 16.0669 9.55806C16.1842 9.67527 16.25 9.83424 16.25 10C16.2481 11.657 15.5891 13.2457 14.4174 14.4174C13.2457 15.5891 11.657 16.2481 10 16.25Z" fill="#C2C2C2"/>
</svg>
