<svg width="25" height="24" viewBox="0 0 25 24" fill="none" xmlns="http://www.w3.org/2000/svg">
<path fill-rule="evenodd" clip-rule="evenodd" d="M16.1703 7.8683C15.2314 6.97279 13.9783 6.48494 12.6819 6.50499C10.3094 6.50499 8.29456 8.10553 7.57614 10.2608C7.19521 11.3902 7.19521 12.6132 7.57613 13.7426H7.57947C8.30122 15.8945 10.3128 17.495 12.6852 17.495C13.9098 17.495 14.9612 17.1818 15.7761 16.6285V16.6263C16.7351 15.9914 17.39 14.9923 17.5938 13.8629H12.6819V10.3611H21.2594C21.3663 10.9692 21.4164 11.5907 21.4164 12.2089C21.4164 14.9748 20.4279 17.3132 18.708 18.897L18.7098 18.8984C17.2028 20.2885 15.1345 21.0938 12.6819 21.0938C9.24351 21.0938 6.09921 19.1557 4.55546 16.0849C3.26567 13.5154 3.26567 10.488 4.55547 7.91845C6.09922 4.84431 9.24351 2.90625 12.6819 2.90625C14.9407 2.87952 17.1226 3.72825 18.7666 5.272L16.1703 7.8683Z" fill="#C2C2C2" style="fill:#C2C2C2;fill:color(display-p3 0.7600 0.7600 0.7600);fill-opacity:1;"/>
</svg>
