<svg width="21" height="20" viewBox="0 0 21 20" fill="none" xmlns="http://www.w3.org/2000/svg">
<g id="Icon">
<path id="Vector" d="M10.5 1.875C8.89303 1.875 7.32214 2.35152 5.986 3.24431C4.64985 4.1371 3.60844 5.40605 2.99348 6.8907C2.37852 8.37535 2.21762 10.009 2.53112 11.5851C2.84463 13.1612 3.61846 14.6089 4.75476 15.7452C5.89106 16.8815 7.3388 17.6554 8.9149 17.9689C10.491 18.2824 12.1247 18.1215 13.6093 17.5065C15.094 16.8916 16.3629 15.8502 17.2557 14.514C18.1485 13.1779 18.625 11.607 18.625 10C18.625 7.84512 17.769 5.77849 16.2452 4.25476C14.7215 2.73102 12.6549 1.875 10.5 1.875ZM10.5 16.25C9.48694 16.2499 8.48908 16.0035 7.59237 15.5321C6.69566 15.0607 5.92699 14.3784 5.35255 13.5439C4.77811 12.7095 4.41512 11.7479 4.29486 10.742C4.17459 9.73607 4.30064 8.71601 4.66216 7.76964C5.02369 6.82327 5.60984 5.97897 6.37013 5.30945C7.13043 4.63993 8.04208 4.16526 9.02657 3.92632C10.0111 3.68739 11.0389 3.69134 12.0215 3.93786C13.0041 4.18437 13.9121 4.66605 14.6672 5.34141C14.7877 5.45274 14.8595 5.60698 14.8673 5.77083C14.8751 5.93469 14.8181 6.09503 14.7087 6.21725C14.5993 6.33948 14.4462 6.41379 14.2825 6.42416C14.1188 6.43452 13.9575 6.38011 13.8336 6.27266C13.0003 5.52735 11.9413 5.0828 10.8258 5.01002C9.71018 4.93723 8.6024 5.24041 7.67936 5.87113C6.75632 6.50185 6.07128 7.42371 5.73367 8.48946C5.39607 9.55521 5.42537 10.7034 5.8169 11.7505C6.20842 12.7977 6.93959 13.6834 7.8936 14.2662C8.84761 14.849 9.96941 15.0953 11.0798 14.9657C12.1902 14.8361 13.2252 14.3381 14.0193 13.5513C14.8135 12.7645 15.3211 11.7342 15.4609 10.625H10.5C10.3342 10.625 10.1753 10.5592 10.0581 10.4419C9.94085 10.3247 9.875 10.1658 9.875 10C9.875 9.83424 9.94085 9.67527 10.0581 9.55806C10.1753 9.44085 10.3342 9.375 10.5 9.375H16.125C16.2908 9.375 16.4497 9.44085 16.5669 9.55806C16.6842 9.67527 16.75 9.83424 16.75 10C16.7481 11.657 16.0891 13.2457 14.9174 14.4174C13.7457 15.5891 12.157 16.2481 10.5 16.25Z" fill="#C2C2C2"/>
</g>
</svg>
