<svg width="64" height="65" viewBox="0 0 64 65" fill="none" xmlns="http://www.w3.org/2000/svg">
<path d="M11.9999 19.5C11.9999 15.5218 13.5803 11.7064 16.3933 8.8934C19.2063 6.08035 23.0217 4.5 26.9999 4.5C30.9781 4.5 34.7935 6.08035 37.6065 8.8934C40.4196 11.7064 41.9999 15.5218 41.9999 19.5C41.9999 20.0304 41.7892 20.5391 41.4141 20.9142C41.039 21.2893 40.5303 21.5 39.9999 21.5C39.4695 21.5 38.9608 21.2893 38.5857 20.9142C38.2106 20.5391 37.9999 20.0304 37.9999 19.5C37.9999 16.5826 36.841 13.7847 34.7781 11.7218C32.7152 9.65893 29.9173 8.5 26.9999 8.5C24.0825 8.5 21.2846 9.65893 19.2217 11.7218C17.1588 13.7847 15.9999 16.5826 15.9999 19.5C15.9999 20.0304 15.7892 20.5391 15.4141 20.9142C15.039 21.2893 14.5303 21.5 13.9999 21.5C13.4695 21.5 12.9608 21.2893 12.5857 20.9142C12.2106 20.5391 11.9999 20.0304 11.9999 19.5ZM46.9999 30.5C45.8332 30.4987 44.6848 30.7901 43.6599 31.3475C43.3536 30.3997 42.8486 29.5283 42.1786 28.7913C41.5087 28.0543 40.6891 27.4687 39.7747 27.0738C38.8604 26.6789 37.8723 26.4836 36.8764 26.501C35.8805 26.5185 34.8999 26.7483 33.9999 27.175V19.5C33.9999 17.6435 33.2624 15.863 31.9496 14.5503C30.6369 13.2375 28.8564 12.5 26.9999 12.5C25.1434 12.5 23.3629 13.2375 22.0502 14.5503C20.7374 15.863 19.9999 17.6435 19.9999 19.5V39.5L19.0449 37.9675C18.111 36.3626 16.5778 35.1944 14.7826 34.72C12.9874 34.2455 11.0773 34.5036 9.4724 35.4375C7.86751 36.3714 6.69934 37.9046 6.22487 39.6998C5.75041 41.495 6.00851 43.4051 6.9424 45.01L14.2724 57.51C14.3953 57.7535 14.5668 57.9692 14.7761 58.144C14.9855 58.3187 15.2284 58.4488 15.49 58.5262C15.7515 58.6037 16.0261 58.6268 16.2968 58.5942C16.5676 58.5616 16.8289 58.4739 17.0645 58.3366C17.3002 58.1993 17.5053 58.0153 17.6672 57.7958C17.8291 57.5763 17.9444 57.326 18.006 57.0604C18.0676 56.7947 18.0742 56.5192 18.0255 56.2509C17.9767 55.9825 17.8736 55.727 17.7224 55.5L10.3999 43C10.1943 42.6585 10.0588 42.2795 10.0014 41.8851C9.94392 41.4907 9.96562 41.0888 10.0652 40.7029C10.1648 40.317 10.3403 39.9548 10.5815 39.6374C10.8227 39.3201 11.1246 39.054 11.4698 38.8547C11.8149 38.6554 12.1964 38.5268 12.5917 38.4766C12.9871 38.4263 13.3886 38.4553 13.7726 38.562C14.1567 38.6686 14.5156 38.8507 14.8285 39.0976C15.1414 39.3445 15.4019 39.6513 15.5949 40L15.6299 40.0575L20.2999 47.5575C20.5292 47.9275 20.8729 48.2126 21.2789 48.3695C21.6849 48.5264 22.131 48.5466 22.5495 48.4269C22.968 48.3073 23.3361 48.0545 23.5978 47.7067C23.8596 47.3589 24.0008 46.9353 23.9999 46.5V19.5C23.9999 18.7044 24.316 17.9413 24.8786 17.3787C25.4412 16.8161 26.2043 16.5 26.9999 16.5C27.7956 16.5 28.5586 16.8161 29.1212 17.3787C29.6838 17.9413 29.9999 18.7044 29.9999 19.5V36.5C29.9999 37.0304 30.2106 37.5391 30.5857 37.9142C30.9608 38.2893 31.4695 38.5 31.9999 38.5C32.5303 38.5 33.039 38.2893 33.4141 37.9142C33.7892 37.5391 33.9999 37.0304 33.9999 36.5V33.5C33.9999 32.7044 34.316 31.9413 34.8786 31.3787C35.4412 30.8161 36.2043 30.5 36.9999 30.5C37.7956 30.5 38.5586 30.8161 39.1212 31.3787C39.6838 31.9413 39.9999 32.7044 39.9999 33.5V38.5C39.9999 39.0304 40.2106 39.5391 40.5857 39.9142C40.9608 40.2893 41.4695 40.5 41.9999 40.5C42.5303 40.5 43.039 40.2893 43.4141 39.9142C43.7892 39.5391 43.9999 39.0304 43.9999 38.5V37.5C43.9999 36.7043 44.316 35.9413 44.8786 35.3787C45.4412 34.8161 46.2043 34.5 46.9999 34.5C47.7956 34.5 48.5586 34.8161 49.1212 35.3787C49.6838 35.9413 49.9999 36.7043 49.9999 37.5V46.5C49.9999 51.9025 48.2249 55.575 48.2099 55.605C47.973 56.0794 47.9342 56.6285 48.102 57.1316C48.2698 57.6346 48.6306 58.0504 49.1049 58.2875C49.3824 58.4278 49.689 58.5006 49.9999 58.5C50.3715 58.5003 50.7357 58.397 51.0519 58.2018C51.3681 58.0067 51.6236 57.7273 51.7899 57.395C51.8824 57.2125 54.0024 52.895 54.0024 46.5V37.5C54.0024 36.5805 53.8213 35.6701 53.4693 34.8206C53.1174 33.9712 52.6015 33.1994 51.9513 32.5494C51.301 31.8993 50.529 31.3838 49.6795 31.0321C48.8299 30.6805 47.9194 30.4997 46.9999 30.5Z" fill="#F4F4F4" style="fill:#F4F4F4;fill:color(display-p3 0.9569 0.9569 0.9569);fill-opacity:1;"/>
</svg>
