<svg width="20" height="21" viewBox="0 0 20 21" fill="none" xmlns="http://www.w3.org/2000/svg">
<path d="M12.5 1.75C11.5135 1.75088 10.5412 1.98506 9.66254 2.43341C8.78384 2.88175 8.02363 3.53156 7.44398 4.32977C6.86433 5.12798 6.48167 6.05196 6.32725 7.02627C6.17284 8.00059 6.25104 8.99761 6.55547 9.93594L2.05781 14.4328C1.99979 14.4909 1.95378 14.5598 1.92241 14.6357C1.89105 14.7116 1.87494 14.7929 1.875 14.875V18C1.875 18.1658 1.94085 18.3247 2.05806 18.4419C2.17527 18.5592 2.33424 18.625 2.5 18.625H5.625C5.79076 18.625 5.94973 18.5592 6.06694 18.4419C6.18415 18.3247 6.25 18.1658 6.25 18V16.75H7.5C7.66576 16.75 7.82473 16.6842 7.94194 16.5669C8.05915 16.4497 8.125 16.2908 8.125 16.125V14.875H9.375C9.4571 14.8751 9.53841 14.859 9.61428 14.8276C9.69015 14.7962 9.7591 14.7502 9.81719 14.6922L10.5641 13.9445C11.4231 14.2234 12.3323 14.3128 13.2292 14.2066C14.1261 14.1004 14.9893 13.8011 15.7593 13.3292C16.5294 12.8574 17.1881 12.2243 17.69 11.4734C18.192 10.7226 18.5252 9.87191 18.6668 8.97994C18.8084 8.08797 18.755 7.1759 18.5103 6.30655C18.2656 5.43719 17.8354 4.63119 17.2493 3.94405C16.6632 3.25691 15.9351 2.70496 15.1153 2.3262C14.2954 1.94743 13.4031 1.75085 12.5 1.75ZM12.5 13C11.8673 13.0011 11.2402 12.8815 10.6523 12.6477C10.5373 12.5977 10.41 12.5836 10.2868 12.607C10.1637 12.6304 10.0504 12.6903 9.96172 12.7789L9.11641 13.625H7.5C7.33424 13.625 7.17527 13.6908 7.05806 13.8081C6.94085 13.9253 6.875 14.0842 6.875 14.25V15.5H5.625C5.45924 15.5 5.30027 15.5658 5.18306 15.6831C5.06585 15.8003 5 15.9592 5 16.125V17.375H3.125V15.1336L7.72109 10.5383C7.80971 10.4496 7.86961 10.3363 7.89302 10.2132C7.91643 10.09 7.90225 9.96266 7.85234 9.84766C7.4571 8.85379 7.39098 7.75937 7.66369 6.72514C7.9364 5.69092 8.53357 4.7714 9.36749 4.10164C10.2014 3.43189 11.2281 3.04719 12.2968 3.00407C13.3655 2.96094 14.4199 3.26165 15.3051 3.86203C16.1902 4.46242 16.8596 5.33082 17.2147 6.33971C17.5699 7.3486 17.5922 8.44479 17.2783 9.46727C16.9644 10.4898 16.3309 11.3846 15.4709 12.0205C14.6109 12.6564 13.5696 12.9997 12.5 13ZM15 6.4375C15 6.62292 14.945 6.80418 14.842 6.95835C14.739 7.11252 14.5926 7.23268 14.4213 7.30364C14.25 7.37459 14.0615 7.39316 13.8796 7.35699C13.6977 7.32081 13.5307 7.23152 13.3996 7.10041C13.2685 6.9693 13.1792 6.80225 13.143 6.6204C13.1068 6.43854 13.1254 6.25004 13.1964 6.07873C13.2673 5.90743 13.3875 5.76101 13.5417 5.658C13.6958 5.55498 13.8771 5.5 14.0625 5.5C14.3111 5.5 14.5496 5.59877 14.7254 5.77459C14.9012 5.9504 15 6.18886 15 6.4375Z" fill="#57D98D" style="fill:#57D98D;fill:color(display-p3 0.3400 0.8500 0.5525);fill-opacity:1;"/>
</svg>
