<svg width="64" height="64" viewBox="0 0 64 64" fill="none" xmlns="http://www.w3.org/2000/svg">
<path d="M40 4C36.8433 4.00283 33.732 4.75219 30.9201 6.1869C28.1083 7.62161 25.6756 9.70099 23.8207 12.2553C21.9658 14.8095 20.7413 17.7663 20.2472 20.8841C19.7531 24.0019 20.0033 27.1924 20.9775 30.195L6.585 44.585C6.39933 44.7709 6.2521 44.9915 6.15173 45.2343C6.05135 45.4771 5.99979 45.7373 6 46V56C6 56.5304 6.21071 57.0391 6.58579 57.4142C6.96086 57.7893 7.46957 58 8 58H18C18.5304 58 19.0391 57.7893 19.4142 57.4142C19.7893 57.0391 20 56.5304 20 56V52H24C24.5304 52 25.0391 51.7893 25.4142 51.4142C25.7893 51.0391 26 50.5304 26 50V46H30C30.2627 46.0002 30.5229 45.9487 30.7657 45.8483C31.0085 45.7479 31.2291 45.6007 31.415 45.415L33.805 43.0225C36.5538 43.915 39.4634 44.2011 42.3334 43.8612C45.2034 43.5213 47.9656 42.5634 50.4299 41.0535C52.8942 39.5436 55.002 37.5176 56.6081 35.115C58.2142 32.7123 59.2806 29.9901 59.7337 27.1358C60.1869 24.2815 60.016 21.3629 59.233 18.5809C58.4499 15.799 57.0732 13.2198 55.1977 11.021C53.3222 8.82212 50.9924 7.05587 48.3688 5.84383C45.7452 4.63178 42.8901 4.00273 40 4ZM40 40C37.9754 40.0034 35.9687 39.6208 34.0875 38.8725C33.7195 38.7128 33.312 38.6674 32.9179 38.7423C32.5237 38.8172 32.1613 39.0089 31.8775 39.2925L29.1725 42H24C23.4696 42 22.9609 42.2107 22.5858 42.5858C22.2107 42.9609 22 43.4696 22 44V48H18C17.4696 48 16.9609 48.2107 16.5858 48.5858C16.2107 48.9609 16 49.4696 16 50V54H10V46.8275L24.7075 32.1225C24.9911 31.8387 25.1828 31.4763 25.2577 31.0821C25.3326 30.688 25.2872 30.2805 25.1275 29.9125C23.8627 26.7321 23.6511 23.23 24.5238 19.9205C25.3965 16.6109 27.3074 13.6685 29.976 11.5253C32.6445 9.38204 35.93 8.15102 39.3498 8.01301C42.7697 7.875 46.1437 8.83728 48.9762 10.7585C51.8088 12.6797 53.9506 15.4586 55.0871 18.6871C56.2237 21.9155 56.295 25.4233 55.2906 28.6953C54.2862 31.9672 52.259 34.8309 49.5069 36.8656C46.7547 38.9003 43.4226 39.9989 40 40ZM48 19C48 19.5933 47.8241 20.1734 47.4944 20.6667C47.1648 21.1601 46.6962 21.5446 46.148 21.7716C45.5999 21.9987 44.9967 22.0581 44.4147 21.9424C43.8328 21.8266 43.2982 21.5409 42.8787 21.1213C42.4591 20.7018 42.1734 20.1672 42.0576 19.5853C41.9419 19.0033 42.0013 18.4001 42.2284 17.8519C42.4554 17.3038 42.8399 16.8352 43.3333 16.5056C43.8266 16.1759 44.4067 16 45 16C45.7957 16 46.5587 16.3161 47.1213 16.8787C47.6839 17.4413 48 18.2044 48 19Z" fill="#F4F4F4" style="fill:#F4F4F4;fill:color(display-p3 0.9569 0.9569 0.9569);fill-opacity:1;"/>
</svg>
