<svg width="16" height="16" viewBox="0 0 16 16" fill="none" xmlns="http://www.w3.org/2000/svg">
<g id="Lightning">
<path id="Vector" d="M13.4869 7.38556C13.468 7.30542 13.4295 7.2312 13.375 7.16949C13.3205 7.10778 13.2516 7.06048 13.1744 7.03181L9.57377 5.68119L10.49 1.09806C10.5108 0.991575 10.4963 0.881229 10.4489 0.783675C10.4014 0.686122 10.3235 0.606653 10.2269 0.557263C10.1303 0.507872 10.0202 0.491239 9.91337 0.509872C9.80649 0.528506 9.70858 0.581397 9.6344 0.660562L2.6344 8.16056C2.57754 8.22047 2.53641 8.29353 2.51469 8.37321C2.49296 8.45289 2.4913 8.53671 2.50987 8.61718C2.52845 8.69766 2.56666 8.77228 2.62111 8.83438C2.67556 8.89648 2.74454 8.94413 2.8219 8.97306L6.42377 10.3237L5.51002 14.9018C5.48927 15.0083 5.50372 15.1186 5.55119 15.2162C5.59866 15.3138 5.67657 15.3932 5.77316 15.4426C5.86976 15.492 5.97979 15.5086 6.08667 15.49C6.19355 15.4714 6.29146 15.4185 6.36565 15.3393L13.3656 7.83931C13.4215 7.77939 13.4617 7.70668 13.4829 7.62756C13.504 7.54844 13.5054 7.46534 13.4869 7.38556ZM6.83565 13.3749L7.49002 10.1012C7.51344 9.98508 7.49488 9.86443 7.43765 9.76073C7.38042 9.65703 7.28824 9.57701 7.17752 9.53494L3.87502 8.29431L9.16377 2.62806L8.51002 5.90181C8.4866 6.01792 8.50516 6.13857 8.56239 6.24227C8.61962 6.34597 8.7118 6.42598 8.82252 6.46806L12.1225 7.70556L6.83565 13.3749Z" fill="#FF4F20"/>
</g>
</svg>
