<svg width="33" height="32" viewBox="0 0 33 32" fill="none" xmlns="http://www.w3.org/2000/svg">
<g id="Lightbulb">
<path id="Vector" d="M22.5002 29.0003C22.5002 29.2655 22.3948 29.5198 22.2073 29.7074C22.0197 29.8949 21.7654 30.0003 21.5002 30.0003H11.5002C11.2349 30.0003 10.9806 29.8949 10.7931 29.7074C10.6055 29.5198 10.5002 29.2655 10.5002 29.0003C10.5002 28.735 10.6055 28.4807 10.7931 28.2932C10.9806 28.1056 11.2349 28.0003 11.5002 28.0003H21.5002C21.7654 28.0003 22.0197 28.1056 22.2073 28.2932C22.3948 28.4807 22.5002 28.735 22.5002 29.0003ZM27.5002 13.0003C27.5045 14.6673 27.1279 16.3133 26.3991 17.8127C25.6704 19.312 24.6087 20.625 23.2952 21.6515C23.0496 21.8398 22.8502 22.0817 22.7125 22.3588C22.5747 22.6359 22.5021 22.9408 22.5002 23.2503V24.0003C22.5002 24.5307 22.2894 25.0394 21.9144 25.4145C21.5393 25.7895 21.0306 26.0003 20.5002 26.0003H12.5002C11.9697 26.0003 11.461 25.7895 11.086 25.4145C10.7109 25.0394 10.5002 24.5307 10.5002 24.0003V23.2503C10.5 22.9445 10.4297 22.6429 10.2947 22.3685C10.1597 22.0942 9.96355 21.8545 9.72141 21.6678C8.41116 20.6473 7.35022 19.3422 6.61889 17.8512C5.88755 16.3601 5.50499 14.7222 5.50016 13.0615C5.46766 7.10401 10.2827 2.14276 16.2352 2.00026C17.7018 1.96492 19.1608 2.22333 20.5261 2.76029C21.8914 3.29724 23.1355 4.10189 24.1852 5.12688C25.2349 6.15186 26.0689 7.37647 26.6382 8.72862C27.2075 10.0808 27.5006 11.5332 27.5002 13.0003ZM25.5002 13.0003C25.5005 11.7998 25.2607 10.6115 24.7949 9.50512C24.3291 8.39877 23.6466 7.39679 22.7877 6.55815C21.9288 5.71952 20.9108 5.06118 19.7936 4.6219C18.6765 4.18261 17.4827 3.97125 16.2827 4.00026C11.4077 4.11526 7.47391 8.17401 7.50016 13.049C7.50473 14.4072 7.81816 15.7466 8.41673 16.9659C9.0153 18.1851 9.88334 19.2522 10.9552 20.0865C11.437 20.4611 11.8267 20.9409 12.0945 21.4893C12.3623 22.0376 12.501 22.64 12.5002 23.2503V24.0003H20.5002V23.2503C20.5016 22.6383 20.6427 22.0347 20.9128 21.4855C21.183 20.9363 21.575 20.4561 22.0589 20.0815C23.134 19.2413 24.003 18.1665 24.5994 16.9393C25.1958 15.712 25.5039 14.3648 25.5002 13.0003ZM23.4864 11.8328C23.2271 10.3844 22.5303 9.05022 21.4897 8.00989C20.4492 6.96955 19.1149 6.27301 17.6664 6.01401C17.5369 5.99218 17.4043 5.99607 17.2763 6.02547C17.1483 6.05486 17.0274 6.10918 16.9203 6.18532C16.8133 6.26147 16.7223 6.35794 16.6526 6.46925C16.5829 6.58055 16.5357 6.7045 16.5139 6.83401C16.4921 6.96353 16.496 7.09608 16.5254 7.22409C16.5548 7.3521 16.6091 7.47307 16.6852 7.58009C16.7614 7.68711 16.8578 7.77808 16.9691 7.84782C17.0804 7.91755 17.2044 7.96468 17.3339 7.98651C19.4052 8.33526 21.1627 10.0928 21.5139 12.1678C21.5535 12.4007 21.6742 12.612 21.8548 12.7644C22.0353 12.9168 22.2639 13.0004 22.5002 13.0003C22.5567 12.9999 22.6131 12.9953 22.6689 12.9865C22.9303 12.9419 23.1633 12.7953 23.3166 12.5789C23.4699 12.3626 23.531 12.0942 23.4864 11.8328Z" fill="#C2C2C2"/>
</g>
</svg>
