<svg width="16" height="16" viewBox="0 0 16 16" fill="none" xmlns="http://www.w3.org/2000/svg">
<g id="LinkedinLogo">
<path id="Vector" d="M13.5 1.5H2.5C2.23478 1.5 1.98043 1.60536 1.79289 1.79289C1.60536 1.98043 1.5 2.23478 1.5 2.5V13.5C1.5 13.7652 1.60536 14.0196 1.79289 14.2071C1.98043 14.3946 2.23478 14.5 2.5 14.5H13.5C13.7652 14.5 14.0196 14.3946 14.2071 14.2071C14.3946 14.0196 14.5 13.7652 14.5 13.5V2.5C14.5 2.23478 14.3946 1.98043 14.2071 1.79289C14.0196 1.60536 13.7652 1.5 13.5 1.5ZM6 11C6 11.1326 5.94732 11.2598 5.85355 11.3536C5.75979 11.4473 5.63261 11.5 5.5 11.5C5.36739 11.5 5.24021 11.4473 5.14645 11.3536C5.05268 11.2598 5 11.1326 5 11V7C5 6.86739 5.05268 6.74021 5.14645 6.64645C5.24021 6.55268 5.36739 6.5 5.5 6.5C5.63261 6.5 5.75979 6.55268 5.85355 6.64645C5.94732 6.74021 6 6.86739 6 7V11ZM5.5 6C5.35166 6 5.20666 5.95601 5.08332 5.8736C4.95999 5.79119 4.86386 5.67406 4.80709 5.53701C4.75032 5.39997 4.73547 5.24917 4.76441 5.10368C4.79335 4.9582 4.86478 4.82456 4.96967 4.71967C5.07456 4.61478 5.2082 4.54335 5.35368 4.51441C5.49917 4.48547 5.64997 4.50032 5.78701 4.55709C5.92406 4.61386 6.04119 4.70999 6.1236 4.83332C6.20601 4.95666 6.25 5.10166 6.25 5.25C6.25 5.44891 6.17098 5.63968 6.03033 5.78033C5.88968 5.92098 5.69891 6 5.5 6ZM11.5 11C11.5 11.1326 11.4473 11.2598 11.3536 11.3536C11.2598 11.4473 11.1326 11.5 11 11.5C10.8674 11.5 10.7402 11.4473 10.6464 11.3536C10.5527 11.2598 10.5 11.1326 10.5 11V8.75C10.5 8.41848 10.3683 8.10054 10.1339 7.86612C9.89946 7.6317 9.58152 7.5 9.25 7.5C8.91848 7.5 8.60054 7.6317 8.36612 7.86612C8.1317 8.10054 8 8.41848 8 8.75V11C8 11.1326 7.94732 11.2598 7.85355 11.3536C7.75979 11.4473 7.63261 11.5 7.5 11.5C7.36739 11.5 7.24021 11.4473 7.14645 11.3536C7.05268 11.2598 7 11.1326 7 11V7C7.00062 6.87753 7.04617 6.75954 7.12801 6.66843C7.20985 6.57731 7.32228 6.5194 7.44398 6.50568C7.56569 6.49196 7.68819 6.52339 7.78826 6.594C7.88833 6.66461 7.959 6.76949 7.98688 6.88875C8.32512 6.6593 8.71947 6.52631 9.12759 6.50407C9.53571 6.48184 9.94218 6.57119 10.3033 6.76254C10.6645 6.95388 10.9667 7.24 11.1776 7.59015C11.3884 7.94031 11.4999 8.34127 11.5 8.75V11Z" fill="#D6D6D6"/>
</g>
</svg>
