<svg width="16" height="16" viewBox="0 0 16 16" fill="none" xmlns="http://www.w3.org/2000/svg">
<g id="Link">
<path id="Vector" d="M8.59611 11.6473C8.68981 11.7411 8.74244 11.8682 8.74244 12.0008C8.74244 12.1333 8.68981 12.2605 8.59611 12.3542L7.97486 12.9792C7.31787 13.6358 6.42697 14.0045 5.49813 14.0042C4.5693 14.0039 3.67863 13.6346 3.02205 12.9777C2.36547 12.3207 1.99678 11.4298 1.99707 10.5009C1.99736 9.57209 2.36662 8.68142 3.02361 8.02484L4.53111 6.51734C5.16217 5.88579 6.01072 5.51926 6.90313 5.49277C7.79554 5.46628 8.66433 5.78183 9.33174 6.37484C9.38098 6.41851 9.42115 6.47145 9.44993 6.53063C9.47872 6.58982 9.49557 6.65409 9.49952 6.71979C9.50346 6.78549 9.49443 6.85132 9.47293 6.91353C9.45144 6.97574 9.4179 7.0331 9.37424 7.08235C9.33057 7.13159 9.27764 7.17175 9.21845 7.20054C9.15926 7.22933 9.09499 7.24618 9.02929 7.25012C8.96359 7.25407 8.89776 7.24504 8.83555 7.22354C8.77335 7.20205 8.71598 7.16851 8.66674 7.12484C8.19006 6.70154 7.56967 6.47632 6.93245 6.49526C6.29523 6.51419 5.68931 6.77585 5.23861 7.22672L3.73111 8.73234C3.26218 9.20128 2.99873 9.83729 2.99873 10.5005C2.99873 11.1636 3.26218 11.7997 3.73111 12.2686C4.20005 12.7375 4.83606 13.001 5.49924 13.001C6.16241 13.001 6.79843 12.7375 7.26736 12.2686L7.88861 11.6473C7.93505 11.6009 7.99019 11.564 8.05089 11.5388C8.11159 11.5137 8.17666 11.5007 8.24236 11.5007C8.30807 11.5007 8.37313 11.5137 8.43383 11.5388C8.49453 11.564 8.54968 11.6009 8.59611 11.6473ZM12.9761 3.02234C12.319 2.36673 11.4287 1.99854 10.5005 1.99854C9.57227 1.99854 8.68195 2.36673 8.02486 3.02234L7.40361 3.64422C7.30988 3.73804 7.25725 3.86525 7.25731 3.99788C7.25736 4.1305 7.31011 4.25767 7.40393 4.35141C7.49775 4.44514 7.62496 4.49777 7.75758 4.49771C7.89021 4.49766 8.01737 4.44492 8.11111 4.35109L8.73236 3.72984C9.2013 3.26091 9.83731 2.99746 10.5005 2.99746C11.1637 2.99746 11.7997 3.26091 12.2686 3.72984C12.7375 4.19878 13.001 4.83479 13.001 5.49797C13.001 6.16115 12.7375 6.79716 12.2686 7.2661L10.7611 8.77484C10.3102 9.22545 9.70412 9.48677 9.0669 9.50535C8.42968 9.52394 7.80943 9.2984 7.33299 8.87484C7.28374 8.83118 7.22638 8.79764 7.16417 8.77615C7.10196 8.75465 7.03613 8.74562 6.97044 8.74957C6.83775 8.75754 6.71367 8.81789 6.62549 8.91734C6.58182 8.96659 6.54829 9.02395 6.52679 9.08616C6.5053 9.14837 6.49626 9.2142 6.50021 9.2799C6.50818 9.41258 6.56853 9.53666 6.66799 9.62484C7.33524 10.218 8.20394 10.5338 9.09635 10.5075C9.98876 10.4813 10.8374 10.115 11.4686 9.48359L12.9761 7.9761C13.6321 7.31896 14.0005 6.42837 14.0005 5.49984C14.0005 4.57132 13.6321 3.68073 12.9761 3.02359V3.02234Z" fill="#FF4F20"/>
</g>
</svg>
