<svg width="154" height="32" viewBox="0 0 154 32" fill="none" xmlns="http://www.w3.org/2000/svg">
<ellipse cx="85.6547" cy="20.5114" rx="4.08486" ry="4.28482" fill="#FF4E1F"/>
<path d="M28.3973 8.30394C28.397 8.18546 28.3654 8.06917 28.3057 7.9668C28.2461 7.86443 28.1605 7.77961 28.0576 7.72088L14.7695 0.0906556C14.6666 0.0312679 14.5499 0 14.4311 0C14.3124 0 14.1957 0.0312679 14.0928 0.0906556L0.836393 7.78134C0.733805 7.84091 0.64868 7.9264 0.589553 8.02924C0.530425 8.13208 0.499374 8.24866 0.499512 8.36728L0.531185 23.694C0.531736 23.8126 0.563402 23.929 0.623022 24.0316C0.682643 24.1341 0.768131 24.2193 0.870946 24.2785L14.159 31.9087C14.2618 31.9685 14.3785 32 14.4974 32C14.6162 32 14.733 31.9685 14.8357 31.9087L28.0921 24.218C28.1947 24.1584 28.2798 24.0729 28.339 23.9701C28.3981 23.8673 28.4291 23.7507 28.429 23.632L28.3973 8.30394ZM24.4109 10.2288L18.5788 13.6509C18.4801 13.7085 18.3684 13.7402 18.2541 13.7429C18.1398 13.7457 18.0266 13.7195 17.9252 13.6667L15.138 12.2155C15.0842 12.1877 15.0388 12.1459 15.0067 12.0946C14.9747 12.0432 14.957 11.9841 14.9557 11.9235C14.9544 11.8629 14.9694 11.8031 14.9992 11.7504C15.029 11.6976 15.0725 11.6539 15.1251 11.6238L17.6229 10.1841C17.6569 10.1642 17.6852 10.1357 17.7048 10.1015C17.7244 10.0673 17.7347 10.0285 17.7347 9.98907C17.7347 9.94962 17.7244 9.91085 17.7048 9.87663C17.6852 9.84241 17.6569 9.81391 17.6229 9.79399L14.7896 8.15997C14.6868 8.10058 14.5701 8.06932 14.4513 8.06932C14.3325 8.06932 14.2158 8.10058 14.113 8.15997L7.8418 11.7879C7.80739 11.8076 7.77878 11.8359 7.75888 11.8702C7.73898 11.9045 7.7285 11.9434 7.7285 11.983C7.7285 12.0226 7.73898 12.0615 7.75888 12.0958C7.77878 12.1301 7.80739 12.1584 7.8418 12.1781L14.1331 15.7902C14.2359 15.8493 14.3212 15.9345 14.3806 16.0371C14.44 16.1397 14.4713 16.2561 14.4715 16.3747L14.4887 27.2974C14.4885 27.3738 14.4689 27.4488 14.4318 27.5155C14.3948 27.5822 14.3414 27.6385 14.2767 27.679C14.212 27.7195 14.1382 27.743 14.0619 27.7473C13.9857 27.7516 13.9097 27.7365 13.8409 27.7034L4.35349 22.2514C4.25048 22.1924 4.16484 22.1074 4.10519 22.0047C4.04554 21.9021 4.01399 21.7856 4.01373 21.6669L4.00366 16.9419C4.00148 16.8761 4.01858 16.811 4.05285 16.7548C4.08712 16.6985 4.13707 16.6535 4.19657 16.6252C4.24385 16.6047 4.29525 16.5954 4.34672 16.5982C4.39819 16.6009 4.44832 16.6156 4.49314 16.641L7.12197 18.1124C7.22608 18.1713 7.31283 18.2566 7.37349 18.3597C7.43415 18.4629 7.46657 18.5801 7.46749 18.6998V19.7665C7.46783 19.8455 7.48889 19.9229 7.52855 19.9911C7.56822 20.0593 7.6251 20.1159 7.69352 20.1553L10.6477 21.8526C10.6819 21.8724 10.7208 21.8828 10.7603 21.8827C10.7999 21.8827 10.8387 21.8722 10.8729 21.8523C10.907 21.8324 10.9354 21.8039 10.955 21.7696C10.9746 21.7352 10.9848 21.6964 10.9846 21.6568V18.4133C10.9847 18.2945 10.9535 18.1777 10.8941 18.0749C10.8347 17.972 10.7492 17.8866 10.6463 17.8273L4.32902 14.195C4.22744 14.1367 4.14281 14.053 4.08348 13.952C4.02415 13.851 3.99217 13.7363 3.9907 13.6192V12.6791V10.3756C3.98985 10.2418 4.0295 10.1108 4.10443 9.99987L4.1433 9.94803L4.18793 9.90053C4.23014 9.85702 4.27867 9.82013 4.3319 9.79111L14.1072 4.12172C14.2098 4.06231 14.3263 4.03103 14.4448 4.03103C14.5634 4.03103 14.6798 4.06231 14.7824 4.12172L24.4138 9.65578C24.4628 9.68615 24.5031 9.72857 24.531 9.779C24.5589 9.82942 24.5735 9.88617 24.5732 9.94381C24.5729 10.0014 24.5578 10.058 24.5294 10.1082C24.501 10.1583 24.4602 10.2003 24.4109 10.2302V10.2288Z" fill="white"/>
<path d="M17.9111 18.15L17.9198 21.9809C17.92 22.06 17.941 22.1376 17.9807 22.206C18.0204 22.2744 18.0774 22.3312 18.1459 22.3706C18.2145 22.4099 18.2922 22.4306 18.3713 22.4304C18.4504 22.4303 18.528 22.4093 18.5964 22.3696L21.9004 20.452C22.003 20.3924 22.0882 20.307 22.1473 20.2041C22.2064 20.1013 22.2375 19.9847 22.2373 19.8661L22.2287 16.0452C22.2285 15.9661 22.2075 15.8885 22.1678 15.8201C22.1281 15.7517 22.0711 15.695 22.0025 15.6556C21.934 15.6162 21.8562 15.5955 21.7772 15.5957C21.6981 15.5959 21.6205 15.6168 21.552 15.6565L18.2509 17.5698C18.1486 17.6285 18.0635 17.7129 18.0039 17.8147C17.9443 17.9165 17.9123 18.0321 17.9111 18.15Z" fill="#FF4E1F"/>
<path d="M120.262 18.4239V26.2262C120.261 26.3389 120.215 26.4468 120.135 26.5263C120.055 26.6057 119.947 26.6503 119.834 26.6503H116.689C116.575 26.6503 116.467 26.6053 116.387 26.5252C116.307 26.4451 116.262 26.3364 116.262 26.2232V25.962C116.261 25.9383 116.254 25.9152 116.242 25.8951C116.229 25.8751 116.211 25.8589 116.19 25.8484C116.169 25.838 116.145 25.8336 116.121 25.8358C116.098 25.838 116.075 25.8467 116.056 25.8609C115.167 26.5492 113.978 27.0383 112.366 27.0383C109.457 27.0383 107.508 25.3567 107.508 22.7952C107.508 20.2579 109.457 18.602 112.942 18.602H116.009C116.078 18.6016 116.143 18.5743 116.192 18.526C116.24 18.4777 116.267 18.4122 116.268 18.3439C116.268 17.2571 115.513 16.5326 114.423 16.5326C113.333 16.5326 112.627 16.9175 112.335 17.79C112.303 17.8908 112.235 17.9763 112.144 18.0303C112.053 18.0843 111.946 18.1029 111.842 18.0828L108.665 17.4428C108.618 17.4334 108.573 17.4144 108.534 17.3869C108.495 17.3595 108.462 17.3241 108.438 17.2832C108.413 17.2423 108.397 17.1966 108.392 17.1493C108.386 17.1019 108.39 17.0538 108.403 17.0081C109.105 14.7092 111.317 13.2813 114.281 13.2813C117.951 13.2737 120.262 15.1107 120.262 18.4239ZM116.262 21.5288V21.3779C116.262 21.3439 116.248 21.3112 116.224 21.2872C116.2 21.2631 116.167 21.2496 116.133 21.2496H113.404C112.366 21.2496 111.717 21.793 111.717 22.5945C111.717 23.4232 112.443 23.9409 113.528 23.9409C114.963 23.9333 116.262 22.9794 116.262 21.5288Z" fill="white"/>
<path d="M124.366 22.2299C124.366 22.9031 124.86 23.3695 125.613 23.3695C126.004 23.3423 126.39 23.2605 126.758 23.1265C126.804 23.1122 126.852 23.1077 126.9 23.1133C126.948 23.1189 126.994 23.1345 127.035 23.1589C127.076 23.1834 127.112 23.2163 127.14 23.2554C127.167 23.2945 127.187 23.3391 127.196 23.3861L127.703 25.9174C127.722 26.0107 127.709 26.1076 127.666 26.1926C127.624 26.2776 127.554 26.346 127.468 26.3868C126.615 26.8316 125.666 27.0573 124.704 27.0435C122.002 27.0435 120.21 25.2321 120.21 22.5408V7.15666C120.21 7.04337 120.255 6.93471 120.336 6.8546C120.416 6.77449 120.524 6.72949 120.638 6.72949H123.939C124.052 6.72949 124.161 6.77449 124.241 6.8546C124.321 6.93471 124.366 7.04337 124.366 7.15666V22.2299Z" fill="white"/>
<path d="M139.843 26.6495H136.543C136.43 26.6495 136.321 26.6045 136.241 26.5244C136.161 26.4443 136.116 26.3357 136.116 26.2224V25.7137C136.116 25.6887 136.109 25.6642 136.096 25.6432C136.082 25.6222 136.063 25.6056 136.04 25.5956C136.017 25.5856 135.992 25.5826 135.967 25.587C135.942 25.5913 135.92 25.6029 135.902 25.6201C134.933 26.5258 133.637 27.0375 132.116 27.0375C129.076 27.0375 127.05 24.8895 127.05 21.6292V14.082C127.05 13.9686 127.095 13.8598 127.175 13.7794C127.255 13.6991 127.364 13.6537 127.477 13.6533H130.753C130.866 13.6537 130.975 13.6991 131.055 13.7794C131.135 13.8598 131.18 13.9686 131.18 14.082V20.7446C131.18 22.2722 132.086 23.3107 133.414 23.3107C135.05 23.3107 136.116 22.1982 136.116 19.688V14.0895C136.116 14.0333 136.127 13.9776 136.148 13.9256C136.169 13.8736 136.201 13.8263 136.241 13.7865C136.28 13.7467 136.327 13.7151 136.379 13.6935C136.431 13.672 136.487 13.6609 136.543 13.6609H139.843C139.956 13.6609 140.065 13.706 140.146 13.7864C140.226 13.8668 140.271 13.9758 140.271 14.0895V26.2254C140.27 26.3383 140.225 26.4462 140.144 26.5256C140.064 26.605 139.956 26.6496 139.843 26.6495Z" fill="white"/>
<path d="M153.07 21.2159H144.418C144.399 21.2161 144.381 21.2203 144.364 21.2283C144.347 21.2363 144.332 21.2479 144.32 21.2623C144.308 21.2766 144.3 21.2934 144.295 21.3115C144.29 21.3296 144.289 21.3485 144.293 21.3668C144.654 22.8265 145.659 23.7201 146.969 23.7201C147.832 23.7201 148.826 23.5178 149.506 22.4718C149.553 22.3976 149.622 22.3397 149.703 22.3057C149.784 22.2717 149.873 22.2633 149.959 22.2816L152.708 22.8763C152.771 22.889 152.83 22.9159 152.881 22.9548C152.933 22.9938 152.974 23.0439 153.003 23.1012C153.032 23.1586 153.048 23.2218 153.049 23.2861C153.05 23.3504 153.037 23.4142 153.01 23.4725C151.86 25.8876 149.678 27.0468 146.972 27.0468C143.33 27.0468 140.317 24.2786 140.317 20.1638C140.317 16.0748 143.336 13.2793 146.996 13.2793C150.563 13.2793 153.425 15.9193 153.5 20.1638V20.7963C153.498 20.9087 153.452 21.0156 153.371 21.0941C153.291 21.1726 153.183 21.2163 153.07 21.2159ZM144.507 18.6801H149.358C149.378 18.68 149.398 18.6752 149.416 18.6662C149.434 18.6571 149.449 18.644 149.461 18.6278C149.473 18.6117 149.481 18.593 149.485 18.5732C149.488 18.5535 149.487 18.5332 149.481 18.514C149.072 17.231 148.103 16.6348 146.993 16.6348C146.418 16.6372 145.858 16.8186 145.391 17.1537C144.924 17.4889 144.573 17.9611 144.386 18.505C144.379 18.5247 144.376 18.5459 144.379 18.5669C144.381 18.5879 144.388 18.608 144.4 18.6255C144.412 18.6429 144.428 18.6573 144.447 18.6673C144.465 18.6774 144.486 18.6828 144.507 18.6831V18.6801Z" fill="white"/>
<path d="M48.8305 14.2725L45.4614 14.9578C45.3776 14.9738 45.2909 14.9576 45.2185 14.9126C45.146 14.8676 45.0932 14.797 45.0705 14.7148C44.6629 13.3261 43.4282 12.6423 42.1708 12.6423C40.7731 12.6423 39.884 13.397 39.884 14.3631C39.884 15.0468 40.1859 15.5525 41.2561 15.7804L44.7882 16.5653C47.7346 17.2235 49.4674 18.8189 49.4674 21.5012C49.4674 25.1238 46.2403 26.994 42.4546 26.994C38.7837 26.994 35.7406 25.3261 35.0856 22.2755C35.0741 22.221 35.0737 22.1647 35.0843 22.11C35.0949 22.0553 35.1162 22.0032 35.1471 21.9568C35.178 21.9105 35.2179 21.8707 35.2643 21.8399C35.3108 21.8091 35.3629 21.7879 35.4176 21.7774L39.0267 21.0801C39.1078 21.064 39.1921 21.0786 39.2631 21.121C39.3342 21.1633 39.3871 21.2305 39.4116 21.3095C39.9022 22.8521 41.072 23.5269 42.684 23.5269C44.2584 23.5269 45.1988 22.8174 45.1988 21.7804C45.1988 21.0257 44.8425 20.5397 43.6244 20.2861L40.0667 19.5314C37.6274 18.9744 35.4946 17.7095 35.4946 14.6212C35.4946 11.3306 38.2373 9.2793 42.2267 9.2793C45.7573 9.2793 48.3686 10.9397 49.158 13.7548C49.1725 13.8104 49.1753 13.8683 49.1665 13.9251C49.1576 13.9818 49.1372 14.0361 49.1065 14.0847C49.0758 14.1332 49.0354 14.1749 48.988 14.2072C48.9405 14.2395 48.8869 14.2618 48.8305 14.2725Z" fill="white"/>
<path d="M63.7146 20.1577C63.7146 24.2498 60.4587 26.9789 56.6097 26.9789C52.6851 26.9789 49.4263 24.2498 49.4263 20.1577C49.4263 16.0822 52.6821 13.3653 56.6097 13.3653C60.4587 13.3547 63.7146 16.0822 63.7146 20.1577ZM59.7357 20.1577C59.7357 18.1487 58.2112 16.8098 56.6097 16.8098C54.9297 16.8098 53.4051 18.1487 53.4051 20.1577C53.4051 22.1909 54.9297 23.5041 56.6097 23.5041C58.2112 23.4981 59.7357 22.1849 59.7357 20.1577Z" fill="white"/>
<path d="M77.3578 14.2725L73.9887 14.9578C73.905 14.9738 73.8183 14.9576 73.7458 14.9126C73.6734 14.8676 73.6206 14.797 73.5978 14.7148C73.1903 13.3261 71.9555 12.6423 70.6982 12.6423C69.3004 12.6423 68.4114 13.397 68.4114 14.3631C68.4114 15.0468 68.7133 15.5525 69.7835 15.7804L73.3155 16.5653C76.262 17.2235 77.9948 18.8189 77.9948 21.5012C77.9948 25.1238 74.7676 26.994 70.982 26.994C67.311 26.994 64.268 25.3261 63.6129 22.2755C63.6015 22.221 63.6011 22.1647 63.6116 22.11C63.6222 22.0553 63.6436 22.0032 63.6745 21.9568C63.7054 21.9105 63.7452 21.8707 63.7917 21.8399C63.8381 21.8091 63.8902 21.7879 63.945 21.7774L67.554 21.0801C67.6352 21.064 67.7194 21.0786 67.7905 21.121C67.8615 21.1633 67.9144 21.2305 67.9389 21.3095C68.4295 22.8521 69.5993 23.5269 71.2114 23.5269C72.7857 23.5269 73.7261 22.8174 73.7261 21.7804C73.7261 21.0257 73.3699 20.5397 72.1518 20.2861L68.594 19.5314C66.1548 18.9744 64.022 17.7095 64.022 14.6212C64.022 11.3306 66.7646 9.2793 70.754 9.2793C74.2846 9.2793 76.8959 10.9397 77.6854 13.7548C77.6998 13.8104 77.7027 13.8683 77.6938 13.9251C77.685 13.9818 77.6645 14.0361 77.6338 14.0847C77.6031 14.1332 77.5628 14.1749 77.5153 14.2072C77.4678 14.2395 77.4142 14.2618 77.3578 14.2725Z" fill="white"/>
<path d="M92.2419 20.1577C92.2419 24.2498 88.9861 26.9789 85.137 26.9789C81.2125 26.9789 77.9536 24.2498 77.9536 20.1577C77.9536 16.0822 81.2095 13.3653 85.137 13.3653C88.9861 13.3547 92.2419 16.0822 92.2419 20.1577ZM88.2631 20.1577C88.2631 18.1487 86.7385 16.8098 85.137 16.8098C83.457 16.8098 81.9325 18.1487 81.9325 20.1577C81.9325 22.1909 83.457 23.5041 85.137 23.5041C86.7385 23.4981 88.2631 22.1849 88.2631 20.1577Z" fill="white"/>
<path d="M103.683 27.0306H100.254C100.137 27.03 100.022 26.9953 99.9243 26.9307C99.8265 26.8661 99.7496 26.7744 99.703 26.6668L92.4879 9.76116C92.4657 9.70903 92.4567 9.65221 92.4619 9.59578C92.467 9.53934 92.486 9.48507 92.5173 9.4378C92.5486 9.39054 92.5911 9.35177 92.641 9.32496C92.6909 9.29815 92.7467 9.28414 92.8034 9.28418H96.7188C96.8374 9.28482 96.9532 9.32038 97.0517 9.38641C97.1502 9.45245 97.2271 9.54604 97.2728 9.65549L101.839 20.7634C101.849 20.7868 101.865 20.8069 101.886 20.8209C101.907 20.835 101.932 20.8425 101.957 20.8425C101.983 20.8425 102.007 20.835 102.029 20.8209C102.05 20.8069 102.066 20.7868 102.076 20.7634L106.668 9.66455C106.713 9.55561 106.79 9.46251 106.888 9.39677C106.986 9.33103 107.102 9.29556 107.22 9.29475H111.144C111.201 9.29495 111.257 9.30914 111.306 9.33606C111.356 9.36297 111.398 9.40177 111.429 9.449C111.461 9.49622 111.479 9.5504 111.485 9.60671C111.49 9.66302 111.481 9.71971 111.458 9.77172L104.245 26.6774C104.196 26.7847 104.117 26.8753 104.017 26.938C103.917 27.0008 103.801 27.033 103.683 27.0306Z" fill="white"/>
</svg>
