<svg width="154" height="32" viewBox="0 0 154 32" fill="none" xmlns="http://www.w3.org/2000/svg">
<ellipse cx="85.6546" cy="20.5111" rx="4.08486" ry="4.28482" fill="#FF4E1F"/>
<path d="M28.3975 8.30394C28.3971 8.18546 28.3655 8.06917 28.3059 7.9668C28.2462 7.86443 28.1606 7.77961 28.0577 7.72088L14.7696 0.0906556C14.6668 0.0312679 14.5501 0 14.4313 0C14.3125 0 14.1959 0.0312679 14.093 0.0906556L0.836561 7.78134C0.733973 7.84091 0.648848 7.9264 0.589721 8.02924C0.530593 8.13208 0.499542 8.24866 0.49968 8.36728L0.531353 23.694C0.531904 23.8126 0.56357 23.929 0.62319 24.0316C0.682811 24.1341 0.768298 24.2193 0.871114 24.2785L14.1592 31.9087C14.2619 31.9685 14.3787 32 14.4975 32C14.6164 32 14.7331 31.9685 14.8359 31.9087L28.0923 24.218C28.1949 24.1584 28.28 24.0729 28.3391 23.9701C28.3983 23.8673 28.4293 23.7507 28.4292 23.632L28.3975 8.30394ZM24.4111 10.2288L18.579 13.6509C18.4802 13.7085 18.3685 13.7402 18.2542 13.7429C18.1399 13.7457 18.0268 13.7195 17.9254 13.6667L15.1382 12.2155C15.0843 12.1877 15.039 12.1459 15.0069 12.0946C14.9748 12.0432 14.9572 11.9841 14.9559 11.9235C14.9545 11.8629 14.9696 11.8031 14.9994 11.7504C15.0292 11.6976 15.0727 11.6539 15.1252 11.6238L17.623 10.1841C17.6571 10.1642 17.6853 10.1357 17.705 10.1015C17.7246 10.0673 17.7349 10.0285 17.7349 9.98907C17.7349 9.94962 17.7246 9.91085 17.705 9.87663C17.6853 9.84241 17.6571 9.81391 17.623 9.79399L14.7898 8.15997C14.6869 8.10058 14.5702 8.06932 14.4515 8.06932C14.3327 8.06932 14.216 8.10058 14.1131 8.15997L7.84197 11.7879C7.80756 11.8076 7.77895 11.8359 7.75905 11.8702C7.73915 11.9045 7.72867 11.9434 7.72867 11.983C7.72867 12.0226 7.73915 12.0615 7.75905 12.0958C7.77895 12.1301 7.80756 12.1584 7.84197 12.1781L14.1333 15.7902C14.236 15.8493 14.3214 15.9345 14.3808 16.0371C14.4402 16.1397 14.4715 16.2561 14.4716 16.3747L14.4889 27.2974C14.4887 27.3738 14.4691 27.4488 14.432 27.5155C14.3949 27.5822 14.3416 27.6385 14.2769 27.679C14.2122 27.7195 14.1383 27.743 14.0621 27.7473C13.9859 27.7516 13.9099 27.7365 13.8411 27.7034L4.35366 22.2514C4.25065 22.1924 4.165 22.1074 4.10535 22.0047C4.04571 21.9021 4.01416 21.7856 4.0139 21.6669L4.00382 16.9419C4.00165 16.8761 4.01875 16.811 4.05302 16.7548C4.08729 16.6985 4.13724 16.6535 4.19674 16.6252C4.24402 16.6047 4.29542 16.5954 4.34689 16.5982C4.39836 16.6009 4.44848 16.6156 4.49331 16.641L7.12214 18.1124C7.22625 18.1713 7.313 18.2566 7.37366 18.3597C7.43432 18.4629 7.46674 18.5801 7.46766 18.6998V19.7665C7.468 19.8455 7.48905 19.9229 7.52872 19.9911C7.56839 20.0593 7.62527 20.1159 7.69368 20.1553L10.6479 21.8526C10.6821 21.8724 10.721 21.8828 10.7605 21.8827C10.8 21.8827 10.8388 21.8722 10.873 21.8523C10.9072 21.8324 10.9355 21.8039 10.9552 21.7696C10.9748 21.7352 10.985 21.6964 10.9848 21.6568V18.4133C10.9849 18.2945 10.9537 18.1777 10.8943 18.0749C10.8349 17.972 10.7494 17.8866 10.6464 17.8273L4.32919 14.195C4.22761 14.1367 4.14298 14.053 4.08365 13.952C4.02432 13.851 3.99234 13.7363 3.99087 13.6192V12.6791V10.3756C3.99002 10.2418 4.02966 10.1108 4.1046 9.99987L4.14347 9.94803L4.1881 9.90053C4.2303 9.85702 4.27884 9.82013 4.33207 9.79111L14.1074 4.12172C14.21 4.06231 14.3264 4.03103 14.445 4.03103C14.5635 4.03103 14.68 4.06231 14.7826 4.12172L24.4139 9.65578C24.4629 9.68615 24.5033 9.72857 24.5312 9.779C24.5591 9.82942 24.5736 9.88617 24.5733 9.94381C24.573 10.0014 24.558 10.058 24.5296 10.1082C24.5012 10.1583 24.4604 10.2003 24.4111 10.2302V10.2288Z" fill="white"/>
<path d="M17.9111 18.1497L17.9197 21.9807C17.9199 22.0598 17.9409 22.1374 17.9806 22.2058C18.0203 22.2742 18.0773 22.3309 18.1459 22.3703C18.2145 22.4097 18.2922 22.4304 18.3713 22.4302C18.4503 22.43 18.528 22.4091 18.5964 22.3694L21.9004 20.4518C22.003 20.3922 22.0881 20.3067 22.1472 20.2039C22.2064 20.101 22.2374 19.9845 22.2373 19.8658L22.2286 16.045C22.2285 15.9659 22.2075 15.8883 22.1678 15.8199C22.1281 15.7515 22.0711 15.6947 22.0025 15.6553C21.9339 15.616 21.8562 15.5953 21.7771 15.5955C21.6981 15.5956 21.6204 15.6166 21.552 15.6562L18.2509 17.5696C18.1486 17.6283 18.0634 17.7127 18.0038 17.8145C17.9442 17.9162 17.9123 18.0318 17.9111 18.1497Z" fill="#FF4E1F"/>
<path d="M120.262 18.4239V26.2262C120.261 26.3389 120.216 26.4468 120.136 26.5263C120.056 26.6057 119.947 26.6503 119.835 26.6503H116.689C116.576 26.6503 116.467 26.6053 116.387 26.5252C116.307 26.4451 116.262 26.3364 116.262 26.2232V25.962C116.262 25.9383 116.255 25.9152 116.242 25.8951C116.229 25.8751 116.212 25.8589 116.19 25.8484C116.169 25.838 116.145 25.8336 116.122 25.8358C116.098 25.838 116.076 25.8467 116.057 25.8609C115.168 26.5492 113.978 27.0383 112.366 27.0383C109.457 27.0383 107.509 25.3567 107.509 22.7952C107.509 20.2579 109.457 18.602 112.943 18.602H116.01C116.078 18.6016 116.144 18.5743 116.192 18.526C116.24 18.4777 116.268 18.4122 116.268 18.3439C116.268 17.2571 115.513 16.5326 114.423 16.5326C113.334 16.5326 112.627 16.9175 112.336 17.79C112.304 17.8908 112.236 17.9763 112.145 18.0303C112.054 18.0843 111.946 18.1029 111.842 18.0828L108.665 17.4428C108.618 17.4334 108.574 17.4144 108.535 17.3869C108.496 17.3595 108.463 17.3241 108.438 17.2832C108.414 17.2423 108.398 17.1966 108.392 17.1493C108.386 17.1019 108.39 17.0538 108.404 17.0081C109.106 14.7092 111.317 13.2813 114.282 13.2813C117.951 13.2737 120.262 15.1107 120.262 18.4239ZM116.262 21.5288V21.3779C116.262 21.3439 116.248 21.3112 116.224 21.2872C116.2 21.2631 116.168 21.2496 116.134 21.2496H113.405C112.366 21.2496 111.717 21.793 111.717 22.5945C111.717 23.4232 112.443 23.9409 113.528 23.9409C114.964 23.9333 116.262 22.9794 116.262 21.5288Z" fill="white"/>
<path d="M124.366 22.2299C124.366 22.9031 124.86 23.3695 125.613 23.3695C126.004 23.3423 126.39 23.2605 126.759 23.1265C126.804 23.1122 126.853 23.1077 126.9 23.1133C126.948 23.1189 126.994 23.1345 127.035 23.1589C127.076 23.1834 127.112 23.2163 127.14 23.2554C127.168 23.2945 127.187 23.3391 127.196 23.3861L127.703 25.9174C127.722 26.0107 127.709 26.1076 127.666 26.1926C127.624 26.2776 127.554 26.346 127.468 26.3868C126.615 26.8316 125.666 27.0573 124.704 27.0435C122.002 27.0435 120.211 25.2321 120.211 22.5408V7.15666C120.211 7.04337 120.256 6.93471 120.336 6.8546C120.416 6.77449 120.524 6.72949 120.638 6.72949H123.939C124.052 6.72949 124.161 6.77449 124.241 6.8546C124.321 6.93471 124.366 7.04337 124.366 7.15666V22.2299Z" fill="white"/>
<path d="M139.843 26.6495H136.543C136.43 26.6495 136.321 26.6045 136.241 26.5244C136.161 26.4443 136.116 26.3357 136.116 26.2224V25.7137C136.116 25.6887 136.109 25.6642 136.096 25.6432C136.082 25.6222 136.063 25.6056 136.04 25.5956C136.017 25.5856 135.992 25.5826 135.967 25.587C135.943 25.5913 135.92 25.6029 135.902 25.6201C134.933 26.5258 133.638 27.0375 132.116 27.0375C129.076 27.0375 127.05 24.8895 127.05 21.6292V14.082C127.05 13.9686 127.095 13.8598 127.175 13.7794C127.255 13.6991 127.364 13.6537 127.478 13.6533H130.753C130.866 13.6537 130.975 13.6991 131.055 13.7794C131.135 13.8598 131.18 13.9686 131.18 14.082V20.7446C131.18 22.2722 132.086 23.3107 133.414 23.3107C135.05 23.3107 136.116 22.1982 136.116 19.688V14.0895C136.116 14.0333 136.127 13.9776 136.148 13.9256C136.169 13.8736 136.201 13.8263 136.241 13.7865C136.28 13.7467 136.327 13.7151 136.379 13.6935C136.431 13.672 136.487 13.6609 136.543 13.6609H139.843C139.956 13.6609 140.066 13.706 140.146 13.7864C140.226 13.8668 140.271 13.9758 140.271 14.0895V26.2254C140.27 26.3383 140.225 26.4462 140.144 26.5256C140.064 26.605 139.956 26.6496 139.843 26.6495Z" fill="white"/>
<path d="M153.07 21.2159H144.418C144.399 21.2161 144.381 21.2203 144.364 21.2283C144.347 21.2363 144.332 21.2479 144.32 21.2623C144.308 21.2766 144.3 21.2934 144.295 21.3115C144.29 21.3296 144.289 21.3485 144.293 21.3668C144.654 22.8265 145.659 23.7201 146.969 23.7201C147.832 23.7201 148.826 23.5178 149.506 22.4718C149.553 22.3976 149.622 22.3397 149.703 22.3057C149.784 22.2717 149.873 22.2633 149.959 22.2816L152.708 22.8763C152.771 22.889 152.83 22.9159 152.881 22.9548C152.933 22.9938 152.974 23.0439 153.003 23.1012C153.032 23.1586 153.048 23.2218 153.049 23.2861C153.05 23.3504 153.037 23.4142 153.01 23.4725C151.86 25.8876 149.678 27.0468 146.972 27.0468C143.33 27.0468 140.317 24.2786 140.317 20.1638C140.317 16.0748 143.336 13.2793 146.996 13.2793C150.563 13.2793 153.425 15.9193 153.5 20.1638V20.7963C153.498 20.9087 153.452 21.0156 153.371 21.0941C153.291 21.1726 153.183 21.2163 153.07 21.2159ZM144.507 18.6801H149.358C149.378 18.68 149.398 18.6752 149.416 18.6662C149.434 18.6571 149.449 18.644 149.461 18.6278C149.473 18.6117 149.481 18.593 149.485 18.5732C149.488 18.5535 149.487 18.5332 149.481 18.514C149.072 17.231 148.103 16.6348 146.993 16.6348C146.418 16.6372 145.858 16.8186 145.391 17.1537C144.924 17.4889 144.573 17.9611 144.386 18.505C144.379 18.5247 144.376 18.5459 144.379 18.5669C144.381 18.5879 144.388 18.608 144.4 18.6255C144.412 18.6429 144.428 18.6573 144.447 18.6673C144.465 18.6774 144.486 18.6828 144.507 18.6831V18.6801Z" fill="white"/>
<path d="M48.8307 14.2725L45.4616 14.9578C45.3778 14.9738 45.2911 14.9576 45.2187 14.9126C45.1462 14.8676 45.0934 14.797 45.0707 14.7148C44.6631 13.3261 43.4284 12.6423 42.171 12.6423C40.7733 12.6423 39.8842 13.397 39.8842 14.3631C39.8842 15.0468 40.1861 15.5525 41.2563 15.7804L44.7884 16.5653C47.7348 17.2235 49.4676 18.8189 49.4676 21.5012C49.4676 25.1238 46.2405 26.994 42.4548 26.994C38.7839 26.994 35.7408 25.3261 35.0858 22.2755C35.0743 22.221 35.0739 22.1647 35.0845 22.11C35.0951 22.0553 35.1164 22.0032 35.1473 21.9568C35.1782 21.9105 35.2181 21.8707 35.2645 21.8399C35.311 21.8091 35.3631 21.7879 35.4178 21.7774L39.0269 21.0801C39.108 21.064 39.1923 21.0786 39.2633 21.121C39.3344 21.1633 39.3873 21.2305 39.4118 21.3095C39.9024 22.8521 41.0722 23.5269 42.6842 23.5269C44.2586 23.5269 45.199 22.8174 45.199 21.7804C45.199 21.0257 44.8427 20.5397 43.6246 20.2861L40.0669 19.5314C37.6276 18.9744 35.4948 17.7095 35.4948 14.6212C35.4948 11.3306 38.2374 9.2793 42.2269 9.2793C45.7575 9.2793 48.3688 10.9397 49.1582 13.7548C49.1727 13.8104 49.1755 13.8683 49.1667 13.9251C49.1578 13.9818 49.1374 14.0361 49.1067 14.0847C49.076 14.1332 49.0356 14.1749 48.9882 14.2072C48.9407 14.2395 48.8871 14.2618 48.8307 14.2725Z" fill="white"/>
<path d="M63.7147 20.1577C63.7147 24.2498 60.4589 26.9789 56.6098 26.9789C52.6853 26.9789 49.4264 24.2498 49.4264 20.1577C49.4264 16.0822 52.6823 13.3653 56.6098 13.3653C60.4589 13.3547 63.7147 16.0822 63.7147 20.1577ZM59.7359 20.1577C59.7359 18.1487 58.2113 16.8098 56.6098 16.8098C54.9298 16.8098 53.4053 18.1487 53.4053 20.1577C53.4053 22.1909 54.9298 23.5041 56.6098 23.5041C58.2113 23.4981 59.7359 22.1849 59.7359 20.1577Z" fill="white"/>
<path d="M77.3581 14.2725L73.9891 14.9578C73.9053 14.9738 73.8186 14.9576 73.7461 14.9126C73.6737 14.8676 73.6209 14.797 73.5981 14.7148C73.1906 13.3261 71.9559 12.6423 70.6985 12.6423C69.3008 12.6423 68.4117 13.397 68.4117 14.3631C68.4117 15.0468 68.7136 15.5525 69.7838 15.7804L73.3159 16.5653C76.2623 17.2235 77.9951 18.8189 77.9951 21.5012C77.9951 25.1238 74.7679 26.994 70.9823 26.994C67.3113 26.994 64.2683 25.3261 63.6132 22.2755C63.6018 22.221 63.6014 22.1647 63.6119 22.11C63.6225 22.0553 63.6439 22.0032 63.6748 21.9568C63.7057 21.9105 63.7456 21.8707 63.792 21.8399C63.8384 21.8091 63.8905 21.7879 63.9453 21.7774L67.5543 21.0801C67.6355 21.064 67.7197 21.0786 67.7908 21.121C67.8618 21.1633 67.9147 21.2305 67.9393 21.3095C68.4298 22.8521 69.5996 23.5269 71.2117 23.5269C72.786 23.5269 73.7264 22.8174 73.7264 21.7804C73.7264 21.0257 73.3702 20.5397 72.1521 20.2861L68.5943 19.5314C66.1551 18.9744 64.0223 17.7095 64.0223 14.6212C64.0223 11.3306 66.7649 9.2793 70.7543 9.2793C74.2849 9.2793 76.8962 10.9397 77.6857 13.7548C77.7001 13.8104 77.703 13.8683 77.6941 13.9251C77.6853 13.9818 77.6649 14.0361 77.6341 14.0847C77.6034 14.1332 77.5631 14.1749 77.5156 14.2072C77.4681 14.2395 77.4145 14.2618 77.3581 14.2725Z" fill="white"/>
<path d="M92.2421 20.1577C92.2421 24.2498 88.9862 26.9789 85.1372 26.9789C81.2126 26.9789 77.9538 24.2498 77.9538 20.1577C77.9538 16.0822 81.2096 13.3653 85.1372 13.3653C88.9862 13.3547 92.2421 16.0822 92.2421 20.1577ZM88.2632 20.1577C88.2632 18.1487 86.7387 16.8098 85.1372 16.8098C83.4572 16.8098 81.9327 18.1487 81.9327 20.1577C81.9327 22.1909 83.4572 23.5041 85.1372 23.5041C86.7387 23.4981 88.2632 22.1849 88.2632 20.1577Z" fill="white"/>
<path d="M103.684 27.0306H100.254C100.137 27.03 100.023 26.9953 99.9247 26.9307C99.8269 26.8661 99.75 26.7744 99.7034 26.6668L92.4883 9.76116C92.4661 9.70903 92.4571 9.65221 92.4623 9.59578C92.4674 9.53934 92.4864 9.48507 92.5177 9.4378C92.549 9.39054 92.5915 9.35177 92.6414 9.32496C92.6913 9.29815 92.7471 9.28414 92.8038 9.28418H96.7192C96.8378 9.28482 96.9536 9.32038 97.0521 9.38641C97.1506 9.45245 97.2275 9.54604 97.2732 9.65549L101.839 20.7634C101.849 20.7868 101.865 20.8069 101.886 20.8209C101.908 20.835 101.932 20.8425 101.958 20.8425C101.983 20.8425 102.008 20.835 102.029 20.8209C102.05 20.8069 102.066 20.7868 102.076 20.7634L106.668 9.66455C106.714 9.55561 106.79 9.46251 106.889 9.39677C106.987 9.33103 107.102 9.29556 107.22 9.29475H111.145C111.201 9.29495 111.257 9.30914 111.307 9.33606C111.356 9.36297 111.399 9.40177 111.43 9.449C111.461 9.49622 111.48 9.5504 111.485 9.60671C111.49 9.66302 111.481 9.71971 111.459 9.77172L104.245 26.6774C104.196 26.7847 104.117 26.8753 104.017 26.938C103.918 27.0008 103.802 27.033 103.684 27.0306Z" fill="white"/>
</svg>
