<svg width="24" height="26" viewBox="0 0 24 26" fill="none" xmlns="http://www.w3.org/2000/svg">
<path d="M23.6463 6.74695C23.646 6.65069 23.6203 6.5562 23.5719 6.47303C23.5235 6.38985 23.454 6.32093 23.3705 6.27321L12.5838 0.0736577C12.5003 0.0254051 12.4055 0 12.3091 0C12.2127 0 12.118 0.0254051 12.0345 0.0736577L1.27347 6.32234C1.19019 6.37074 1.12109 6.4402 1.07309 6.52376C1.02509 6.60732 0.999888 6.70203 1 6.79842L1.02571 19.2513C1.02616 19.3477 1.05186 19.4423 1.10026 19.5256C1.14866 19.609 1.21805 19.6782 1.30151 19.7262L12.0882 25.9258C12.1716 25.9744 12.2664 26 12.3629 26C12.4594 26 12.5541 25.9744 12.6375 25.9258L23.3985 19.6771C23.4818 19.6287 23.5509 19.5593 23.5989 19.4757C23.6469 19.3921 23.6721 19.2974 23.672 19.201L23.6463 6.74695ZM20.4103 8.31087L15.676 11.0913C15.5959 11.1382 15.5052 11.1639 15.4124 11.1661C15.3196 11.1684 15.2278 11.1471 15.1455 11.1042L12.8829 9.9251C12.8392 9.90252 12.8024 9.86858 12.7764 9.82682C12.7503 9.78507 12.736 9.73706 12.7349 9.68785C12.7339 9.63863 12.7461 9.59004 12.7703 9.54719C12.7944 9.50434 12.8297 9.46881 12.8724 9.44434L14.9 8.27461C14.9277 8.25842 14.9506 8.23527 14.9665 8.20747C14.9825 8.17966 14.9908 8.14817 14.9908 8.11612C14.9908 8.08406 14.9825 8.05257 14.9665 8.02476C14.9506 7.99696 14.9277 7.9738 14.9 7.95761L12.6001 6.62998C12.5166 6.58172 12.4219 6.55632 12.3255 6.55632C12.2291 6.55632 12.1343 6.58172 12.0508 6.62998L6.96017 9.57769C6.93223 9.59364 6.90901 9.61671 6.89286 9.64455C6.8767 9.67238 6.86819 9.704 6.86819 9.73619C6.86819 9.76838 6.8767 9.8 6.89286 9.82784C6.90901 9.85567 6.93223 9.87873 6.96017 9.89468L12.0672 12.8295C12.1506 12.8776 12.2199 12.9468 12.2681 13.0301C12.3163 13.1135 12.3417 13.2081 12.3418 13.3044L12.3559 22.1792C12.3557 22.2412 12.3398 22.3021 12.3097 22.3564C12.2796 22.4106 12.2363 22.4563 12.1838 22.4892C12.1313 22.5221 12.0713 22.5412 12.0094 22.5447C11.9476 22.5482 11.8858 22.5359 11.83 22.509L4.1285 18.0793C4.04488 18.0314 3.97536 17.9622 3.92694 17.8788C3.87852 17.7955 3.85291 17.7008 3.8527 17.6044L3.84452 13.7653C3.84275 13.7118 3.85663 13.659 3.88445 13.6132C3.91227 13.5675 3.95282 13.5309 4.00112 13.508C4.0395 13.4913 4.08123 13.4838 4.12301 13.486C4.16479 13.4882 4.20548 13.5002 4.24186 13.5208L6.37583 14.7163C6.46035 14.7642 6.53077 14.8335 6.58001 14.9173C6.62925 15.0011 6.65557 15.0964 6.65631 15.1936V16.0603C6.65659 16.1244 6.67368 16.1873 6.70588 16.2428C6.73808 16.2982 6.78426 16.3442 6.83979 16.3761L9.23788 17.7553C9.26567 17.7713 9.29721 17.7797 9.3293 17.7797C9.36139 17.7797 9.3929 17.7711 9.42065 17.755C9.4484 17.7389 9.47139 17.7157 9.48732 17.6878C9.50325 17.6599 9.51153 17.6283 9.51135 17.5962V14.9608C9.51146 14.8642 9.48613 14.7694 9.43791 14.6858C9.38969 14.6022 9.32029 14.5329 9.23671 14.4847L4.10864 11.5335C4.02618 11.4861 3.95748 11.418 3.90932 11.336C3.86116 11.2539 3.8352 11.1607 3.834 11.0656V8.43019C3.83331 8.32143 3.86549 8.21501 3.92632 8.12489L3.95788 8.08278L3.99411 8.04418C4.02837 8.00883 4.06777 7.97885 4.11097 7.95528L12.0462 3.34889C12.1295 3.30063 12.224 3.27521 12.3202 3.27521C12.4165 3.27521 12.511 3.30063 12.5943 3.34889L20.4126 7.84532C20.4524 7.87 20.4851 7.90446 20.5078 7.94543C20.5304 7.98641 20.5422 8.03252 20.542 8.07934C20.5418 8.12617 20.5295 8.17215 20.5065 8.21289C20.4834 8.25364 20.4503 8.28777 20.4103 8.31205V8.31087Z" fill="white"/>
<path d="M15.1339 14.7467L15.1409 17.8593C15.141 17.9236 15.1581 17.9866 15.1903 18.0422C15.2225 18.0978 15.2688 18.1439 15.3244 18.1759C15.3801 18.2079 15.4432 18.2247 15.5074 18.2245C15.5716 18.2244 15.6346 18.2074 15.6901 18.1751L18.3722 16.6171C18.4555 16.5687 18.5246 16.4992 18.5726 16.4157C18.6206 16.3321 18.6458 16.2374 18.6457 16.141L18.6387 13.0365C18.6385 12.9723 18.6215 12.9092 18.5892 12.8536C18.557 12.7981 18.5107 12.752 18.4551 12.72C18.3994 12.688 18.3363 12.6712 18.2721 12.6713C18.208 12.6714 18.1449 12.6885 18.0894 12.7207L15.4097 14.2753C15.3266 14.323 15.2575 14.3916 15.2091 14.4743C15.1607 14.557 15.1348 14.6509 15.1339 14.7467Z" fill="#FF4F20"/>
</svg>
