<svg width="24" height="24" viewBox="0 0 24 24" fill="none" xmlns="http://www.w3.org/2000/svg">
<g id="MagnifyingGlass">
<path id="Vector" d="M15.75 10.5003C15.75 11.5386 15.4421 12.5536 14.8652 13.417C14.2884 14.2804 13.4684 14.9533 12.5091 15.3506C11.5498 15.748 10.4942 15.852 9.47581 15.6494C8.45741 15.4468 7.52194 14.9468 6.78772 14.2126C6.05349 13.4783 5.55348 12.5429 5.35091 11.5245C5.14833 10.5061 5.2523 9.45048 5.64966 8.49117C6.04702 7.53186 6.71993 6.71192 7.58329 6.13505C8.44664 5.55817 9.46168 5.25026 10.5 5.25026C11.8924 5.25026 13.2278 5.80338 14.2123 6.78795C15.1969 7.77252 15.75 9.10787 15.75 10.5003ZM21.5307 21.5309C21.461 21.6006 21.3783 21.6559 21.2872 21.6937C21.1962 21.7314 21.0986 21.7509 21 21.7509C20.9015 21.7509 20.8039 21.7314 20.7128 21.6937C20.6218 21.6559 20.5391 21.6006 20.4694 21.5309L15.7763 16.8368C14.1442 18.1946 12.0515 18.8709 9.93346 18.7252C7.81543 18.5794 5.83514 17.6227 4.40449 16.0541C2.97384 14.4854 2.20297 12.4257 2.25222 10.3032C2.30148 8.18076 3.16707 6.15897 4.66895 4.65842C6.17083 3.15787 8.19337 2.29407 10.3159 2.24669C12.4384 2.1993 14.4975 2.97199 16.0648 4.40403C17.6322 5.83607 18.5871 7.81721 18.731 9.93536C18.8749 12.0535 18.1968 14.1456 16.8375 15.7765L21.5307 20.4696C21.6004 20.5393 21.6557 20.622 21.6934 20.7131C21.7312 20.8041 21.7506 20.9017 21.7506 21.0003C21.7506 21.0988 21.7312 21.1964 21.6934 21.2875C21.6557 21.3785 21.6004 21.4612 21.5307 21.5309ZM10.5 17.2503C11.8351 17.2503 13.1401 16.8544 14.2501 16.1127C15.3602 15.371 16.2253 14.3168 16.7362 13.0834C17.2471 11.85 17.3808 10.4928 17.1203 9.1834C16.8599 7.87403 16.217 6.67129 15.273 5.72729C14.329 4.78329 13.1263 4.14041 11.8169 3.87996C10.5075 3.61951 9.15032 3.75318 7.91692 4.26407C6.68351 4.77497 5.62931 5.64013 4.88761 6.75016C4.14591 7.86019 3.75003 9.16524 3.75003 10.5003C3.75201 12.2899 4.46381 14.0056 5.72925 15.271C6.99469 16.5365 8.71043 17.2483 10.5 17.2503Z" fill="white"/>
</g>
</svg>
