<svg width="24" height="24" viewBox="0 0 24 24" fill="none" xmlns="http://www.w3.org/2000/svg">
<g id="MagnifyingGlass">
<path id="Vector" d="M21.5308 20.4692L16.8368 15.7761C18.1973 14.1427 18.8757 12.0477 18.7309 9.92679C18.5861 7.80592 17.6293 5.82253 16.0593 4.3892C14.4894 2.95587 12.4274 2.18296 10.3021 2.23126C8.17687 2.27956 6.15205 3.14535 4.64888 4.64852C3.14571 6.15169 2.27993 8.17651 2.23163 10.3018C2.18333 12.427 2.95623 14.4891 4.38956 16.059C5.82289 17.6289 7.80629 18.5858 9.92715 18.7306C12.048 18.8754 14.1431 18.1969 15.7765 16.8364L20.4696 21.5305C20.5393 21.6002 20.622 21.6554 20.713 21.6931C20.8041 21.7309 20.9017 21.7503 21.0002 21.7503C21.0988 21.7503 21.1963 21.7309 21.2874 21.6931C21.3784 21.6554 21.4612 21.6002 21.5308 21.5305C21.6005 21.4608 21.6558 21.3781 21.6935 21.287C21.7312 21.196 21.7506 21.0984 21.7506 20.9998C21.7506 20.9013 21.7312 20.8037 21.6935 20.7127C21.6558 20.6216 21.6005 20.5389 21.5308 20.4692ZM3.75021 10.4998C3.75021 9.16482 4.14609 7.85978 4.88779 6.74975C5.62949 5.63972 6.6837 4.77455 7.9171 4.26366C9.1505 3.75277 10.5077 3.6191 11.8171 3.87955C13.1264 4.14 14.3292 4.78287 15.2732 5.72688C16.2172 6.67088 16.8601 7.87362 17.1205 9.18299C17.381 10.4924 17.2473 11.8496 16.7364 13.083C16.2255 14.3164 15.3603 15.3706 14.2503 16.1123C13.1403 16.854 11.8352 17.2498 10.5002 17.2498C8.71061 17.2479 6.99488 16.5361 5.72944 15.2706C4.464 14.0052 3.7522 12.2895 3.75021 10.4998Z" fill="#ADADAD"/>
</g>
</svg>
