<svg width="12" height="12" viewBox="0 0 12 12" fill="none" xmlns="http://www.w3.org/2000/svg">
<rect width="12" height="12" rx="6" fill="#B3B3B3" fill-opacity="0.2" style="fill:#B3B3B3;fill:color(display-p3 0.7000 0.7000 0.7000);fill-opacity:0.2;"/>
<rect width="12" height="12" rx="6" fill="#939393" style="fill:#939393;fill:color(display-p3 0.5750 0.5750 0.5750);fill-opacity:1;"/>
<path d="M6.93834 5.0625C6.93834 4.97962 6.97126 4.90014 7.02987 4.84153C7.08847 4.78293 7.16796 4.75 7.25084 4.75H10.3758C10.4587 4.75 10.5382 4.78293 10.5968 4.84153C10.6554 4.90014 10.6883 4.97962 10.6883 5.0625C10.6883 5.14538 10.6554 5.22487 10.5968 5.28347C10.5382 5.34208 10.4587 5.375 10.3758 5.375H7.25084C7.16796 5.375 7.08847 5.34208 7.02987 5.28347C6.97126 5.22487 6.93834 5.14538 6.93834 5.0625ZM10.3758 6H7.25084C7.16796 6 7.08847 6.03292 7.02987 6.09153C6.97126 6.15013 6.93834 6.22962 6.93834 6.3125C6.93834 6.39538 6.97126 6.47487 7.02987 6.53347C7.08847 6.59208 7.16796 6.625 7.25084 6.625H10.3758C10.4587 6.625 10.5382 6.59208 10.5968 6.53347C10.6554 6.47487 10.6883 6.39538 10.6883 6.3125C10.6883 6.22962 10.6554 6.15013 10.5968 6.09153C10.5382 6.03292 10.4587 6 10.3758 6ZM10.3758 7.25H7.25084C7.16796 7.25 7.08847 7.28292 7.02987 7.34153C6.97126 7.40014 6.93834 7.47962 6.93834 7.5625C6.93834 7.64538 6.97126 7.72487 7.02987 7.78347C7.08847 7.84208 7.16796 7.875 7.25084 7.875H10.3758C10.4587 7.875 10.5382 7.84208 10.5968 7.78347C10.6554 7.72487 10.6883 7.64538 10.6883 7.5625C10.6883 7.47962 10.6554 7.40014 10.5968 7.34153C10.5382 7.28292 10.4587 7.25 10.3758 7.25ZM10.3758 8.5H3.81334C3.73046 8.5 3.65097 8.53293 3.59237 8.59153C3.53376 8.65014 3.50084 8.72962 3.50084 8.8125C3.50084 8.89538 3.53376 8.97487 3.59237 9.03347C3.65097 9.09208 3.73046 9.125 3.81334 9.125H10.3758C10.4587 9.125 10.5382 9.09208 10.5968 9.03347C10.6554 8.97487 10.6883 8.89538 10.6883 8.8125C10.6883 8.72962 10.6554 8.65014 10.5968 8.59153C10.5382 8.53293 10.4587 8.5 10.3758 8.5ZM4.12584 7.875C3.54587 7.87438 2.98983 7.64371 2.57973 7.23361C2.16963 6.82351 1.93896 6.26747 1.93834 5.6875C1.93812 5.40624 1.99265 5.12762 2.09888 4.86719C1.90772 4.73447 1.76387 4.54423 1.68826 4.32414C1.61264 4.10405 1.60919 3.86558 1.67842 3.64339C1.74764 3.42121 1.88593 3.2269 2.07318 3.08871C2.26043 2.95052 2.48687 2.87565 2.71959 2.875C2.77274 2.87489 2.82504 2.88833 2.87154 2.91406L5.60318 4.43164C5.71939 4.41311 5.82437 4.35154 5.89728 4.25918C5.97019 4.16682 6.00569 4.05041 5.99674 3.93308C5.98778 3.81574 5.93503 3.70607 5.84895 3.62584C5.76287 3.54561 5.64976 3.50069 5.53209 3.5C5.44921 3.5 5.36972 3.46708 5.31112 3.40847C5.25251 3.34987 5.21959 3.27038 5.21959 3.1875C5.21959 3.10462 5.25251 3.02514 5.31112 2.96653C5.36972 2.90792 5.44921 2.875 5.53209 2.875C5.82217 2.875 6.10037 2.99023 6.30549 3.19535C6.5106 3.40047 6.62584 3.67867 6.62584 3.96875C6.62584 4.25883 6.5106 4.53703 6.30549 4.74215C6.10037 4.94727 5.82217 5.0625 5.53209 5.0625C5.47894 5.06261 5.42664 5.04917 5.38013 5.02344L3.81763 4.15586C3.46411 4.2269 3.14603 4.41803 2.91735 4.69683C2.68867 4.97564 2.56346 5.32496 2.56295 5.68555C2.56244 6.04614 2.68667 6.39581 2.91457 6.67526C3.14247 6.9547 3.46001 7.14672 3.81334 7.21875V5.6875C3.81334 5.60462 3.84626 5.52514 3.90487 5.46653C3.96347 5.40792 4.04296 5.375 4.12584 5.375C4.20872 5.375 4.2882 5.40792 4.34681 5.46653C4.40541 5.52514 4.43834 5.60462 4.43834 5.6875V7.21836C4.7025 7.16422 4.94821 7.04278 5.15167 6.86581C5.35513 6.68883 5.50944 6.46232 5.59967 6.2082C5.62836 6.13146 5.68605 6.06905 5.76031 6.03442C5.83457 5.99979 5.91945 5.99572 5.99669 6.02307C6.07392 6.05042 6.13733 6.10701 6.17325 6.18065C6.20917 6.25429 6.21473 6.3391 6.18873 6.4168C6.03745 6.84306 5.75795 7.21206 5.3886 7.47314C5.01925 7.73422 4.57815 7.8746 4.12584 7.875ZM2.41607 4.32578C2.60278 4.09137 2.8354 3.89756 3.09967 3.75625L2.64849 3.50547C2.55956 3.51884 2.47634 3.55751 2.40878 3.61686C2.34122 3.67622 2.29216 3.75376 2.26745 3.84024C2.24274 3.92671 2.24343 4.01847 2.26944 4.10456C2.29544 4.19065 2.34567 4.26745 2.41412 4.32578H2.41607Z" fill="#0F0F0F" style="fill:#0F0F0F;fill:color(display-p3 0.0583 0.0583 0.0583);fill-opacity:1;"/>
</svg>
