<svg width="16" height="16" viewBox="0 0 16 16" fill="none" xmlns="http://www.w3.org/2000/svg">
<g id="Megaphone">
<path id="Vector" d="M15 7.50022C14.9992 6.70482 14.6828 5.94224 14.1204 5.37981C13.558 4.81738 12.7954 4.50104 12 4.50022H9.5125C9.33062 4.48959 6.16125 4.26647 3.14313 1.73522C2.99738 1.61281 2.81973 1.53454 2.63104 1.5096C2.44236 1.48466 2.25047 1.51408 2.07793 1.59442C1.90538 1.67475 1.75935 1.80265 1.65697 1.9631C1.5546 2.12355 1.50014 2.30989 1.5 2.50022V12.5002C1.50003 12.6906 1.5544 12.877 1.65672 13.0376C1.75905 13.1981 1.90508 13.3261 2.07764 13.4065C2.25021 13.4869 2.44214 13.5164 2.63089 13.4915C2.81963 13.4666 2.99734 13.3883 3.14313 13.2658C5.50375 11.2858 7.95563 10.7183 9 10.5596V12.5421C8.99979 12.7069 9.0403 12.8692 9.11794 13.0145C9.19558 13.1599 9.30793 13.2838 9.445 13.3752L10.1325 13.8333C10.2654 13.922 10.4176 13.9776 10.5764 13.9954C10.7351 14.0132 10.8959 13.9926 11.0451 13.9355C11.1943 13.8784 11.3276 13.7864 11.434 13.6672C11.5403 13.5479 11.6165 13.405 11.6562 13.2502L12.3919 10.4777C13.1136 10.3817 13.7759 10.0269 14.2556 9.47919C14.7353 8.93152 14.9998 8.22828 15 7.50022ZM2.5 12.4958V2.50022C5.17563 4.74459 7.91437 5.31272 9 5.45272V9.54522C7.91563 9.68772 5.1775 10.2546 2.5 12.4958ZM10.6875 12.9958V13.0027L10 12.5446V10.5002H11.35L10.6875 12.9958ZM12 9.50022H10V5.50022H12C12.5304 5.50022 13.0391 5.71093 13.4142 6.086C13.7893 6.46108 14 6.96978 14 7.50022C14 8.03065 13.7893 8.53936 13.4142 8.91443C13.0391 9.2895 12.5304 9.50022 12 9.50022Z" fill="#57D98D" style="fill:#57D98D;fill:color(display-p3 0.3400 0.8500 0.5525);fill-opacity:1;"/>
</g>
</svg>
