<svg width="25" height="24" viewBox="0 0 25 24" fill="none" xmlns="http://www.w3.org/2000/svg">
<path d="M21.8 10.8328V19.5C21.8 19.8978 21.642 20.2793 21.3607 20.5607C21.0794 20.842 20.6978 21 20.3 21H16.55C16.1522 21 15.7706 20.842 15.4893 20.5607C15.208 20.2793 15.05 19.8978 15.05 19.5V15.75C15.05 15.5511 14.971 15.3603 14.8303 15.2197C14.6897 15.079 14.4989 15 14.3 15H11.3C11.1011 15 10.9103 15.079 10.7697 15.2197C10.629 15.3603 10.55 15.5511 10.55 15.75V19.5C10.55 19.8978 10.392 20.2793 10.1107 20.5607C9.82936 20.842 9.44783 21 9.05 21H5.3C4.90218 21 4.52065 20.842 4.23934 20.5607C3.95804 20.2793 3.8 19.8978 3.8 19.5V10.8328C3.79997 10.6252 3.84303 10.4199 3.92646 10.2298C4.00989 10.0397 4.13188 9.86895 4.28469 9.72843L11.7847 2.65218L11.795 2.64187C12.0711 2.39074 12.431 2.25159 12.8042 2.25159C13.1775 2.25159 13.5373 2.39074 13.8134 2.64187C13.8166 2.64554 13.8201 2.64898 13.8238 2.65218L21.3238 9.72843C21.475 9.86969 21.5954 10.0407 21.6774 10.2308C21.7594 10.4209 21.8011 10.6258 21.8 10.8328Z" fill="#8F8F8F"/>
</svg>
