<svg width="25" height="24" viewBox="0 0 25 24" fill="none" xmlns="http://www.w3.org/2000/svg">
<path d="M23.3688 10.3725C23.2296 10.1795 23.0464 10.0224 22.8345 9.91416C22.6226 9.80592 22.388 9.74965 22.15 9.75H20.65V8.25C20.65 7.85218 20.492 7.47064 20.2107 7.18934C19.9294 6.90804 19.5478 6.75 19.15 6.75H12.6503L10.0506 4.8C9.79055 4.60611 9.47504 4.50094 9.15064 4.5H4.15001C3.75219 4.5 3.37066 4.65804 3.08935 4.93934C2.80805 5.22064 2.65001 5.60218 2.65001 6V19.5C2.65001 19.6989 2.72903 19.8897 2.86968 20.0303C3.01034 20.171 3.2011 20.25 3.40001 20.25H20.1906C20.3481 20.25 20.5015 20.2005 20.6292 20.1085C20.7569 20.0164 20.8524 19.8865 20.9022 19.7372L23.5731 11.7244C23.6482 11.4989 23.6689 11.2589 23.6334 11.0239C23.5978 10.7889 23.5072 10.5657 23.3688 10.3725ZM9.15064 6L11.7503 7.95C12.0103 8.14401 12.3259 8.2492 12.6503 8.25H19.15V9.75H6.94095C6.62611 9.74998 6.31925 9.84902 6.06383 10.0331C5.80842 10.2172 5.61739 10.4769 5.51783 10.7756L4.15001 14.8781V6H9.15064ZM19.6506 18.75H4.44064L6.94095 11.25H22.15L19.6506 18.75Z" fill="#8F8F8F"/>
</svg>
