<svg width="24" height="24" viewBox="0 0 24 24" fill="none" xmlns="http://www.w3.org/2000/svg">
<path d="M20.25 7.5H17.25V4.5C17.25 4.10218 17.092 3.72064 16.8107 3.43934C16.5294 3.15804 16.1478 3 15.75 3H3.75001C3.35219 3 2.97066 3.15804 2.68935 3.43934C2.40805 3.72064 2.25001 4.10218 2.25001 4.5V16.5C2.25045 16.6411 2.29069 16.7792 2.36609 16.8985C2.4415 17.0177 2.54902 17.1133 2.67631 17.1742C2.80359 17.2351 2.94547 17.2589 3.08565 17.2428C3.22582 17.2266 3.35861 17.1713 3.46876 17.0831L6.75001 14.4375V17.25C6.75001 17.6478 6.90805 18.0294 7.18935 18.3107C7.47066 18.592 7.85219 18.75 8.25001 18.75H17.0241L20.5313 21.5831C20.664 21.6905 20.8293 21.7493 21 21.75C21.1989 21.75 21.3897 21.671 21.5303 21.5303C21.671 21.3897 21.75 21.1989 21.75 21V9C21.75 8.60218 21.592 8.22064 21.3107 7.93934C21.0294 7.65804 20.6478 7.5 20.25 7.5ZM6.23907 12.9169L3.75001 14.9297V4.5H15.75V12.75H6.71064C6.53898 12.75 6.37253 12.8089 6.23907 12.9169ZM20.25 19.4297L17.7609 17.4169C17.6282 17.3095 17.4629 17.2507 17.2922 17.25H8.25001V14.25H15.75C16.1478 14.25 16.5294 14.092 16.8107 13.8107C17.092 13.5294 17.25 13.1478 17.25 12.75V9H20.25V19.4297Z" fill="#8F8F8F"/>
</svg>
