<svg width="25" height="24" viewBox="0 0 25 24" fill="none" xmlns="http://www.w3.org/2000/svg">
<path d="M21.6 6H17.1V5.25C17.1 4.65326 16.863 4.08097 16.441 3.65901C16.019 3.23705 15.4468 3 14.85 3H10.35C9.75328 3 9.18098 3.23705 8.75902 3.65901C8.33707 4.08097 8.10001 4.65326 8.10001 5.25V6H3.60001C3.20219 6 2.82066 6.15804 2.53935 6.43934C2.25805 6.72064 2.10001 7.10218 2.10001 7.5V18C2.10001 18.3978 2.25805 18.7794 2.53935 19.0607C2.82066 19.342 3.20219 19.5 3.60001 19.5H21.6C21.9978 19.5 22.3794 19.342 22.6607 19.0607C22.942 18.7794 23.1 18.3978 23.1 18V7.5C23.1 7.10218 22.942 6.72064 22.6607 6.43934C22.3794 6.15804 21.9978 6 21.6 6ZM9.60001 5.25C9.60001 5.05109 9.67903 4.86032 9.81968 4.71967C9.96034 4.57902 10.1511 4.5 10.35 4.5H14.85C15.0489 4.5 15.2397 4.57902 15.3803 4.71967C15.521 4.86032 15.6 5.05109 15.6 5.25V6H9.60001V5.25ZM21.6 7.5V10.5H18.6V9.75C18.6 9.55109 18.521 9.36032 18.3803 9.21967C18.2397 9.07902 18.0489 9 17.85 9C17.6511 9 17.4603 9.07902 17.3197 9.21967C17.179 9.36032 17.1 9.55109 17.1 9.75V10.5H8.10001V9.75C8.10001 9.55109 8.021 9.36032 7.88034 9.21967C7.73969 9.07902 7.54893 9 7.35001 9C7.1511 9 6.96034 9.07902 6.81968 9.21967C6.67903 9.36032 6.60001 9.55109 6.60001 9.75V10.5H3.60001V7.5H21.6ZM21.6 18H3.60001V12H6.60001V12.75C6.60001 12.9489 6.67903 13.1397 6.81968 13.2803C6.96034 13.421 7.1511 13.5 7.35001 13.5C7.54893 13.5 7.73969 13.421 7.88034 13.2803C8.021 13.1397 8.10001 12.9489 8.10001 12.75V12H17.1V12.75C17.1 12.9489 17.179 13.1397 17.3197 13.2803C17.4603 13.421 17.6511 13.5 17.85 13.5C18.0489 13.5 18.2397 13.421 18.3803 13.2803C18.521 13.1397 18.6 12.9489 18.6 12.75V12H21.6V18Z" fill="#8F8F8F"/>
</svg>
