<svg width="25" height="24" viewBox="0 0 25 24" fill="none" xmlns="http://www.w3.org/2000/svg">
<path d="M12.2 2.25C10.2716 2.25 8.38659 2.82183 6.78321 3.89317C5.17983 4.96451 3.93015 6.48726 3.19219 8.26884C2.45424 10.0504 2.26115 12.0108 2.63736 13.9021C3.01357 15.7934 3.94216 17.5307 5.30573 18.8943C6.66929 20.2579 8.40657 21.1865 10.2979 21.5627C12.1892 21.9389 14.1496 21.7458 15.9312 21.0078C17.7128 20.2699 19.2355 19.0202 20.3068 17.4168C21.3782 15.8134 21.95 13.9284 21.95 12C21.9473 9.41498 20.9192 6.93661 19.0913 5.10872C17.2634 3.28084 14.785 2.25273 12.2 2.25ZM7.14502 18.5156C7.68758 17.6671 8.43502 16.9688 9.31844 16.4851C10.2019 16.0013 11.1928 15.7478 12.2 15.7478C13.2072 15.7478 14.1982 16.0013 15.0816 16.4851C15.965 16.9688 16.7125 17.6671 17.255 18.5156C15.8097 19.6397 14.031 20.2499 12.2 20.2499C10.3691 20.2499 8.59033 19.6397 7.14502 18.5156ZM9.20002 11.25C9.20002 10.6567 9.37596 10.0766 9.70561 9.58329C10.0353 9.08994 10.5038 8.70542 11.052 8.47836C11.6001 8.2513 12.2033 8.19189 12.7853 8.30764C13.3672 8.4234 13.9018 8.70912 14.3213 9.12868C14.7409 9.54824 15.0266 10.0828 15.1424 10.6647C15.2581 11.2467 15.1987 11.8499 14.9717 12.3981C14.7446 12.9462 14.3601 13.4148 13.8667 13.7444C13.3734 14.0741 12.7934 14.25 12.2 14.25C11.4044 14.25 10.6413 13.9339 10.0787 13.3713C9.51609 12.8087 9.20002 12.0456 9.20002 11.25ZM18.365 17.4759C17.5285 16.2638 16.3524 15.3261 14.9844 14.7806C15.7192 14.2019 16.2554 13.4085 16.5184 12.5108C16.7815 11.6132 16.7582 10.6559 16.452 9.77207C16.1457 8.88825 15.5716 8.12183 14.8096 7.5794C14.0475 7.03696 13.1354 6.74548 12.2 6.74548C11.2646 6.74548 10.3525 7.03696 9.59045 7.5794C8.82841 8.12183 8.25433 8.88825 7.94807 9.77207C7.6418 10.6559 7.61856 11.6132 7.88158 12.5108C8.14461 13.4085 8.68081 14.2019 9.41564 14.7806C8.04766 15.3261 6.87148 16.2638 6.03502 17.4759C4.97805 16.2873 4.28721 14.8185 4.04568 13.2464C3.80416 11.6743 4.02225 10.0658 4.67369 8.61478C5.32513 7.16372 6.38215 5.93192 7.71746 5.06769C9.05277 4.20346 10.6094 3.74367 12.2 3.74367C13.7906 3.74367 15.3473 4.20346 16.6826 5.06769C18.0179 5.93192 19.0749 7.16372 19.7263 8.61478C20.3778 10.0658 20.5959 11.6743 20.3543 13.2464C20.1128 14.8185 19.422 16.2873 18.365 17.4759Z" fill="#8F8F8F"/>
</svg>
