<svg width="26" height="21" viewBox="0 0 26 21" fill="none" xmlns="http://www.w3.org/2000/svg">
<path id="Vector" d="M0 4V2C0 1.46957 0.210714 0.960859 0.585786 0.585786C0.960859 0.210714 1.46957 0 2 0H8.66625C9.09882 0.00107292 9.51955 0.141319 9.86625 0.4L13.6 3.2C13.7051 3.27879 13.7936 3.37751 13.8605 3.49051C13.9274 3.60351 13.9714 3.72858 13.99 3.85858C14.0085 3.98858 14.0013 4.12097 13.9687 4.24818C13.9361 4.37539 13.8788 4.49494 13.8 4.6C13.7212 4.70506 13.6225 4.79357 13.5095 4.86047C13.3965 4.92738 13.2714 4.97138 13.1414 4.98995C13.0114 5.00852 12.879 5.00131 12.7518 4.96871C12.6246 4.93612 12.5051 4.87879 12.4 4.8L8.66625 2H2V4C2 4.26522 1.89464 4.51957 1.70711 4.70711C1.51957 4.89464 1.26522 5 1 5C0.734784 5 0.48043 4.89464 0.292893 4.70711C0.105357 4.51957 0 4.26522 0 4ZM8 19H2V18C2 17.7348 1.89464 17.4804 1.70711 17.2929C1.51957 17.1054 1.26522 17 1 17C0.734784 17 0.48043 17.1054 0.292893 17.2929C0.105357 17.4804 0 17.7348 0 18V19.0775C0.000661488 19.5872 0.203422 20.0758 0.563818 20.4362C0.924213 20.7966 1.41282 20.9993 1.9225 21H8C8.26522 21 8.51957 20.8946 8.70711 20.7071C8.89464 20.5196 9 20.2652 9 20C9 19.7348 8.89464 19.4804 8.70711 19.2929C8.51957 19.1054 8.26522 19 8 19ZM17 19H13C12.7348 19 12.4804 19.1054 12.2929 19.2929C12.1054 19.4804 12 19.7348 12 20C12 20.2652 12.1054 20.5196 12.2929 20.7071C12.4804 20.8946 12.7348 21 13 21H17C17.2652 21 17.5196 20.8946 17.7071 20.7071C17.8946 20.5196 18 20.2652 18 20C18 19.7348 17.8946 19.4804 17.7071 19.2929C17.5196 19.1054 17.2652 19 17 19ZM25 12C24.7348 12 24.4804 12.1054 24.2929 12.2929C24.1054 12.4804 24 12.7348 24 13V19H22C21.7348 19 21.4804 19.1054 21.2929 19.2929C21.1054 19.4804 21 19.7348 21 20C21 20.2652 21.1054 20.5196 21.2929 20.7071C21.4804 20.8946 21.7348 21 22 21H24.1112C24.612 20.9993 25.092 20.8001 25.4461 20.4461C25.8001 20.092 25.9993 19.612 26 19.1112V13C26 12.7348 25.8946 12.4804 25.7071 12.2929C25.5196 12.1054 25.2652 12 25 12ZM24 3H18C17.7348 3 17.4804 3.10536 17.2929 3.29289C17.1054 3.48043 17 3.73478 17 4C17 4.26522 17.1054 4.51957 17.2929 4.70711C17.4804 4.89464 17.7348 5 18 5H24V8C24 8.26522 24.1054 8.51957 24.2929 8.70711C24.4804 8.89464 24.7348 9 25 9C25.2652 9 25.5196 8.89464 25.7071 8.70711C25.8946 8.51957 26 8.26522 26 8V5C26 4.46957 25.7893 3.96086 25.4142 3.58579C25.0391 3.21071 24.5304 3 24 3ZM1 14C1.26522 14 1.51957 13.8946 1.70711 13.7071C1.89464 13.5196 2 13.2652 2 13V9C2 8.73478 1.89464 8.48043 1.70711 8.29289C1.51957 8.10536 1.26522 8 1 8C0.734784 8 0.48043 8.10536 0.292893 8.29289C0.105357 8.48043 0 8.73478 0 9V13C0 13.2652 0.105357 13.5196 0.292893 13.7071C0.48043 13.8946 0.734784 14 1 14Z" fill="#F5F5F5" style="fill:#F5F5F5;fill:color(display-p3 0.9608 0.9608 0.9608);fill-opacity:1;"/>
</svg>
