<svg width="32" height="40" viewBox="0 0 32 40" fill="none" xmlns="http://www.w3.org/2000/svg">
<path d="M6.25 7.5V6C6.25 5.60218 6.40804 5.22064 6.68934 4.93934C6.97064 4.65804 7.35218 4.5 7.75 4.5H12.7497C13.0741 4.5008 13.3897 4.60599 13.6497 4.8L16.45 6.9C16.5288 6.95909 16.5952 7.03313 16.6454 7.11788C16.6955 7.20263 16.7285 7.29643 16.7425 7.39393C16.7564 7.49144 16.751 7.59073 16.7265 7.68614C16.7021 7.78155 16.6591 7.87121 16.6 7.95C16.5409 8.02879 16.4669 8.09518 16.3821 8.14536C16.2974 8.19554 16.2036 8.22853 16.1061 8.24246C16.0086 8.25639 15.9093 8.25098 15.8139 8.22654C15.7185 8.20209 15.6288 8.1591 15.55 8.1L12.7497 6H7.75V7.5C7.75 7.69891 7.67098 7.88968 7.53033 8.03033C7.38968 8.17098 7.19891 8.25 7 8.25C6.80109 8.25 6.61032 8.17098 6.46967 8.03033C6.32902 7.88968 6.25 7.69891 6.25 7.5ZM12.25 18.75H7.75V18C7.75 17.8011 7.67098 17.6103 7.53033 17.4697C7.38968 17.329 7.19891 17.25 7 17.25C6.80109 17.25 6.61032 17.329 6.46967 17.4697C6.32902 17.6103 6.25 17.8011 6.25 18V18.8081C6.2505 19.1904 6.40257 19.5568 6.67286 19.8271C6.94316 20.0974 7.30962 20.2495 7.69188 20.25H12.25C12.4489 20.25 12.6397 20.171 12.7803 20.0303C12.921 19.8897 13 19.6989 13 19.5C13 19.3011 12.921 19.1103 12.7803 18.9697C12.6397 18.829 12.4489 18.75 12.25 18.75ZM19 18.75H16C15.8011 18.75 15.6103 18.829 15.4697 18.9697C15.329 19.1103 15.25 19.3011 15.25 19.5C15.25 19.6989 15.329 19.8897 15.4697 20.0303C15.6103 20.171 15.8011 20.25 16 20.25H19C19.1989 20.25 19.3897 20.171 19.5303 20.0303C19.671 19.8897 19.75 19.6989 19.75 19.5C19.75 19.3011 19.671 19.1103 19.5303 18.9697C19.3897 18.829 19.1989 18.75 19 18.75ZM25 13.5C24.8011 13.5 24.6103 13.579 24.4697 13.7197C24.329 13.8603 24.25 14.0511 24.25 14.25V18.75H22.75C22.5511 18.75 22.3603 18.829 22.2197 18.9697C22.079 19.1103 22 19.3011 22 19.5C22 19.6989 22.079 19.8897 22.2197 20.0303C22.3603 20.171 22.5511 20.25 22.75 20.25H24.3334C24.709 20.2495 25.069 20.1001 25.3346 19.8346C25.6001 19.569 25.7495 19.209 25.75 18.8334V14.25C25.75 14.0511 25.671 13.8603 25.5303 13.7197C25.3897 13.579 25.1989 13.5 25 13.5ZM24.25 6.75H19.75C19.5511 6.75 19.3603 6.82902 19.2197 6.96967C19.079 7.11032 19 7.30109 19 7.5C19 7.69891 19.079 7.88968 19.2197 8.03033C19.3603 8.17098 19.5511 8.25 19.75 8.25H24.25V10.5C24.25 10.6989 24.329 10.8897 24.4697 11.0303C24.6103 11.171 24.8011 11.25 25 11.25C25.1989 11.25 25.3897 11.171 25.5303 11.0303C25.671 10.8897 25.75 10.6989 25.75 10.5V8.25C25.75 7.85218 25.592 7.47064 25.3107 7.18934C25.0294 6.90804 24.6478 6.75 24.25 6.75ZM7 15C7.19891 15 7.38968 14.921 7.53033 14.7803C7.67098 14.6397 7.75 14.4489 7.75 14.25V11.25C7.75 11.0511 7.67098 10.8603 7.53033 10.7197C7.38968 10.579 7.19891 10.5 7 10.5C6.80109 10.5 6.61032 10.579 6.46967 10.7197C6.32902 10.8603 6.25 11.0511 6.25 11.25V14.25C6.25 14.4489 6.32902 14.6397 6.46967 14.7803C6.61032 14.921 6.80109 15 7 15Z" fill="#CCCCCC"/>
</svg>
