<svg width="16" height="16" viewBox="0 0 16 16" fill="none" xmlns="http://www.w3.org/2000/svg">
<path d="M14.4 13.6996C14.4559 13.7739 14.49 13.8623 14.4984 13.9548C14.5068 14.0474 14.4893 14.1405 14.4478 14.2237C14.4062 14.3068 14.3423 14.3768 14.2632 14.4256C14.1841 14.4745 14.093 14.5003 14 14.5002H2C1.90714 14.5002 1.81612 14.4744 1.73713 14.4255C1.65815 14.3767 1.59431 14.3069 1.55279 14.2238C1.51126 14.1408 1.49368 14.0478 1.50202 13.9553C1.51036 13.8628 1.54429 13.7745 1.6 13.7002C2.04274 13.1066 2.63314 12.6393 3.3125 12.3446C2.94011 12.0047 2.67918 11.5602 2.56397 11.0694C2.44875 10.5785 2.48463 10.0643 2.66689 9.59426C2.84916 9.12419 3.16929 8.72021 3.58527 8.43535C4.00125 8.15048 4.49364 7.99805 4.99781 7.99805C5.50198 7.99805 5.99437 8.15048 6.41035 8.43535C6.82633 8.72021 7.14647 9.12419 7.32873 9.59426C7.51099 10.0643 7.54687 10.5785 7.43166 11.0694C7.31644 11.5602 7.05551 12.0047 6.68313 12.3446C7.17326 12.5564 7.61866 12.8595 7.99563 13.2377C8.37259 12.8595 8.81799 12.5564 9.30812 12.3446C8.93574 12.0047 8.67481 11.5602 8.55959 11.0694C8.44438 10.5785 8.48026 10.0643 8.66252 9.59426C8.84478 9.12419 9.16492 8.72021 9.5809 8.43535C9.99688 8.15048 10.4893 7.99805 10.9934 7.99805C11.4976 7.99805 11.99 8.15048 12.406 8.43535C12.822 8.72021 13.1421 9.12419 13.3244 9.59426C13.5066 10.0643 13.5425 10.5785 13.4273 11.0694C13.3121 11.5602 13.0511 12.0047 12.6788 12.3446C13.3613 12.6377 13.9548 13.105 14.4 13.6996ZM1.7 7.90022C1.75253 7.93961 1.8123 7.96828 1.87591 7.98457C1.93952 8.00087 2.00571 8.00448 2.07071 7.99519C2.13571 7.9859 2.19825 7.96391 2.25475 7.93045C2.31125 7.897 2.3606 7.85274 2.4 7.80022C2.70273 7.39658 3.09528 7.06897 3.54656 6.84333C3.99784 6.61769 4.49545 6.50022 5 6.50022C5.50455 6.50022 6.00216 6.61769 6.45344 6.84333C6.90472 7.06897 7.29727 7.39658 7.6 7.80022C7.64657 7.86231 7.70697 7.91271 7.77639 7.94743C7.84582 7.98214 7.92238 8.00022 8 8.00022C8.07762 8.00022 8.15418 7.98214 8.22361 7.94743C8.29303 7.91271 8.35343 7.86231 8.4 7.80022C8.70273 7.39658 9.09528 7.06897 9.54656 6.84333C9.99784 6.61769 10.4955 6.50022 11 6.50022C11.5045 6.50022 12.0022 6.61769 12.4534 6.84333C12.9047 7.06897 13.2973 7.39658 13.6 7.80022C13.6394 7.85274 13.6888 7.89699 13.7454 7.93043C13.8019 7.96387 13.8645 7.98584 13.9295 7.9951C13.9945 8.00435 14.0608 8.00071 14.1244 7.98438C14.188 7.96805 14.2478 7.93934 14.3003 7.8999C14.3528 7.86046 14.3971 7.81107 14.4305 7.75453C14.464 7.69799 14.4859 7.63542 14.4952 7.57039C14.5045 7.50536 14.5008 7.43915 14.4845 7.37552C14.4681 7.3119 14.4394 7.25212 14.4 7.19959C13.9572 6.60617 13.3668 6.13902 12.6875 5.84459C13.0599 5.50472 13.3208 5.06019 13.436 4.56936C13.5512 4.07853 13.5154 3.56434 13.3331 3.09427C13.1508 2.62419 12.8307 2.22021 12.4147 1.93535C11.9987 1.65048 11.5064 1.49805 11.0022 1.49805C10.498 1.49805 10.0056 1.65048 9.58965 1.93535C9.17367 2.22021 8.85353 2.62419 8.67127 3.09427C8.48901 3.56434 8.45313 4.07853 8.56834 4.56936C8.68356 5.06019 8.94449 5.50472 9.31688 5.84459C8.82674 6.05645 8.38134 6.35954 8.00438 6.73772C7.62742 6.35954 7.18201 6.05645 6.69187 5.84459C7.06426 5.50472 7.32519 5.06019 7.44041 4.56936C7.55562 4.07853 7.51974 3.56434 7.33748 3.09427C7.15522 2.62419 6.83508 2.22021 6.4191 1.93535C6.00312 1.65048 5.51073 1.49805 5.00656 1.49805C4.50239 1.49805 4.01 1.65048 3.59402 1.93535C3.17804 2.22021 2.85791 2.62419 2.67564 3.09427C2.49338 3.56434 2.4575 4.07853 2.57272 4.56936C2.68793 5.06019 2.94886 5.50472 3.32125 5.84459C2.6387 6.13796 2.04516 6.60543 1.6 7.20021C1.5606 7.25274 1.53194 7.31252 1.51564 7.37612C1.49935 7.43973 1.49574 7.50592 1.50503 7.57093C1.51431 7.63593 1.53631 7.69846 1.56976 7.75496C1.60322 7.81146 1.64747 7.86082 1.7 7.90022Z" fill="#8F8F8F" style="fill:#8F8F8F;fill:color(display-p3 0.5600 0.5600 0.5600);fill-opacity:1;"/>
</svg>
