<svg width="20" height="20" viewBox="0 0 20 20" fill="none" xmlns="http://www.w3.org/2000/svg">
<g id="Password">
<path id="Vector" d="M3.75 4.375V15.625C3.75 15.7908 3.68415 15.9497 3.56694 16.0669C3.44973 16.1842 3.29076 16.25 3.125 16.25C2.95924 16.25 2.80027 16.1842 2.68306 16.0669C2.56585 15.9497 2.5 15.7908 2.5 15.625V4.375C2.5 4.20924 2.56585 4.05027 2.68306 3.93306C2.80027 3.81585 2.95924 3.75 3.125 3.75C3.29076 3.75 3.44973 3.81585 3.56694 3.93306C3.68415 4.05027 3.75 4.20924 3.75 4.375ZM10.3125 8.63281L8.75 9.14062V7.5C8.75 7.33424 8.68415 7.17527 8.56694 7.05806C8.44973 6.94085 8.29076 6.875 8.125 6.875C7.95924 6.875 7.80027 6.94085 7.68306 7.05806C7.56585 7.17527 7.5 7.33424 7.5 7.5V9.14062L5.9375 8.63281C5.77982 8.58101 5.60802 8.59397 5.4599 8.66884C5.31177 8.74371 5.19946 8.87435 5.14766 9.03203C5.09586 9.18971 5.10882 9.36151 5.18368 9.50963C5.25855 9.65776 5.3892 9.77007 5.54688 9.82188L7.10938 10.3289L6.14531 11.657C6.09437 11.7232 6.0572 11.799 6.03603 11.8798C6.01485 11.9606 6.01008 12.0448 6.02201 12.1275C6.03394 12.2102 6.06233 12.2896 6.10548 12.3611C6.14864 12.4326 6.2057 12.4948 6.27328 12.5439C6.34086 12.593 6.4176 12.628 6.49896 12.647C6.58032 12.6659 6.66465 12.6683 6.74696 12.6541C6.82928 12.6399 6.90791 12.6093 6.97821 12.5642C7.04851 12.5191 7.10905 12.4603 7.15625 12.3914L8.12031 11.0633L9.08437 12.3914C9.13158 12.4603 9.19212 12.5191 9.26242 12.5642C9.33272 12.6093 9.41135 12.6399 9.49366 12.6541C9.57597 12.6683 9.6603 12.6659 9.74166 12.647C9.82302 12.628 9.89976 12.593 9.96735 12.5439C10.0349 12.4948 10.092 12.4326 10.1351 12.3611C10.1783 12.2896 10.2067 12.2102 10.2186 12.1275C10.2305 12.0448 10.2258 11.9606 10.2046 11.8798C10.1834 11.799 10.1463 11.7232 10.0953 11.657L9.13125 10.3289L10.6938 9.82188C10.8445 9.76582 10.9678 9.65382 11.038 9.50918C11.1083 9.36454 11.1201 9.19839 11.071 9.04526C11.0219 8.89213 10.9157 8.76382 10.7744 8.68701C10.6332 8.61019 10.4677 8.59078 10.3125 8.63281ZM18.5938 9.03438C18.5425 8.87813 18.4318 8.74837 18.2856 8.6732C18.1393 8.59804 17.9694 8.58353 17.8125 8.63281L16.25 9.14062V7.5C16.25 7.33424 16.1842 7.17527 16.0669 7.05806C15.9497 6.94085 15.7908 6.875 15.625 6.875C15.4592 6.875 15.3003 6.94085 15.1831 7.05806C15.0658 7.17527 15 7.33424 15 7.5V9.14062L13.4375 8.63359C13.3594 8.6082 13.2771 8.59844 13.1953 8.60485C13.1134 8.61127 13.0336 8.63375 12.9605 8.671C12.8873 8.70825 12.8222 8.75955 12.7689 8.82197C12.7155 8.88438 12.675 8.95669 12.6496 9.03477C12.6242 9.11284 12.6145 9.19515 12.6209 9.277C12.6273 9.35885 12.6498 9.43863 12.687 9.5118C12.7243 9.58496 12.7756 9.65007 12.838 9.7034C12.9004 9.75674 12.9727 9.79726 13.0508 9.82266L14.6133 10.3297L13.6492 11.6578C13.5983 11.724 13.5611 11.7997 13.5399 11.8806C13.5188 11.9614 13.514 12.0456 13.5259 12.1283C13.5378 12.2109 13.5662 12.2904 13.6094 12.3619C13.6525 12.4334 13.7096 12.4956 13.7772 12.5447C13.8448 12.5938 13.9215 12.6288 14.0029 12.6477C14.0842 12.6667 14.1686 12.6691 14.2509 12.6549C14.3332 12.6407 14.4118 12.6101 14.4821 12.565C14.5524 12.5199 14.613 12.4611 14.6602 12.3922L15.6242 11.0641L16.5883 12.3922C16.6355 12.4611 16.696 12.5199 16.7663 12.565C16.8366 12.6101 16.9153 12.6407 16.9976 12.6549C17.0799 12.6691 17.1642 12.6667 17.2456 12.6477C17.3269 12.6288 17.4037 12.5938 17.4713 12.5447C17.5388 12.4956 17.5959 12.4334 17.639 12.3619C17.6822 12.2904 17.7106 12.2109 17.7225 12.1283C17.7344 12.0456 17.7297 11.9614 17.7085 11.8806C17.6873 11.7997 17.6502 11.724 17.5992 11.6578L16.6352 10.3297L18.1977 9.82266C18.3545 9.77038 18.4843 9.65807 18.5585 9.51033C18.6328 9.36258 18.6454 9.19144 18.5938 9.03438Z" fill="#C2C2C2"/>
</g>
</svg>
