<svg width="16" height="17" viewBox="0 0 16 17" fill="none" xmlns="http://www.w3.org/2000/svg">
<g id="PencilSimpleLine">
<path id="Vector" d="M14.2075 5.08547L11.4144 2.29297C11.3215 2.20009 11.2113 2.12641 11.0899 2.07614C10.9686 2.02587 10.8385 2 10.7072 2C10.5759 2 10.4458 2.02587 10.3245 2.07614C10.2031 2.12641 10.0929 2.20009 10 2.29297L2.29313 9.99985C2.19987 10.0924 2.12593 10.2025 2.0756 10.3239C2.02528 10.4452 1.99959 10.5754 2.00001 10.7067V13.4998C2.00001 13.7651 2.10536 14.0194 2.2929 14.207C2.48043 14.3945 2.73479 14.4998 3.00001 14.4998H13.5C13.6326 14.4998 13.7598 14.4472 13.8536 14.3534C13.9473 14.2596 14 14.1325 14 13.9998C14 13.8672 13.9473 13.7401 13.8536 13.6463C13.7598 13.5525 13.6326 13.4998 13.5 13.4998H7.20751L14.2075 6.49985C14.3004 6.40699 14.3741 6.29674 14.4243 6.1754C14.4746 6.05406 14.5005 5.924 14.5005 5.79266C14.5005 5.66132 14.4746 5.53127 14.4243 5.40992C14.3741 5.28858 14.3004 5.17834 14.2075 5.08547ZM5.79313 13.4998H3.00001V10.7067L8.50001 5.20672L11.2931 7.99985L5.79313 13.4998ZM12 7.29297L9.20751 4.49985L10.7075 2.99985L13.5 5.79297L12 7.29297Z" fill="#FF4F20"/>
</g>
</svg>
