<svg width="33" height="32" viewBox="0 0 33 32" fill="none" xmlns="http://www.w3.org/2000/svg">
<g id="Question">
<path id="Vector" d="M18.333 22.5C18.333 22.7967 18.245 23.0867 18.0802 23.3334C17.9154 23.58 17.6811 23.7723 17.407 23.8858C17.1329 23.9993 16.8313 24.0291 16.5404 23.9712C16.2494 23.9133 15.9821 23.7704 15.7724 23.5607C15.5626 23.3509 15.4197 23.0836 15.3618 22.7926C15.304 22.5017 15.3337 22.2001 15.4472 21.926C15.5607 21.6519 15.753 21.4176 15.9997 21.2528C16.2463 21.088 16.5363 21 16.833 21C17.2308 21 17.6124 21.158 17.8937 21.4393C18.175 21.7206 18.333 22.1022 18.333 22.5ZM16.833 9C14.0755 9 11.833 11.0188 11.833 13.5V14C11.833 14.2652 11.9384 14.5196 12.1259 14.7071C12.3134 14.8946 12.5678 15 12.833 15C13.0982 15 13.3526 14.8946 13.5401 14.7071C13.7277 14.5196 13.833 14.2652 13.833 14V13.5C13.833 12.125 15.1793 11 16.833 11C18.4868 11 19.833 12.125 19.833 13.5C19.833 14.875 18.4868 16 16.833 16C16.5678 16 16.3134 16.1054 16.1259 16.2929C15.9384 16.4804 15.833 16.7348 15.833 17V18C15.833 18.2652 15.9384 18.5196 16.1259 18.7071C16.3134 18.8946 16.5678 19 16.833 19C17.0982 19 17.3526 18.8946 17.5401 18.7071C17.7277 18.5196 17.833 18.2652 17.833 18V17.91C20.113 17.4913 21.833 15.6725 21.833 13.5C21.833 11.0188 19.5905 9 16.833 9ZM29.833 16C29.833 18.5712 29.0706 21.0846 27.6421 23.2224C26.2137 25.3603 24.1833 27.0265 21.8079 28.0104C19.4325 28.9944 16.8186 29.2518 14.2968 28.7502C11.7751 28.2486 9.45871 27.0105 7.64063 25.1924C5.82254 23.3743 4.58441 21.0579 4.08281 18.5362C3.5812 16.0144 3.83864 13.4006 4.82258 11.0251C5.80652 8.64968 7.47276 6.61935 9.6106 5.1909C11.7484 3.76244 14.2619 3 16.833 3C20.2797 3.00364 23.5842 4.37445 26.0214 6.81163C28.4586 9.24882 29.8294 12.5533 29.833 16ZM27.833 16C27.833 13.8244 27.1879 11.6977 25.9792 9.88873C24.7705 8.07979 23.0525 6.66989 21.0425 5.83733C19.0325 5.00476 16.8208 4.78692 14.687 5.21136C12.5532 5.6358 10.5932 6.68345 9.05484 8.22183C7.51646 9.7602 6.46881 11.7202 6.04438 13.854C5.61994 15.9878 5.83777 18.1995 6.67034 20.2095C7.5029 22.2195 8.9128 23.9375 10.7217 25.1462C12.5307 26.3549 14.6574 27 16.833 27C19.7494 26.9967 22.5454 25.8367 24.6075 23.7745C26.6697 21.7123 27.8297 18.9164 27.833 16Z" fill="#C2C2C2"/>
</g>
</svg>
