<svg width="160" height="130" viewBox="0 0 160 130" fill="none" xmlns="http://www.w3.org/2000/svg">
<g id="&#231;&#153;&#189;">
<path id="Subtract" fill-rule="evenodd" clip-rule="evenodd" d="M77.7902 81.1647L111.508 61.6045C111.768 61.4532 111.985 61.2359 112.135 60.9746C112.286 60.7132 112.365 60.4169 112.364 60.1154L112.283 21.1342C112.283 20.8325 112.202 20.5363 112.051 20.2753C111.9 20.0143 111.682 19.7977 111.421 19.6472L77.6225 0.230359C77.3611 0.0794479 77.0646 0 76.7628 0C76.461 0 76.1645 0.0794479 75.9031 0.230359L42.1857 19.7927C41.9247 19.9436 41.7082 20.1608 41.5582 20.4223C41.4081 20.6838 41.3297 20.9803 41.3311 21.2817L41.4119 60.2629C41.4121 60.5645 41.492 60.8607 41.6435 61.1215C41.795 61.3822 42.0127 61.5984 42.2746 61.7479L76.0728 81.1647C76.3338 81.3157 76.63 81.3951 76.9315 81.3951C77.233 81.3951 77.5292 81.3157 77.7902 81.1647ZM87.3207 34.7268L102.149 26.0205C102.278 25.9441 102.385 25.8352 102.459 25.7046C102.533 25.5741 102.572 25.4264 102.571 25.2763C102.571 25.1261 102.531 24.9788 102.456 24.8489C102.38 24.7189 102.273 24.6109 102.143 24.5355L77.6447 10.4628C77.3837 10.3119 77.0875 10.2324 76.786 10.2324C76.4845 10.2324 76.1883 10.3119 75.9273 10.4628L51.0575 24.887C50.7962 25.0384 50.5795 25.2559 50.4291 25.5176C50.2787 25.7794 50.1999 26.0762 50.2008 26.3782L50.223 34.6197C50.2232 34.921 50.3029 35.217 50.454 35.4778C50.6051 35.7385 50.8224 35.9548 51.0838 36.1047L67.1504 45.3424C67.4125 45.4927 67.6303 45.7096 67.7818 45.971C67.9333 46.2325 68.0131 46.5293 68.0132 46.8314V55.0972C68.013 55.1977 67.9864 55.2963 67.9362 55.3833C67.8859 55.4702 67.8137 55.5425 67.7268 55.5928C67.6399 55.6431 67.5413 55.6697 67.4409 55.67C67.3404 55.6702 67.2417 55.6441 67.1545 55.5943L59.6404 51.2765C59.4664 51.1744 59.3224 51.0281 59.2231 50.8525C59.1237 50.6769 59.0725 50.4781 59.0747 50.2764L59.0646 47.5649C59.0633 47.2607 58.9816 46.9623 58.8275 46.7C58.6735 46.4378 58.4527 46.221 58.1877 46.0717L51.4919 42.3157C51.3612 42.2423 51.2135 42.2044 51.0636 42.2059C50.9137 42.2073 50.7668 42.2479 50.6374 42.3237C50.5081 42.3995 50.4009 42.5078 50.3264 42.6379C50.2519 42.768 50.2128 42.9154 50.2129 43.0653V48.2155L50.2311 55.1376C50.2313 55.4392 50.3112 55.7354 50.4627 55.9962C50.6142 56.257 50.832 56.4731 51.0939 56.6227L75.1939 70.4266C75.3682 70.5266 75.5658 70.5789 75.7668 70.5783C75.9678 70.5778 76.1651 70.5243 76.3389 70.4234C76.5127 70.3225 76.6569 70.1776 76.757 70.0033C76.8572 69.829 76.9096 69.6315 76.9092 69.4305L76.8688 41.6509C76.8682 41.3492 76.7881 41.0529 76.6367 40.7918C76.4852 40.5308 76.2678 40.3142 76.0061 40.1639L60.0243 30.9768C59.937 30.9267 59.8644 30.8545 59.814 30.7674C59.7635 30.6803 59.7369 30.5814 59.7369 30.4807C59.7369 30.3801 59.7635 30.2812 59.814 30.1941C59.8644 30.107 59.937 30.0348 60.0243 29.9847L75.9576 20.7673C76.219 20.6164 76.5155 20.5369 76.8173 20.5369C77.1191 20.5369 77.4156 20.6164 77.677 20.7673L84.884 24.9133C84.9713 24.9634 85.0439 25.0356 85.0943 25.1227C85.1448 25.2098 85.1713 25.3087 85.1713 25.4093C85.1713 25.51 85.1448 25.6089 85.0943 25.696C85.0439 25.7831 84.9713 25.8553 84.884 25.9054L78.5317 29.5665C78.3984 29.6434 78.2882 29.7547 78.2127 29.8888C78.1372 30.0229 78.0991 30.1748 78.1024 30.3287C78.1057 30.4825 78.1503 30.6327 78.2315 30.7634C78.3127 30.8941 78.4275 31.0006 78.564 31.0717L85.6599 34.7692C85.9176 34.9034 86.2052 34.9699 86.4957 34.9625C86.7862 34.955 87.0701 34.8739 87.3207 34.7268Z" fill="white"/>
<path id="Vector" d="M85.6172 46.1706L85.6313 55.8972C85.6316 56.0983 85.6848 56.2958 85.7855 56.4698C85.8863 56.6438 86.031 56.7882 86.2053 56.8885C86.3795 56.9889 86.5771 57.0416 86.7782 57.0413C86.9793 57.0411 87.1767 56.988 87.3508 56.8873L95.7559 52.0119C96.0165 51.86 96.2326 51.6423 96.3826 51.3806C96.5326 51.1189 96.6112 50.8224 96.6105 50.5207L96.5903 40.8043C96.5901 40.6032 96.5369 40.4057 96.4361 40.2317C96.3354 40.0577 96.1906 39.9133 96.0164 39.813C95.8421 39.7126 95.6445 39.6599 95.4435 39.6602C95.2424 39.6604 95.0449 39.7135 94.8709 39.8142L86.4739 44.6816C86.2126 44.8324 85.9958 45.0495 85.8454 45.311C85.695 45.5724 85.6163 45.869 85.6172 46.1706Z" fill="#FF4E1F"/>
<path id="Vector_2" d="M114.765 118.458V128.902C114.764 129.053 114.703 129.197 114.596 129.304C114.489 129.41 114.344 129.47 114.193 129.47H109.983C109.831 129.47 109.686 129.409 109.578 129.302C109.471 129.195 109.411 129.049 109.411 128.898V128.548C109.411 128.517 109.401 128.486 109.385 128.459C109.368 128.432 109.344 128.41 109.315 128.396C109.287 128.382 109.255 128.376 109.223 128.379C109.192 128.382 109.162 128.394 109.136 128.413C107.946 129.334 106.354 129.989 104.196 129.989C100.303 129.989 97.6943 127.738 97.6943 124.309C97.6943 120.913 100.303 118.696 104.968 118.696H109.074C109.165 118.696 109.253 118.659 109.317 118.595C109.382 118.53 109.419 118.442 109.419 118.351C109.419 116.896 108.409 115.926 106.95 115.926C105.491 115.926 104.546 116.442 104.156 117.609C104.113 117.744 104.022 117.859 103.9 117.931C103.778 118.003 103.634 118.028 103.495 118.001L99.242 117.145C99.1793 117.132 99.1199 117.107 99.0677 117.07C99.0154 117.033 98.9714 116.986 98.9385 116.931C98.9056 116.876 98.8845 116.815 98.8766 116.752C98.8686 116.688 98.8741 116.624 98.8925 116.563C99.832 113.486 102.792 111.574 106.76 111.574C111.672 111.564 114.765 114.023 114.765 118.458ZM109.411 122.614V122.412C109.411 122.367 109.393 122.323 109.361 122.291C109.328 122.258 109.285 122.24 109.239 122.24H105.586C104.196 122.24 103.327 122.968 103.327 124.041C103.327 125.15 104.299 125.843 105.752 125.843C107.673 125.833 109.411 124.556 109.411 122.614Z" fill="white"/>
<path id="Vector_3" d="M120.262 123.55C120.262 124.451 120.922 125.076 121.931 125.076C122.455 125.039 122.971 124.93 123.464 124.75C123.526 124.731 123.59 124.725 123.654 124.733C123.718 124.74 123.779 124.761 123.834 124.794C123.89 124.826 123.937 124.87 123.975 124.923C124.012 124.975 124.037 125.035 124.05 125.098L124.729 128.486C124.754 128.611 124.737 128.741 124.679 128.854C124.622 128.968 124.529 129.06 124.414 129.114C123.273 129.71 122.001 130.012 120.714 129.993C117.098 129.993 114.699 127.569 114.699 123.966V103.374C114.699 103.222 114.76 103.076 114.867 102.969C114.974 102.862 115.12 102.802 115.271 102.802H119.69C119.842 102.802 119.987 102.862 120.094 102.969C120.202 103.076 120.262 103.222 120.262 103.374V123.55Z" fill="white"/>
<path id="Vector_4" d="M140.978 129.471H136.561C136.409 129.471 136.264 129.41 136.157 129.303C136.049 129.196 135.989 129.05 135.989 128.899V128.218C135.99 128.184 135.98 128.152 135.962 128.123C135.944 128.095 135.918 128.073 135.887 128.06C135.857 128.046 135.823 128.042 135.79 128.048C135.757 128.054 135.726 128.069 135.702 128.093C134.405 129.305 132.672 129.99 130.635 129.99C126.566 129.99 123.854 127.115 123.854 122.75V112.648C123.854 112.496 123.914 112.351 124.022 112.243C124.129 112.135 124.274 112.075 124.426 112.074H128.81C128.962 112.075 129.108 112.135 129.215 112.243C129.322 112.351 129.382 112.496 129.382 112.648V121.566C129.382 123.611 130.595 125.001 132.373 125.001C134.563 125.001 135.989 123.512 135.989 120.152V112.658C135.989 112.583 136.003 112.508 136.032 112.439C136.061 112.369 136.103 112.306 136.156 112.253C136.209 112.199 136.272 112.157 136.342 112.128C136.411 112.099 136.486 112.084 136.561 112.084H140.978C141.13 112.084 141.276 112.145 141.383 112.252C141.491 112.36 141.551 112.506 141.551 112.658V128.903C141.55 129.054 141.489 129.198 141.381 129.305C141.274 129.411 141.129 129.471 140.978 129.471Z" fill="white"/>
<path id="Vector_5" d="M158.689 122.195H147.108C147.083 122.195 147.058 122.201 147.036 122.212C147.013 122.222 146.993 122.238 146.977 122.257C146.961 122.276 146.95 122.299 146.943 122.323C146.937 122.347 146.936 122.372 146.94 122.397C147.423 124.351 148.769 125.547 150.523 125.547C151.678 125.547 153.008 125.276 153.919 123.876C153.982 123.777 154.074 123.699 154.182 123.654C154.29 123.608 154.41 123.597 154.525 123.621L158.204 124.418C158.289 124.435 158.368 124.471 158.437 124.523C158.505 124.575 158.561 124.642 158.6 124.719C158.639 124.795 158.66 124.88 158.661 124.966C158.663 125.052 158.645 125.137 158.608 125.216C157.069 128.448 154.149 130 150.527 130C145.651 130 141.618 126.295 141.618 120.787C141.618 115.313 145.659 111.571 150.559 111.571C155.333 111.571 159.164 115.105 159.265 120.787V121.633C159.262 121.784 159.2 121.927 159.092 122.032C158.984 122.137 158.84 122.196 158.689 122.195ZM147.227 118.801H153.721C153.748 118.8 153.774 118.794 153.798 118.782C153.822 118.77 153.843 118.752 153.859 118.731C153.875 118.709 153.885 118.684 153.89 118.658C153.894 118.631 153.893 118.604 153.885 118.578C153.337 116.861 152.04 116.063 150.555 116.063C149.785 116.066 149.036 116.309 148.411 116.757C147.785 117.206 147.315 117.838 147.066 118.566C147.055 118.593 147.052 118.621 147.055 118.649C147.058 118.677 147.068 118.704 147.084 118.727C147.1 118.751 147.121 118.77 147.146 118.784C147.171 118.797 147.199 118.804 147.227 118.805V118.801Z" fill="white"/>
<path id="Vector_6" d="M68.092 126.202C70.7656 126.202 72.933 123.79 72.933 120.815C72.933 117.84 70.7656 115.429 68.092 115.429C65.4184 115.429 63.251 117.84 63.251 120.815C63.251 123.79 65.4184 126.202 68.092 126.202Z" fill="#FF4E1F"/>
<path id="Vector_7" d="M19.1446 112.902L14.6349 113.82C14.5228 113.841 14.4067 113.82 14.3097 113.759C14.2128 113.699 14.1421 113.605 14.1116 113.494C13.5661 111.636 11.9134 110.72 10.2303 110.72C8.35937 110.72 7.16932 111.731 7.16932 113.024C7.16932 113.939 7.57341 114.616 9.00591 114.921L13.7338 115.972C17.6777 116.853 19.9972 118.988 19.9972 122.579C19.9972 127.428 15.6775 129.931 10.6102 129.931C5.6964 129.931 1.62316 127.698 0.746278 123.615C0.731003 123.542 0.730423 123.467 0.744576 123.393C0.75873 123.32 0.787332 123.251 0.828711 123.188C0.87009 123.126 0.92342 123.073 0.985585 123.032C1.04775 122.991 1.1175 122.962 1.19078 122.948L6.0217 122.015C6.13034 121.993 6.24307 122.013 6.33819 122.07C6.43331 122.126 6.50409 122.216 6.53691 122.322C7.19356 124.387 8.75942 125.29 10.9173 125.29C13.0246 125.29 14.2833 124.34 14.2833 122.952C14.2833 121.942 13.8065 121.292 12.176 120.952L7.41379 119.942C4.14873 119.196 1.29382 117.503 1.29382 113.369C1.29382 108.965 4.96499 106.219 10.3051 106.219C15.0309 106.219 18.5263 108.441 19.583 112.209C19.6023 112.284 19.6062 112.361 19.5943 112.437C19.5825 112.513 19.5551 112.586 19.514 112.651C19.4729 112.716 19.419 112.772 19.3554 112.815C19.2918 112.858 19.2201 112.888 19.1446 112.902Z" fill="white"/>
<path id="Vector_8" d="M39.0656 120.783C39.0656 126.26 34.7075 129.913 29.5553 129.913C24.3021 129.913 19.9399 126.26 19.9399 120.783C19.9399 115.327 24.2981 111.69 29.5553 111.69C34.7075 111.676 39.0656 115.327 39.0656 120.783ZM33.7397 120.783C33.7397 118.093 31.699 116.301 29.5553 116.301C27.3065 116.301 25.2659 118.093 25.2659 120.783C25.2659 123.504 27.3065 125.262 29.5553 125.262C31.699 125.254 33.7397 123.496 33.7397 120.783Z" fill="white"/>
<path id="Vector_9" d="M57.3326 112.902L52.8229 113.82C52.7108 113.841 52.5947 113.82 52.4977 113.759C52.4008 113.699 52.33 113.605 52.2996 113.494C51.7541 111.636 50.1013 110.72 48.4183 110.72C46.5474 110.72 45.3573 111.731 45.3573 113.024C45.3573 113.939 45.7614 114.616 47.1939 114.921L51.9218 115.972C55.8657 116.853 58.1852 118.988 58.1852 122.579C58.1852 127.428 53.8655 129.931 48.7981 129.931C43.8844 129.931 39.8111 127.698 38.9343 123.615C38.919 123.542 38.9184 123.467 38.9326 123.393C38.9467 123.32 38.9753 123.251 39.0167 123.188C39.0581 123.126 39.1114 123.073 39.1736 123.032C39.2357 122.991 39.3055 122.962 39.3788 122.948L44.2097 122.015C44.3183 121.993 44.4311 122.013 44.5262 122.07C44.6213 122.126 44.6921 122.216 44.7249 122.322C45.3816 124.387 46.9474 125.29 49.1053 125.29C51.2126 125.29 52.4713 124.34 52.4713 122.952C52.4713 121.942 51.9945 121.292 50.364 120.952L45.6018 119.942C42.3367 119.196 39.4818 117.503 39.4818 113.369C39.4818 108.965 43.153 106.219 48.4931 106.219C53.2189 106.219 56.7143 108.441 57.771 112.209C57.7903 112.284 57.7942 112.361 57.7823 112.437C57.7705 112.513 57.7431 112.586 57.702 112.651C57.6609 112.716 57.6069 112.772 57.5434 112.815C57.4798 112.858 57.4081 112.888 57.3326 112.902Z" fill="white"/>
<path id="Vector_10" d="M77.2546 120.783C77.2546 126.26 72.8964 129.913 67.7443 129.913C62.4911 129.913 58.1289 126.26 58.1289 120.783C58.1289 115.327 62.487 111.69 67.7443 111.69C72.8964 111.676 77.2546 115.327 77.2546 120.783ZM71.9286 120.783C71.9286 118.093 69.888 116.301 67.7443 116.301C65.4955 116.301 63.4548 118.093 63.4548 120.783C63.4548 123.504 65.4955 125.262 67.7443 125.262C69.888 125.254 71.9286 123.496 71.9286 120.783Z" fill="white"/>
<path id="Vector_11" d="M92.5725 129.98H87.982C87.8251 129.98 87.6718 129.933 87.5408 129.847C87.4099 129.76 87.3069 129.637 87.2446 129.493L77.5868 106.864C77.557 106.794 77.5451 106.718 77.5519 106.643C77.5588 106.567 77.5843 106.494 77.6261 106.431C77.668 106.368 77.7249 106.316 77.7917 106.28C77.8585 106.244 77.9332 106.226 78.009 106.226H83.2501C83.4089 106.226 83.5638 106.274 83.6957 106.362C83.8276 106.451 83.9305 106.576 83.9916 106.723L90.1035 121.591C90.1165 121.623 90.1385 121.649 90.1668 121.668C90.195 121.687 90.2282 121.697 90.2621 121.697C90.2961 121.697 90.3292 121.687 90.3575 121.668C90.3857 121.649 90.4077 121.623 90.4207 121.591L96.567 106.735C96.6283 106.589 96.731 106.464 96.8624 106.376C96.9939 106.288 97.1483 106.241 97.3064 106.24H102.56C102.635 106.24 102.71 106.259 102.776 106.295C102.843 106.331 102.899 106.383 102.941 106.446C102.983 106.509 103.008 106.582 103.015 106.657C103.022 106.733 103.01 106.809 102.98 106.878L93.3241 129.508C93.2587 129.651 93.1526 129.772 93.0191 129.856C92.8855 129.94 92.7303 129.984 92.5725 129.98Z" fill="white"/>
</g>
</svg>
