<svg width="24" height="24" viewBox="0 0 24 24" fill="none" xmlns="http://www.w3.org/2000/svg">
<path d="M16.4992 15C15.9989 14.9998 15.5037 15.1 15.0428 15.2947C14.5819 15.4894 14.1648 15.7746 13.8161 16.1334L9.49425 13.3556C9.83421 12.4838 9.83421 11.5161 9.49425 10.6443L13.8161 7.86652C14.4653 8.5315 15.3383 8.93175 16.2658 8.98967C17.1933 9.04758 18.1093 8.75903 18.8361 8.17996C19.563 7.6009 20.0489 6.77257 20.1998 5.85557C20.3506 4.93857 20.1555 3.99823 19.6525 3.21686C19.1494 2.4355 18.3741 1.86877 17.4768 1.62656C16.5796 1.38435 15.6245 1.48391 14.7965 1.90594C13.9685 2.32797 13.3268 3.0424 12.9956 3.91072C12.6645 4.77904 12.6676 5.73939 13.0042 6.60558L8.68237 9.38339C8.16194 8.84909 7.49399 8.48212 6.76391 8.3294C6.03383 8.17668 5.2748 8.24515 4.58384 8.52605C3.89287 8.80695 3.30137 9.28752 2.88495 9.90633C2.46852 10.5251 2.24609 11.2541 2.24609 12C2.24609 12.7458 2.46852 13.4748 2.88495 14.0936C3.30137 14.7124 3.89287 15.193 4.58384 15.4739C5.2748 15.7548 6.03383 15.8232 6.76391 15.6705C7.49399 15.5178 8.16194 15.1508 8.68237 14.6165L13.0042 17.3943C12.7147 18.1411 12.6719 18.9609 12.882 19.7338C13.0921 20.5066 13.5441 21.1919 14.1719 21.6893C14.7997 22.1866 15.5702 22.4699 16.3706 22.4977C17.171 22.5255 17.9593 22.2962 18.6201 21.8436C19.2808 21.3909 19.7792 20.7386 20.0424 19.9822C20.3056 19.2258 20.3197 18.4049 20.0826 17.6399C19.8455 16.8749 19.3697 16.2059 18.7249 15.7308C18.0801 15.2558 17.3002 14.9997 16.4992 15ZM16.4992 2.99995C16.9443 2.99995 17.3793 3.13191 17.7493 3.37914C18.1193 3.62638 18.4077 3.97778 18.578 4.38891C18.7483 4.80005 18.7928 5.25245 18.706 5.6889C18.6192 6.12536 18.4049 6.52627 18.0902 6.84094C17.7756 7.15561 17.3747 7.3699 16.9382 7.45672C16.5017 7.54354 16.0493 7.49898 15.6382 7.32868C15.2271 7.15838 14.8757 6.87 14.6284 6.49998C14.3812 6.12997 14.2492 5.69496 14.2492 5.24995C14.2492 4.65321 14.4863 4.08092 14.9083 3.65896C15.3302 3.237 15.9025 2.99995 16.4992 2.99995ZM5.99925 14.25C5.55424 14.25 5.11923 14.118 4.74922 13.8708C4.37921 13.6235 4.09082 13.2721 3.92052 12.861C3.75022 12.4499 3.70567 11.9975 3.79248 11.561C3.8793 11.1245 4.09359 10.7236 4.40826 10.409C4.72293 10.0943 5.12384 9.88 5.5603 9.79319C5.99675 9.70637 6.44915 9.75093 6.86029 9.92122C7.27142 10.0915 7.62282 10.3799 7.87006 10.7499C8.11729 11.1199 8.24925 11.5549 8.24925 12C8.24925 12.5967 8.0122 13.169 7.59024 13.5909C7.16828 14.0129 6.59599 14.25 5.99925 14.25ZM16.4992 21C16.0542 21 15.6192 20.868 15.2492 20.6208C14.8792 20.3735 14.5908 20.0221 14.4205 19.611C14.2502 19.1999 14.2057 18.7475 14.2925 18.311C14.3793 17.8745 14.5936 17.4736 14.9083 17.159C15.2229 16.8443 15.6238 16.63 16.0603 16.5432C16.4968 16.4564 16.9492 16.5009 17.3603 16.6712C17.7714 16.8415 18.1228 17.1299 18.3701 17.4999C18.6173 17.8699 18.7492 18.3049 18.7492 18.75C18.7492 19.3467 18.5122 19.919 18.0902 20.3409C17.6683 20.7629 17.096 21 16.4992 21Z" fill="#F4F4F4" style="fill:#F4F4F4;fill:color(display-p3 0.9569 0.9569 0.9569);fill-opacity:1;"/>
</svg>
