<svg width="24" height="24" viewBox="0 0 24 24" fill="none" xmlns="http://www.w3.org/2000/svg">
<g id="Share">
<path id="Shape" d="M6.74707 4.00003H10.2113C10.6255 4.00003 10.9613 4.33582 10.9613 4.75003C10.9613 5.12972 10.6791 5.44352 10.313 5.49318L10.2113 5.50003H6.74707C5.55621 5.50003 4.58143 6.42519 4.50226 7.59598L4.49707 7.75003V17.25C4.49707 18.4409 5.42223 19.4157 6.59302 19.4948L6.74707 19.5H16.2478C17.4387 19.5 18.4134 18.5749 18.4926 17.4041L18.4978 17.25V16.7522C18.4978 16.338 18.8336 16.0022 19.2478 16.0022C19.6275 16.0022 19.9413 16.2844 19.991 16.6505L19.9978 16.7522V17.25C19.9978 19.2543 18.4254 20.8913 16.447 20.9948L16.2478 21H6.74707C4.74281 21 3.1058 19.4277 3.00227 17.4492L2.99707 17.25V7.75003C2.99707 5.74577 4.56943 4.10876 6.54791 4.00523L6.74707 4.00003H10.2113H6.74707ZM14.5011 6.51988V3.75003C14.5011 3.12606 15.2078 2.78998 15.688 3.13983L15.7702 3.20877L21.7648 8.95877C22.0446 9.22712 22.0701 9.65814 21.8412 9.9561L21.7649 10.0412L15.7703 15.7931C15.32 16.2251 14.5881 15.9477 14.5082 15.3589L14.5011 15.2519V12.5266L14.1576 12.5567C11.7579 12.807 9.45784 13.8879 7.24302 15.8174C6.72391 16.2696 5.92078 15.842 6.00616 15.1589C6.67094 9.83933 9.45282 6.90733 14.2017 6.53953L14.5011 6.51988V3.75003V6.51988ZM16.0011 5.50867V7.25003C16.0011 7.66424 15.6653 8.00003 15.2511 8.00003C11.3777 8.00003 8.97704 9.67616 7.9398 13.1572L7.86074 13.4358L8.21293 13.199C10.4494 11.7372 12.7988 11 15.2511 11C15.6308 11 15.9446 11.2822 15.9942 11.6483L16.0011 11.75V13.4928L20.1623 9.50012L16.0011 5.50867Z" fill="#D6D6D6"/>
</g>
</svg>
