<svg width="64" height="64" viewBox="0 0 64 64" fill="none" xmlns="http://www.w3.org/2000/svg">
<path d="M52 10H12C10.9391 10 9.92172 10.4214 9.17157 11.1716C8.42143 11.9217 8 12.9391 8 14V28.695C8 51.0975 26.955 58.53 30.75 59.7925C31.5605 60.0681 32.4395 60.0681 33.25 59.7925C37.05 58.53 56 51.0975 56 28.695V14C56 12.9391 55.5786 11.9217 54.8284 11.1716C54.0783 10.4214 53.0609 10 52 10ZM52 28.6975C52 48.3025 35.4125 54.8525 32 55.9925C28.6175 54.865 12 48.32 12 28.6975V14H52V28.6975ZM20.585 35.415C20.2097 35.0397 19.9989 34.5307 19.9989 34C19.9989 33.4693 20.2097 32.9603 20.585 32.585C20.9603 32.2097 21.4693 31.9989 22 31.9989C22.5307 31.9989 23.0397 32.2097 23.415 32.585L28 37.17L40.585 24.585C40.7708 24.3992 40.9914 24.2518 41.2342 24.1512C41.477 24.0506 41.7372 23.9989 42 23.9989C42.2628 23.9989 42.523 24.0506 42.7658 24.1512C43.0086 24.2518 43.2292 24.3992 43.415 24.585C43.6008 24.7708 43.7482 24.9914 43.8488 25.2342C43.9494 25.477 44.0011 25.7372 44.0011 26C44.0011 26.2628 43.9494 26.523 43.8488 26.7658C43.7482 27.0086 43.6008 27.2292 43.415 27.415L29.415 41.415C29.2293 41.601 29.0087 41.7485 28.7659 41.8491C28.5231 41.9498 28.2628 42.0016 28 42.0016C27.7372 42.0016 27.4769 41.9498 27.2341 41.8491C26.9913 41.7485 26.7707 41.601 26.585 41.415L20.585 35.415Z" fill="#F4F4F4" style="fill:#F4F4F4;fill:color(display-p3 0.9569 0.9569 0.9569);fill-opacity:1;"/>
</svg>
