<svg width="32" height="32" viewBox="0 0 32 32" fill="none" xmlns="http://www.w3.org/2000/svg">
<path fill-rule="evenodd" clip-rule="evenodd" d="M27.3966 22.6783L16.6358 28.9264C16.5525 28.9746 16.458 29 16.3618 29C16.2655 29 16.171 28.9746 16.0877 28.9264L5.30114 22.7241C5.21755 22.6763 5.14806 22.6073 5.09971 22.524C5.05136 22.4407 5.02586 22.3461 5.0258 22.2497L5.00001 9.79801C4.99958 9.70171 5.02458 9.607 5.07248 9.52347C5.12037 9.43994 5.18947 9.37056 5.27277 9.32235L16.0335 3.07358C16.117 3.02538 16.2116 3 16.3079 3C16.4042 3 16.4989 3.02538 16.5823 3.07358L27.3689 9.27589C27.4523 9.32396 27.5217 9.39316 27.57 9.47653C27.6184 9.5599 27.6439 9.65452 27.6442 9.7509L27.67 22.2026C27.6701 22.2989 27.6449 22.3936 27.5969 22.4771C27.5489 22.5606 27.4798 22.6299 27.3966 22.6783ZM24.4085 11.3128L19.6761 14.0938C19.5962 14.1408 19.5056 14.1667 19.4129 14.1691C19.3202 14.1715 19.2284 14.1502 19.1461 14.1074L16.8815 12.9263C16.8379 12.9036 16.8013 12.8695 16.7754 12.8278C16.7494 12.786 16.7352 12.7381 16.7342 12.6889C16.7331 12.6398 16.7453 12.5912 16.7694 12.5484C16.7935 12.5056 16.8286 12.47 16.8712 12.4454L18.8985 11.276C18.9264 11.26 18.9495 11.2369 18.9656 11.2091C18.9817 11.1813 18.9902 11.1497 18.9902 11.1175C18.9902 11.0854 18.9817 11.0538 18.9656 11.026C18.9495 10.9982 18.9264 10.9751 18.8985 10.9591L16.5984 9.63473C16.515 9.58652 16.4204 9.56114 16.324 9.56114C16.2277 9.56114 16.1331 9.58652 16.0497 9.63473L10.9646 12.579C10.9367 12.595 10.9136 12.6181 10.8975 12.6459C10.8814 12.6738 10.8729 12.7053 10.8729 12.7375C10.8729 12.7696 10.8814 12.8012 10.8975 12.829C10.9136 12.8569 10.9367 12.8799 10.9646 12.8959L16.0651 15.8306C16.1487 15.8786 16.2181 15.9478 16.2664 16.0312C16.3147 16.1145 16.3403 16.2092 16.3405 16.3056L16.3534 25.1792C16.3535 25.2434 16.3368 25.3065 16.3048 25.3622C16.2729 25.4179 16.2268 25.4641 16.1714 25.4964C16.1159 25.5286 16.0529 25.5457 15.9888 25.5459C15.9246 25.546 15.8616 25.5293 15.8059 25.4974L8.1145 21.088C8.03091 21.0402 7.96142 20.9712 7.91307 20.8879C7.86471 20.8046 7.83922 20.71 7.83916 20.6136L7.83335 18.4025V16.7574C7.83331 16.7095 7.84579 16.6624 7.86956 16.6209C7.89333 16.5793 7.92755 16.5447 7.96883 16.5205C8.01011 16.4963 8.057 16.4833 8.10484 16.4828C8.15268 16.4824 8.1998 16.4945 8.24153 16.5179L10.3785 17.7177C10.4631 17.7654 10.5335 17.8346 10.5827 17.9184C10.6318 18.0022 10.6579 18.0975 10.6583 18.1947L10.6615 19.0608C10.6609 19.1253 10.6772 19.1887 10.7089 19.2448C10.7406 19.3009 10.7866 19.3477 10.8421 19.3803L13.2402 20.7595C13.268 20.7754 13.2995 20.7838 13.3316 20.7837C13.3636 20.7836 13.3951 20.7751 13.4228 20.759C13.4506 20.743 13.4736 20.7199 13.4897 20.6921C13.5057 20.6643 13.5142 20.6328 13.5142 20.6007V17.9604C13.5142 17.8639 13.4887 17.7691 13.4404 17.6856C13.392 17.602 13.3225 17.5328 13.2389 17.4847L8.11127 14.534C8.02785 14.4861 7.95852 14.417 7.9103 14.3337C7.86207 14.2504 7.83664 14.1559 7.83658 14.0596L7.82948 11.427C7.82921 11.3306 7.85433 11.2358 7.90233 11.1521C7.95033 11.0685 8.01951 10.999 8.10289 10.9507L16.04 6.34318C16.1233 6.29497 16.2178 6.26959 16.314 6.26959C16.4103 6.26959 16.5048 6.29497 16.5881 6.34318L24.4066 10.8384C24.448 10.8625 24.4824 10.897 24.5064 10.9385C24.5304 10.98 24.5431 11.0271 24.5433 11.075C24.5435 11.123 24.5312 11.1702 24.5075 11.2119C24.4839 11.2536 24.4497 11.2883 24.4085 11.3128ZM19.1371 20.855L19.1326 17.7481C19.1323 17.6517 19.1574 17.557 19.2054 17.4735C19.2534 17.3899 19.3226 17.3206 19.406 17.2724L22.0859 15.7176C22.1414 15.6855 22.2044 15.6685 22.2686 15.6684C22.3328 15.6683 22.3958 15.6852 22.4514 15.7172C22.507 15.7493 22.5532 15.7954 22.5854 15.851C22.6175 15.9066 22.6345 15.9696 22.6346 16.0339L22.641 19.1376C22.6413 19.234 22.6162 19.3287 22.5683 19.4123C22.5204 19.4959 22.4515 19.5654 22.3683 19.6139L19.6858 21.1713C19.6303 21.2034 19.5673 21.2204 19.5031 21.2205C19.4389 21.2206 19.3759 21.2037 19.3203 21.1717C19.2646 21.1396 19.2184 21.0935 19.1863 21.0379C19.1541 20.9823 19.1372 20.9192 19.1371 20.855Z" fill="#8F8F8F" style="fill:#8F8F8F;fill:color(display-p3 0.5600 0.5600 0.5600);fill-opacity:1;"/>
</svg>
