<svg width="32" height="32" viewBox="0 0 32 32" fill="none" xmlns="http://www.w3.org/2000/svg">
<g id="SoSponge">
<g id="Vector">
<path d="M29.9758 8.49673C29.9755 8.38121 29.9447 8.26783 29.8866 8.16802C29.8285 8.06821 29.7451 7.98551 29.6449 7.92825L16.7008 0.48878C16.6006 0.430877 16.4869 0.400391 16.3712 0.400391C16.2555 0.400391 16.1419 0.430877 16.0417 0.48878L3.12845 7.9872C3.02852 8.04527 2.9456 8.12863 2.888 8.2289C2.83041 8.32917 2.80016 8.44283 2.80029 8.55849L2.83115 23.502C2.83168 23.6177 2.86253 23.7312 2.92061 23.8312C2.97868 23.9312 3.06196 24.0142 3.16211 24.0719L16.1062 31.5114C16.2062 31.5697 16.32 31.6004 16.4357 31.6004C16.5515 31.6004 16.6652 31.5697 16.7653 31.5114L29.6785 24.0129C29.7785 23.9548 29.8614 23.8715 29.919 23.7712C29.9766 23.671 30.0068 23.5573 30.0067 23.4416L29.9758 8.49673ZM26.0926 10.3734L20.4115 13.71C20.3153 13.7662 20.2065 13.7971 20.0952 13.7998C19.9838 13.8025 19.8736 13.7769 19.7748 13.7254L17.0598 12.3105C17.0074 12.2834 16.9632 12.2427 16.9319 12.1926C16.9007 12.1425 16.8835 12.0849 16.8822 12.0258C16.8809 11.9668 16.8956 11.9084 16.9246 11.857C16.9536 11.8056 16.996 11.763 17.0472 11.7336L19.4803 10.3299C19.5135 10.3105 19.541 10.2827 19.5601 10.2494C19.5792 10.216 19.5893 10.1782 19.5893 10.1397C19.5893 10.1013 19.5792 10.0635 19.5601 10.0301C19.541 9.99674 19.5135 9.96896 19.4803 9.94953L16.7204 8.35636C16.6202 8.29846 16.5066 8.26798 16.3909 8.26798C16.2752 8.26798 16.1615 8.29846 16.0613 8.35636L9.95249 11.8936C9.91897 11.9128 9.8911 11.9404 9.87172 11.9738C9.85234 12.0072 9.84213 12.0452 9.84213 12.0838C9.84213 12.1224 9.85234 12.1604 9.87172 12.1938C9.8911 12.2272 9.91897 12.2549 9.95249 12.274L16.0809 15.7958C16.181 15.8535 16.2642 15.9365 16.322 16.0366C16.3799 16.1366 16.4104 16.2501 16.4105 16.3657L16.4273 27.0154C16.4271 27.0898 16.408 27.163 16.3719 27.228C16.3358 27.2931 16.2838 27.3479 16.2208 27.3874C16.1578 27.4269 16.0858 27.4499 16.0116 27.454C15.9374 27.4582 15.8633 27.4435 15.7963 27.4112L6.5545 22.0955C6.45415 22.038 6.37072 21.9551 6.31262 21.855C6.25451 21.755 6.22379 21.6413 6.22353 21.5256L6.21371 16.9188C6.2116 16.8546 6.22825 16.7911 6.26163 16.7363C6.29502 16.6814 6.34367 16.6375 6.40163 16.61C6.44769 16.5899 6.49776 16.5809 6.5479 16.5836C6.59804 16.5863 6.64686 16.6006 6.69053 16.6254L9.2513 18.06C9.35271 18.1174 9.43722 18.2006 9.49631 18.3011C9.55539 18.4017 9.58697 18.516 9.58787 18.6327V19.6728C9.5882 19.7497 9.60871 19.8252 9.64735 19.8917C9.68599 19.9582 9.74141 20.0134 9.80804 20.0518L12.6858 21.7067C12.7191 21.726 12.7569 21.7361 12.7955 21.736C12.834 21.736 12.8718 21.7258 12.9051 21.7064C12.9384 21.687 12.966 21.6592 12.9851 21.6257C13.0042 21.5923 13.0141 21.5543 13.0139 21.5158V18.3533C13.014 18.2375 12.9836 18.1237 12.9258 18.0234C12.8679 17.9231 12.7846 17.8398 12.6843 17.782L6.53066 14.2406C6.43171 14.1837 6.34927 14.102 6.29148 14.0036C6.23368 13.9051 6.20253 13.7933 6.20109 13.6791V10.5166C6.20027 10.3861 6.23889 10.2584 6.31188 10.1503L6.34975 10.0997L6.39322 10.0534C6.43433 10.011 6.48161 9.97501 6.53346 9.94673L16.0557 4.41906C16.1556 4.36115 16.2691 4.33064 16.3846 4.33064C16.5 4.33064 16.6135 4.36115 16.7134 4.41906L26.0954 9.81478C26.1431 9.84439 26.1825 9.88575 26.2097 9.93491C26.2368 9.98408 26.251 10.0394 26.2507 10.0956C26.2504 10.1518 26.2357 10.207 26.208 10.2559C26.1804 10.3048 26.1406 10.3457 26.0926 10.3748V10.3734Z" fill="white"/>
<path d="M19.7609 18.0964L19.7693 21.8316C19.7695 21.9087 19.79 21.9844 19.8287 22.051C19.8673 22.1177 19.9228 22.173 19.9896 22.2115C20.0564 22.2499 20.1321 22.27 20.2092 22.2698C20.2862 22.2697 20.3618 22.2492 20.4285 22.2106L23.6469 20.3409C23.7469 20.2828 23.8298 20.1994 23.8874 20.0992C23.945 19.9989 23.9752 19.8852 23.9751 19.7696L23.9667 16.0442C23.9665 15.9671 23.946 15.8914 23.9074 15.8248C23.8687 15.7581 23.8132 15.7028 23.7464 15.6644C23.6796 15.626 23.6039 15.6058 23.5269 15.606C23.4498 15.6061 23.3742 15.6266 23.3076 15.6652L20.0919 17.5307C19.9922 17.588 19.9093 17.6703 19.8512 17.7695C19.7932 17.8687 19.7621 17.9814 19.7609 18.0964Z" fill="#FF4E1F"/>
</g>
</g>
</svg>
