<svg width="16" height="17" viewBox="0 0 16 17" fill="none" xmlns="http://www.w3.org/2000/svg">
<g id="Star">
<path id="Vector" d="M14.9502 6.5805C14.8897 6.39387 14.7755 6.22917 14.6221 6.10692C14.4686 5.98467 14.2825 5.91028 14.0871 5.893L10.3752 5.573L8.92021 2.113C8.84446 1.93145 8.71668 1.77637 8.55297 1.66729C8.38926 1.55821 8.19693 1.5 8.00021 1.5C7.80349 1.5 7.61116 1.55821 7.44745 1.66729C7.28374 1.77637 7.15596 1.93145 7.08021 2.113L5.62958 5.573L1.91333 5.89488C1.71711 5.91137 1.53011 5.98542 1.37581 6.10776C1.2215 6.2301 1.10675 6.39527 1.04594 6.58257C0.985134 6.76986 0.980978 6.97094 1.03399 7.16059C1.08701 7.35024 1.19484 7.52002 1.34396 7.64863L4.16333 10.1124L3.31833 13.7711C3.27365 13.9626 3.2864 14.163 3.35499 14.3472C3.42358 14.5315 3.54496 14.6914 3.70396 14.8071C3.86296 14.9227 4.05252 14.989 4.24894 14.9975C4.44537 15.0059 4.63994 14.9564 4.80833 14.8549L7.99583 12.9174L11.1902 14.8549C11.3586 14.9564 11.5532 15.0059 11.7496 14.9975C11.946 14.989 12.1356 14.9227 12.2946 14.8071C12.4536 14.6914 12.575 14.5315 12.6436 14.3472C12.7121 14.163 12.7249 13.9626 12.6802 13.7711L11.8358 10.1086L14.6546 7.64863C14.8037 7.51957 14.9113 7.34931 14.9639 7.15926C15.0165 6.96921 15.0117 6.76785 14.9502 6.5805ZM13.999 6.893L11.1802 9.353C11.043 9.47233 10.941 9.62681 10.885 9.79982C10.8291 9.97283 10.8214 10.1578 10.8627 10.3349L11.7096 13.9999L8.51771 12.0624C8.36198 11.9675 8.18317 11.9174 8.00083 11.9174C7.8185 11.9174 7.63969 11.9675 7.48396 12.0624L4.29646 13.9999L5.13771 10.3374C5.17905 10.1603 5.17134 9.97533 5.11539 9.80232C5.05945 9.62931 4.9574 9.47483 4.82021 9.3555L2.00021 6.89675C1.99998 6.89488 1.99998 6.89299 2.00021 6.89113L5.71521 6.56988C5.89659 6.55389 6.07015 6.48868 6.21719 6.3813C6.36423 6.27391 6.47916 6.12841 6.54958 5.9605L8.00021 2.50488L9.45021 5.9605C9.52063 6.12841 9.63556 6.27391 9.7826 6.3813C9.92964 6.48868 10.1032 6.55389 10.2846 6.56988L14.0002 6.89113C14.0002 6.89113 14.0002 6.89488 14.0002 6.8955L13.999 6.893Z" fill="#8D8D8D"/>
</g>
</svg>
