<svg width="12" height="12" viewBox="0 0 12 12" fill="none" xmlns="http://www.w3.org/2000/svg">
<rect width="12" height="12" rx="6" fill="#FF4500" fill-opacity="0.2" style="fill:#FF4500;fill:color(display-p3 1.0000 0.2706 0.0000);fill-opacity:0.2;"/>
<g clip-path="url(#clip0_18845_156682)">
<path d="M6 12C9.31371 12 12 9.31371 12 6C12 2.68629 9.31371 0 6 0C2.68629 0 0 2.68629 0 6C0 9.31371 2.68629 12 6 12Z" fill="#FF4500" style="fill:#FF4500;fill:color(display-p3 1.0000 0.2706 0.0000);fill-opacity:1;"/>
<path d="M9.99964 5.9999C9.99964 5.51569 9.60665 5.1227 9.12244 5.1227C8.88385 5.1227 8.67332 5.21393 8.51894 5.36832C7.92244 4.94025 7.09437 4.65955 6.18209 4.62446L6.58209 2.75077L7.88034 3.02446C7.89437 3.35428 8.16806 3.62095 8.5049 3.62095C8.84876 3.62095 9.12946 3.34025 9.12946 2.99639C9.12946 2.65253 8.84876 2.37183 8.5049 2.37183C8.25929 2.37183 8.04876 2.51218 7.95051 2.7227L6.49788 2.41393C6.45578 2.40691 6.41367 2.41393 6.37858 2.43498C6.3435 2.45604 6.32244 2.49112 6.30841 2.53323L5.8663 4.62446C4.93297 4.65253 4.09788 4.92621 3.49437 5.36832C3.33999 5.22095 3.12244 5.1227 2.89086 5.1227C2.40665 5.1227 2.01367 5.51569 2.01367 5.9999C2.01367 6.35779 2.2242 6.65955 2.53297 6.7999C2.51894 6.88411 2.51192 6.97534 2.51192 7.06656C2.51192 8.41393 4.07683 9.50165 6.01367 9.50165C7.95051 9.50165 9.51543 8.41393 9.51543 7.06656C9.51543 6.97534 9.50841 6.89112 9.49437 6.80691C9.78209 6.66656 9.99964 6.35779 9.99964 5.9999ZM3.99964 6.62446C3.99964 6.2806 4.28034 5.9999 4.6242 5.9999C4.96806 5.9999 5.24876 6.2806 5.24876 6.62446C5.24876 6.96832 4.96806 7.24902 4.6242 7.24902C4.28034 7.24902 3.99964 6.96832 3.99964 6.62446ZM7.48736 8.27358C7.05929 8.70165 6.24525 8.72972 6.00665 8.72972C5.76806 8.72972 4.947 8.69463 4.52595 8.27358C4.46279 8.21042 4.46279 8.10516 4.52595 8.042C4.58911 7.97884 4.69437 7.97884 4.75753 8.042C5.0242 8.30867 5.59964 8.40691 6.01367 8.40691C6.42771 8.40691 6.99613 8.30867 7.26981 8.042C7.33297 7.97884 7.43823 7.97884 7.50139 8.042C7.55051 8.11218 7.55051 8.21042 7.48736 8.27358ZM7.37508 7.24902C7.03122 7.24902 6.75051 6.96832 6.75051 6.62446C6.75051 6.2806 7.03122 5.9999 7.37508 5.9999C7.71894 5.9999 7.99964 6.2806 7.99964 6.62446C7.99964 6.96832 7.71894 7.24902 7.37508 7.24902Z" fill="white" style="fill:white;fill:white;fill-opacity:1;"/>
</g>
<defs>
<clipPath id="clip0_18845_156682">
<rect width="12" height="12" fill="white" style="fill:white;fill:white;fill-opacity:1;"/>
</clipPath>
</defs>
</svg>
