<svg width="25" height="20" viewBox="0 0 25 20" fill="none" xmlns="http://www.w3.org/2000/svg">
<path d="M1.89972 8.61737C8.34337 5.81062 12.6391 3.96005 14.787 3.06602C20.9267 0.513071 22.2009 0.0696823 23.0331 0.0548335C23.2161 0.0517257 23.6236 0.0969621 23.8895 0.312096C24.1105 0.493389 24.1727 0.738565 24.2038 0.910534C24.2314 1.0825 24.2694 1.47444 24.2384 1.78039C23.9069 5.27503 22.4669 13.7554 21.7348 17.6696C21.4275 19.3258 20.8162 19.8811 20.2257 19.9353C18.9411 20.0534 17.9673 19.0872 16.7241 18.2725C14.78 16.9972 13.682 16.2037 11.7931 14.9595C9.61065 13.5216 11.0264 12.7312 12.2696 11.4397C12.5942 11.1016 18.2504 5.95807 18.3575 5.49154C18.3713 5.43318 18.3852 5.21563 18.254 5.10099C18.1262 4.98599 17.9362 5.02536 17.798 5.05644C17.6012 5.10064 14.4968 7.1546 8.47443 11.218C7.59387 11.8237 6.7962 12.1189 6.07794 12.1034C5.29061 12.0865 3.77131 11.6572 2.64212 11.2905C1.26084 10.8405 0.159224 10.6026 0.255913 9.83842C0.304258 9.44062 0.853402 9.03348 1.89972 8.61737Z" fill="#C2C2C2"/>
</svg>
