<svg width="16" height="16" viewBox="0 0 16 16" fill="none" xmlns="http://www.w3.org/2000/svg">
<path d="M14.9888 9.81226L14.2388 3.81226C14.1931 3.44968 14.0166 3.11625 13.7425 2.87459C13.4684 2.63292 13.1154 2.49963 12.75 2.49976H2C1.73478 2.49976 1.48043 2.60511 1.29289 2.79265C1.10536 2.98019 1 3.23454 1 3.49976V8.99976C1 9.26497 1.10536 9.51933 1.29289 9.70686C1.48043 9.8944 1.73478 9.99976 2 9.99976H4.69125L7.0525 14.7235C7.09407 14.8066 7.15795 14.8764 7.237 14.9252C7.31604 14.974 7.40711 14.9998 7.5 14.9998C8.16304 14.9998 8.79893 14.7364 9.26777 14.2675C9.73661 13.7987 10 13.1628 10 12.4998V11.4998H13.5C13.7129 11.4998 13.9233 11.4546 14.1173 11.3671C14.3113 11.2795 14.4845 11.1517 14.6253 10.9921C14.7662 10.8325 14.8714 10.6447 14.9341 10.4413C14.9967 10.2379 15.0154 10.0234 14.9888 9.81226ZM4.5 8.99976H2V3.49976H4.5V8.99976ZM13.875 10.3304C13.8284 10.384 13.7708 10.4269 13.706 10.4561C13.6413 10.4853 13.571 10.5002 13.5 10.4998H9.5C9.36739 10.4998 9.24021 10.5524 9.14645 10.6462C9.05268 10.74 9 10.8671 9 10.9998V12.4998C9.0001 12.8466 8.88002 13.1827 8.66021 13.4509C8.4404 13.7192 8.13443 13.9029 7.79437 13.971L5.5 9.38163V3.49976H12.75C12.8718 3.49971 12.9895 3.54414 13.0808 3.6247C13.1722 3.70526 13.231 3.8164 13.2463 3.93726L13.9963 9.93726C14.0056 10.0077 13.9996 10.0792 13.9787 10.1471C13.9578 10.215 13.9224 10.2775 13.875 10.3304Z" fill="#808080"/>
</svg>
