<svg width="16" height="16" viewBox="0 0 16 16" fill="none" xmlns="http://www.w3.org/2000/svg">
<path d="M14.625 5.00726C14.4842 4.84771 14.3111 4.71994 14.1171 4.63244C13.9231 4.54494 13.7128 4.49971 13.5 4.49976H10V3.49976C10 2.83671 9.73661 2.20083 9.26777 1.73199C8.79893 1.26315 8.16304 0.999756 7.5 0.999756C7.40711 0.999689 7.31604 1.0255 7.237 1.07429C7.15795 1.12309 7.09407 1.19294 7.0525 1.27601L4.69125 5.99976H2C1.73478 5.99976 1.48043 6.10511 1.29289 6.29265C1.10536 6.48019 1 6.73454 1 6.99976V12.4998C1 12.765 1.10536 13.0193 1.29289 13.2069C1.48043 13.3944 1.73478 13.4998 2 13.4998H12.75C13.1154 13.4999 13.4684 13.3666 13.7425 13.1249C14.0166 12.8833 14.1931 12.5498 14.2387 12.1873L14.9887 6.18726C15.0153 5.97602 14.9966 5.76155 14.9339 5.55809C14.8712 5.35464 14.7659 5.16686 14.625 5.00726ZM2 6.99976H4.5V12.4998H2V6.99976ZM13.9962 6.06226L13.2462 12.0623C13.231 12.1831 13.1722 12.2943 13.0808 12.3748C12.9895 12.4554 12.8718 12.4998 12.75 12.4998H5.5V6.61788L7.79437 2.02851C8.13443 2.09657 8.4404 2.28035 8.66021 2.54859C8.88002 2.81684 9.0001 3.15296 9 3.49976V4.99976C9 5.13236 9.05268 5.25954 9.14645 5.35331C9.24021 5.44708 9.36739 5.49976 9.5 5.49976H13.5C13.571 5.49973 13.6411 5.51481 13.7058 5.54398C13.7704 5.57316 13.8282 5.61577 13.8751 5.66897C13.9221 5.72218 13.9571 5.78477 13.978 5.85257C13.9989 5.92038 14.0051 5.99186 13.9962 6.06226Z" fill="#808080"/>
</svg>
