<svg width="16" height="16" viewBox="0 0 16 16" fill="none" xmlns="http://www.w3.org/2000/svg">
<g id="Icon">
<path id="Vector" d="M12.8538 8.64625C12.9002 8.6927 12.9371 8.74786 12.9622 8.80855C12.9873 8.86925 13.0003 8.9343 13.0003 9C13.0003 9.0657 12.9873 9.13075 12.9622 9.19145C12.9371 9.25214 12.9002 9.3073 12.8538 9.35375C12.8073 9.40021 12.7521 9.43706 12.6914 9.4622C12.6308 9.48734 12.5657 9.50028 12.5 9.50028C12.4343 9.50028 12.3692 9.48734 12.3086 9.4622C12.2479 9.43706 12.1927 9.40021 12.1462 9.35375L8.5 5.70687V14C8.5 14.1326 8.44732 14.2598 8.35355 14.3536C8.25979 14.4473 8.13261 14.5 8 14.5C7.86739 14.5 7.74021 14.4473 7.64645 14.3536C7.55268 14.2598 7.5 14.1326 7.5 14V5.70687L3.85375 9.35375C3.80729 9.40021 3.75214 9.43706 3.69145 9.4622C3.63075 9.48734 3.5657 9.50028 3.5 9.50028C3.4343 9.50028 3.36925 9.48734 3.30855 9.4622C3.24786 9.43706 3.19271 9.40021 3.14625 9.35375C3.09979 9.3073 3.06294 9.25214 3.0378 9.19145C3.01266 9.13075 2.99972 9.0657 2.99972 9C2.99972 8.9343 3.01266 8.86925 3.0378 8.80855C3.06294 8.74786 3.09979 8.6927 3.14625 8.64625L7.64625 4.14625C7.69269 4.09976 7.74783 4.06288 7.80853 4.03772C7.86923 4.01256 7.93429 3.99961 8 3.99961C8.06571 3.99961 8.13077 4.01256 8.19147 4.03772C8.25217 4.06288 8.30731 4.09976 8.35375 4.14625L12.8538 8.64625ZM13.5 2H2.5C2.36739 2 2.24021 2.05268 2.14645 2.14645C2.05268 2.24021 2 2.36739 2 2.5C2 2.63261 2.05268 2.75979 2.14645 2.85355C2.24021 2.94732 2.36739 3 2.5 3H13.5C13.6326 3 13.7598 2.94732 13.8536 2.85355C13.9473 2.75979 14 2.63261 14 2.5C14 2.36739 13.9473 2.24021 13.8536 2.14645C13.7598 2.05268 13.6326 2 13.5 2Z" fill="#BBBBBB"/>
</g>
</svg>
