<svg width="16" height="16" viewBox="0 0 16 16" fill="none" xmlns="http://www.w3.org/2000/svg">
<g id="Icon">
<path id="Vector" d="M8.00003 8.5V12.5C8.00003 12.6326 7.94736 12.7598 7.85359 12.8536C7.75982 12.9473 7.63264 13 7.50003 13C7.36743 13 7.24025 12.9473 7.14648 12.8536C7.05271 12.7598 7.00003 12.6326 7.00003 12.5V9.7075L2.85378 13.8538C2.80733 13.9002 2.75218 13.9371 2.69148 13.9622C2.63079 13.9873 2.56573 14.0003 2.50003 14.0003C2.43434 14.0003 2.36928 13.9873 2.30859 13.9622C2.24789 13.9371 2.19274 13.9002 2.14628 13.8538C2.09983 13.8073 2.06298 13.7521 2.03784 13.6914C2.0127 13.6308 1.99976 13.5657 1.99976 13.5C1.99976 13.4343 2.0127 13.3692 2.03784 13.3086C2.06298 13.2479 2.09983 13.1927 2.14628 13.1462L6.29253 9H3.50003C3.36743 9 3.24025 8.94732 3.14648 8.85355C3.05271 8.75979 3.00003 8.63261 3.00003 8.5C3.00003 8.36739 3.05271 8.24021 3.14648 8.14645C3.24025 8.05268 3.36743 8 3.50003 8H7.50003C7.63264 8 7.75982 8.05268 7.85359 8.14645C7.94736 8.24021 8.00003 8.36739 8.00003 8.5ZM13 2H5.00003C4.73482 2 4.48046 2.10536 4.29293 2.29289C4.10539 2.48043 4.00003 2.73478 4.00003 3V6C4.00003 6.13261 4.05271 6.25979 4.14648 6.35355C4.24025 6.44732 4.36743 6.5 4.50003 6.5C4.63264 6.5 4.75982 6.44732 4.85359 6.35355C4.94736 6.25979 5.00003 6.13261 5.00003 6V3H13V11H10C9.86743 11 9.74025 11.0527 9.64648 11.1464C9.55271 11.2402 9.50003 11.3674 9.50003 11.5C9.50003 11.6326 9.55271 11.7598 9.64648 11.8536C9.74025 11.9473 9.86743 12 10 12H13C13.2653 12 13.5196 11.8946 13.7071 11.7071C13.8947 11.5196 14 11.2652 14 11V3C14 2.73478 13.8947 2.48043 13.7071 2.29289C13.5196 2.10536 13.2653 2 13 2Z" fill="#BBBBBB"/>
</g>
</svg>
