<svg width="12" height="12" viewBox="0 0 12 12" fill="none" xmlns="http://www.w3.org/2000/svg">
<rect width="12" height="12" rx="6" fill="#1DA1F2" fill-opacity="0.2" style="fill:#1DA1F2;fill:color(display-p3 0.1137 0.6314 0.9490);fill-opacity:0.2;"/>
<rect width="12" height="12" rx="6" fill="#1D9BF0" style="fill:#1D9BF0;fill:color(display-p3 0.1137 0.6078 0.9412);fill-opacity:1;"/>
<path d="M4.90241 9.16506C7.56341 9.16506 9.01841 6.96006 9.01841 5.04906C9.01841 4.98606 9.01841 4.92306 9.01541 4.86306C9.29741 4.65906 9.54341 4.40406 9.73841 4.11306C9.48041 4.22706 9.20141 4.30506 8.90741 4.34106C9.20741 4.16106 9.43541 3.87906 9.54341 3.54006C9.26441 3.70506 8.95541 3.82506 8.62541 3.89106C8.36141 3.60906 7.98641 3.43506 7.56941 3.43506C6.77141 3.43506 6.12341 4.08306 6.12341 4.88106C6.12341 4.99506 6.13541 5.10606 6.16241 5.21106C4.95941 5.15106 3.89441 4.57506 3.18041 3.69906C3.05741 3.91206 2.98541 4.16106 2.98541 4.42506C2.98541 4.92606 3.24041 5.37006 3.63041 5.62806C3.39341 5.62206 3.17141 5.55606 2.97641 5.44806C2.97641 5.45406 2.97641 5.46006 2.97641 5.46606C2.97641 6.16806 3.47441 6.75006 4.13741 6.88506C4.01741 6.91806 3.88841 6.93606 3.75641 6.93606C3.66341 6.93606 3.57341 6.92706 3.48341 6.90906C3.66641 7.48506 4.20041 7.90206 4.83341 7.91406C4.33841 8.30106 3.71441 8.53206 3.03641 8.53206C2.91941 8.53206 2.80541 8.52606 2.69141 8.51106C3.32441 8.92506 4.08641 9.16506 4.90241 9.16506Z" fill="white" style="fill:white;fill:white;fill-opacity:1;"/>
</svg>
