<svg width="32" height="32" viewBox="0 0 32 32" fill="none" xmlns="http://www.w3.org/2000/svg">
<g id="TwitterLogo">
<path id="Vector" opacity="0.2" d="M30 8.99988L26 12.9999C25.4675 21.3549 18.49 27.9999 10 27.9999C6 27.9999 5 26.4999 5 26.4999C5 26.4999 9 24.9999 11 21.9999C11 21.9999 4.10625 17.9999 5.0975 6.99988C5.0975 6.99988 10.055 11.9999 16 12.9999V10.9999C16 8.24988 18.25 5.96613 21 5.99988C21.9705 6.01115 22.9175 6.29952 23.7296 6.83102C24.5417 7.36252 25.185 8.11501 25.5837 8.99988H30Z" fill="#C2C2C2"/>
<path id="Vector_2" d="M30.924 8.61753C30.8483 8.43479 30.7202 8.27858 30.5558 8.16867C30.3913 8.05876 30.198 8.00007 30.0002 8.00003H26.1965C25.6648 7.09517 24.9079 6.34332 23.9995 5.81762C23.0912 5.29192 22.0622 5.01026 21.0127 5.00003C20.231 4.98966 19.4552 5.13583 18.7309 5.42994C18.0065 5.72405 17.3484 6.16014 16.7952 6.71253C16.2252 7.27132 15.7727 7.93853 15.4644 8.67487C15.1561 9.4112 14.9983 10.2018 15.0002 11V11.7613C9.96773 10.4338 5.85148 6.34003 5.80773 6.29628C5.67357 6.16093 5.50353 6.06673 5.31763 6.02479C5.13173 5.98284 4.93771 5.99488 4.75843 6.0595C4.57914 6.12413 4.42206 6.23863 4.30567 6.38953C4.18928 6.54044 4.11844 6.72146 4.10148 6.91128C3.56398 12.885 5.29773 16.8825 6.85148 19.1838C7.60944 20.3215 8.5315 21.3409 9.58773 22.2088C7.67898 24.4 4.68148 25.5513 4.65023 25.5638C4.50912 25.6166 4.38178 25.7007 4.27772 25.8097C4.17367 25.9186 4.09558 26.0497 4.04931 26.1931C4.00303 26.3365 3.98976 26.4885 4.01048 26.6378C4.0312 26.787 4.08538 26.9297 4.16898 27.055C4.26148 27.195 4.63773 27.6863 5.55398 28.145C6.68898 28.7125 8.18523 29 10.0002 29C18.8352 29 26.2152 22.1975 26.9702 13.445L30.7077 9.70753C30.8475 9.5676 30.9427 9.38935 30.9812 9.19533C31.0197 9.00131 30.9998 8.80023 30.924 8.61753ZM25.299 12.2938C25.1275 12.4656 25.0245 12.694 25.009 12.9363C24.5002 20.8225 17.9102 27 10.0002 27C8.68023 27 7.75023 26.825 7.09773 26.615C8.53773 25.8338 10.5427 24.49 11.8327 22.555C11.9083 22.4417 11.9599 22.3142 11.9844 22.1802C12.0089 22.0462 12.0058 21.9087 11.9753 21.7759C11.9447 21.6432 11.8874 21.5181 11.8068 21.4083C11.7262 21.2986 11.624 21.2064 11.5065 21.1375C11.4902 21.1275 9.89898 20.17 8.44648 17.9763C6.81773 15.5138 6.00023 12.5475 6.00023 9.13628C8.00023 10.7613 11.6565 13.2838 15.8365 13.9863C15.9797 14.01 16.1263 14.0024 16.2663 13.9637C16.4062 13.9251 16.536 13.8565 16.6468 13.7627C16.7575 13.6688 16.8465 13.552 16.9075 13.4203C16.9686 13.2886 17.0002 13.1452 17.0002 13V11C16.9991 10.4666 17.1047 9.93831 17.3108 9.44629C17.5169 8.95427 17.8193 8.50843 18.2002 8.13503C18.5652 7.76886 19 7.47972 19.4788 7.28475C19.9577 7.08978 20.4708 6.99296 20.9877 7.00003C22.5702 7.02003 24.049 7.98503 24.6677 9.40128C24.7457 9.57933 24.8739 9.7308 25.0367 9.83714C25.1994 9.94348 25.3896 10.0001 25.584 10H27.584L25.299 12.2938Z" fill="#C2C2C2"/>
</g>
</svg>
