<svg width="16" height="16" viewBox="0 0 16 16" fill="none" xmlns="http://www.w3.org/2000/svg">
<g id="TwitterLogo">
<path id="Vector" d="M15.3535 4.85354L13.4848 6.72229C13.1073 11.0985 9.41666 14.4998 4.99979 14.4998C4.09229 14.4998 3.34416 14.356 2.77604 14.0723C2.31791 13.8429 2.13041 13.5973 2.08354 13.5273C2.04174 13.4646 2.01465 13.3933 2.00429 13.3187C1.99393 13.244 2.00056 13.168 2.0237 13.0963C2.04684 13.0246 2.08588 12.9591 2.13791 12.9046C2.18994 12.8501 2.25361 12.8081 2.32416 12.7817C2.34041 12.7754 3.83916 12.1998 4.79104 11.1042C4.26315 10.6702 3.80234 10.1605 3.42354 9.59167C2.64854 8.44104 1.78104 6.44229 2.04854 3.45542C2.05702 3.36051 2.09244 3.27 2.15063 3.19455C2.20883 3.1191 2.28737 3.06184 2.37701 3.02953C2.46665 2.99722 2.56366 2.9912 2.65661 3.01217C2.74956 3.03315 2.83458 3.08025 2.90166 3.14792C2.92354 3.16979 4.98166 5.21667 7.49791 5.88042V5.49979C7.49695 5.10067 7.57587 4.70538 7.73 4.33721C7.88414 3.96905 8.11038 3.63544 8.39541 3.35604C8.67222 3.07962 9.0016 2.86145 9.3641 2.71438C9.7266 2.56732 10.1149 2.49436 10.506 2.49979C11.0308 2.50497 11.5452 2.64583 11.9994 2.90867C12.4536 3.17152 12.832 3.54741 13.0979 3.99979H14.9998C15.0987 3.99972 15.1955 4.029 15.2778 4.08393C15.3601 4.13887 15.4242 4.21699 15.4621 4.3084C15.5 4.39981 15.5099 4.50041 15.4906 4.59745C15.4712 4.69449 15.4235 4.78362 15.3535 4.85354Z" fill="#D6D6D6"/>
</g>
</svg>
