<svg width="16" height="16" viewBox="0 0 16 16" fill="none" xmlns="http://www.w3.org/2000/svg">
<g id="TwitterLogo">
<path id="Vector" d="M15.4624 4.30851C15.4245 4.21714 15.3605 4.13904 15.2783 4.08409C15.196 4.02913 15.0994 3.99978 15.0005 3.99976H13.0986C12.8327 3.54738 12.4543 3.17149 12.0001 2.90864C11.5459 2.6458 11.0315 2.50494 10.5067 2.49976C10.1158 2.49464 9.72781 2.56775 9.36555 2.7148C9.0033 2.86184 8.67411 3.07986 8.39736 3.35601C8.11253 3.63553 7.88646 3.96917 7.73244 4.33732C7.57842 4.70547 7.49956 5.1007 7.50049 5.49976V5.88039C4.98424 5.21664 2.92611 3.16976 2.90424 3.14789C2.83716 3.08021 2.75214 3.03312 2.65919 3.01214C2.56624 2.99117 2.46923 2.99719 2.37959 3.0295C2.28995 3.06181 2.2114 3.11907 2.15321 3.19452C2.09501 3.26997 2.05959 3.36048 2.05111 3.45539C1.78174 6.44226 2.64924 8.44101 3.42611 9.59164C3.80491 10.1604 4.26573 10.6701 4.79361 11.1041C3.84174 12.1998 2.34299 12.7754 2.32674 12.7816C2.25618 12.8081 2.19251 12.8501 2.14049 12.9046C2.08846 12.9591 2.04941 13.0246 2.02628 13.0963C2.00314 13.168 1.9965 13.244 2.00686 13.3186C2.01722 13.3933 2.04432 13.4646 2.08611 13.5273C2.13299 13.5973 2.32049 13.8429 2.77861 14.0723C3.34486 14.356 4.09299 14.4998 5.00049 14.4998C9.41736 14.4998 13.108 11.0985 13.4849 6.72226L15.3542 4.85351C15.4241 4.78355 15.4717 4.69443 15.491 4.59742C15.5102 4.5004 15.5003 4.39987 15.4624 4.30851ZM12.6499 6.14664C12.5641 6.23257 12.5126 6.34676 12.5049 6.46789C12.2505 10.411 8.95549 13.4998 5.00049 13.4998C4.34049 13.4998 3.87549 13.4123 3.54924 13.3073C4.26861 12.9166 5.27174 12.2448 5.91674 11.2773C5.95459 11.2204 5.98039 11.1563 5.99253 11.0891C6.00466 11.0218 6.00289 10.9528 5.98731 10.8863C5.97173 10.8197 5.94268 10.7571 5.90194 10.7022C5.86121 10.6474 5.80967 10.6014 5.75049 10.5673C5.72111 10.5504 3.00611 8.92101 3.00049 4.56726C4.00049 5.37976 5.82861 6.64039 7.91736 6.99164C7.98895 7.00371 8.06231 7.00004 8.13233 6.9809C8.20236 6.96176 8.26738 6.9276 8.32287 6.88079C8.37837 6.83398 8.423 6.77565 8.45367 6.70985C8.48434 6.64405 8.50032 6.57236 8.50049 6.49976V5.49976C8.49993 5.23304 8.55272 4.96891 8.65576 4.7229C8.7588 4.47688 8.91001 4.25397 9.10049 4.06726C9.28309 3.88432 9.50051 3.73985 9.7399 3.64237C9.97929 3.5449 10.2358 3.49641 10.4942 3.49976C11.2855 3.50976 12.0249 3.99226 12.3342 4.70039C12.3732 4.78942 12.4373 4.86515 12.5187 4.91832C12.6001 4.97149 12.6952 4.99979 12.7924 4.99976H13.7924L12.6499 6.14664Z" fill="#F4F4F4"/>
</g>
</svg>
