<svg width="20" height="20" viewBox="0 0 20 20" fill="none" xmlns="http://www.w3.org/2000/svg">
<g id="Icon">
<path id="Vector" d="M19.1922 6.06754L16.8562 8.40348C16.3844 13.8738 11.7711 18.1254 6.24998 18.1254C5.1156 18.1254 4.18045 17.9457 3.47029 17.591C2.89763 17.3043 2.66326 16.9972 2.60467 16.9097C2.55242 16.8314 2.51855 16.7422 2.5056 16.6489C2.49265 16.5557 2.50095 16.4607 2.52987 16.371C2.55879 16.2814 2.60759 16.1995 2.67263 16.1314C2.73767 16.0633 2.81725 16.0107 2.90545 15.9777C2.92576 15.9699 4.7992 15.2504 5.98904 13.8808C5.32918 13.3383 4.75316 12.7012 4.27967 11.9902C3.31092 10.5519 2.22654 8.05348 2.56092 4.31988C2.57151 4.20125 2.61579 4.08811 2.68853 3.9938C2.76128 3.89948 2.85946 3.82791 2.97151 3.78753C3.08356 3.74714 3.20482 3.73961 3.32101 3.76583C3.43719 3.79205 3.54347 3.85092 3.62732 3.93551C3.65467 3.96285 6.22732 6.52145 9.37263 7.35113V6.87535C9.37144 6.37644 9.47008 5.88234 9.66275 5.42213C9.85542 4.96192 10.1382 4.54491 10.4945 4.19567C10.8405 3.85014 11.2522 3.57742 11.7054 3.39359C12.1585 3.20976 12.6438 3.11856 13.1328 3.12535C13.7887 3.13182 14.4318 3.30789 14.9995 3.63645C15.5672 3.96501 16.0403 4.43487 16.3726 5.00035H18.75C18.8737 5.00026 18.9946 5.03686 19.0975 5.10553C19.2003 5.1742 19.2805 5.27184 19.3279 5.38611C19.3752 5.50037 19.3876 5.62612 19.3634 5.74742C19.3393 5.86872 19.2797 5.98013 19.1922 6.06754Z" fill="#C2C2C2"/>
</g>
</svg>
