<svg width="16" height="16" viewBox="0 0 16 16" fill="none" xmlns="http://www.w3.org/2000/svg">
<path d="M14.4336 13.7502C14.3897 13.8263 14.3266 13.8894 14.2505 13.9333C14.1745 13.9772 14.0883 14.0003 14.0005 14.0002H2.00046C1.91274 14.0001 1.82658 13.977 1.75064 13.9331C1.67471 13.8891 1.61166 13.826 1.56784 13.75C1.52401 13.674 1.50095 13.5878 1.50098 13.5001C1.501 13.4124 1.5241 13.3262 1.56796 13.2502C2.51984 11.6046 3.98671 10.4246 5.69859 9.86524C4.85182 9.36115 4.19393 8.59303 3.82596 7.67886C3.45798 6.76468 3.40027 5.75499 3.66168 4.80483C3.92309 3.85468 4.48916 3.01661 5.27298 2.41931C6.05679 1.82202 7.01501 1.49854 8.00046 1.49854C8.98592 1.49854 9.94413 1.82202 10.7279 2.41931C11.5118 3.01661 12.0778 3.85468 12.3393 4.80483C12.6007 5.75499 12.5429 6.76468 12.175 7.67886C11.807 8.59303 11.1491 9.36115 10.3023 9.86524C12.0142 10.4246 13.4811 11.6046 14.433 13.2502C14.4769 13.3262 14.5002 13.4124 14.5003 13.5002C14.5004 13.5879 14.4774 13.6742 14.4336 13.7502Z" fill="#8F8F8F" style="fill:#8F8F8F;fill:color(display-p3 0.5600 0.5600 0.5600);fill-opacity:1;"/>
</svg>
