<svg width="10" height="10" viewBox="0 0 10 10" fill="none" xmlns="http://www.w3.org/2000/svg">
<path id="Vector" d="M7.625 3.875V5.375C7.625 5.47446 7.58549 5.56984 7.51517 5.64017C7.44484 5.71049 7.34946 5.75 7.25 5.75H3.65516L4.14031 6.23469C4.17515 6.26953 4.20279 6.31089 4.22165 6.35641C4.2405 6.40194 4.25021 6.45073 4.25021 6.5C4.25021 6.54927 4.2405 6.59806 4.22165 6.64359C4.20279 6.68911 4.17515 6.73047 4.14031 6.76531C4.10547 6.80015 4.06411 6.82779 4.01859 6.84665C3.97306 6.8655 3.92427 6.87521 3.875 6.87521C3.82573 6.87521 3.77694 6.8655 3.73141 6.84665C3.68589 6.82779 3.64453 6.80015 3.60969 6.76531L2.48469 5.64031C2.44982 5.60549 2.42216 5.56413 2.40329 5.5186C2.38442 5.47308 2.3747 5.42428 2.3747 5.375C2.3747 5.32572 2.38442 5.27692 2.40329 5.2314C2.42216 5.18587 2.44982 5.14451 2.48469 5.10969L3.60969 3.98469C3.68005 3.91432 3.77549 3.87479 3.875 3.87479C3.97451 3.87479 4.06995 3.91432 4.14031 3.98469C4.21068 4.05505 4.25021 4.15049 4.25021 4.25C4.25021 4.34951 4.21068 4.44495 4.14031 4.51531L3.65516 5H6.875V3.875C6.875 3.77554 6.91451 3.68016 6.98483 3.60984C7.05516 3.53951 7.15054 3.5 7.25 3.5C7.34946 3.5 7.44484 3.53951 7.51517 3.60984C7.58549 3.68016 7.625 3.77554 7.625 3.875ZM9.875 1.625V8.375C9.875 8.57391 9.79598 8.76468 9.65533 8.90533C9.51468 9.04598 9.32391 9.125 9.125 9.125H0.875C0.676088 9.125 0.485322 9.04598 0.34467 8.90533C0.204018 8.76468 0.125 8.57391 0.125 8.375V1.625C0.125 1.42609 0.204018 1.23532 0.34467 1.09467C0.485322 0.954018 0.676088 0.875 0.875 0.875H9.125C9.32391 0.875 9.51468 0.954018 9.65533 1.09467C9.79598 1.23532 9.875 1.42609 9.875 1.625ZM9.125 8.375V1.625H0.875V8.375H9.125Z" fill="#C2C2C2"/>
</svg>
