<svg width="21" height="20" viewBox="0 0 21 20" fill="none" xmlns="http://www.w3.org/2000/svg">
<g id="Icon">
<path id="Vector" d="M17.375 5.625H4.875C4.70924 5.625 4.55027 5.55915 4.43306 5.44194C4.31585 5.32473 4.25 5.16576 4.25 5C4.25 4.83424 4.31585 4.67527 4.43306 4.55806C4.55027 4.44085 4.70924 4.375 4.875 4.375H15.5C15.6658 4.375 15.8247 4.30915 15.9419 4.19194C16.0592 4.07473 16.125 3.91576 16.125 3.75C16.125 3.58424 16.0592 3.42527 15.9419 3.30806C15.8247 3.19085 15.6658 3.125 15.5 3.125H4.875C4.37772 3.125 3.90081 3.32254 3.54917 3.67417C3.19754 4.02581 3 4.50272 3 5V15C3 15.4973 3.19754 15.9742 3.54917 16.3258C3.90081 16.6775 4.37772 16.875 4.875 16.875H17.375C17.7065 16.875 18.0245 16.7433 18.2589 16.5089C18.4933 16.2745 18.625 15.9565 18.625 15.625V6.875C18.625 6.54348 18.4933 6.22554 18.2589 5.99112C18.0245 5.7567 17.7065 5.625 17.375 5.625ZM14.5625 11.875C14.3771 11.875 14.1958 11.82 14.0417 11.717C13.8875 11.614 13.7673 11.4676 13.6964 11.2963C13.6254 11.125 13.6068 10.9365 13.643 10.7546C13.6792 10.5727 13.7685 10.4057 13.8996 10.2746C14.0307 10.1435 14.1977 10.0542 14.3796 10.018C14.5615 9.98184 14.75 10.0004 14.9213 10.0714C15.0926 10.1423 15.239 10.2625 15.342 10.4167C15.445 10.5708 15.5 10.7521 15.5 10.9375C15.5 11.1861 15.4012 11.4246 15.2254 11.6004C15.0496 11.7762 14.8111 11.875 14.5625 11.875Z" fill="#C2C2C2"/>
</g>
</svg>
