<svg width="63" height="62" viewBox="0 0 63 62" fill="none" xmlns="http://www.w3.org/2000/svg">
<g id="Event image">
<path id="Vector" d="M57.8227 30.409V23.8428C58.9368 23.5347 59.7602 22.5234 59.7602 21.3144C59.7602 19.8612 58.5784 18.6794 57.1252 18.6794C56.7552 18.6794 56.4045 18.7569 56.0848 18.8944L51.5026 13.1672C51.8184 12.7332 52.0102 12.2023 52.0102 11.6249C52.0102 10.1718 50.8284 8.98992 49.3752 8.98992C48.5983 8.98992 47.9066 9.33286 47.4242 9.86955L40.3349 6.32392C40.3678 6.15923 40.3852 5.98873 40.3852 5.81242C40.3852 4.3593 39.2034 3.17742 37.7502 3.17742C36.5393 3.17742 35.5279 4.00086 35.2199 5.11492H26.7162C26.4081 4.00086 25.3967 3.17742 24.1877 3.17742C22.7346 3.17742 21.5527 4.3593 21.5527 5.81242C21.5527 5.98873 21.5721 6.15923 21.605 6.32392L16.4513 8.9008C15.9689 8.36605 15.2772 8.02117 14.5002 8.02117C13.0471 8.02117 11.8652 9.20305 11.8652 10.6562C11.8652 11.1851 12.0241 11.6753 12.2934 12.088L7.90886 17.0209C7.55817 16.8465 7.16873 16.7399 6.75023 16.7399C5.29711 16.7399 4.11523 17.9218 4.11523 19.3749C4.11523 20.5859 4.93867 21.5953 6.05273 21.9034V28.4695C4.93867 28.7776 4.11523 29.789 4.11523 30.998C4.11523 32.4511 5.29711 33.633 6.75023 33.633C7.80811 33.633 8.71486 33.0033 9.1353 32.1004L15.7693 33.2067C15.9069 34.5339 17.0151 35.5724 18.3752 35.5724C18.5515 35.5724 18.722 35.553 18.8867 35.5201L20.4949 38.7344C19.9601 39.2188 19.6152 39.9105 19.6152 40.6874C19.6152 42.1405 20.7971 43.3224 22.2502 43.3224C23.1609 43.3224 23.9649 42.8574 24.4396 42.1522L31.2557 44.4249C31.2519 44.4714 31.2402 44.5159 31.2402 44.5624C31.2402 45.7734 32.0637 46.7847 33.1777 47.0928V53.657C32.0637 53.9651 31.2402 54.9765 31.2402 56.1874C31.2402 57.6405 32.4221 58.8224 33.8752 58.8224C35.3284 58.8224 36.5102 57.6405 36.5102 56.1874C36.5102 54.9784 35.6868 53.9651 34.5727 53.657V47.0909C35.6868 46.7828 36.5102 45.7714 36.5102 44.5605C36.5102 43.6847 36.0762 42.9136 35.4175 42.4331L36.7389 38.9069L42.8672 40.6584C42.8672 40.668 42.8652 40.6777 42.8652 40.6874C42.8652 41.8964 43.6887 42.9097 44.8027 43.2178V53.659C43.6887 53.967 42.8652 54.9784 42.8652 56.1894C42.8652 57.6425 44.0471 58.8244 45.5002 58.8244C46.9534 58.8244 48.1352 57.6425 48.1352 56.1894C48.1352 54.9804 47.3118 53.967 46.1977 53.659V43.2178C47.3118 42.9097 48.1352 41.8984 48.1352 40.6874C48.1352 40.3987 48.0771 40.1255 47.9919 39.8659L55.4086 34.9195C55.8717 35.3225 56.4665 35.5724 57.1252 35.5724C58.5784 35.5724 59.7602 34.3905 59.7602 32.9374C59.7602 31.7284 58.9368 30.717 57.8227 30.409ZM42.3111 28.9307C42.3072 28.8435 42.2975 28.7563 42.284 28.671L48.1914 26.0457L54.6104 31.6625L42.3111 28.9307ZM39.6877 30.3024C39.0038 30.3024 38.4477 29.7464 38.4477 29.0624C38.4477 28.3785 39.0038 27.8224 39.6877 27.8224C40.3717 27.8224 40.9277 28.3785 40.9277 29.0624C40.9277 29.7464 40.3717 30.3024 39.6877 30.3024ZM39.6877 26.4274C38.2346 26.4274 37.0527 27.6093 37.0527 29.0624C37.0527 29.9382 37.4867 30.7093 38.1455 31.1879L35.8864 37.2135L32.2012 36.1614L29.3628 26.2298L39.9474 18.9525L41.1641 19.9L47.0309 25.0344L41.7124 27.3981C41.23 26.811 40.5073 26.4274 39.6877 26.4274ZM18.629 30.3276L16.6741 19.0843L23.6724 18.3849V18.3771C24.0521 19.3652 25.0034 20.0724 26.1252 20.0724C26.1349 20.0724 26.1427 20.0705 26.1524 20.0705L27.7469 25.6485L20.0628 30.9302C19.6656 30.5969 19.1735 30.3819 18.629 30.3276ZM26.1252 18.6774C25.4413 18.6774 24.8852 18.1214 24.8852 17.4374C24.8852 16.7535 25.4413 16.1974 26.1252 16.1974C26.8092 16.1974 27.3652 16.7535 27.3652 17.4374C27.3652 18.1214 26.8092 18.6774 26.1252 18.6774ZM20.8552 32.0791L28.1499 27.0629L30.6202 35.71L21.0064 32.9626C21.0064 32.9529 21.0083 32.9452 21.0083 32.9355C21.0102 32.6352 20.9482 32.3504 20.8552 32.0791ZM47.6877 13.6322C48.1469 14.0177 48.73 14.2599 49.3752 14.2599C49.7453 14.2599 50.096 14.1824 50.4157 14.0449L54.9979 19.7702C54.682 20.2042 54.4902 20.735 54.4902 21.3124C54.4902 21.4461 54.5096 21.574 54.529 21.7019L48.4375 24.4085L42.0534 18.8227L41.1544 18.1233L47.6877 13.6322ZM55.674 30.7403L49.5942 25.4219L55.0986 22.9767C55.4396 23.3894 55.8969 23.6955 56.4277 23.8409V30.407C56.1584 30.4826 55.9027 30.5911 55.674 30.7403ZM58.3652 21.3124C58.3652 21.9964 57.8092 22.5524 57.1252 22.5524C56.4413 22.5524 55.8852 21.9964 55.8852 21.3124C55.8852 20.6285 56.4413 20.0724 57.1252 20.0724C57.8092 20.0724 58.3652 20.6285 58.3652 21.3124ZM49.3752 10.3849C50.0592 10.3849 50.6152 10.941 50.6152 11.6249C50.6152 12.3089 50.0592 12.8649 49.3752 12.8649C48.6913 12.8649 48.1352 12.3089 48.1352 11.6249C48.1352 10.941 48.6913 10.3849 49.3752 10.3849ZM37.7502 4.57242C38.4342 4.57242 38.9902 5.12848 38.9902 5.81242C38.9902 6.49636 38.4342 7.05242 37.7502 7.05242C37.0663 7.05242 36.5102 6.49636 36.5102 5.81242C36.5102 5.12848 37.0663 4.57242 37.7502 4.57242ZM37.7502 8.44742C38.5272 8.44742 39.2189 8.10448 39.7013 7.5678L46.7906 11.1134C46.7577 11.2781 46.7402 11.4486 46.7402 11.6249C46.7402 11.9272 46.8022 12.212 46.8952 12.4832L39.9977 17.2262L26.6212 6.82186C26.6619 6.72305 26.689 6.61648 26.7181 6.50992H35.2218C35.5279 7.62398 36.5393 8.44742 37.7502 8.44742ZM24.1877 4.57242C24.8717 4.57242 25.4277 5.12848 25.4277 5.81242C25.4277 6.49636 24.8717 7.05242 24.1877 7.05242C23.5038 7.05242 22.9477 6.49636 22.9477 5.81242C22.9477 5.12848 23.5038 4.57242 24.1877 4.57242ZM22.2367 7.5678C22.7191 8.10255 23.4108 8.44742 24.1877 8.44742C24.7767 8.44742 25.3173 8.24592 25.7571 7.91655L38.7926 18.0535L28.9598 24.8135L27.4931 19.6791C28.2487 19.216 28.7602 18.3887 28.7602 17.4374C28.7602 15.9843 27.5784 14.8024 26.1252 14.8024C24.8213 14.8024 23.744 15.7557 23.5348 17.0015V16.9957L16.4339 17.7048L15.6201 13.0315C16.5133 12.6092 17.1352 11.7063 17.1352 10.6562C17.1352 10.4799 17.1159 10.3094 17.0829 10.1447L22.2367 7.5678ZM9.20117 18.4275C9.1353 18.257 9.05586 18.0942 8.95705 17.9431L13.3416 13.0102C13.6187 13.1478 13.9229 13.233 14.2464 13.266L15.0427 17.8443L9.20117 18.4275ZM14.5002 9.41617C15.1842 9.41617 15.7402 9.97223 15.7402 10.6562C15.7402 11.3401 15.1842 11.8962 14.5002 11.8962C13.8163 11.8962 13.2602 11.3401 13.2602 10.6562C13.2602 9.97223 13.8163 9.41617 14.5002 9.41617ZM5.51023 19.3749C5.51023 18.691 6.0663 18.1349 6.75023 18.1349C7.43417 18.1349 7.99023 18.691 7.99023 19.3749C7.99023 20.0589 7.43417 20.6149 6.75023 20.6149C6.0663 20.6149 5.51023 20.0589 5.51023 19.3749ZM6.75023 32.2399C6.0663 32.2399 5.51023 31.6839 5.51023 30.9999C5.51023 30.316 6.0663 29.7599 6.75023 29.7599C7.43417 29.7599 7.99023 30.316 7.99023 30.9999C7.99023 31.6839 7.43417 32.2399 6.75023 32.2399ZM15.9902 31.833L9.35617 30.7267C9.24186 29.6398 8.47461 28.7544 7.4458 28.4695V21.9034C8.42036 21.634 9.1663 20.8261 9.33873 19.8167L15.281 19.2219L17.2534 30.562C16.6993 30.8255 16.2517 31.275 15.9902 31.833ZM17.1352 32.9374C17.1352 32.2535 17.6913 31.6974 18.3752 31.6974C19.0592 31.6974 19.6152 32.2535 19.6152 32.9374C19.6152 33.6214 19.0592 34.1774 18.3752 34.1774C17.6913 34.1774 17.1352 33.6214 17.1352 32.9374ZM22.2502 41.9274C21.5663 41.9274 21.0102 41.3714 21.0102 40.6874C21.0102 40.0035 21.5663 39.4474 22.2502 39.4474C22.9342 39.4474 23.4902 40.0035 23.4902 40.6874C23.4902 41.3714 22.9342 41.9274 22.2502 41.9274ZM24.8717 40.825C24.8736 40.7785 24.8852 40.7339 24.8852 40.6874C24.8852 39.2343 23.7034 38.0524 22.2502 38.0524C22.0739 38.0524 21.9034 38.0718 21.7387 38.1047L20.1306 34.8904C20.3205 34.7199 20.4832 34.5242 20.6169 34.3053L31.0717 37.291L32.5093 42.3207C32.1838 42.5203 31.899 42.7819 31.6859 43.0996L24.8717 40.825ZM35.1152 56.1874C35.1152 56.8714 34.5592 57.4274 33.8752 57.4274C33.1913 57.4274 32.6352 56.8714 32.6352 56.1874C32.6352 55.5035 33.1913 54.9474 33.8752 54.9474C34.5592 54.9474 35.1152 55.5035 35.1152 56.1874ZM33.8752 45.8024C33.1913 45.8024 32.6352 45.2464 32.6352 44.5624C32.6352 43.8785 33.1913 43.3224 33.8752 43.3224C34.5592 43.3224 35.1152 43.8785 35.1152 44.5624C35.1152 45.2464 34.5592 45.8024 33.8752 45.8024ZM34.1097 41.9507C34.0302 41.9429 33.9547 41.9274 33.8752 41.9274C33.8655 41.9274 33.8578 41.9294 33.8481 41.9294L32.6507 37.7405L35.3942 38.5232L34.1097 41.9507ZM37.231 37.599L39.4533 31.6722C39.5327 31.68 39.6083 31.6955 39.6877 31.6955C40.6933 31.6955 41.5613 31.122 42.005 30.2908L54.5038 33.0672C54.5154 33.3075 54.5619 33.538 54.6355 33.757L47.2188 38.7034C46.7538 38.3024 46.159 38.0524 45.5002 38.0524C44.5489 38.0524 43.7216 38.5639 43.2566 39.3215L37.231 37.599ZM46.7402 56.1874C46.7402 56.8714 46.1842 57.4274 45.5002 57.4274C44.8163 57.4274 44.2602 56.8714 44.2602 56.1874C44.2602 55.5035 44.8163 54.9474 45.5002 54.9474C46.1842 54.9474 46.7402 55.5035 46.7402 56.1874ZM45.5002 41.9274C44.8163 41.9274 44.2602 41.3714 44.2602 40.6874C44.2602 40.0035 44.8163 39.4474 45.5002 39.4474C46.1842 39.4474 46.7402 40.0035 46.7402 40.6874C46.7402 41.3714 46.1842 41.9274 45.5002 41.9274ZM57.1252 34.1774C56.4413 34.1774 55.8852 33.6214 55.8852 32.9374C55.8852 32.2535 56.4413 31.6974 57.1252 31.6974C57.8092 31.6974 58.3652 32.2535 58.3652 32.9374C58.3652 33.6214 57.8092 34.1774 57.1252 34.1774Z" fill="#FF4F20"/>
</g>
</svg>
