<svg width="20" height="20" viewBox="0 0 20 20" fill="none" xmlns="http://www.w3.org/2000/svg">
<g id="Checkbox Base">
<path id="Base" d="M0.5 6.4C0.5 5.27164 0.500389 4.45545 0.552836 3.81352C0.604807 3.17744 0.705391 2.75662 0.881477 2.41103C1.21703 1.75247 1.75247 1.21703 2.41103 0.881477C2.75662 0.705391 3.17744 0.604807 3.81352 0.552836C4.45545 0.500389 5.27164 0.5 6.4 0.5H13.6C14.7284 0.5 15.5446 0.500389 16.1865 0.552836C16.8226 0.604807 17.2434 0.705391 17.589 0.881477C18.2475 1.21703 18.783 1.75247 19.1185 2.41103C19.2946 2.75662 19.3952 3.17744 19.4472 3.81352C19.4996 4.45545 19.5 5.27164 19.5 6.4V13.6C19.5 14.7284 19.4996 15.5446 19.4472 16.1865C19.3952 16.8226 19.2946 17.2434 19.1185 17.589C18.783 18.2475 18.2475 18.783 17.589 19.1185C17.2434 19.2946 16.8226 19.3952 16.1865 19.4472C15.5446 19.4996 14.7284 19.5 13.6 19.5H6.4C5.27164 19.5 4.45545 19.4996 3.81352 19.4472C3.17744 19.3952 2.75662 19.2946 2.41103 19.1185C1.75247 18.783 1.21703 18.2475 0.881477 17.589C0.705391 17.2434 0.604807 16.8226 0.552836 16.1865C0.500389 15.5446 0.5 14.7284 0.5 13.6V6.4Z" fill="white" stroke="currentColor"/>
</g>
</svg>
