<svg width="14" height="14" viewBox="0 0 14 14" fill="none" xmlns="http://www.w3.org/2000/svg">
<g id="check-circle" clip-path="url(#clip0_1289_188371)">
<path id="Vector" d="M11.9494 2.05012C9.21589 -0.683375 4.78372 -0.683375 2.04964 2.05012C-0.683863 4.78421 -0.683863 9.21579 2.04964 11.9499C4.78314 14.6834 9.2153 14.6834 11.9494 11.9499C14.6835 9.21638 14.6835 4.78362 11.9494 2.05012ZM10.3592 5.04612L6.50339 9.54421L3.73314 7.46637C3.4753 7.27329 3.42339 6.90754 3.61647 6.64971C3.80955 6.39246 4.17472 6.33937 4.43314 6.53304L6.32897 7.95521L9.47314 4.28662C9.68314 4.04279 10.0518 4.01421 10.2956 4.22362C10.5406 4.43304 10.5692 4.80171 10.3592 5.04612Z" fill="#089554"/>
</g>
<defs>
<clipPath id="clip0_1289_188371">
<rect width="14" height="14" fill="white"/>
</clipPath>
</defs>
</svg>
