<svg width="16" height="16" viewBox="0 0 16 16" fill="none" xmlns="http://www.w3.org/2000/svg">
<g id="ellipsis">
<path id="Vector" d="M6.5 8C6.5 7.17148 7.17148 6.5 8 6.5C8.82852 6.5 9.5 7.17148 9.5 8C9.5 8.82852 8.82852 9.5 8 9.5C7.17148 9.5 6.5 8.82852 6.5 8ZM0.5 8C0.5 7.17148 1.17148 6.5 2 6.5C2.82852 6.5 3.5 7.17148 3.5 8C3.5 8.82852 2.82852 9.5 2 9.5C1.17148 9.5 0.5 8.82852 0.5 8ZM12.5 8C12.5 7.17148 13.1715 6.5 14 6.5C14.8285 6.5 15.5 7.17148 15.5 8C15.5 8.82852 14.8285 9.5 14 9.5C13.1715 9.5 12.5 8.82852 12.5 8Z" fill="currentColor" stroke="currentColor"/>
</g>
</svg>
