<svg width="20" height="20" viewBox="0 0 20 20" fill="none" xmlns="http://www.w3.org/2000/svg">
<g id="mail-multi">
<path id="Vector" d="M5.00167 5.5013H18.3317C18.9772 5.5013 19.5 6.02411 19.5 6.66964V7.41724L12.5048 10.6464C12.5047 10.6465 12.5047 10.6465 12.5046 10.6465C12.2385 10.7692 11.9526 10.8305 11.6667 10.8305C11.3807 10.8305 11.0948 10.7692 10.8287 10.6465C10.8286 10.6465 10.8286 10.6464 10.8286 10.6464L3.83333 7.41805V6.66964C3.83333 6.02411 4.35614 5.5013 5.00167 5.5013ZM9.71126 13.0678C9.71127 13.0678 9.71127 13.0678 9.71128 13.0678C10.332 13.3543 10.9995 13.4971 11.6667 13.4971C12.3339 13.4971 13.0013 13.3543 13.6221 13.0678C13.6221 13.0678 13.6221 13.0678 13.6221 13.0678L19.5 10.3545V16.6663C19.5 17.3118 18.9772 17.8346 18.3317 17.8346H5.00167C4.35614 17.8346 3.83333 17.3118 3.83333 16.6663V10.3545L9.71126 13.0678ZM17.8333 2.5013C17.8333 2.68516 17.6839 2.83464 17.5 2.83464H4.16667C2.51219 2.83464 1.16667 4.18016 1.16667 5.83464V15.8346C1.16667 16.0185 1.01719 16.168 0.833333 16.168C0.649476 16.168 0.5 16.0185 0.5 15.8346V5.83464C0.5 3.81328 2.14531 2.16797 4.16667 2.16797H17.5C17.6839 2.16797 17.8333 2.31744 17.8333 2.5013Z" fill="currentColor" stroke="currentColor"/>
</g>
</svg>
