<svg width="24" height="24" viewBox="0 0 24 24" fill="none" xmlns="http://www.w3.org/2000/svg">
<g id="Icon">
<path id="Vector" d="M20.25 6.75131H16.9613C16.9978 6.72037 17.0353 6.69037 17.0709 6.65756C17.3557 6.4046 17.5851 6.09561 17.745 5.74992C17.9049 5.40423 17.9917 5.02927 18 4.6485C18.0123 4.23194 17.9394 3.81726 17.7856 3.42992C17.6319 3.04258 17.4006 2.69075 17.106 2.39603C16.8113 2.1013 16.4596 1.86991 16.0723 1.71605C15.685 1.56219 15.2703 1.48912 14.8538 1.50131C14.4728 1.50951 14.0977 1.59626 13.7518 1.75613C13.406 1.91599 13.0968 2.14553 12.8438 2.43037C12.4936 2.83621 12.2089 3.29422 12 3.78787C11.7911 3.29422 11.5064 2.83621 11.1562 2.43037C10.9032 2.14553 10.594 1.91599 10.2482 1.75613C9.90232 1.59626 9.52718 1.50951 9.14625 1.50131C8.72969 1.48912 8.31503 1.56219 7.92774 1.71605C7.54044 1.86991 7.18868 2.1013 6.89405 2.39603C6.59941 2.69075 6.36812 3.04258 6.21438 3.42992C6.06064 3.81726 5.98768 4.23194 6 4.6485C6.00833 5.02927 6.09514 5.40423 6.255 5.74992C6.41486 6.09561 6.64434 6.4046 6.92906 6.65756C6.96469 6.6885 7.00219 6.7185 7.03875 6.75131H3.75C3.35218 6.75131 2.97064 6.90934 2.68934 7.19065C2.40804 7.47195 2.25 7.85348 2.25 8.25131V11.2513C2.25 11.6491 2.40804 12.0307 2.68934 12.312C2.97064 12.5933 3.35218 12.7513 3.75 12.7513V18.7513C3.75 19.1491 3.90804 19.5307 4.18934 19.812C4.47064 20.0933 4.85218 20.2513 5.25 20.2513H10.875C10.9745 20.2513 11.0698 20.2118 11.1402 20.1415C11.2105 20.0711 11.25 19.9758 11.25 19.8763V11.2513H3.75V8.25131H11.25V11.2513H12.75V8.25131H20.25V11.2513H12.75V19.8763C12.75 19.9758 12.7895 20.0711 12.8598 20.1415C12.9302 20.2118 13.0255 20.2513 13.125 20.2513H18.75C19.1478 20.2513 19.5294 20.0933 19.8107 19.812C20.092 19.5307 20.25 19.1491 20.25 18.7513V12.7513C20.6478 12.7513 21.0294 12.5933 21.3107 12.312C21.592 12.0307 21.75 11.6491 21.75 11.2513V8.25131C21.75 7.85348 21.592 7.47195 21.3107 7.19065C21.0294 6.90934 20.6478 6.75131 20.25 6.75131ZM7.92281 5.53256C7.79168 5.41381 7.68651 5.26923 7.61391 5.10789C7.54131 4.94656 7.50285 4.77196 7.50094 4.59506C7.4962 4.38778 7.53287 4.18164 7.60881 3.98872C7.68476 3.79579 7.79844 3.61996 7.9432 3.47153C8.08796 3.32311 8.26089 3.20506 8.45186 3.12432C8.64282 3.04357 8.84798 3.00175 9.05531 3.00131H9.10125C9.27815 3.00322 9.45275 3.04168 9.61409 3.11428C9.77542 3.18688 9.92 3.29205 10.0388 3.42318C10.8253 4.31193 11.1028 5.78568 11.2003 6.69693C10.2853 6.60037 8.8125 6.32287 7.92281 5.53256ZM16.0791 5.53256C15.1894 6.32006 13.7128 6.59756 12.7978 6.69506C12.9094 5.70975 13.2188 4.26693 13.9688 3.42412C14.0875 3.29298 14.2321 3.18781 14.3934 3.11522C14.5547 3.04262 14.7293 3.00415 14.9062 3.00225H14.9522C15.1595 3.00354 15.3645 3.04621 15.5552 3.12775C15.7458 3.20929 15.9183 3.32806 16.0624 3.4771C16.2066 3.62615 16.3195 3.80246 16.3947 3.99572C16.4698 4.18898 16.5056 4.39529 16.5 4.60256C16.4969 4.77826 16.4578 4.95147 16.3851 5.11144C16.3124 5.27141 16.2076 5.41475 16.0772 5.53256H16.0791Z" fill="url(#paint0_linear_1289_188105)"/>
</g>
<defs>
<linearGradient id="paint0_linear_1289_188105" x1="2.25" y1="1.5" x2="23.4082" y2="3.60799" gradientUnits="userSpaceOnUse">
<stop stop-color="#FF4F20"/>
<stop offset="1" stop-color="#FF8438"/>
</linearGradient>
</defs>
</svg>
