<svg width="26" height="24" viewBox="0 0 26 24" fill="none" xmlns="http://www.w3.org/2000/svg">
<g id="Logo" clip-path="url(#clip0_1078_107169)">
<path id="Vector" d="M12.7501 0C5.70931 0 0 5.50852 0 12.3038C0 17.74 3.65327 22.352 8.71931 23.9789C9.35651 24.0928 9.59049 23.712 9.59049 23.387C9.59049 23.0936 9.57854 22.1244 9.57316 21.0964C6.02607 21.8406 5.2776 19.6446 5.2776 19.6446C4.69758 18.2225 3.86186 17.8443 3.86186 17.8443C2.70509 17.0807 3.94911 17.0964 3.94911 17.0964C5.22939 17.1831 5.90355 18.3643 5.90355 18.3643C7.04079 20.2452 8.88635 19.7015 9.6139 19.387C9.72835 18.5919 10.0588 18.049 10.4234 17.7418C7.59143 17.4307 4.6144 16.3757 4.6144 11.6612C4.6144 10.3179 5.11245 9.2203 5.92805 8.35866C5.79567 8.04876 5.35928 6.79743 6.05157 5.10259C6.05157 5.10259 7.12227 4.77193 9.55881 6.36382C10.5758 6.09121 11.6665 5.95453 12.7501 5.94982C13.8337 5.95453 14.9253 6.09112 15.9442 6.36382C18.3777 4.77202 19.4469 5.10268 19.4469 5.10268C20.1409 6.79733 19.7043 8.04885 19.5719 8.35866C20.3894 9.2203 20.8841 10.3179 20.8841 11.6612C20.8841 16.3869 17.9014 17.4275 15.0622 17.7321C15.5195 18.1139 15.927 18.8627 15.927 20.0106C15.927 21.6568 15.9123 22.9817 15.9123 23.387C15.9123 23.7145 16.1418 24.0981 16.7881 23.9772C21.8513 22.3486 25.5 17.7382 25.5 12.3039C25.5 5.50852 19.7915 0 12.7501 0ZM4.77537 17.5271C4.74728 17.5882 4.64757 17.6065 4.55683 17.5645C4.46429 17.5245 4.4124 17.4411 4.44228 17.3798C4.46977 17.3168 4.56968 17.2992 4.66192 17.3414C4.75455 17.3816 4.80735 17.4657 4.77537 17.5271ZM5.40251 18.0671C5.34175 18.1215 5.22282 18.0962 5.14213 18.0103C5.05876 17.9245 5.04312 17.8098 5.10478 17.7546C5.16754 17.7002 5.28278 17.7256 5.36636 17.8114C5.44983 17.8982 5.46596 18.0121 5.40251 18.0671ZM5.83283 18.758C5.75463 18.8104 5.62693 18.7613 5.54794 18.6519C5.46985 18.5425 5.46985 18.4113 5.54964 18.3587C5.62883 18.3061 5.75463 18.3534 5.83462 18.462C5.91251 18.5733 5.91251 18.7045 5.83273 18.7581L5.83283 18.758ZM6.56037 19.5582C6.49055 19.6326 6.34163 19.6126 6.23266 19.5111C6.1212 19.4119 6.09022 19.2712 6.16034 19.1968C6.23106 19.1222 6.38078 19.1432 6.49055 19.2439C6.60111 19.3429 6.63498 19.4847 6.56037 19.5582ZM7.50089 19.8283C7.47001 19.9247 7.32657 19.9686 7.18223 19.9276C7.038 19.8854 6.94367 19.7726 6.97276 19.6752C7.00274 19.5781 7.14677 19.5326 7.2922 19.5764C7.43624 19.6183 7.53087 19.7303 7.50089 19.8283ZM8.57109 19.943C8.57467 20.0444 8.45225 20.1285 8.30065 20.1304C8.14825 20.1337 8.02483 20.0516 8.02314 19.9517C8.02314 19.8493 8.14287 19.7659 8.29537 19.7634C8.44697 19.7606 8.57109 19.8421 8.57109 19.943ZM9.62246 19.9041C9.64059 20.0031 9.53531 20.1048 9.3847 20.1319C9.23678 20.1579 9.09972 20.0968 9.08089 19.9987C9.06256 19.8972 9.16984 19.7955 9.31756 19.7692C9.46837 19.7439 9.60324 19.8034 9.62246 19.9041Z" fill="currentColor"/>
</g>
<defs>
<clipPath id="clip0_1078_107169">
<rect width="25.5" height="24" fill="currentColor"/>
</clipPath>
</defs>
</svg>
