<svg width="20" height="20" viewBox="0 0 20 20" fill="none" xmlns="http://www.w3.org/2000/svg">
<g id="Group 2">
<path id="Vector" d="M19.9999 10.2311C19.9999 9.55137 19.9437 8.86794 19.8238 8.19922H10.2014V12.0499H15.7117C15.483 13.2918 14.7483 14.3904 13.6725 15.0886V17.5871H16.9599C18.8904 15.8455 19.9999 13.2735 19.9999 10.2311Z" fill="#4285F4"/>
<path id="Vector_2" d="M10.2013 20.0015C12.9526 20.0015 15.2729 19.116 16.9635 17.5874L13.6761 15.0889C12.7615 15.6988 11.5807 16.0442 10.205 16.0442C7.54358 16.0442 5.287 14.2842 4.47733 11.918H1.08496V14.4937C2.81676 17.8704 6.34407 20.0015 10.2013 20.0015Z" fill="#34A853"/>
<path id="Vector_3" d="M4.4738 11.9161C4.04648 10.6741 4.04648 9.32933 4.4738 8.08742V5.51172H1.08518C-0.361728 8.33727 -0.361728 11.6662 1.08518 14.4917L4.4738 11.9161Z" fill="#FBBC04"/>
<path id="Vector_4" d="M10.2014 3.95791C11.6558 3.93587 13.0615 4.47232 14.1148 5.45704L17.0273 2.60209C15.1831 0.904556 12.7353 -0.0287207 10.2014 0.000673865C6.34419 0.000673865 2.81688 2.13178 1.08508 5.51215L4.4737 8.08785C5.27962 5.71791 7.53995 3.95791 10.2014 3.95791Z" fill="#EA4335"/>
</g>
</svg>
