<svg width="20" height="20" viewBox="0 0 20 20" fill="none"
  xmlns="http://www.w3.org/2000/svg">
  <g id="Group">
    <path id="Vector" d="M12.6787 7.32118L15.8923 4.10754" stroke="currentColor" stroke-width="2" stroke-miterlimit="10" stroke-linecap="round" stroke-linejoin="round"/>
    <path id="Vector_2" d="M4.10742 15.8924L7.32106 12.6788" stroke="currentColor" stroke-width="2" stroke-miterlimit="10" stroke-linecap="round" stroke-linejoin="round"/>
    <path id="Vector_3" d="M12.6787 12.6788L15.8923 15.8924" stroke="currentColor" stroke-width="2" stroke-miterlimit="10" stroke-linecap="round" stroke-linejoin="round"/>
    <path id="Vector_4" d="M4.10742 4.10754L7.32106 7.32118" stroke="currentColor" stroke-width="2" stroke-miterlimit="10" stroke-linecap="round" stroke-linejoin="round"/>
    <path id="Vector_5" d="M11.4353 13.4646C13.3488 12.672 14.2574 10.4783 13.4648 8.56486C12.6722 6.6514 10.4785 5.74277 8.56509 6.53536C6.65163 7.32796 5.74299 9.52165 6.53559 11.4351C7.32819 13.3486 9.52188 14.2572 11.4353 13.4646Z" stroke="currentColor" stroke-width="2" stroke-miterlimit="10" stroke-linecap="round" stroke-linejoin="round"/>
    <path id="Vector_6" d="M9.99996 18.3333C14.6023 18.3333 18.3333 14.6024 18.3333 9.99999C18.3333 5.39762 14.6023 1.66666 9.99996 1.66666C5.39759 1.66666 1.66663 5.39762 1.66663 9.99999C1.66663 14.6024 5.39759 18.3333 9.99996 18.3333Z" stroke="currentColor" stroke-width="2" stroke-miterlimit="10" stroke-linecap="round" stroke-linejoin="round"/>
  </g>
</svg>
