<svg width="18" height="16" viewBox="0 0 18 16" fill="none" xmlns="http://www.w3.org/2000/svg">
<g id="Logo" clip-path="url(#clip0_1078_106771)">
<path id="Vector" d="M14.9848 13.633H12.4659V9.92029C12.4659 9.03498 12.4491 7.89529 11.1559 7.89529C9.84396 7.89529 9.64321 8.85991 9.64321 9.85585V13.6327H7.12442V5.99798H9.54247V7.04135H9.57634C9.81833 6.65192 10.168 6.33155 10.5882 6.11436C11.0083 5.89718 11.4832 5.79131 11.9622 5.80804C14.5152 5.80804 14.9859 7.38854 14.9859 9.44466L14.9848 13.633ZM4.28223 4.95441C3.47493 4.95454 2.82037 4.33866 2.82023 3.57885C2.8201 2.81904 3.4744 2.20298 4.2817 2.20285C5.089 2.20266 5.74357 2.81854 5.7437 3.57835C5.74377 3.94323 5.58984 4.29319 5.31576 4.55125C5.04169 4.80931 4.66992 4.95433 4.28223 4.95441ZM5.5417 13.633H3.02018V5.99798H5.54163V13.633L5.5417 13.633ZM16.2405 0.00116449H1.75448C1.06983 -0.00608551 0.508367 0.510102 0.5 1.15448V14.8453C0.508102 15.49 1.0695 16.0067 1.75441 15.9999H16.2405C16.9269 16.0079 17.4905 15.4912 17.5 14.8453V1.15341C17.4902 0.507789 16.9266 -0.00833551 16.2405 0.000101993" fill="currentColor"/>
</g>
<defs>
<clipPath id="clip0_1078_106771">
<rect width="17" height="16" fill="currentColor" transform="translate(0.5)"/>
</clipPath>
</defs>
</svg>
