<svg width="16" height="16" viewBox="0 0 16 16" fill="none" xmlns="http://www.w3.org/2000/svg">
<path d="M5.33333 6.66732H2.66666C1.92999 6.66732 1.33333 6.07065 1.33333 5.33398V2.66732C1.33333 1.93065 1.92999 1.33398 2.66666 1.33398H5.33333C6.06999 1.33398 6.66666 1.93065 6.66666 2.66732V5.33398C6.66666 6.07065 6.06999 6.66732 5.33333 6.66732Z" stroke="currentColor" stroke-width="2" stroke-miterlimit="10" stroke-linecap="round" stroke-linejoin="round"/>
<path d="M13.3333 6.66732H10.6667C9.92999 6.66732 9.33333 6.07065 9.33333 5.33398V2.66732C9.33333 1.93065 9.92999 1.33398 10.6667 1.33398H13.3333C14.07 1.33398 14.6667 1.93065 14.6667 2.66732V5.33398C14.6667 6.07065 14.07 6.66732 13.3333 6.66732Z" stroke="currentColor" stroke-width="2" stroke-miterlimit="10" stroke-linecap="round" stroke-linejoin="round"/>
<path d="M5.33333 14.6673H2.66666C1.92999 14.6673 1.33333 14.0707 1.33333 13.334V10.6673C1.33333 9.93065 1.92999 9.33398 2.66666 9.33398H5.33333C6.06999 9.33398 6.66666 9.93065 6.66666 10.6673V13.334C6.66666 14.0707 6.06999 14.6673 5.33333 14.6673Z" stroke="currentColor" stroke-width="2" stroke-miterlimit="10" stroke-linecap="round" stroke-linejoin="round"/>
<path d="M13.3333 14.6673H10.6667C9.92999 14.6673 9.33333 14.0707 9.33333 13.334V10.6673C9.33333 9.93065 9.92999 9.33398 10.6667 9.33398H13.3333C14.07 9.33398 14.6667 9.93065 14.6667 10.6673V13.334C14.6667 14.0707 14.07 14.6673 13.3333 14.6673Z" stroke="currentColor" stroke-width="2" stroke-miterlimit="10" stroke-linecap="round" stroke-linejoin="round"/>
</svg>
