<svg width="17" height="16" viewBox="0 0 17 16" fill="none" xmlns="http://www.w3.org/2000/svg">
<g id="CellSignalX">
<path id="Vector" d="M13.8538 12.1462C13.9002 12.1927 13.9371 12.2479 13.9622 12.3086C13.9873 12.3692 14.0003 12.4343 14.0003 12.5C14.0003 12.5657 13.9873 12.6308 13.9622 12.6914C13.9371 12.7521 13.9002 12.8073 13.8538 12.8538C13.8073 12.9002 13.7521 12.9371 13.6914 12.9622C13.6308 12.9873 13.5657 13.0003 13.5 13.0003C13.4343 13.0003 13.3692 12.9873 13.3086 12.9622C13.2479 12.9371 13.1927 12.9002 13.1462 12.8538L12 11.7069L10.8538 12.8538C10.7599 12.9476 10.6327 13.0003 10.5 13.0003C10.3673 13.0003 10.2401 12.9476 10.1462 12.8538C10.0524 12.7599 9.99972 12.6327 9.99972 12.5C9.99972 12.3673 10.0524 12.2401 10.1462 12.1462L11.2931 11L10.1462 9.85375C10.0524 9.75993 9.99972 9.63268 9.99972 9.5C9.99972 9.36732 10.0524 9.24007 10.1462 9.14625C10.2401 9.05243 10.3673 8.99972 10.5 8.99972C10.6327 8.99972 10.7599 9.05243 10.8538 9.14625L12 10.2931L13.1462 9.14625C13.2401 9.05243 13.3673 8.99972 13.5 8.99972C13.6327 8.99972 13.7599 9.05243 13.8538 9.14625C13.9476 9.24007 14.0003 9.36732 14.0003 9.5C14.0003 9.63268 13.9476 9.75993 13.8538 9.85375L12.7069 11L13.8538 12.1462ZM10.5 8C10.6326 8 10.7598 7.94732 10.8536 7.85355C10.9473 7.75979 11 7.63261 11 7.5V4.5C11 4.36739 10.9473 4.24021 10.8536 4.14645C10.7598 4.05268 10.6326 4 10.5 4C10.3674 4 10.2402 4.05268 10.1464 4.14645C10.0527 4.24021 10 4.36739 10 4.5V7.5C10 7.63261 10.0527 7.75979 10.1464 7.85355C10.2402 7.94732 10.3674 8 10.5 8ZM13 8C13.1326 8 13.2598 7.94732 13.3536 7.85355C13.4473 7.75979 13.5 7.63261 13.5 7.5V2C13.5 1.86739 13.4473 1.74021 13.3536 1.64645C13.2598 1.55268 13.1326 1.5 13 1.5C12.8674 1.5 12.7402 1.55268 12.6464 1.64645C12.5527 1.74021 12.5 1.86739 12.5 2V7.5C12.5 7.63261 12.5527 7.75979 12.6464 7.85355C12.7402 7.94732 12.8674 8 13 8ZM8 6.5C7.86739 6.5 7.74021 6.55268 7.64645 6.64645C7.55268 6.74021 7.5 6.86739 7.5 7V12.5C7.5 12.6326 7.55268 12.7598 7.64645 12.8536C7.74021 12.9473 7.86739 13 8 13C8.13261 13 8.25979 12.9473 8.35355 12.8536C8.44732 12.7598 8.5 12.6326 8.5 12.5V7C8.5 6.86739 8.44732 6.74021 8.35355 6.64645C8.25979 6.55268 8.13261 6.5 8 6.5ZM5.5 9C5.36739 9 5.24021 9.05268 5.14645 9.14645C5.05268 9.24021 5 9.36739 5 9.5V12.5C5 12.6326 5.05268 12.7598 5.14645 12.8536C5.24021 12.9473 5.36739 13 5.5 13C5.63261 13 5.75979 12.9473 5.85355 12.8536C5.94732 12.7598 6 12.6326 6 12.5V9.5C6 9.36739 5.94732 9.24021 5.85355 9.14645C5.75979 9.05268 5.63261 9 5.5 9ZM3 11.5C2.86739 11.5 2.74021 11.5527 2.64645 11.6464C2.55268 11.7402 2.5 11.8674 2.5 12V12.5C2.5 12.6326 2.55268 12.7598 2.64645 12.8536C2.74021 12.9473 2.86739 13 3 13C3.13261 13 3.25979 12.9473 3.35355 12.8536C3.44732 12.7598 3.5 12.6326 3.5 12.5V12C3.5 11.8674 3.44732 11.7402 3.35355 11.6464C3.25979 11.5527 3.13261 11.5 3 11.5Z" fill="#DA2E21"/>
</g>
</svg>
