<svg width="29" height="28" viewBox="0 0 29 28" fill="none" xmlns="http://www.w3.org/2000/svg">
<g id="info" clip-path="url(#clip0_5244_212977)">
<path id="Vector" d="M1 14C1 6.54122 7.04456 0.5 14.5 0.5C21.9554 0.5 28 6.54122 28 14C28 21.4554 21.9554 27.5 14.5 27.5C7.04464 27.5 1 21.4554 1 14ZM14.5 22.6667C15.4201 22.6667 16.1667 21.9201 16.1667 21V12.8333C16.1667 11.9132 15.4201 11.1667 14.5 11.1667C13.5799 11.1667 12.8333 11.9132 12.8333 12.8333V21C12.8333 21.9201 13.5799 22.6667 14.5 22.6667ZM12.25 7.58333C12.25 8.82547 13.2579 9.83333 14.5 9.83333C15.7421 9.83333 16.75 8.82547 16.75 7.58333C16.75 6.34119 15.7421 5.33333 14.5 5.33333C13.2579 5.33333 12.25 6.34119 12.25 7.58333Z" fill="currentColor" stroke="currentColor"/>
</g>
<defs>
<clipPath id="clip0_5244_212977">
<rect width="28" height="28" fill="white" transform="translate(0.5)"/>
</clipPath>
</defs>
</svg>
