<svg width="17" height="16" viewBox="0 0 17 16" fill="none" xmlns="http://www.w3.org/2000/svg">
<g id="CellSignalFull">
<path id="Vector" d="M11 4.5V12.5C11 12.6326 10.9473 12.7598 10.8536 12.8536C10.7598 12.9473 10.6326 13 10.5 13C10.3674 13 10.2402 12.9473 10.1464 12.8536C10.0527 12.7598 10 12.6326 10 12.5V4.5C10 4.36739 10.0527 4.24021 10.1464 4.14645C10.2402 4.05268 10.3674 4 10.5 4C10.6326 4 10.7598 4.05268 10.8536 4.14645C10.9473 4.24021 11 4.36739 11 4.5ZM13 1.5C12.8674 1.5 12.7402 1.55268 12.6464 1.64645C12.5527 1.74021 12.5 1.86739 12.5 2V12.5C12.5 12.6326 12.5527 12.7598 12.6464 12.8536C12.7402 12.9473 12.8674 13 13 13C13.1326 13 13.2598 12.9473 13.3536 12.8536C13.4473 12.7598 13.5 12.6326 13.5 12.5V2C13.5 1.86739 13.4473 1.74021 13.3536 1.64645C13.2598 1.55268 13.1326 1.5 13 1.5ZM8 6.5C7.86739 6.5 7.74021 6.55268 7.64645 6.64645C7.55268 6.74021 7.5 6.86739 7.5 7V12.5C7.5 12.6326 7.55268 12.7598 7.64645 12.8536C7.74021 12.9473 7.86739 13 8 13C8.13261 13 8.25979 12.9473 8.35355 12.8536C8.44732 12.7598 8.5 12.6326 8.5 12.5V7C8.5 6.86739 8.44732 6.74021 8.35355 6.64645C8.25979 6.55268 8.13261 6.5 8 6.5ZM5.5 9C5.36739 9 5.24021 9.05268 5.14645 9.14645C5.05268 9.24021 5 9.36739 5 9.5V12.5C5 12.6326 5.05268 12.7598 5.14645 12.8536C5.24021 12.9473 5.36739 13 5.5 13C5.63261 13 5.75979 12.9473 5.85355 12.8536C5.94732 12.7598 6 12.6326 6 12.5V9.5C6 9.36739 5.94732 9.24021 5.85355 9.14645C5.75979 9.05268 5.63261 9 5.5 9ZM3 11.5C2.86739 11.5 2.74021 11.5527 2.64645 11.6464C2.55268 11.7402 2.5 11.8674 2.5 12V12.5C2.5 12.6326 2.55268 12.7598 2.64645 12.8536C2.74021 12.9473 2.86739 13 3 13C3.13261 13 3.25979 12.9473 3.35355 12.8536C3.44732 12.7598 3.5 12.6326 3.5 12.5V12C3.5 11.8674 3.44732 11.7402 3.35355 11.6464C3.25979 11.5527 3.13261 11.5 3 11.5Z" fill="white"/>
</g>
</svg>
