<svg width="20" height="20" viewBox="0 0 20 20" fill="none" xmlns="http://www.w3.org/2000/svg">
<path d="M12.6036 0.883752L12.6036 0.883777L19.7466 8.22051C19.8687 8.34621 19.9375 8.51687 19.9375 8.69513C19.9375 8.87338 19.8687 9.04404 19.7466 9.16974L12.6036 16.5065L12.6036 16.5065C12.5124 16.6003 12.3963 16.664 12.2702 16.6898C12.1441 16.7157 12.0134 16.7025 11.8945 16.652C11.7755 16.6015 11.6736 16.5157 11.6017 16.4054C11.5298 16.295 11.4913 16.165 11.4912 16.0319C11.4912 16.0319 11.4912 16.0319 11.4912 16.0319V12.3828V12.3165L11.4251 12.3204C6.30173 12.6208 2.79269 16.0322 1.80743 17.1095L1.80736 17.1096C1.66213 17.2689 1.4719 17.3769 1.26388 17.4184C1.05587 17.46 0.840362 17.4332 0.647933 17.3416C0.455479 17.25 0.295738 17.0983 0.191705 16.9077C0.0876612 16.7171 0.0447374 16.4974 0.0691966 16.2801L0.0692006 16.2801C0.398489 13.3391 1.96728 10.5071 4.49109 8.30754C6.58751 6.48131 9.13353 5.32333 11.4342 5.12109L11.4912 5.11608V5.05883V1.35837C11.4912 1.35836 11.4912 1.35835 11.4912 1.35834C11.4913 1.22523 11.5298 1.09526 11.6017 0.984879C11.6736 0.874505 11.7755 0.788761 11.8945 0.738229C12.0134 0.687706 12.1441 0.674568 12.2702 0.700402C12.3963 0.726239 12.5124 0.789951 12.6036 0.883752ZM12.7948 14.261V14.4148L12.9021 14.3046L18.321 8.73872L18.3634 8.69512L18.321 8.65152L12.9021 3.08657L12.7948 2.9764V3.13017V5.76041C12.7948 5.93895 12.7258 6.10985 12.6033 6.2356C12.481 6.36129 12.3154 6.43159 12.143 6.43159C9.95899 6.43159 7.41456 7.51924 5.33311 9.33215L5.3331 9.33216C3.39327 11.0225 2.08005 13.1125 1.5588 15.3132L1.51071 15.5162L1.6625 15.373C2.65259 14.4392 3.74437 13.626 4.91611 12.9496C7.21618 11.6277 9.64748 10.9587 12.143 10.9587C12.3154 10.9587 12.481 11.029 12.6033 11.1546C12.7258 11.2804 12.7948 11.4513 12.7948 11.6298V14.261Z" fill="currentColor" stroke="currentColor" stroke-width="0.125"/>
</svg>
