<svg width="14" height="14" viewBox="0 0 14 14" fill="none" xmlns="http://www.w3.org/2000/svg">
<g id="star" clip-path="url(#clip0_1956_148096)">
<path id="Vector" d="M9.76058 12.7397L7.01528 11.2092C7.00733 11.205 6.99831 11.205 6.99036 11.2092L4.24611 12.7423C3.71158 13.0409 3.08584 12.5594 3.18766 11.9267L3.71052 8.68241C3.71211 8.6734 3.70893 8.66385 3.70257 8.65749L1.36347 6.23938C0.978477 5.84166 1.19059 5.14804 1.72194 5.06585L4.95299 4.56579C4.96147 4.56419 4.96943 4.55836 4.97314 4.55041L6.34394 1.59829C6.6112 1.02293 7.38383 1.0224 7.65163 1.59776L9.0256 4.54882C9.02932 4.5573 9.03727 4.56313 9.04576 4.56419L12.2773 5.06108C12.8092 5.14274 13.0219 5.83636 12.6369 6.2346L10.2999 8.65484C10.2935 8.6612 10.2909 8.67075 10.2925 8.67976L10.818 11.9235C10.9203 12.5556 10.2956 13.0377 9.76058 12.7397Z" stroke="currentColor" stroke-width="2" stroke-miterlimit="10" stroke-linecap="round" stroke-linejoin="round"/>
</g>
<defs>
<clipPath id="clip0_1956_148096">
<rect width="14" height="14" fill="currentColor"/>
</clipPath>
</defs>
</svg>
