<svg width="14" height="14" viewBox="0 0 14 14" fill="none" xmlns="http://www.w3.org/2000/svg">
<g id="star" clip-path="url(#clip0_1956_148072)">
<path id="Vector" d="M13.9714 5.36125C13.8933 5.12092 13.6693 4.95817 13.4167 4.95817H8.97577L7.55302 0.690504C7.47369 0.451921 7.25144 0.291504 7.00002 0.291504C6.74861 0.291504 6.52577 0.451921 6.44644 0.690504L5.02427 4.95817H0.583356C0.330773 4.95817 0.106773 5.12092 0.028606 5.36125C-0.0495607 5.60159 0.0361893 5.86467 0.240356 6.01342L3.80744 8.60809L2.36311 12.9405C2.28319 13.1803 2.36661 13.4439 2.56961 13.5944C2.77319 13.7449 3.04969 13.7467 3.25502 13.6003L7.00002 10.9251L10.7444 13.5997C10.8459 13.672 10.9644 13.7082 11.0834 13.7082C11.2053 13.7082 11.3266 13.6703 11.4299 13.5938C11.6329 13.4439 11.7163 13.1803 11.6364 12.9399L10.192 8.6075L13.7591 6.01284C13.9639 5.86467 14.0496 5.601 13.9714 5.36125Z" fill="currentColor"/>
</g>
<defs>
<clipPath id="clip0_1956_148072">
<rect width="14" height="14" fill="currentColor"/>
</clipPath>
</defs>
</svg>
