<svg width="20" height="20" viewBox="0 0 20 20" fill="none" xmlns="http://www.w3.org/2000/svg">
<g id="Group 4">
<path id="Subtract" fill-rule="evenodd" clip-rule="evenodd" d="M19.1667 9.9987C19.1667 15.0613 15.0626 19.1654 10 19.1654C4.93743 19.1654 0.833374 15.0613 0.833374 9.9987C0.833374 4.93609 4.93743 0.832031 10 0.832031C15.0626 0.832031 19.1667 4.93609 19.1667 9.9987ZM10.3286 7.59928C9.43702 7.97012 7.65509 8.73768 4.98282 9.90194C4.54888 10.0745 4.32157 10.2433 4.30088 10.4084C4.2659 10.6874 4.61525 10.7972 5.09097 10.9468C5.15568 10.9671 5.22273 10.9882 5.29146 11.0106C5.7595 11.1627 6.38909 11.3407 6.71638 11.3478C7.01327 11.3542 7.34464 11.2318 7.71047 10.9806C10.2073 9.29517 11.4961 8.44329 11.577 8.42492C11.6341 8.41196 11.7132 8.39567 11.7668 8.44331C11.8204 8.49095 11.8151 8.58118 11.8095 8.60538C11.7749 8.75291 10.4035 10.0278 9.69389 10.6876C9.47266 10.8932 9.31573 11.0391 9.28365 11.0725C9.21179 11.1471 9.13855 11.2177 9.06816 11.2856C8.63335 11.7047 8.30728 12.0191 9.08622 12.5324C9.46053 12.779 9.76007 12.983 10.0589 13.1865C10.3852 13.4088 10.7108 13.6304 11.1319 13.9065C11.2392 13.9768 11.3417 14.0499 11.4415 14.1211C11.8213 14.3918 12.1625 14.6351 12.584 14.5963C12.829 14.5737 13.082 14.3434 13.2105 13.6565C13.5142 12.0331 14.1111 8.51559 14.249 7.06612C14.2611 6.93913 14.2459 6.7766 14.2337 6.70526C14.2215 6.63391 14.196 6.53226 14.1032 6.45701C13.9934 6.3679 13.8239 6.3491 13.748 6.35044C13.4033 6.35651 12.8743 6.54044 10.3286 7.59928Z" fill="url(#paint0_linear_2700_2008)"/>
</g>
<defs>
<linearGradient id="paint0_linear_2700_2008" x1="10" y1="0.832031" x2="10" y2="19.0294" gradientUnits="userSpaceOnUse">
<stop stop-color="#2AABEE"/>
<stop offset="1" stop-color="#229ED9"/>
</linearGradient>
</defs>
</svg>
