<svg width="31" height="30" viewBox="0 0 31 30" fill="none" xmlns="http://www.w3.org/2000/svg">
<g id="Group 4">
<path id="Subtract" fill-rule="evenodd" clip-rule="evenodd" d="M30.1654 14.9997C30.1654 23.0999 23.5989 29.6663 15.4987 29.6663C7.39852 29.6663 0.832031 23.0999 0.832031 14.9997C0.832031 6.8995 7.39852 0.333008 15.4987 0.333008C23.5989 0.333008 30.1654 6.8995 30.1654 14.9997ZM16.0245 11.1607C14.598 11.754 11.7469 12.9821 7.47127 14.8449C6.77697 15.121 6.41327 15.3911 6.38016 15.6553C6.3242 16.1016 6.88316 16.2774 7.64432 16.5167C7.74785 16.5493 7.85512 16.583 7.9651 16.6187C8.71396 16.8622 9.7213 17.1469 10.245 17.1583C10.72 17.1685 11.2502 16.9727 11.8355 16.5707C15.8304 13.8741 17.8925 12.5111 18.022 12.4817C18.1133 12.461 18.2399 12.4349 18.3257 12.5111C18.4114 12.5874 18.403 12.7317 18.3939 12.7704C18.3385 13.0065 16.1444 15.0463 15.009 16.1019C14.655 16.431 14.4039 16.6645 14.3526 16.7178C14.2376 16.8372 14.1204 16.9502 14.0078 17.0587C13.3121 17.7294 12.7904 18.2323 14.0367 19.0536C14.6356 19.4483 15.1149 19.7747 15.593 20.1003C16.1152 20.4559 16.636 20.8105 17.3098 21.2522C17.4815 21.3648 17.6455 21.4817 17.8051 21.5955C18.4128 22.0287 18.9588 22.4179 19.6332 22.3559C20.0251 22.3198 20.43 21.9513 20.6356 20.8522C21.1214 18.2547 22.0765 12.6268 22.2972 10.3076C22.3166 10.1044 22.2922 9.8444 22.2727 9.73025C22.2532 9.6161 22.2123 9.45346 22.064 9.33306C21.8882 9.19047 21.617 9.1604 21.4956 9.16254C20.944 9.17226 20.0976 9.46655 16.0245 11.1607Z" fill="url(#paint0_linear_1093_8089)"/>
</g>
<defs>
<linearGradient id="paint0_linear_1093_8089" x1="15.4987" y1="0.333008" x2="15.4987" y2="29.4488" gradientUnits="userSpaceOnUse">
<stop stop-color="#2AABEE"/>
<stop offset="1" stop-color="#229ED9"/>
</linearGradient>
</defs>
</svg>
