<svg width="19" height="20" viewBox="0 0 19 20" fill="none"
  xmlns="http://www.w3.org/2000/svg">
  <g id="Group 4">
    <path id="Subtract" fill-rule="evenodd" clip-rule="evenodd" d="M18.6667 10C18.6667 15.0626 14.5626 19.1667 9.50004 19.1667C4.43743 19.1667 0.333374 15.0626 0.333374 10C0.333374 4.93743 4.43743 0.833374 9.50004 0.833374C14.5626 0.833374 18.6667 4.93743 18.6667 10ZM9.82861 7.60062C8.93702 7.97147 7.15509 8.73902 4.48282 9.90329C4.04888 10.0758 3.82157 10.2447 3.80088 10.4097C3.7659 10.6887 4.11525 10.7985 4.59097 10.9481C4.65568 10.9685 4.72273 10.9896 4.79146 11.0119C5.2595 11.164 5.88909 11.342 6.21638 11.3491C6.51327 11.3555 6.84464 11.2331 7.21047 10.9819C9.70726 9.29651 10.9961 8.44463 11.077 8.42626C11.1341 8.41331 11.2132 8.39702 11.2668 8.44466C11.3204 8.4923 11.3151 8.58252 11.3095 8.60672C11.2749 8.75426 9.90354 10.0292 9.19389 10.6889C8.97266 10.8946 8.81573 11.0405 8.78365 11.0738C8.71179 11.1484 8.63855 11.219 8.56816 11.2869C8.13335 11.7061 7.80728 12.0204 8.58622 12.5337C8.96053 12.7804 9.26007 12.9844 9.55889 13.1879C9.88524 13.4101 10.2108 13.6318 10.6319 13.9079C10.7392 13.9782 10.8417 14.0512 10.9415 14.1224C11.3213 14.3932 11.6625 14.6364 12.084 14.5976C12.329 14.5751 12.582 14.3448 12.7105 13.6578C13.0142 12.0344 13.6111 8.51693 13.749 7.06746C13.7611 6.94047 13.7459 6.77795 13.7337 6.7066C13.7215 6.63526 13.696 6.53361 13.6032 6.45836C13.4934 6.36924 13.3239 6.35045 13.248 6.35178C12.9033 6.35786 12.3743 6.54179 9.82861 7.60062Z" fill="currentColor"/>
  </g>
</svg>
