<svg width="20" height="20" viewBox="0 0 20 20" fill="none"
  xmlns="http://www.w3.org/2000/svg">
  <g id="user-circle" clip-path="url(#clip0_4664_4420)">
    <path id="Vector" d="M10 0C4.4775 0 0 4.4775 0 10C0 15.5225 4.4775 20 10 20C15.5225 20 20 15.5225 20 10C20 4.4775 15.5225 0 10 0ZM10 4.16667C12.0675 4.16667 13.75 5.84917 13.75 7.91667C13.75 9.98417 12.0675 11.6667 10 11.6667C7.9325 11.6667 6.25 9.98417 6.25 7.91667C6.25 5.84917 7.9325 4.16667 10 4.16667ZM10 18.3333C7.85 18.3333 5.89417 17.5083 4.41417 16.1658C5.11917 14.5342 7.34667 13.3333 10 13.3333C12.6533 13.3333 14.8808 14.5342 15.5858 16.1658C14.1058 17.5083 12.15 18.3333 10 18.3333Z" fill="currentColor"/>
  </g>
  <defs>
    <clipPath id="clip0_4664_4420">
      <rect width="20" height="20" fill="white"/>
    </clipPath>
  </defs>
</svg>
