<svg width="20" height="20" viewBox="0 0 20 20" fill="none" xmlns="http://www.w3.org/2000/svg">
<g id="wallet" clip-path="url(#clip0_1289_188273)">
<path id="Vector" d="M3.33333 4.66536H18.3333C18.9772 4.66536 19.5 5.18817 19.5 5.83203V17.4987C19.5 18.1426 18.9772 18.6654 18.3333 18.6654H2.5C1.39531 18.6654 0.5 17.7701 0.5 16.6654V3.33203C0.5 2.23317 1.40114 1.33203 2.5 1.33203H19.1667C19.3489 1.33203 19.5 1.48317 19.5 1.66536C19.5 1.84756 19.3489 1.9987 19.1667 1.9987H3.33333C2.59886 1.9987 2 2.59756 2 3.33203C2 4.06651 2.59886 4.66536 3.33333 4.66536ZM12.8333 11.6654C12.8333 12.8615 13.8039 13.832 15 13.832C16.1961 13.832 17.1667 12.8615 17.1667 11.6654C17.1667 10.4692 16.1961 9.4987 15 9.4987C13.8039 9.4987 12.8333 10.4692 12.8333 11.6654Z" fill="currentColor" stroke="currentColor"/>
</g>
<defs>
<clipPath id="clip0_1289_188273">
<rect width="20" height="20" fill="white"/>
</clipPath>
</defs>
</svg>
