<svg width="16" height="16" viewBox="0 0 16 16" fill="none" xmlns="http://www.w3.org/2000/svg">
<g id="CellSignalMedium">
<path id="Vector" d="M8 7V12.5C8 12.6326 7.94732 12.7598 7.85355 12.8536C7.75979 12.9473 7.63261 13 7.5 13C7.36739 13 7.24021 12.9473 7.14645 12.8536C7.05268 12.7598 7 12.6326 7 12.5V7C7 6.86739 7.05268 6.74021 7.14645 6.64645C7.24021 6.55268 7.36739 6.5 7.5 6.5C7.63261 6.5 7.75979 6.55268 7.85355 6.64645C7.94732 6.74021 8 6.86739 8 7ZM5 9C4.86739 9 4.74021 9.05268 4.64645 9.14645C4.55268 9.24021 4.5 9.36739 4.5 9.5V12.5C4.5 12.6326 4.55268 12.7598 4.64645 12.8536C4.74021 12.9473 4.86739 13 5 13C5.13261 13 5.25979 12.9473 5.35355 12.8536C5.44732 12.7598 5.5 12.6326 5.5 12.5V9.5C5.5 9.36739 5.44732 9.24021 5.35355 9.14645C5.25979 9.05268 5.13261 9 5 9ZM2.5 11.5C2.36739 11.5 2.24021 11.5527 2.14645 11.6464C2.05268 11.7402 2 11.8674 2 12V12.5C2 12.6326 2.05268 12.7598 2.14645 12.8536C2.24021 12.9473 2.36739 13 2.5 13C2.63261 13 2.75979 12.9473 2.85355 12.8536C2.94732 12.7598 3 12.6326 3 12.5V12C3 11.8674 2.94732 11.7402 2.85355 11.6464C2.75979 11.5527 2.63261 11.5 2.5 11.5Z" fill="#FBB000"/>
</g>
</svg>
