<svg width="17" height="16" viewBox="0 0 17 16" fill="none" xmlns="http://www.w3.org/2000/svg">
<g id="Group">
<path id="Vector" d="M8.50041 14.6668C9.83929 14.6668 10.9247 11.6821 10.9247 8.00016C10.9247 4.31826 9.83929 1.3335 8.50041 1.3335C7.16154 1.3335 6.07617 4.31826 6.07617 8.00016C6.07617 11.6821 7.16154 14.6668 8.50041 14.6668Z" stroke="currentColor" stroke-width="2" stroke-miterlimit="10" stroke-linecap="round" stroke-linejoin="round"/>
<path id="Vector_2" d="M2.13672 6.18213H14.864" stroke="currentColor" stroke-width="2" stroke-miterlimit="10" stroke-linecap="round" stroke-linejoin="round"/>
<path id="Vector_3" d="M2.13672 9.81836H14.864" stroke="currentColor" stroke-width="2" stroke-miterlimit="10" stroke-linecap="round" stroke-linejoin="round"/>
<path id="Vector_4" d="M8.50065 14.6668C12.1825 14.6668 15.1673 11.6821 15.1673 8.00016C15.1673 4.31826 12.1825 1.3335 8.50065 1.3335C4.81875 1.3335 1.83398 4.31826 1.83398 8.00016C1.83398 11.6821 4.81875 14.6668 8.50065 14.6668Z" stroke="currentColor" stroke-width="2" stroke-miterlimit="10" stroke-linecap="round" stroke-linejoin="round"/>
</g>
</svg>
