<svg xmlns="http://www.w3.org/2000/svg" width="1em" height="1em" viewBox="0 0 22 22" fill="none">
  <path d="M6.45472 4.63636V1H2.81836" stroke="currentColor" stroke-width="2" stroke-miterlimit="10" stroke-linecap="round" stroke-linejoin="round"/>
  <path d="M6 1.90914C2.76182 3.56459 1 7.11368 1 11C1 16.5228 5.47727 21 11 21C16.5227 21 21 16.5228 21 11C21 5.78368 17.0064 1.50005 11.9091 1.04095" stroke="currentColor" stroke-width="2" stroke-miterlimit="10" stroke-linecap="round" stroke-linejoin="round"/>
  <path d="M6.45459 8.27274H8.27277V13.7273" stroke="currentColor" stroke-width="2" stroke-miterlimit="10" stroke-linecap="round" stroke-linejoin="round"/>
  <path d="M12.8182 13.7273C11.8136 13.7273 11 12.9136 11 11.9091V10.0909C11 9.08637 11.8136 8.27274 12.8182 8.27274C13.8227 8.27274 14.6364 9.08637 14.6364 10.0909V11.9091C14.6364 12.9136 13.8227 13.7273 12.8182 13.7273Z" stroke="currentColor" stroke-width="2" stroke-miterlimit="10" stroke-linecap="round" stroke-linejoin="round"/>
</svg>
