<svg width="14" height="14" viewBox="0 0 14 14" fill="none"
  xmlns="http://www.w3.org/2000/svg">
  <g id="Share">
    <path id="Vector" d="M5.75 8.1365L12.75 1.25" stroke="currentColor" stroke-width="1.3" stroke-linecap="round" stroke-linejoin="round"/>
    <path id="Vector_2" d="M12.75 5.1855V1.25H8.75" stroke="currentColor" stroke-width="1.3" stroke-linecap="round" stroke-linejoin="round"/>
    <path id="Vector_3" d="M9.78696 6.98845C10.0966 7.91722 10.0863 8.92295 9.75755 9.84515C9.42883 10.7673 8.80068 11.5529 7.97335 12.0763C7.14601 12.5998 6.16718 12.8311 5.19305 12.7332C4.21892 12.6354 3.30563 12.2141 2.59894 11.5365C1.89224 10.859 1.43286 9.96421 1.29411 8.99506C1.15535 8.02591 1.34522 7.03821 1.83342 6.18958C2.32161 5.34095 3.07999 4.6803 3.98754 4.31306C4.89508 3.94582 5.89948 3.89315 6.84046 4.16345" stroke="currentColor" stroke-width="1.3" stroke-linecap="round" stroke-linejoin="round"/>
  </g>
</svg>
