<svg width="12" height="13" viewBox="0 0 12 13" fill="none" xmlns="http://www.w3.org/2000/svg">
<path d="M0 6.99711C0 7.80016 0.156863 8.55712 0.470588 9.26798C0.784313 9.9788 1.21764 10.6041 1.77058 11.144C2.32353 11.6838 2.96176 12.1075 3.68529 12.4149C4.40882 12.7222 5.18039 12.8759 5.99999 12.8759C6.81962 12.8759 7.59118 12.7222 8.31469 12.4149C9.03823 12.1075 9.67647 11.6838 10.2294 11.144C10.7823 10.6041 11.2157 9.9788 11.5294 9.26798C11.8431 8.55712 12 7.80016 12 6.99711C12 6.2901 11.8765 5.61768 11.6294 4.97986C11.3823 4.34203 11.0382 3.76471 10.5971 3.24791C10.1559 2.73111 9.64017 2.29884 9.04998 1.95111C8.4598 1.60337 7.82156 1.36226 7.13528 1.22778V0.409351C7.13528 0.201862 7.07451 0.0731424 6.95295 0.0231915C6.83136 -0.0267594 6.69017 0.00397961 6.52938 0.115409L4.65294 1.40068C4.51568 1.4929 4.44705 1.60049 4.44705 1.72344C4.44705 1.8464 4.51568 1.95591 4.65294 2.05197L6.52353 3.34301C6.68432 3.45828 6.82648 3.48998 6.95 3.43811C7.07352 3.38623 7.13528 3.25655 7.13528 3.04907V2.23064C7.69214 2.35359 8.20488 2.56108 8.67351 2.85311C9.14214 3.14512 9.54999 3.50246 9.89707 3.92513C10.2441 4.34779 10.5137 4.81944 10.7058 5.34008C10.898 5.86071 10.9941 6.41306 10.9941 6.99711C10.9941 7.6772 10.8657 8.31408 10.6088 8.90773C10.352 9.50138 9.99511 10.022 9.53825 10.4697C9.08138 10.9173 8.55099 11.267 7.94707 11.5186C7.34316 11.7703 6.69413 11.8962 5.99999 11.8962C5.30588 11.8962 4.65588 11.7703 4.04999 11.5186C3.44411 11.267 2.91274 10.9173 2.45588 10.4697C1.99902 10.022 1.64215 9.50138 1.38529 8.90773C1.12843 8.31408 1 7.6772 1 6.99711C1 6.4515 1.08627 5.93182 1.25882 5.43806C1.43137 4.94432 1.67255 4.4938 1.98235 4.08651C2.29215 3.67921 2.6549 3.32956 3.07059 3.03754C3.19215 2.94916 3.2696 2.84158 3.30294 2.71478C3.33627 2.58798 3.31568 2.46502 3.24117 2.34591C3.16666 2.23064 3.05882 2.16051 2.91764 2.13554C2.77647 2.11056 2.64117 2.14611 2.51176 2.24217C2.00588 2.5995 1.56471 3.02505 1.18824 3.5188C0.811766 4.01254 0.519609 4.55432 0.311764 5.14412C0.103921 5.73394 0 6.3516 0 6.99711ZM4.28235 9.36017C4.39607 9.36017 4.48627 9.32462 4.55293 9.25352C4.6196 9.18246 4.65294 9.08545 4.65294 8.9625V5.32567C4.65294 5.17582 4.61764 5.06343 4.54705 4.98851C4.47647 4.91358 4.37451 4.87611 4.24117 4.87611C4.15882 4.87611 4.08235 4.89052 4.01176 4.91934C3.94117 4.94816 3.85294 4.99715 3.74705 5.06632L2.94117 5.60233C2.87451 5.64844 2.82451 5.69935 2.79117 5.75506C2.75784 5.81077 2.74117 5.87129 2.74117 5.9366C2.74117 6.03268 2.77451 6.11529 2.84118 6.18442C2.90784 6.25359 2.98823 6.28817 3.08235 6.28817C3.14117 6.28817 3.19019 6.2805 3.22941 6.26516C3.26862 6.24977 3.31372 6.22095 3.3647 6.17869L3.92941 5.77523H3.91764V8.9625C3.91764 9.0816 3.95098 9.17766 4.01764 9.25069C4.08431 9.32367 4.17255 9.36017 4.28235 9.36017ZM7.27057 9.42934C7.75683 9.42934 8.14802 9.28813 8.44413 9.0057C8.74021 8.72327 8.88825 8.34961 8.88825 7.88469C8.88825 7.46204 8.75688 7.1143 8.49413 6.84148C8.23138 6.56869 7.89019 6.4323 7.47055 6.4323C7.28234 6.4323 7.09902 6.47455 6.92061 6.55907C6.74215 6.64362 6.61371 6.75891 6.53528 6.90492H6.56468L6.67057 5.60233H8.42938C8.51567 5.60233 8.59117 5.57159 8.65586 5.51011C8.72055 5.44863 8.7529 5.36794 8.7529 5.26804C8.7529 5.17198 8.72055 5.09417 8.65586 5.03462C8.59117 4.97506 8.51567 4.94528 8.42938 4.94528H6.55293C6.24312 4.94528 6.0745 5.10474 6.04707 5.42366L5.91764 7.08357C5.90587 7.22573 5.93529 7.33236 6.00587 7.40345C6.07647 7.47451 6.17648 7.51004 6.3059 7.51004C6.39999 7.51004 6.47645 7.49851 6.53528 7.47546C6.59411 7.45244 6.66471 7.41018 6.74707 7.34868C6.86079 7.24878 6.96667 7.17674 7.06469 7.13256C7.16275 7.08837 7.27059 7.06628 7.38821 7.06628C7.61566 7.06628 7.79998 7.14216 7.94117 7.29391C8.08236 7.44571 8.15296 7.64647 8.15296 7.8962C8.15296 8.14983 8.07256 8.35925 7.91178 8.52446C7.75099 8.68967 7.54902 8.77228 7.30587 8.77228C7.12942 8.77228 6.9706 8.72713 6.82941 8.63683C6.68822 8.54653 6.58038 8.42647 6.50589 8.27664C6.46276 8.20361 6.41373 8.14694 6.35879 8.10661C6.3039 8.06624 6.2392 8.04605 6.16471 8.04605C6.06666 8.04605 5.98725 8.0768 5.92647 8.1383C5.86568 8.19976 5.83529 8.28046 5.83529 8.38039C5.83529 8.4188 5.83921 8.45722 5.84705 8.49566C5.85489 8.53406 5.86666 8.57248 5.88234 8.61092C5.96078 8.81839 6.12254 9.00666 6.36765 9.17573C6.61272 9.3448 6.9137 9.42934 7.27057 9.42934Z" fill="#C2C2C2" style="fill:#C2C2C2;fill:color(display-p3 0.7600 0.7600 0.7600);fill-opacity:1;"/>
</svg>
