<svg width="12" height="14" viewBox="0 0 12 14" fill="none" xmlns="http://www.w3.org/2000/svg">
<g clip-path="url(#clip0_21519_205487)">
<path d="M0 6.99711C0 7.80042 0.156863 8.55759 0.470588 9.26861C0.784313 9.97963 1.21764 10.6052 1.77058 11.1452C2.32353 11.6852 2.96176 12.1089 3.68529 12.4164C4.40882 12.7239 5.18039 12.8776 5.99999 12.8776C6.81962 12.8776 7.59118 12.7239 8.31469 12.4164C9.03823 12.1089 9.67647 11.6852 10.2294 11.1452C10.7823 10.6052 11.2157 9.97963 11.5294 9.26861C11.8431 8.55759 12 7.80042 12 6.99711C12 6.35142 11.8961 5.73359 11.6882 5.14363C11.4804 4.55366 11.1882 4.01173 10.8117 3.51785C10.4353 3.02396 9.99411 2.5983 9.48825 2.24086C9.35883 2.14478 9.22352 2.10923 9.08233 2.13421C8.94118 2.15919 8.83333 2.22933 8.7588 2.34464C8.68431 2.46378 8.66373 2.58677 8.69706 2.71361C8.73039 2.84044 8.80783 2.94805 8.92939 3.03645C9.34509 3.32856 9.70785 3.67831 10.0177 4.08572C10.3274 4.49312 10.5686 4.94377 10.7411 5.43765C10.9137 5.93153 11 6.45134 11 6.99711C11 7.67743 10.8716 8.31448 10.6147 8.90826C10.3578 9.50208 10.001 10.0229 9.54409 10.4706C9.08723 10.9184 8.55585 11.2682 7.94997 11.5199C7.34412 11.7717 6.69413 11.8975 5.99999 11.8975C5.30588 11.8975 4.65686 11.7717 4.05294 11.5199C3.44902 11.2682 2.91862 10.9184 2.46176 10.4706C2.0049 10.0229 1.64804 9.50208 1.39117 8.90826C1.13431 8.31448 1.00588 7.67743 1.00588 6.99711C1.00588 6.41293 1.10196 5.86044 1.29412 5.33964C1.48627 4.81886 1.75588 4.34707 2.10294 3.92429C2.45 3.50151 2.85882 3.14407 3.32941 2.85197C3.79999 2.55987 4.31176 2.35232 4.8647 2.22933V3.05375C4.8647 3.25746 4.92646 3.38525 5.04999 3.43713C5.17352 3.48902 5.31568 3.45924 5.47647 3.34778L7.35291 2.05638C7.48627 1.96798 7.55392 1.86132 7.55585 1.73641C7.55781 1.6115 7.49017 1.50292 7.35291 1.41068L5.48234 0.119279C5.31764 0.00397593 5.17352 -0.0277324 5.04999 0.0241541C4.92646 0.0760408 4.8647 0.205757 4.8647 0.413303V1.22619C4.17843 1.36071 3.54019 1.60189 2.95 1.94972C2.3598 2.29755 1.84411 2.72994 1.40294 3.24689C0.961764 3.76383 0.617647 4.34131 0.370588 4.97932C0.123529 5.61735 0 6.28994 0 6.99711ZM4.25294 9.36082C4.36666 9.36082 4.45686 9.32528 4.52353 9.25421C4.59019 9.18309 4.62352 9.08603 4.62352 8.96304V5.32523C4.62352 5.17534 4.58823 5.06292 4.51764 4.98797C4.44705 4.91302 4.34509 4.87555 4.21176 4.87555C4.12941 4.87555 4.05294 4.88996 3.98235 4.91879C3.91176 4.94761 3.82353 4.99661 3.71765 5.06579L2.91176 5.60196C2.84509 5.64808 2.79509 5.699 2.76176 5.75474C2.72843 5.81047 2.71176 5.87101 2.71176 5.93636C2.71176 6.03243 2.74509 6.11506 2.81176 6.18425C2.87843 6.25344 2.95882 6.28803 3.05294 6.28803C3.11176 6.28803 3.16078 6.28034 3.2 6.26495C3.23921 6.24956 3.28431 6.22073 3.33529 6.17846L3.9 5.77492H3.88823V8.96304C3.88823 9.08222 3.92156 9.17831 3.98823 9.25131C4.0549 9.32432 4.14313 9.36082 4.25294 9.36082ZM7.24118 9.43001C7.72744 9.43001 8.1186 9.28878 8.41468 9.00632C8.71076 8.72381 8.85879 8.35002 8.85879 7.88494C8.85879 7.46217 8.72742 7.11435 8.46467 6.84149C8.20193 6.56859 7.86076 6.43214 7.44116 6.43214C7.25294 6.43214 7.06961 6.47443 6.89115 6.55901C6.71273 6.64354 6.58431 6.75884 6.50589 6.90489H6.53528L6.64117 5.60196H8.39998C8.48628 5.60196 8.56177 5.57121 8.62647 5.50972C8.69116 5.44822 8.72351 5.36751 8.72351 5.26758C8.72351 5.17149 8.69116 5.09366 8.62647 5.03409C8.56177 4.97452 8.48628 4.94473 8.39998 4.94473H6.52353C6.21372 4.94473 6.04509 5.10423 6.01764 5.42324L5.88823 7.08359C5.87646 7.22583 5.90587 7.33249 5.97647 7.40357C6.04707 7.47468 6.14706 7.51024 6.27645 7.51024C6.37058 7.51024 6.44706 7.49871 6.50589 7.47565C6.56472 7.45258 6.63529 7.4103 6.71761 7.34878C6.83134 7.24885 6.93723 7.17679 7.03529 7.13259C7.13332 7.0884 7.24116 7.0663 7.35882 7.0663C7.58626 7.0663 7.77058 7.14222 7.91178 7.29405C8.05293 7.44585 8.1235 7.64667 8.1235 7.89651C8.1235 8.15017 8.04311 8.35962 7.88232 8.52488C7.72153 8.69018 7.51958 8.77283 7.27647 8.77283C7.09999 8.77283 6.94117 8.72767 6.80001 8.63735C6.65882 8.54702 6.55098 8.4269 6.47649 8.27699C6.43332 8.20399 6.38429 8.14729 6.3294 8.10691C6.2745 8.06657 6.20979 8.0464 6.13526 8.0464C6.03724 8.0464 5.95784 8.07714 5.89705 8.13861C5.83627 8.20013 5.80587 8.28085 5.80587 8.38078C5.80587 8.41919 5.8098 8.45762 5.81764 8.49607C5.82548 8.53453 5.83725 8.57296 5.85294 8.61137C5.93137 8.81894 6.09314 9.00726 6.33825 9.17634C6.58333 9.34546 6.8843 9.43001 7.24118 9.43001Z" fill="#C2C2C2" style="fill:#C2C2C2;fill:color(display-p3 0.7600 0.7600 0.7600);fill-opacity:1;"/>
</g>
<defs>
<clipPath id="clip0_21519_205487">
<rect width="12" height="14" fill="white" style="fill:white;fill:white;fill-opacity:1;"/>
</clipPath>
</defs>
</svg>
