<svg width="16" height="16" viewBox="0 0 16 16" fill="none" xmlns="http://www.w3.org/2000/svg">
<path d="M15 8.00001C15.0004 8.16977 14.9569 8.33676 14.8736 8.48472C14.7904 8.63268 14.6703 8.75659 14.525 8.84438L5.52 14.3531C5.36818 14.4461 5.19429 14.4969 5.0163 14.5001C4.83831 14.5034 4.66266 14.4592 4.5075 14.3719C4.35382 14.286 4.2258 14.1606 4.1366 14.0088C4.04741 13.857 4.00026 13.6842 4 13.5081V2.49188C4.00026 2.31581 4.04741 2.14298 4.1366 1.99118C4.2258 1.83937 4.35382 1.71406 4.5075 1.62813C4.66266 1.54085 4.83831 1.49657 5.0163 1.49987C5.19429 1.50316 5.36818 1.55391 5.52 1.64688L14.525 7.15563C14.6703 7.24343 14.7904 7.36733 14.8736 7.51529C14.9569 7.66326 15.0004 7.83024 15 8.00001Z" fill="#F4F4F4" style="fill:#F4F4F4;fill:color(display-p3 0.9569 0.9569 0.9569);fill-opacity:1;"/>
</svg>
