<svg width="16" height="16" viewBox="0 0 16 16" fill="none" xmlns="http://www.w3.org/2000/svg">
<g id="SpeakerSimpleHigh">
<path id="Vector" d="M9.71937 1.55062C9.63529 1.50964 9.5414 1.49308 9.44838 1.5028C9.35535 1.51252 9.26692 1.54814 9.19312 1.60562L4.82812 4.99999H2C1.73478 4.99999 1.48043 5.10535 1.29289 5.29288C1.10536 5.48042 1 5.73477 1 5.99999V9.99999C1 10.2652 1.10536 10.5196 1.29289 10.7071C1.48043 10.8946 1.73478 11 2 11H4.82812L9.19312 14.3944C9.26699 14.4518 9.35548 14.4873 9.44855 14.497C9.54161 14.5066 9.63551 14.4899 9.71956 14.4488C9.80362 14.4077 9.87446 14.3439 9.92404 14.2646C9.97361 14.1852 9.99993 14.0935 10 14V1.99999C10 1.90632 9.97371 1.81453 9.9241 1.73508C9.87448 1.65563 9.80355 1.59171 9.71937 1.55062ZM9 12.9775L5.30688 10.1056C5.21931 10.037 5.11124 9.99981 5 9.99999H2V5.99999H5C5.11124 6.00017 5.21931 5.96297 5.30688 5.89437L9 3.02249V12.9775ZM12.5 6.49999V9.49999C12.5 9.6326 12.4473 9.75978 12.3536 9.85354C12.2598 9.94731 12.1326 9.99999 12 9.99999C11.8674 9.99999 11.7402 9.94731 11.6464 9.85354C11.5527 9.75978 11.5 9.6326 11.5 9.49999V6.49999C11.5 6.36738 11.5527 6.24021 11.6464 6.14644C11.7402 6.05267 11.8674 5.99999 12 5.99999C12.1326 5.99999 12.2598 6.05267 12.3536 6.14644C12.4473 6.24021 12.5 6.36738 12.5 6.49999ZM14.5 5.49999V10.5C14.5 10.6326 14.4473 10.7598 14.3536 10.8535C14.2598 10.9473 14.1326 11 14 11C13.8674 11 13.7402 10.9473 13.6464 10.8535C13.5527 10.7598 13.5 10.6326 13.5 10.5V5.49999C13.5 5.36738 13.5527 5.24021 13.6464 5.14644C13.7402 5.05267 13.8674 4.99999 14 4.99999C14.1326 4.99999 14.2598 5.05267 14.3536 5.14644C14.4473 5.24021 14.5 5.36738 14.5 5.49999Z" fill="#C2C2C2" style="fill:#C2C2C2;fill:color(display-p3 0.7600 0.7600 0.7600);fill-opacity:1;"/>
</g>
</svg>
