<svg width="16" height="16" viewBox="0 0 16 16" fill="none" xmlns="http://www.w3.org/2000/svg">
<path d="M9.71937 1.55062C9.63529 1.50964 9.5414 1.49308 9.44838 1.5028C9.35535 1.51252 9.26692 1.54814 9.19312 1.60562L4.82812 4.99999H2C1.73478 4.99999 1.48043 5.10535 1.29289 5.29288C1.10536 5.48042 1 5.73477 1 5.99999V9.99999C1 10.2652 1.10536 10.5196 1.29289 10.7071C1.48043 10.8946 1.73478 11 2 11H4.82812L9.19312 14.3944C9.26699 14.4518 9.35548 14.4873 9.44855 14.497C9.54161 14.5066 9.63551 14.4899 9.71956 14.4488C9.80362 14.4077 9.87446 14.3439 9.92404 14.2646C9.97361 14.1852 9.99993 14.0935 10 14V1.99999C10 1.90632 9.97371 1.81453 9.9241 1.73508C9.87448 1.65563 9.80355 1.59171 9.71937 1.55062ZM9 12.9775L5.30688 10.1056C5.21931 10.037 5.11124 9.99981 5 9.99999H2V5.99999H5C5.11124 6.00017 5.21931 5.96297 5.30688 5.89437L9 3.02249V12.9775ZM15.3538 9.14624C15.4476 9.24006 15.5003 9.36731 15.5003 9.49999C15.5003 9.63267 15.4476 9.75992 15.3538 9.85374C15.2599 9.94756 15.1327 10.0003 15 10.0003C14.8673 10.0003 14.7401 9.94756 14.6462 9.85374L13.5 8.70687L12.3538 9.85374C12.2599 9.94756 12.1327 10.0003 12 10.0003C11.8673 10.0003 11.7401 9.94756 11.6462 9.85374C11.5524 9.75992 11.4997 9.63267 11.4997 9.49999C11.4997 9.36731 11.5524 9.24006 11.6462 9.14624L12.7931 7.99999L11.6462 6.85374C11.5524 6.75992 11.4997 6.63267 11.4997 6.49999C11.4997 6.36731 11.5524 6.24006 11.6462 6.14624C11.7401 6.05242 11.8673 5.99971 12 5.99971C12.1327 5.99971 12.2599 6.05242 12.3538 6.14624L13.5 7.29312L14.6462 6.14624C14.7401 6.05242 14.8673 5.99971 15 5.99971C15.1327 5.99971 15.2599 6.05242 15.3538 6.14624C15.4476 6.24006 15.5003 6.36731 15.5003 6.49999C15.5003 6.63267 15.4476 6.75992 15.3538 6.85374L14.2069 7.99999L15.3538 9.14624Z" fill="#C2C2C2" style="fill:#C2C2C2;fill:color(display-p3 0.7600 0.7600 0.7600);fill-opacity:1;"/>
</svg>
