<svg width="96" height="96" viewBox="0 0 96 96" fill="none" xmlns="http://www.w3.org/2000/svg">
<g id="exps">
<path id="Exclude" fill-rule="evenodd" clip-rule="evenodd" d="M23.1237 37.4809V58.7721H36.275V54.9805H27.4198V49.6723H35.2521V46.0557H27.4198V41.2724H36.275V37.4809H23.1237ZM44.6219 47.7765L38.8938 58.7721H43.5991L46.1709 53.5222C46.3852 53.0944 46.5605 52.6958 46.6969 52.3264C46.8333 51.9569 46.9307 51.675 46.9892 51.4806C47.0671 51.675 47.184 51.9569 47.3399 52.3264C47.4957 52.6958 47.6711 53.0944 47.8659 53.5222L50.4377 58.7721H55.2599L49.5318 47.7765L54.8799 37.4809H50.1747L47.8952 42.1474C47.7003 42.5752 47.5347 42.9641 47.3983 43.3141C47.2619 43.6641 47.1743 43.9168 47.1353 44.0724C47.0963 43.9168 46.9989 43.6641 46.8431 43.3141C46.7067 42.9641 46.5313 42.5752 46.317 42.1474L44.0959 37.4809H39.2738L44.6219 47.7765ZM57.7618 58.7721V37.4809H65.0389C66.5391 37.4809 67.8445 37.7628 68.955 38.3267C70.0851 38.8906 70.9521 39.678 71.5561 40.6891C72.1795 41.7002 72.4913 42.8863 72.4913 44.2474C72.4913 45.589 72.1795 46.7751 71.5561 47.8056C70.9326 48.8167 70.0656 49.6042 68.955 50.1681C67.8445 50.732 66.5391 51.0139 65.0389 51.0139H62.1456V58.7721H57.7618ZM62.1456 47.2223H65.0389C65.9741 47.2223 66.7144 46.9404 67.26 46.3765C67.825 45.8126 68.1075 45.1029 68.1075 44.2474C68.1075 43.3918 67.825 42.6821 67.26 42.1183C66.7144 41.5544 65.9741 41.2724 65.0389 41.2724H62.1456V47.2223ZM49.7395 7.95511C48.6775 7.08381 47.148 7.08381 46.086 7.95511L43.6299 9.97023C42.8123 10.641 41.6928 10.8097 40.7138 10.4098L37.7728 9.20812C36.5012 8.68856 35.0397 9.13938 34.2817 10.285L32.5286 12.9346C31.9451 13.8165 30.9251 14.3077 29.8717 14.2141L26.7072 13.9327C25.3389 13.811 24.0752 14.6726 23.6885 15.9908L22.7943 19.0393C22.4966 20.0541 21.6668 20.8242 20.6326 21.0451L17.5257 21.709C16.1823 21.9961 15.2287 23.1919 15.2478 24.5654L15.2919 27.7421C15.3066 28.7996 14.7405 29.78 13.8174 30.296L11.0442 31.8462C9.84518 32.5164 9.28639 33.9402 9.70947 35.2471L10.688 38.2697C11.0137 39.2758 10.7618 40.3795 10.0318 41.1447L7.83872 43.4434C6.8905 44.4373 6.7762 45.9625 7.56569 47.0867L9.39164 49.6865C9.99945 50.552 10.0841 51.6809 9.61201 52.6273L8.19396 55.4702C7.58082 56.6995 7.92117 58.1906 9.00693 59.0321L11.5181 60.9783C12.354 61.6261 12.7676 62.6799 12.5955 63.7234L12.0784 66.858C11.8548 68.2134 12.6196 69.538 13.9051 70.022L16.8783 71.1416C17.8681 71.5142 18.5739 72.3993 18.717 73.4472L19.1469 76.5949C19.3327 77.956 20.4539 78.9963 21.825 79.0799L24.9962 79.2734C26.0517 79.3377 26.9871 79.9755 27.4327 80.9346L28.7713 83.8158C29.3501 85.0616 30.7281 85.7252 32.063 85.401L35.1502 84.6511C36.1779 84.4015 37.2597 84.7352 37.9682 85.5203L40.0966 87.879C41.0168 88.8989 42.5292 89.1268 43.7092 88.4236L46.4383 86.797C47.3467 86.2556 48.4788 86.2556 49.3873 86.797L52.1163 88.4236C53.2963 89.1268 54.8087 88.8989 55.729 87.879L57.8574 85.5203C58.5658 84.7352 59.6477 84.4015 60.6753 84.6511L63.7626 85.401C65.0974 85.7252 66.4755 85.0616 67.0542 83.8158L68.3928 80.9346C68.8384 79.9755 69.7738 79.3377 70.8294 79.2734L74.0005 79.0799C75.3716 78.9963 76.4928 77.956 76.6787 76.595L77.1085 73.4472C77.2516 72.3993 77.9575 71.5142 78.9472 71.1416L81.9204 70.022C83.206 69.538 83.9707 68.2134 83.7472 66.858L83.2301 63.7234C83.058 62.6799 83.4716 61.6261 84.3075 60.9783L86.8186 59.0321C87.9044 58.1906 88.2447 56.6995 87.6316 55.4702L86.2135 52.6273C85.7415 51.6809 85.8261 50.552 86.4339 49.6865L88.2598 47.0867C89.0493 45.9625 88.935 44.4373 87.9868 43.4434L85.7938 41.1447C85.0638 40.3795 84.8119 39.2758 85.1376 38.2697L86.1161 35.2471C86.5392 33.9402 85.9804 32.5164 84.7813 31.8462L82.0081 30.296C81.085 29.78 80.519 28.7996 80.5337 27.7421L80.5778 24.5654C80.5968 23.1919 79.6432 21.9961 78.2999 21.709L75.193 21.0451C74.1588 20.8242 73.3289 20.0541 73.0312 19.0393L72.137 15.9908C71.7504 14.6726 70.4867 13.811 69.1184 13.9327L65.9539 14.2141C64.9005 14.3077 63.8805 13.8165 63.2969 12.9346L61.5439 10.285C60.7859 9.13939 59.3243 8.68856 58.0527 9.20812L55.1117 10.4098C54.1327 10.8097 53.0133 10.641 52.1957 9.97023L49.7395 7.95511ZM47.7607 79.6639C65.1785 79.6639 79.2984 65.5441 79.2984 48.1263C79.2984 30.7086 65.1785 16.5887 47.7607 16.5887C30.343 16.5887 16.2231 30.7086 16.2231 48.1263C16.2231 65.5441 30.343 79.6639 47.7607 79.6639ZM47.7607 81.5839C66.2389 81.5839 81.2184 66.6045 81.2184 48.1263C81.2184 29.6482 66.2389 14.6687 47.7607 14.6687C29.2826 14.6687 14.3031 29.6482 14.3031 48.1263C14.3031 66.6045 29.2826 81.5839 47.7607 81.5839Z" fill="url(#paint0_linear_30399_157878)"/>
</g>
<defs>
<linearGradient id="paint0_linear_30399_157878" x1="7.04248" y1="7.30164" x2="87.1119" y2="86.5756" gradientUnits="userSpaceOnUse">
<stop stop-color="#FFD64D"/>
<stop offset="1" stop-color="#FFAD33"/>
</linearGradient>
</defs>
</svg>
