<svg width="27" height="34" viewBox="0 0 27 34" fill="none" xmlns="http://www.w3.org/2000/svg">
<g id="&#244;&#128;&#164;&#159; 1" clip-path="url(#clip0_1075_8747)">
<path id="Vector" d="M5.39862 33.4164C3.74473 33.4164 2.47999 32.9738 1.6044 32.0884C0.72881 31.2129 0.291016 29.9481 0.291016 28.2942V6.46285C0.291016 4.78951 0.72881 3.51017 1.6044 2.62485C2.48972 1.73953 3.75932 1.29688 5.41321 1.29688H21.0425C22.7061 1.29688 23.9757 1.7444 24.8513 2.63944C25.7269 3.52476 26.1647 4.79924 26.1647 6.46285V21.7273C26.1647 22.4861 26.0479 23.0845 25.8145 23.5223C25.5907 23.9503 25.2259 24.3687 24.72 24.7773C24.1071 25.3221 23.7179 25.9399 23.5525 26.6306C23.3969 27.3116 23.4358 27.9537 23.6693 28.5569C23.9125 29.1698 24.3211 29.6271 24.8951 29.9286C25.2453 30.133 25.5469 30.3762 25.7998 30.6583C26.0625 30.9404 26.1939 31.3004 26.1939 31.7382C26.1939 32.2247 26.0382 32.6235 25.7269 32.9349C25.4156 33.2559 25.0167 33.4164 24.5303 33.4164H5.39862ZM6.18665 30.0746H20.6047C20.2253 29.3547 20.0258 28.5764 20.0064 27.7397C19.9966 26.8932 20.1815 26.0761 20.5609 25.288C20.4539 25.3075 20.3274 25.3172 20.1815 25.3172H6.25962C5.42295 25.3172 4.78085 25.5459 4.33332 26.0031C3.8858 26.4603 3.66203 27.0198 3.66203 27.6813C3.66203 28.372 3.8712 28.9412 4.28954 29.3887C4.70788 29.8459 5.34025 30.0746 6.18665 30.0746ZM5.38403 22.7343C5.6467 22.7343 5.87533 22.6418 6.06991 22.4569C6.26448 22.2624 6.36177 22.0289 6.36177 21.7565V5.04732C6.36177 4.77491 6.26448 4.54629 6.06991 4.36144C5.87533 4.16686 5.6467 4.06958 5.38403 4.06958C5.12135 4.06958 4.89272 4.16686 4.69815 4.36144C4.5133 4.54629 4.42088 4.77491 4.42088 5.04732V21.7565C4.42088 22.0289 4.5133 22.2624 4.69815 22.4569C4.89272 22.6418 5.12135 22.7343 5.38403 22.7343Z" fill="#FF4F20"/>
</g>
<defs>
<clipPath id="clip0_1075_8747">
<rect width="26.1509" height="33" fill="white" transform="translate(0.173828 0.800781)"/>
</clipPath>
</defs>
</svg>
