<svg width="52" height="43" viewBox="0 0 52 43" fill="none" xmlns="http://www.w3.org/2000/svg">
<g id="&#244;&#129;&#154;&#155; 1" clip-path="url(#clip0_912_7410)">
<path id="Vector" d="M12.2728 42.3436L18.3197 36.2967H48.4838C49.3119 36.2967 50.0228 36.5936 50.6166 37.1873C51.2103 37.781 51.5072 38.492 51.5072 39.3201C51.5072 40.1482 51.2103 40.8592 50.6166 41.4529C50.0228 42.0467 49.3119 42.3436 48.4838 42.3436H12.2728ZM9.13224 40.117L3.01505 42.4373C2.59318 42.5936 2.19474 42.492 1.81974 42.1326C1.46036 41.7889 1.36661 41.3748 1.53849 40.8904L3.92912 34.8904L31.6322 7.1873L36.8353 12.4139L9.13224 40.117ZM39.39 9.85918L34.1635 4.65605L36.9994 1.84355C37.6869 1.17167 38.4056 0.812305 39.1556 0.76543C39.9213 0.718555 40.6244 1.02324 41.265 1.67949L42.39 2.80449C43.0306 3.46074 43.3353 4.16386 43.3041 4.91386C43.2885 5.64824 42.9291 6.36699 42.226 7.07011L39.39 9.85918Z" fill="#FF4F20"/>
</g>
<defs>
<clipPath id="clip0_912_7410">
<rect width="51" height="43" fill="white" transform="translate(0.5)"/>
</clipPath>
</defs>
</svg>
