<svg width="27" height="34" viewBox="0 0 27 34" fill="none" xmlns="http://www.w3.org/2000/svg">
<g id="&#244;&#130;&#135;&#179; 1" clip-path="url(#clip0_1075_8751)">
<path id="Vector" d="M8.40818 21.8297H19.105C19.3968 21.8297 19.6352 21.7324 19.82 21.5379C20.0146 21.3336 20.1119 21.0855 20.1119 20.7936C20.1119 20.5114 20.0146 20.278 19.82 20.0932C19.6352 19.8986 19.3968 19.8013 19.105 19.8013H8.40818C8.11629 19.8013 7.86823 19.8986 7.66394 20.0932C7.46936 20.278 7.37204 20.5114 7.37204 20.7936C7.37204 21.0855 7.46936 21.3336 7.66394 21.5379C7.86823 21.7324 8.11629 21.8297 8.40818 21.8297ZM8.40818 26.2077H13.7493C14.0314 26.2077 14.2697 26.1104 14.4643 25.9158C14.6589 25.7212 14.7562 25.4877 14.7562 25.2153C14.7562 24.9332 14.6589 24.6949 14.4643 24.5003C14.2697 24.296 14.0314 24.1938 13.7493 24.1938H8.40818C8.11629 24.1938 7.86823 24.296 7.66394 24.5003C7.46936 24.6949 7.37204 24.9332 7.37204 25.2153C7.37204 25.4877 7.46936 25.7212 7.66394 25.9158C7.86823 26.1104 8.11629 26.2077 8.40818 26.2077ZM13.3845 14.3872C13.7249 14.3872 14.0071 14.3045 14.2308 14.1391C14.4546 13.9737 14.581 13.7646 14.6102 13.5117C14.6102 13.4824 14.6102 13.4581 14.6102 13.4387C14.62 13.4095 14.6248 13.3851 14.6248 13.3657C14.654 13.1225 14.7659 12.9036 14.9605 12.709C15.1648 12.5047 15.4323 12.2955 15.7631 12.0815C16.3274 11.7216 16.7652 11.3518 17.0765 10.9724C17.3879 10.5832 17.5435 10.0676 17.5435 9.42557C17.5435 8.4916 17.1689 7.75707 16.4198 7.22197C15.6804 6.68689 14.7903 6.41935 13.7493 6.41935C12.8737 6.41935 12.0856 6.59447 11.3852 6.94471C10.6945 7.29495 10.2469 7.78136 10.0426 8.404C10.0134 8.50132 9.98907 8.59857 9.96964 8.69589C9.95993 8.78344 9.95501 8.87583 9.95501 8.97315C9.95501 9.27476 10.0572 9.52282 10.2615 9.7174C10.4658 9.90226 10.709 9.99466 10.9911 9.99466C11.2149 9.99466 11.4095 9.95574 11.5749 9.87791C11.75 9.79037 11.8959 9.65906 12.0127 9.48391L12.1586 9.30882C12.324 9.02664 12.5234 8.81749 12.7569 8.68126C12.9904 8.54509 13.2482 8.47697 13.5303 8.47697C13.9195 8.47697 14.2308 8.584 14.4643 8.79807C14.6978 9.00236 14.8145 9.26013 14.8145 9.57145C14.8145 9.88277 14.7027 10.1455 14.4789 10.3595C14.2649 10.5638 13.9293 10.8217 13.472 11.133C13.0731 11.4053 12.7423 11.7021 12.4796 12.0231C12.2267 12.3344 12.1003 12.7236 12.1003 13.1906C12.1003 13.21 12.1003 13.2295 12.1003 13.249C12.1003 13.2684 12.1003 13.2879 12.1003 13.3073C12.1003 14.0273 12.5283 14.3872 13.3845 14.3872ZM13.3845 17.875C13.7833 17.875 14.1238 17.7534 14.406 17.5101C14.6978 17.2572 14.8437 16.9362 14.8437 16.547C14.8437 16.1481 14.7027 15.8222 14.4205 15.5693C14.1384 15.3163 13.793 15.1899 13.3845 15.1899C12.9758 15.1899 12.6256 15.3163 12.3337 15.5693C12.0516 15.8222 11.9105 16.1481 11.9105 16.547C11.9105 16.9264 12.0516 17.2426 12.3337 17.4956C12.6256 17.7485 12.9758 17.875 13.3845 17.875ZM0.921875 28.2945V6.43395C0.921875 4.78978 1.34994 3.53477 2.20607 2.66891C3.06221 1.80305 4.30749 1.37012 5.94192 1.37012H21.5566C23.1911 1.37012 24.4363 1.80305 25.2925 2.66891C26.1486 3.53477 26.5767 4.78978 26.5767 6.43395V28.2945C26.5767 29.9387 26.1486 31.1888 25.2925 32.0449C24.4363 32.9108 23.1911 33.3437 21.5566 33.3437H5.94192C4.30749 33.3437 3.06221 32.9108 2.20607 32.0449C1.34994 31.1888 0.921875 29.9387 0.921875 28.2945Z" fill="#FF4F20"/>
</g>
<defs>
<clipPath id="clip0_1075_8751">
<rect width="26.1509" height="33" fill="white" transform="translate(0.673828 0.800781)"/>
</clipPath>
</defs>
</svg>
