<svg width="54" height="53" viewBox="0 0 54 53" fill="none" xmlns="http://www.w3.org/2000/svg">
<g id="&#244;&#129;&#130;&#171; 1" clip-path="url(#clip0_912_7414)">
<path id="Vector" d="M21.9609 30.9609L27.0234 27.2578L32.0859 30.9609C32.4766 31.2422 32.8594 31.3594 33.2344 31.3125C33.6094 31.2656 33.8828 31.0859 34.0547 30.7734C34.2422 30.4453 34.2422 30.0234 34.0547 29.5078L32.0859 23.5781L37.2188 19.9219C37.5781 19.6562 37.7891 19.3438 37.8516 18.9844C37.9141 18.6094 37.8281 18.2812 37.5938 18C37.3594 17.7188 36.9922 17.5781 36.4922 17.5781L30.1406 17.6016L28.2656 11.6719C28.0312 10.9688 27.6172 10.6172 27.0234 10.6172C26.4453 10.6172 26.0391 10.9688 25.8047 11.6719L23.9062 17.6016L17.5547 17.5781C17.0547 17.5781 16.6875 17.7188 16.4531 18C16.2188 18.2812 16.125 18.6094 16.1719 18.9844C16.2344 19.3438 16.4531 19.6562 16.8281 19.9219L21.9844 23.6016L19.9922 29.5078C19.8047 30.0078 19.8047 30.4219 19.9922 30.75C20.1797 31.0625 20.4531 31.25 20.8125 31.3125C21.1875 31.3594 21.5703 31.2422 21.9609 30.9609ZM15.7031 51.9375C14.9219 51.9375 14.3125 51.6875 13.875 51.1875C13.4375 50.6875 13.2188 50.0078 13.2188 49.1484V42.4922H11.0859C8.91406 42.4922 6.99219 42.0312 5.32031 41.1094C3.66406 40.1875 2.35938 38.8672 1.40625 37.1484C0.46875 35.4297 0 33.3828 0 31.0078V12.4453C0 10.0703 0.460938 8.02344 1.38281 6.30469C2.30469 4.58594 3.61719 3.26562 5.32031 2.34375C7.03906 1.40625 9.09375 0.9375 11.4844 0.9375H42.5156C44.9062 0.9375 46.9609 1.40625 48.6797 2.34375C50.3984 3.26562 51.7109 4.58594 52.6172 6.30469C53.5391 8.02344 54 10.0703 54 12.4453V31.0078C54 33.3828 53.5391 35.4297 52.6172 37.1484C51.7109 38.8672 50.3984 40.1875 48.6797 41.1094C46.9609 42.0312 44.9062 42.4922 42.5156 42.4922H27.7031L18.9141 50.2969C18.2734 50.875 17.7109 51.2891 17.2266 51.5391C16.7422 51.8047 16.2344 51.9375 15.7031 51.9375Z" fill="#FF4F20"/>
</g>
<defs>
<clipPath id="clip0_912_7414">
<rect width="54" height="52" fill="white" transform="translate(0 0.5)"/>
</clipPath>
</defs>
</svg>
