<svg width="20" height="7" viewBox="0 0 20 7" fill="none"
  xmlns="http://www.w3.org/2000/svg">
  <g id="app">
    <path id="Vector" d="M17.0406 3.43514C17.485 3.43514 17.8048 3.33425 18.0001 3.13246C18.1953 2.93068 18.293 2.64882 18.293 2.28689C18.293 2.12674 18.2677 1.98101 18.2172 1.84969C18.1667 1.71837 18.0893 1.60627 17.9849 1.51338C17.8839 1.4173 17.7543 1.34363 17.5961 1.29238C17.4412 1.24113 17.256 1.21551 17.0406 1.21551H16.1517V3.43514H17.0406ZM17.0406 0C17.559 0 18.0034 0.0592541 18.3738 0.177762C18.7475 0.293068 19.0538 0.453214 19.2929 0.658202C19.5353 0.863189 19.7137 1.10501 19.8282 1.38367C19.9427 1.66232 19.9999 1.96339 19.9999 2.28689C19.9999 2.63601 19.941 2.9563 19.8231 3.24777C19.7053 3.53924 19.5252 3.78906 19.2828 3.99725C19.0404 4.20544 18.7323 4.36879 18.3586 4.4873C17.9883 4.60261 17.5489 4.66026 17.0406 4.66026H16.1517V7H14.4448V0H17.0406Z" fill="currentColor"/>
    <path id="Vector_2" d="M10.6197 3.43514C11.0641 3.43514 11.3839 3.33425 11.5792 3.13246C11.7744 2.93068 11.8721 2.64882 11.8721 2.28689C11.8721 2.12674 11.8468 1.98101 11.7963 1.84969C11.7458 1.71837 11.6684 1.60627 11.564 1.51338C11.463 1.4173 11.3334 1.34363 11.1752 1.29238C11.0203 1.24113 10.8351 1.21551 10.6197 1.21551H9.73085V3.43514H10.6197ZM10.6197 0C11.1381 0 11.5825 0.0592541 11.9529 0.177762C12.3266 0.293068 12.633 0.453214 12.872 0.658202C13.1144 0.863189 13.2928 1.10501 13.4073 1.38367C13.5218 1.66232 13.579 1.96339 13.579 2.28689C13.579 2.63601 13.5201 2.9563 13.4022 3.24777C13.2844 3.53924 13.1043 3.78906 12.8619 3.99725C12.6195 4.20544 12.3114 4.36879 11.9377 4.4873C11.5674 4.60261 11.128 4.66026 10.6197 4.66026H9.73085V7H8.02393V0H10.6197Z" fill="currentColor"/>
    <path id="Vector_3" d="M4.73191 4.32395L4.05015 2.407C3.99965 2.28529 3.94578 2.14276 3.88855 1.97941C3.83131 1.81286 3.77408 1.63349 3.71685 1.44132C3.66635 1.6367 3.61248 1.81766 3.55524 1.98421C3.49801 2.15077 3.44414 2.2949 3.39364 2.41661L2.71693 4.32395H4.73191ZM7.44379 7H6.12068C5.97254 7 5.85302 6.96797 5.76212 6.90391C5.67122 6.83665 5.6022 6.75177 5.55507 6.64928L5.12076 5.42896H2.32303L1.88872 6.64928C1.85169 6.73896 1.78436 6.82064 1.68672 6.8943C1.59245 6.96477 1.47462 7 1.33322 7H0L2.84824 0H4.59556L7.44379 7Z" fill="currentColor"/>
  </g>
</svg>
