<svg width="18" height="18" viewBox="0 0 18 18" fill="none" xmlns="http://www.w3.org/2000/svg">
<path d="M17.0307 14.0306L14.0307 17.0306C13.89 17.1713 13.6991 17.2503 13.5001 17.2503C13.3011 17.2503 13.1102 17.1713 12.9695 17.0306C12.8287 16.8898 12.7497 16.699 12.7497 16.4999C12.7497 16.3009 12.8287 16.11 12.9695 15.9693L14.6898 14.2499H1.5001C1.30119 14.2499 1.11042 14.1709 0.969772 14.0303C0.82912 13.8896 0.750102 13.6988 0.750102 13.4999C0.750102 13.301 0.82912 13.1103 0.969772 12.9696C1.11042 12.8289 1.30119 12.7499 1.5001 12.7499H14.6898L12.9695 11.0306C12.8287 10.8898 12.7497 10.699 12.7497 10.4999C12.7497 10.3009 12.8287 10.11 12.9695 9.9693C13.1102 9.82857 13.3011 9.74951 13.5001 9.74951C13.6991 9.74951 13.89 9.82857 14.0307 9.9693L17.0307 12.9693C17.1005 13.039 17.1558 13.1217 17.1935 13.2127C17.2313 13.3038 17.2507 13.4014 17.2507 13.4999C17.2507 13.5985 17.2313 13.6961 17.1935 13.7871C17.1558 13.8782 17.1005 13.9609 17.0307 14.0306ZM3.96948 8.03055C4.11021 8.17128 4.30108 8.25035 4.5001 8.25035C4.69912 8.25035 4.89 8.17128 5.03073 8.03055C5.17146 7.88982 5.25052 7.69895 5.25052 7.49993C5.25052 7.30091 5.17146 7.11003 5.03073 6.9693L3.31041 5.24993H16.5001C16.699 5.24993 16.8898 5.17091 17.0304 5.03026C17.1711 4.88961 17.2501 4.69884 17.2501 4.49993C17.2501 4.30102 17.1711 4.11025 17.0304 3.9696C16.8898 3.82895 16.699 3.74993 16.5001 3.74993H3.31041L5.03073 2.03055C5.17146 1.88982 5.25052 1.69895 5.25052 1.49993C5.25052 1.30091 5.17146 1.11003 5.03073 0.969304C4.89 0.828573 4.69912 0.749512 4.5001 0.749512C4.30108 0.749512 4.11021 0.828573 3.96948 0.969304L0.969477 3.9693C0.899744 4.03896 0.844425 4.12168 0.806682 4.21272C0.768939 4.30377 0.749512 4.40137 0.749512 4.49993C0.749512 4.59849 0.768939 4.69609 0.806682 4.78713C0.844425 4.87818 0.899744 4.9609 0.969477 5.03055L3.96948 8.03055Z" fill="white"/>
</svg>
