<svg width="20" height="20" viewBox="0 0 20 20" fill="none" xmlns="http://www.w3.org/2000/svg">
<path d="M10 0.25C8.07164 0.25 6.18657 0.821828 4.58319 1.89317C2.97982 2.96451 1.73013 4.48726 0.992179 6.26884C0.254225 8.05042 0.061142 10.0108 0.437348 11.9021C0.813554 13.7934 1.74215 15.5307 3.10571 16.8943C4.46928 18.2579 6.20656 19.1865 8.09787 19.5627C9.98919 19.9389 11.9496 19.7458 13.7312 19.0078C15.5127 18.2699 17.0355 17.0202 18.1068 15.4168C19.1782 13.8134 19.75 11.9284 19.75 10C19.7473 7.41498 18.7192 4.93661 16.8913 3.10872C15.0634 1.28084 12.585 0.25273 10 0.25ZM10 1.75C11.5984 1.7483 13.1625 2.21361 14.5 3.08875V4.9375L12.4216 7.35063L9.47125 7.75L9.44219 7.72937L7.59813 6.52375C7.43464 6.40858 7.24976 6.32727 7.05439 6.2846C6.85901 6.24192 6.65707 6.23875 6.46045 6.27526C6.26382 6.31177 6.07649 6.38723 5.90945 6.49721C5.74242 6.60718 5.59906 6.74944 5.48782 6.91562L3.52469 9.85C3.36115 10.0945 3.27312 10.3818 3.27157 10.6759L3.25 14.0725L2.94344 14.2741C2.18558 13.0228 1.77404 11.5926 1.75101 10.1299C1.72798 8.6672 2.09429 7.22469 2.81238 5.95021C3.53048 4.67573 4.57454 3.6151 5.83756 2.87703C7.10058 2.13896 8.53714 1.75 10 1.75ZM3.83969 15.4816L4.07594 15.3269C4.28224 15.1908 4.45172 15.0059 4.56932 14.7885C4.68691 14.5711 4.74898 14.3281 4.75 14.0809L4.76969 10.6844L6.73469 7.75C6.74432 7.75741 6.75433 7.76429 6.76469 7.77063L8.60876 8.97719C8.91779 9.1953 9.29805 9.2881 9.67282 9.23688L12.625 8.83656C12.9891 8.78798 13.3226 8.60751 13.5625 8.32938L15.6409 5.91437C15.8734 5.64204 16.0007 5.29554 16 4.9375V4.34406C17.0144 5.41731 17.7217 6.74352 18.0478 8.18387C18.3738 9.62422 18.3067 11.1257 17.8534 12.5312L16.3403 11.1475C16.13 10.9544 15.8689 10.8254 15.5877 10.7756C15.3066 10.7257 15.017 10.7572 14.7531 10.8663L11.8975 12.0522C11.6587 12.1524 11.4498 12.3125 11.2908 12.5169C11.1319 12.7213 11.0283 12.9633 10.99 13.2194L10.7659 14.7372C10.7121 15.1025 10.7949 15.4749 10.9985 15.783C11.2021 16.091 11.5122 16.3132 11.8694 16.4069L13.8813 16.9375L14.1025 17.1597C12.4596 18.1023 10.5421 18.4501 8.67288 18.1444C6.80362 17.8388 5.09676 16.8984 3.83969 15.4816ZM15.3438 16.2812L14.9406 15.8772C14.7526 15.6884 14.5177 15.5532 14.26 15.4853L12.25 14.9547L12.4741 13.4369L15.3288 12.25L17.2188 13.9825C16.737 14.8552 16.1019 15.634 15.3438 16.2812Z" fill="#CCCCCC"/>
</svg>
