<svg width="18" height="19" viewBox="0 0 18 19" fill="none" xmlns="http://www.w3.org/2000/svg">
<path d="M17.5153 7.72855L10.0153 0.652302C10.0116 0.649103 10.0082 0.645658 10.005 0.64199C9.72887 0.390864 9.36903 0.251709 8.99578 0.251709C8.62253 0.251709 8.2627 0.390864 7.98656 0.64199L7.97625 0.652302L0.484687 7.72855C0.331873 7.86907 0.209891 8.03978 0.126461 8.22988C0.0430305 8.41998 -3.15402e-05 8.62533 1.73323e-08 8.83293V17.5001C1.73323e-08 17.8979 0.158035 18.2795 0.43934 18.5608C0.720644 18.8421 1.10218 19.0001 1.5 19.0001H6C6.39782 19.0001 6.77936 18.8421 7.06066 18.5608C7.34196 18.2795 7.5 17.8979 7.5 17.5001V13.0001H10.5V17.5001C10.5 17.8979 10.658 18.2795 10.9393 18.5608C11.2206 18.8421 11.6022 19.0001 12 19.0001H16.5C16.8978 19.0001 17.2794 18.8421 17.5607 18.5608C17.842 18.2795 18 17.8979 18 17.5001V8.83293C18 8.62533 17.957 8.41998 17.8735 8.22988C17.7901 8.03978 17.6681 7.86907 17.5153 7.72855ZM16.5 17.5001H12V13.0001C12 12.6023 11.842 12.2208 11.5607 11.9395C11.2794 11.6582 10.8978 11.5001 10.5 11.5001H7.5C7.10218 11.5001 6.72064 11.6582 6.43934 11.9395C6.15804 12.2208 6 12.6023 6 13.0001V17.5001H1.5V8.83293L1.51031 8.82355L9 1.75011L16.4906 8.82168L16.5009 8.83105L16.5 17.5001Z" fill="#CCCCCC"/>
</svg>
