<svg width="16" height="20" viewBox="0 0 16 20" fill="none" xmlns="http://www.w3.org/2000/svg">
<path d="M11 3.25H2C1.60218 3.25 1.22064 3.40804 0.93934 3.68934C0.658035 3.97064 0.5 4.35218 0.5 4.75V19C0.499997 19.1378 0.537961 19.2729 0.609725 19.3906C0.681489 19.5082 0.784279 19.6038 0.90681 19.6669C1.02934 19.7299 1.16688 19.758 1.30432 19.748C1.44177 19.7381 1.5738 19.6904 1.68594 19.6103L6.5 16.1716L11.315 19.6103C11.4271 19.6901 11.5591 19.7376 11.6964 19.7474C11.8337 19.7573 11.971 19.7291 12.0934 19.6661C12.2158 19.6031 12.3184 19.5076 12.3902 19.3901C12.4619 19.2726 12.4999 19.1377 12.5 19V4.75C12.5 4.35218 12.342 3.97064 12.0607 3.68934C11.7794 3.40804 11.3978 3.25 11 3.25ZM11 17.5431L6.935 14.6369C6.8078 14.546 6.65538 14.4972 6.49906 14.4972C6.34274 14.4972 6.19033 14.546 6.06312 14.6369L2 17.5422V4.75H11V17.5431ZM15.5 1.75V16C15.5 16.1989 15.421 16.3897 15.2803 16.5303C15.1397 16.671 14.9489 16.75 14.75 16.75C14.5511 16.75 14.3603 16.671 14.2197 16.5303C14.079 16.3897 14 16.1989 14 16V1.75H4.25C4.05109 1.75 3.86032 1.67098 3.71967 1.53033C3.57902 1.38968 3.5 1.19891 3.5 1C3.5 0.801088 3.57902 0.610322 3.71967 0.46967C3.86032 0.329018 4.05109 0.25 4.25 0.25H14C14.3978 0.25 14.7794 0.408035 15.0607 0.68934C15.342 0.970644 15.5 1.35218 15.5 1.75Z" fill="#CCCCCC"/>
</svg>
