<svg width="61" height="61" viewBox="0 0 61 61" fill="none" xmlns="http://www.w3.org/2000/svg">
<g clip-path="url(#clip0_875_13013)">
<rect width="61" height="61" fill="#F7931A"/>
<path d="M30.5 61C47.3447 61 61 47.3447 61 30.5C61 13.6553 47.3447 0 30.5 0C13.6553 0 0 13.6553 0 30.5C0 47.3447 13.6553 61 30.5 61Z" fill="#F7931A"/>
<path d="M44.204 26.7256C44.8026 22.7301 41.7583 20.5818 37.5989 19.1483L38.9485 13.7345L35.6545 12.9148L34.3392 18.1856C33.4737 17.9683 32.5854 17.7662 31.699 17.5642L33.0239 12.2591L29.7299 11.4375L28.3802 16.8493C27.6635 16.6854 26.9582 16.5253 26.2757 16.3537L26.2795 16.3366L21.735 15.2023L20.8582 18.7213C20.8582 18.7213 23.3039 19.2817 23.2524 19.316C24.5868 19.6496 24.827 20.5322 24.7869 21.2337L23.2505 27.4004C23.342 27.4233 23.4602 27.4576 23.5936 27.5091L23.2448 27.4233L21.0907 36.0624C20.9268 36.4666 20.5131 37.0747 19.5791 36.844C19.6134 36.8917 17.1848 36.2473 17.1848 36.2473L15.5493 40.0179L19.8383 41.0873C20.6351 41.2875 21.4167 41.4972 22.1849 41.6935L20.8219 47.1682L24.114 47.9879L25.4637 42.5742C26.3634 42.8163 27.2365 43.0412 28.0905 43.2547L26.7447 48.6456L30.0387 49.4653L31.4016 44.002C37.0213 45.0657 41.2455 44.6367 43.024 39.5547C44.4575 35.4639 42.9535 33.102 39.9969 31.5637C42.151 31.0681 43.7713 29.6517 44.204 26.7256V26.7256ZM36.6743 37.2824C35.6583 41.3752 28.7672 39.162 26.5331 38.6073L28.344 31.354C30.5781 31.9125 37.7399 33.0162 36.6743 37.2824ZM37.6942 26.6665C36.7658 30.3894 31.0318 28.4965 29.1732 28.0333L30.8126 21.4567C32.6712 21.92 38.6625 22.7835 37.6942 26.6665Z" fill="white"/>
</g>
<defs>
<clipPath id="clip0_875_13013">
<rect width="61" height="61" fill="white"/>
</clipPath>
</defs>
</svg>
