<svg width="8" height="10" viewBox="0 0 8 10" fill="none" xmlns="http://www.w3.org/2000/svg">
<path d="M7.64031 6.01531L4.26531 9.39031C4.23048 9.42518 4.18912 9.45284 4.1436 9.47171C4.09807 9.49058 4.04928 9.50029 3.99999 9.50029C3.95071 9.50029 3.90192 9.49058 3.85639 9.47171C3.81087 9.45284 3.76951 9.42518 3.73468 9.39031L0.359682 6.01531C0.289317 5.94495 0.249786 5.84951 0.249786 5.75C0.249786 5.65049 0.289317 5.55505 0.359682 5.48469C0.430048 5.41432 0.525483 5.37479 0.624995 5.37479C0.724506 5.37479 0.819942 5.41432 0.890307 5.48469L3.62499 8.21984V0.875C3.62499 0.775544 3.6645 0.680161 3.73483 0.609835C3.80516 0.539509 3.90054 0.5 3.99999 0.5C4.09945 0.5 4.19483 0.539509 4.26516 0.609835C4.33549 0.680161 4.37499 0.775544 4.37499 0.875V8.21984L7.10968 5.48469C7.18005 5.41432 7.27548 5.37479 7.37499 5.37479C7.47451 5.37479 7.56994 5.41432 7.64031 5.48469C7.71067 5.55505 7.7502 5.65049 7.7502 5.75C7.7502 5.84951 7.71067 5.94495 7.64031 6.01531Z" fill="#676564"/>
<path d="M7.64031 6.01531L4.26531 9.39031C4.23048 9.42518 4.18912 9.45284 4.1436 9.47171C4.09807 9.49058 4.04928 9.50029 3.99999 9.50029C3.95071 9.50029 3.90192 9.49058 3.85639 9.47171C3.81087 9.45284 3.76951 9.42518 3.73468 9.39031L0.359682 6.01531C0.289317 5.94495 0.249786 5.84951 0.249786 5.75C0.249786 5.65049 0.289317 5.55505 0.359682 5.48469C0.430048 5.41432 0.525483 5.37479 0.624995 5.37479C0.724506 5.37479 0.819942 5.41432 0.890307 5.48469L3.62499 8.21984V0.875C3.62499 0.775544 3.6645 0.680161 3.73483 0.609835C3.80516 0.539509 3.90054 0.5 3.99999 0.5C4.09945 0.5 4.19483 0.539509 4.26516 0.609835C4.33549 0.680161 4.37499 0.775544 4.37499 0.875V8.21984L7.10968 5.48469C7.18005 5.41432 7.27548 5.37479 7.37499 5.37479C7.47451 5.37479 7.56994 5.41432 7.64031 5.48469C7.71067 5.55505 7.7502 5.65049 7.7502 5.75C7.7502 5.84951 7.71067 5.94495 7.64031 6.01531Z" fill="white" fill-opacity="0.4"/>
</svg>
