<svg width="16" height="14" viewBox="0 0 16 14" fill="none" xmlns="http://www.w3.org/2000/svg">
<path d="M13.5447 1.91719C12.5249 1.44927 11.4313 1.10453 10.2879 0.907078C10.2671 0.903268 10.2463 0.912791 10.2356 0.931837C10.0949 1.18198 9.93915 1.50831 9.83006 1.76481C8.60027 1.5807 7.37679 1.5807 6.17221 1.76481C6.0631 1.50261 5.90166 1.18198 5.76038 0.931837C5.74966 0.913426 5.72886 0.903903 5.70803 0.907078C4.56527 1.1039 3.47171 1.44864 2.45129 1.91719C2.44246 1.921 2.43488 1.92736 2.42986 1.9356C0.355594 5.03451 -0.212633 8.05725 0.0661201 11.0425C0.0673814 11.0571 0.0755799 11.0711 0.086932 11.08C1.45547 12.085 2.78114 12.6951 4.08219 13.0995C4.10301 13.1059 4.12507 13.0983 4.13832 13.0811C4.44608 12.6609 4.72043 12.2177 4.95565 11.7517C4.96953 11.7244 4.95628 11.692 4.92791 11.6812C4.49275 11.5161 4.0784 11.3149 3.67982 11.0863C3.64829 11.0679 3.64577 11.0228 3.67477 11.0012C3.75865 10.9384 3.84255 10.873 3.92264 10.807C3.93713 10.7949 3.95732 10.7923 3.97435 10.8C6.59286 11.9955 9.4277 11.9955 12.0153 10.8C12.0323 10.7917 12.0525 10.7943 12.0677 10.8063C12.1478 10.8723 12.2316 10.9384 12.3161 11.0012C12.3451 11.0228 12.3433 11.0679 12.3117 11.0863C11.9131 11.3193 11.4988 11.5161 11.063 11.6806C11.0346 11.6914 11.022 11.7244 11.0359 11.7517C11.2762 12.217 11.5505 12.6602 11.8526 13.0805C11.8652 13.0983 11.8879 13.1059 11.9087 13.0995C13.2161 12.6951 14.5417 12.085 15.9103 11.08C15.9223 11.0711 15.9298 11.0577 15.9311 11.0431C16.2647 7.59185 15.3723 4.5939 13.5655 1.93623C13.5611 1.92736 13.5535 1.921 13.5447 1.91719ZM5.34668 9.2248C4.55833 9.2248 3.90876 8.50103 3.90876 7.61218C3.90876 6.72332 4.54574 5.99956 5.34668 5.99956C6.15392 5.99956 6.79721 6.72968 6.78459 7.61218C6.78459 8.50103 6.14761 9.2248 5.34668 9.2248ZM10.6632 9.2248C9.87484 9.2248 9.22526 8.50103 9.22526 7.61218C9.22526 6.72332 9.86222 5.99956 10.6632 5.99956C11.4704 5.99956 12.1137 6.72968 12.1011 7.61218C12.1011 8.50103 11.4704 9.2248 10.6632 9.2248Z" fill="#BBBBBB"/>
</svg>
