<svg width="12" height="12" viewBox="0 0 12 12" fill="none" xmlns="http://www.w3.org/2000/svg">
<path d="M5.875 11.75C2.63 11.75 0 9.12 0 5.875C0 2.63 2.63 0 5.875 0C9.12 0 11.75 2.63 11.75 5.875C11.75 7.43315 11.131 8.92748 10.0293 10.0293C8.92748 11.131 7.43315 11.75 5.875 11.75ZM5.525 3.695C5.20355 3.71094 4.89968 3.84646 4.67303 4.07496C4.44638 4.30346 4.31333 4.60843 4.3 4.93C4.3 5.535 4.67 5.93 5.455 6.095L6.005 6.225C6.54 6.35 6.76 6.53 6.76 6.835C6.76 7.14 6.375 7.44 5.875 7.44C5.6974 7.45628 5.5188 7.42225 5.35964 7.34178C5.20048 7.26132 5.06718 7.13767 4.975 6.985C4.94769 6.92707 4.90457 6.87803 4.85061 6.84353C4.79665 6.80903 4.73404 6.79048 4.67 6.79H4.375C4.35231 6.7942 4.33068 6.80285 4.31135 6.81544C4.29202 6.82804 4.27537 6.84433 4.26236 6.86338C4.24935 6.88243 4.24023 6.90387 4.23554 6.92646C4.23084 6.94905 4.23066 6.97234 4.235 6.995C4.30686 7.28828 4.47393 7.54945 4.71007 7.73764C4.94621 7.92583 5.23808 8.0304 5.54 8.035V8.455C5.54 8.54849 5.57714 8.63815 5.64324 8.70426C5.70935 8.77036 5.79901 8.8075 5.8925 8.8075C5.98599 8.8075 6.07565 8.77036 6.14176 8.70426C6.20786 8.63815 6.245 8.54849 6.245 8.455V8.03C6.58639 8.02613 6.91279 7.88913 7.15467 7.64818C7.39655 7.40724 7.53481 7.08137 7.54 6.74C7.54 6.105 7.175 5.74 6.31 5.555L5.81 5.445C5.31 5.32 5.075 5.155 5.075 4.875C5.075 4.595 5.375 4.285 5.875 4.285C6.03247 4.26855 6.19133 4.29804 6.3324 4.36991C6.47348 4.44178 6.59073 4.55295 6.67 4.69C6.70213 4.75844 6.75301 4.81638 6.81672 4.85708C6.88044 4.89779 6.95439 4.91961 7.03 4.92H7.265C7.31843 4.90693 7.3646 4.87342 7.39358 4.82667C7.42257 4.77992 7.43205 4.72367 7.42 4.67C7.35226 4.39922 7.20073 4.15674 6.98704 3.97717C6.77335 3.7976 6.5084 3.69009 6.23 3.67V3.325C6.23 3.23151 6.19286 3.14185 6.12675 3.07574C6.06065 3.00964 5.97099 2.9725 5.8775 2.9725C5.78401 2.9725 5.69435 3.00964 5.62824 3.07574C5.56214 3.14185 5.525 3.23151 5.525 3.325V3.695ZM1.47 5.875C1.47057 6.79603 1.76049 7.69361 2.29879 8.44096C2.8371 9.18831 3.59659 9.74766 4.47 10.04H4.54C4.59967 10.04 4.6569 10.0163 4.6991 9.9741C4.74129 9.9319 4.765 9.87467 4.765 9.815V9.71C4.76516 9.61693 4.73769 9.5259 4.68606 9.44846C4.63444 9.37101 4.56098 9.31065 4.475 9.275C3.7948 9.00045 3.21217 8.52889 2.80189 7.92084C2.39161 7.3128 2.1724 6.59602 2.1724 5.8625C2.1724 5.12898 2.39161 4.4122 2.80189 3.80416C3.21217 3.19611 3.7948 2.72455 4.475 2.45C4.56058 2.41524 4.63387 2.35577 4.68552 2.27919C4.73717 2.2026 4.76484 2.11237 4.765 2.02V1.905C4.76532 1.87123 4.7575 1.83789 4.74219 1.80779C4.72689 1.77769 4.70455 1.75173 4.67707 1.7321C4.64959 1.71248 4.61779 1.69976 4.58435 1.69505C4.55092 1.69033 4.51684 1.69374 4.485 1.705C3.60798 1.99505 2.84465 2.55405 2.30342 3.30262C1.76218 4.05119 1.47057 4.95126 1.47 5.875ZM10.28 5.875C10.2784 4.95482 9.98798 4.05836 9.44975 3.31201C8.91152 2.56566 8.1526 2.00707 7.28 1.715H7.205C7.14267 1.715 7.0829 1.73976 7.03883 1.78383C6.99476 1.8279 6.97 1.88767 6.97 1.95V2.025C6.97202 2.12143 7.00188 2.21523 7.056 2.29507C7.11012 2.37492 7.18617 2.4374 7.275 2.475C7.95365 2.75036 8.5347 3.22195 8.94379 3.82942C9.35289 4.43689 9.57142 5.15262 9.57142 5.885C9.57142 6.61738 9.35289 7.33311 8.94379 7.94058C8.5347 8.54805 7.95365 9.01964 7.275 9.295C7.18787 9.33299 7.11337 9.39502 7.06024 9.47384C7.0071 9.55265 6.97754 9.64498 6.975 9.74V9.825C6.97543 9.86207 6.98462 9.89851 7.00182 9.93135C7.01902 9.96418 7.04375 9.99249 7.07398 10.0139C7.10421 10.0354 7.13909 10.0494 7.17576 10.0548C7.21244 10.0602 7.24987 10.0568 7.285 10.045C8.15828 9.75153 8.91727 9.19106 9.4547 8.44279C9.99213 7.69451 10.2808 6.79627 10.28 5.875Z" fill="#CCCCCC"/>
</svg>
