<svg width="20" height="20" viewBox="0 0 20 20" fill="none" xmlns="http://www.w3.org/2000/svg">
<g id="exps">
<path id="Exclude" fill-rule="evenodd" clip-rule="evenodd" d="M4.81803 7.80858V12.2442H7.55788V11.4543H5.71305V10.3485H7.34478V9.595H5.71305V8.59849H7.55788V7.80858H4.81803ZM9.29683 9.9535L8.10347 12.2442H9.08373L9.61952 11.1505C9.66417 11.0614 9.7007 10.9784 9.72912 10.9014C9.75753 10.8244 9.77783 10.7657 9.79 10.7252C9.80624 10.7657 9.83059 10.8244 9.86307 10.9014C9.89554 10.9784 9.93207 11.0614 9.97266 11.1505L10.5085 12.2442H11.5131L10.3197 9.9535L11.4339 7.80858H10.4537L9.97875 8.78078C9.93816 8.8699 9.90366 8.95092 9.87524 9.02383C9.84683 9.09675 9.82856 9.14941 9.82045 9.18181C9.81233 9.14941 9.79203 9.09675 9.75956 9.02383C9.73115 8.95092 9.69462 8.8699 9.64997 8.78078L9.18724 7.80858H8.18262L9.29683 9.9535ZM12.0343 12.2442V7.80858H13.5504C13.8629 7.80858 14.1349 7.86732 14.3662 7.98479C14.6016 8.10227 14.7823 8.26632 14.9081 8.47697C15.038 8.68761 15.1029 8.93471 15.1029 9.21827C15.1029 9.49778 15.038 9.74488 14.9081 9.95957C14.7782 10.1702 14.5976 10.3343 14.3662 10.4518C14.1349 10.5692 13.8629 10.628 13.5504 10.628H12.9476V12.2442H12.0343ZM12.9476 9.83805H13.5504C13.7452 9.83805 13.8994 9.77931 14.0131 9.66184C14.1308 9.54436 14.1897 9.39651 14.1897 9.21827C14.1897 9.04003 14.1308 8.89218 14.0131 8.7747C13.8994 8.65723 13.7452 8.59849 13.5504 8.59849H12.9476V9.83805ZM10.363 1.65738C10.1417 1.47586 9.82309 1.47586 9.60185 1.65738L9.09015 2.0772C8.91982 2.21694 8.6866 2.2521 8.48264 2.16876L7.86993 1.91842C7.60501 1.81018 7.30052 1.9041 7.14261 2.14277L6.77739 2.69477C6.65581 2.87851 6.44332 2.98084 6.22386 2.96133L5.56458 2.90271C5.27953 2.87736 5.01625 3.05686 4.9357 3.33147L4.7494 3.96659C4.68739 4.17801 4.5145 4.33843 4.29904 4.38447L3.65177 4.52278C3.37191 4.58258 3.17324 4.83171 3.17721 5.11786L3.1864 5.77968C3.18946 5.99998 3.07153 6.20424 2.87921 6.31174L2.30147 6.63469C2.05167 6.77432 1.93525 7.07094 2.0234 7.34321L2.22725 7.97292C2.29511 8.18253 2.24262 8.41247 2.09054 8.57188L1.63366 9.05077C1.43611 9.25784 1.4123 9.57559 1.57678 9.80979L1.95718 10.3514C2.08381 10.5317 2.10143 10.7669 2.00309 10.9641L1.70766 11.5564C1.57993 11.8125 1.65083 12.1231 1.87703 12.2984L2.40019 12.7039C2.57434 12.8388 2.6605 13.0584 2.62464 13.2758L2.51692 13.9288C2.47034 14.2112 2.62967 14.4871 2.89749 14.588L3.51691 14.8212C3.7231 14.8989 3.87016 15.0833 3.89997 15.3016L3.98952 15.9573C4.02824 16.2409 4.26182 16.4576 4.54747 16.4751L5.20812 16.5153C5.42804 16.5288 5.62291 16.6616 5.71574 16.8614L5.99461 17.4617C6.11519 17.7212 6.40228 17.8595 6.68038 17.7919L7.32355 17.6357C7.53765 17.5837 7.76303 17.6532 7.91063 17.8168L8.35404 18.3082C8.54576 18.5207 8.86085 18.5682 9.10668 18.4216L9.67523 18.0828C9.86449 17.97 10.1003 17.97 10.2896 18.0828L10.8582 18.4216C11.104 18.5682 11.4191 18.5207 11.6108 18.3082L12.0542 17.8168C12.2018 17.6532 12.4272 17.5837 12.6413 17.6357L13.2845 17.7919C13.5626 17.8595 13.8496 17.7212 13.9702 17.4617L14.2491 16.8614C14.3419 16.6616 14.5368 16.5288 14.7567 16.5153L15.4174 16.4751C15.703 16.4576 15.9366 16.2409 15.9753 15.9573L16.0649 15.3016C16.0947 15.0833 16.2417 14.8989 16.4479 14.8212L17.0673 14.588C17.3352 14.4871 17.4945 14.2112 17.4479 13.9288L17.3402 13.2758C17.3043 13.0584 17.3905 12.8388 17.5646 12.7039L18.0878 12.2984C18.314 12.1231 18.3849 11.8125 18.2572 11.5564L17.9617 10.9641C17.8634 10.7669 17.881 10.5317 18.0077 10.3514L18.3881 9.80979C18.5525 9.57559 18.5287 9.25784 18.3312 9.05077L17.8743 8.57188C17.7222 8.41247 17.6697 8.18253 17.7376 7.97292L17.9414 7.34321C18.0296 7.07094 17.9132 6.77432 17.6634 6.63469L17.0856 6.31174C16.8933 6.20424 16.7754 5.99998 16.7784 5.77968L16.7876 5.11786C16.7916 4.83171 16.5929 4.58258 16.3131 4.52278L15.6658 4.38447C15.4503 4.33843 15.2774 4.17801 15.2154 3.96659L15.0291 3.33148C14.9486 3.05686 14.6853 2.87736 14.4003 2.90271L13.741 2.96133C13.5215 2.98084 13.309 2.87851 13.1874 2.69477L12.8222 2.14277C12.6643 1.9041 12.3598 1.81018 12.0949 1.91842L11.4822 2.16876C11.2782 2.2521 11.045 2.21694 10.8747 2.0772L10.363 1.65738ZM9.95074 16.5967C13.5794 16.5967 16.5211 13.6551 16.5211 10.0264C16.5211 6.39769 13.5794 3.45605 9.95074 3.45605C6.32204 3.45605 3.3804 6.39769 3.3804 10.0264C3.3804 13.6551 6.32204 16.5967 9.95074 16.5967ZM9.95074 16.9967C13.8004 16.9967 16.9211 13.876 16.9211 10.0264C16.9211 6.17677 13.8004 3.05605 9.95074 3.05605C6.10113 3.05605 2.9804 6.17677 2.9804 10.0264C2.9804 13.876 6.10113 16.9967 9.95074 16.9967Z" fill="url(#paint0_linear_26573_52372)"/>
</g>
<defs>
<linearGradient id="paint0_linear_26573_52372" x1="1.46777" y1="1.52124" x2="18.1489" y2="18.0367" gradientUnits="userSpaceOnUse">
<stop stop-color="#FFD64D"/>
<stop offset="1" stop-color="#FFAD33"/>
</linearGradient>
</defs>
</svg>
