<svg width="15" height="16" viewBox="0 0 15 16" fill="none" xmlns="http://www.w3.org/2000/svg">
<path d="M10.5117 9.17188C10.4107 9.81 10.1103 10.3998 9.65347 10.8566C9.19663 11.3134 8.60687 11.6139 7.96875 11.7148" stroke="#D8D8D8" stroke-width="1.5" stroke-linecap="round" stroke-linejoin="round"/>
<path d="M10.5117 9.17188C10.4107 9.81 10.1103 10.3998 9.65347 10.8566C9.19663 11.3134 8.60687 11.6139 7.96875 11.7148" stroke="black" stroke-opacity="0.2" stroke-width="1.5" stroke-linecap="round" stroke-linejoin="round"/>
<path d="M4.21875 4.33203C3.31641 5.69141 2.57812 7.25 2.57812 8.70312C2.57813 10.0085 3.09668 11.2604 4.01971 12.1834C4.94274 13.1064 6.19464 13.625 7.5 13.625C8.80536 13.625 10.0573 13.1064 10.9803 12.1834C11.9033 11.2604 12.4219 10.0085 12.4219 8.70312C12.4219 5.65625 10.3125 3.3125 8.60156 1.60742L6.5625 5.89062L4.21875 4.33203Z" stroke="#D8D8D8" stroke-width="1.5" stroke-linecap="round" stroke-linejoin="round"/>
<path d="M4.21875 4.33203C3.31641 5.69141 2.57812 7.25 2.57812 8.70312C2.57813 10.0085 3.09668 11.2604 4.01971 12.1834C4.94274 13.1064 6.19464 13.625 7.5 13.625C8.80536 13.625 10.0573 13.1064 10.9803 12.1834C11.9033 11.2604 12.4219 10.0085 12.4219 8.70312C12.4219 5.65625 10.3125 3.3125 8.60156 1.60742L6.5625 5.89062L4.21875 4.33203Z" stroke="black" stroke-opacity="0.2" stroke-width="1.5" stroke-linecap="round" stroke-linejoin="round"/>
</svg>
