<svg width="18" height="18" viewBox="0 0 18 18" fill="none" xmlns="http://www.w3.org/2000/svg">
<path d="M17.0306 14.0306L14.0306 17.0306C13.8899 17.1713 13.699 17.2503 13.5 17.2503C13.301 17.2503 13.1101 17.1713 12.9694 17.0306C12.8286 16.8898 12.7496 16.699 12.7496 16.4999C12.7496 16.3009 12.8286 16.11 12.9694 15.9693L14.6897 14.2499H1.49998C1.30107 14.2499 1.1103 14.1709 0.96965 14.0303C0.828998 13.8896 0.74998 13.6988 0.74998 13.4999C0.74998 13.301 0.828998 13.1103 0.96965 12.9696C1.1103 12.8289 1.30107 12.7499 1.49998 12.7499H14.6897L12.9694 11.0306C12.8286 10.8898 12.7496 10.699 12.7496 10.4999C12.7496 10.3009 12.8286 10.11 12.9694 9.9693C13.1101 9.82857 13.301 9.74951 13.5 9.74951C13.699 9.74951 13.8899 9.82857 14.0306 9.9693L17.0306 12.9693C17.1003 13.039 17.1557 13.1217 17.1934 13.2127C17.2311 13.3038 17.2506 13.4014 17.2506 13.4999C17.2506 13.5985 17.2311 13.6961 17.1934 13.7871C17.1557 13.8782 17.1003 13.9609 17.0306 14.0306ZM3.96935 8.03055C4.11009 8.17128 4.30096 8.25035 4.49998 8.25035C4.699 8.25035 4.88987 8.17128 5.03061 8.03055C5.17134 7.88982 5.2504 7.69895 5.2504 7.49993C5.2504 7.30091 5.17134 7.11003 5.03061 6.9693L3.31029 5.24993H16.5C16.6989 5.24993 16.8897 5.17091 17.0303 5.03026C17.171 4.88961 17.25 4.69884 17.25 4.49993C17.25 4.30102 17.171 4.11025 17.0303 3.9696C16.8897 3.82895 16.6989 3.74993 16.5 3.74993H3.31029L5.03061 2.03055C5.17134 1.88982 5.2504 1.69895 5.2504 1.49993C5.2504 1.30091 5.17133 1.11003 5.0306 0.969304C4.88987 0.828573 4.699 0.749512 4.49998 0.749512C4.30096 0.749512 4.11009 0.828573 3.96935 0.969304L0.969355 3.9693C0.899622 4.03896 0.844303 4.12168 0.80656 4.21272C0.768817 4.30377 0.74939 4.40137 0.74939 4.49993C0.74939 4.59849 0.768817 4.69609 0.80656 4.78713C0.844303 4.87818 0.899622 4.9609 0.969355 5.03055L3.96935 8.03055Z" fill="#BBBBBB"/>
</svg>
