<svg width="10" height="11" viewBox="0 0 10 11" fill="none" xmlns="http://www.w3.org/2000/svg">
<path d="M5 1.4375C4.19652 1.4375 3.41107 1.67576 2.743 2.12215C2.07492 2.56855 1.55422 3.20302 1.24674 3.94535C0.93926 4.68767 0.858809 5.50451 1.01556 6.29255C1.17231 7.0806 1.55923 7.80447 2.12738 8.37262C2.69553 8.94077 3.4194 9.32769 4.20745 9.48444C4.9955 9.64119 5.81233 9.56074 6.55465 9.25326C7.29698 8.94578 7.93145 8.42508 8.37785 7.757C8.82424 7.08893 9.0625 6.30349 9.0625 5.5C9.06044 4.42319 8.63176 3.39108 7.87034 2.62966C7.10892 1.86824 6.07681 1.43956 5 1.4375ZM4.92188 3.3125C5.01459 3.3125 5.10521 3.33999 5.1823 3.3915C5.25939 3.44301 5.31947 3.51621 5.35495 3.60187C5.39042 3.68752 5.39971 3.78177 5.38162 3.8727C5.36353 3.96363 5.31889 4.04715 5.25333 4.11271C5.18778 4.17826 5.10425 4.22291 5.01333 4.24099C4.9224 4.25908 4.82815 4.2498 4.74249 4.21432C4.65684 4.17884 4.58363 4.11876 4.53213 4.04167C4.48062 3.96459 4.45313 3.87396 4.45313 3.78125C4.45313 3.65693 4.50251 3.5377 4.59042 3.44979C4.67833 3.36189 4.79756 3.3125 4.92188 3.3125ZM5.3125 7.6875H5C4.91712 7.6875 4.83764 7.65458 4.77903 7.59597C4.72043 7.53737 4.6875 7.45788 4.6875 7.375V5.5C4.60462 5.5 4.52514 5.46708 4.46653 5.40847C4.40793 5.34987 4.375 5.27038 4.375 5.1875C4.375 5.10462 4.40793 5.02513 4.46653 4.96653C4.52514 4.90792 4.60462 4.875 4.6875 4.875H5C5.08288 4.875 5.16237 4.90792 5.22097 4.96653C5.27958 5.02513 5.3125 5.10462 5.3125 5.1875V7.0625C5.39538 7.0625 5.47487 7.09542 5.53347 7.15403C5.59208 7.21263 5.625 7.29212 5.625 7.375C5.625 7.45788 5.59208 7.53737 5.53347 7.59597C5.47487 7.65458 5.39538 7.6875 5.3125 7.6875Z" fill="#D8D8D8"/>
<path d="M5 1.4375C4.19652 1.4375 3.41107 1.67576 2.743 2.12215C2.07492 2.56855 1.55422 3.20302 1.24674 3.94535C0.93926 4.68767 0.858809 5.50451 1.01556 6.29255C1.17231 7.0806 1.55923 7.80447 2.12738 8.37262C2.69553 8.94077 3.4194 9.32769 4.20745 9.48444C4.9955 9.64119 5.81233 9.56074 6.55465 9.25326C7.29698 8.94578 7.93145 8.42508 8.37785 7.757C8.82424 7.08893 9.0625 6.30349 9.0625 5.5C9.06044 4.42319 8.63176 3.39108 7.87034 2.62966C7.10892 1.86824 6.07681 1.43956 5 1.4375ZM4.92188 3.3125C5.01459 3.3125 5.10521 3.33999 5.1823 3.3915C5.25939 3.44301 5.31947 3.51621 5.35495 3.60187C5.39042 3.68752 5.39971 3.78177 5.38162 3.8727C5.36353 3.96363 5.31889 4.04715 5.25333 4.11271C5.18778 4.17826 5.10425 4.22291 5.01333 4.24099C4.9224 4.25908 4.82815 4.2498 4.74249 4.21432C4.65684 4.17884 4.58363 4.11876 4.53213 4.04167C4.48062 3.96459 4.45313 3.87396 4.45313 3.78125C4.45313 3.65693 4.50251 3.5377 4.59042 3.44979C4.67833 3.36189 4.79756 3.3125 4.92188 3.3125ZM5.3125 7.6875H5C4.91712 7.6875 4.83764 7.65458 4.77903 7.59597C4.72043 7.53737 4.6875 7.45788 4.6875 7.375V5.5C4.60462 5.5 4.52514 5.46708 4.46653 5.40847C4.40793 5.34987 4.375 5.27038 4.375 5.1875C4.375 5.10462 4.40793 5.02513 4.46653 4.96653C4.52514 4.90792 4.60462 4.875 4.6875 4.875H5C5.08288 4.875 5.16237 4.90792 5.22097 4.96653C5.27958 5.02513 5.3125 5.10462 5.3125 5.1875V7.0625C5.39538 7.0625 5.47487 7.09542 5.53347 7.15403C5.59208 7.21263 5.625 7.29212 5.625 7.375C5.625 7.45788 5.59208 7.53737 5.53347 7.59597C5.47487 7.65458 5.39538 7.6875 5.3125 7.6875Z" fill="white" fill-opacity="0.2"/>
</svg>
