<svg width="10" height="6" viewBox="0 0 10 6" fill="none" xmlns="http://www.w3.org/2000/svg">
<path d="M8.94875 5.19875C8.89602 5.25142 8.82454 5.281 8.75 5.281C8.67547 5.281 8.60399 5.25142 8.55125 5.19875L5 1.64797L1.44875 5.19875C1.39544 5.24843 1.32492 5.27547 1.25206 5.27419C1.17919 5.2729 1.10968 5.24338 1.05815 5.19185C1.00662 5.14033 0.977098 5.07081 0.975813 4.99794C0.974527 4.92508 1.00157 4.85456 1.05125 4.80125L4.80125 1.05125C4.85399 0.998578 4.92547 0.968994 5 0.968994C5.07454 0.968994 5.14602 0.998578 5.19875 1.05125L8.94875 4.80125C9.00142 4.85398 9.03101 4.92547 9.03101 5C9.03101 5.07453 9.00142 5.14601 8.94875 5.19875Z" fill="#676564"/>
<path d="M8.94875 5.19875C8.89602 5.25142 8.82454 5.281 8.75 5.281C8.67547 5.281 8.60399 5.25142 8.55125 5.19875L5 1.64797L1.44875 5.19875C1.39544 5.24843 1.32492 5.27547 1.25206 5.27419C1.17919 5.2729 1.10968 5.24338 1.05815 5.19185C1.00662 5.14033 0.977098 5.07081 0.975813 4.99794C0.974527 4.92508 1.00157 4.85456 1.05125 4.80125L4.80125 1.05125C4.85399 0.998578 4.92547 0.968994 5 0.968994C5.07454 0.968994 5.14602 0.998578 5.19875 1.05125L8.94875 4.80125C9.00142 4.85398 9.03101 4.92547 9.03101 5C9.03101 5.07453 9.00142 5.14601 8.94875 5.19875Z" fill="white" fill-opacity="0.6"/>
</svg>
