<svg width="29" height="32" viewBox="0 0 29 32" fill="none" xmlns="http://www.w3.org/2000/svg">
<g id="Secondary Graphic Container">
<path id="Vector" fill-rule="evenodd" clip-rule="evenodd" d="M14.8675 31.9094L28.0317 24.2194C28.1335 24.1599 28.218 24.0745 28.2767 23.9718C28.3354 23.869 28.3663 23.7525 28.3661 23.634L28.3346 8.3088C28.3343 8.19017 28.303 8.07372 28.2438 7.97111C28.1847 7.8685 28.0999 7.78334 27.9978 7.72417L14.802 0.0905643C14.7 0.0312345 14.5842 0 14.4664 0C14.3485 0 14.2327 0.0312345 14.1307 0.0905643L0.9665 7.78136C0.864598 7.84069 0.780072 7.92608 0.721477 8.02889C0.662882 8.13169 0.632296 8.24826 0.632819 8.36679L0.664372 23.692C0.664446 23.8106 0.695641 23.927 0.754793 24.0295C0.813944 24.1321 0.898953 24.217 1.00121 24.2758L14.197 31.9094C14.2989 31.9688 14.4145 32 14.5322 32C14.6499 32 14.7656 31.9688 14.8675 31.9094ZM18.5869 13.6539L24.3762 10.2311C24.4266 10.201 24.4684 10.1582 24.4973 10.1069C24.5262 10.0556 24.5413 9.99752 24.5411 9.9385C24.5409 9.87948 24.5253 9.82155 24.4959 9.77046C24.4666 9.71937 24.4245 9.6769 24.3738 9.64726L14.8091 4.11469C14.7072 4.05535 14.5916 4.02411 14.4738 4.02411C14.3561 4.02411 14.2405 4.05535 14.1386 4.11469L4.42873 9.78548C4.32673 9.84496 4.2421 9.93048 4.18338 10.0334C4.12466 10.1363 4.09392 10.253 4.09426 10.3717L4.10294 13.6118C4.10301 13.7303 4.13412 13.8467 4.19312 13.9492C4.25212 14.0517 4.33693 14.1367 4.43898 14.1956L10.7119 17.8274C10.8142 17.8865 10.8992 17.9717 10.9584 18.0745C11.0175 18.1773 11.0487 18.294 11.0487 18.4128V21.6624C11.0486 21.7019 11.0383 21.7407 11.0186 21.7749C10.999 21.8091 10.9708 21.8375 10.9369 21.8573C10.903 21.877 10.8645 21.8875 10.8252 21.8876C10.786 21.8877 10.7475 21.8774 10.7134 21.8578L7.77973 20.1603C7.71179 20.1202 7.65558 20.0627 7.6168 19.9936C7.57801 19.9246 7.55802 19.8465 7.55886 19.7671L7.55491 18.7011C7.55443 18.5816 7.5225 18.4642 7.46236 18.3611C7.40223 18.258 7.31603 18.1728 7.21255 18.1141L4.59833 16.6374C4.54729 16.6086 4.48964 16.5937 4.43111 16.5943C4.37259 16.5948 4.31522 16.6108 4.26473 16.6406C4.21423 16.6704 4.17236 16.713 4.14329 16.7641C4.11421 16.8153 4.09894 16.8732 4.09899 16.9321V18.9569L4.10609 21.6783C4.10617 21.7969 4.13736 21.9133 4.19651 22.0159C4.25566 22.1184 4.34067 22.2034 4.44293 22.2622L13.8522 27.6891C13.9203 27.7284 13.9975 27.749 14.0759 27.7487C14.1544 27.7485 14.2314 27.7275 14.2993 27.6878C14.3672 27.6482 14.4235 27.5912 14.4625 27.5227C14.5016 27.4542 14.5221 27.3765 14.522 27.2975L14.5062 16.3761C14.5059 16.2575 14.4747 16.141 14.4155 16.0384C14.3564 15.9357 14.2715 15.8506 14.1694 15.7915L7.92961 12.1796C7.89552 12.1599 7.86719 12.1315 7.84749 12.0973C7.82779 12.063 7.81742 12.0242 7.81742 11.9846C7.81742 11.945 7.82779 11.9062 7.84749 11.8719C7.86719 11.8377 7.89552 11.8093 7.92961 11.7896L14.1504 8.16582C14.2525 8.10649 14.3682 8.07525 14.4861 8.07525C14.6039 8.07525 14.7197 8.10649 14.8217 8.16582L17.6355 9.7958C17.6696 9.81549 17.6979 9.84389 17.7176 9.87813C17.7373 9.91237 17.7477 9.95124 17.7477 9.99081C17.7477 10.0304 17.7373 10.0693 17.7176 10.1035C17.6979 10.1377 17.6696 10.1661 17.6355 10.1858L15.1554 11.6252C15.1034 11.6554 15.0604 11.6992 15.0309 11.7519C15.0014 11.8046 14.9865 11.8643 14.9878 11.9248C14.9891 11.9853 15.0065 12.0443 15.0382 12.0957C15.0699 12.1471 15.1147 12.189 15.168 12.2169L17.9384 13.6706C18.0391 13.7233 18.1514 13.7495 18.2648 13.7466C18.3782 13.7437 18.489 13.7118 18.5869 13.6539Z" fill="#0B0B0B"/>
<path id="Vector_2" d="M17.9199 18.1504L17.9254 21.9743C17.9256 22.0534 17.9463 22.131 17.9856 22.1994C18.025 22.2678 18.0815 22.3246 18.1495 22.364C18.2176 22.4035 18.2947 22.4242 18.3732 22.4241C18.4517 22.424 18.5288 22.4032 18.5968 22.3636L21.8783 20.4468C21.9801 20.3871 22.0645 20.3015 22.123 20.1986C22.1816 20.0958 22.2123 19.9792 22.212 19.8606L22.2041 16.0406C22.204 15.9616 22.1833 15.8839 22.1439 15.8155C22.1046 15.7471 22.0481 15.6903 21.98 15.6509C21.912 15.6115 21.8349 15.5907 21.7564 15.5908C21.6779 15.5909 21.6008 15.6118 21.5328 15.6514L18.2544 17.565C18.1524 17.6242 18.0678 17.7096 18.009 17.8124C17.9503 17.9152 17.9196 18.0318 17.9199 18.1504Z" fill="#FF4E1F"/>
</g>
</svg>
