<svg width="23" height="26" viewBox="0 0 23 26" fill="none" xmlns="http://www.w3.org/2000/svg">
<path d="M22.6463 6.74695C22.646 6.65069 22.6203 6.5562 22.5719 6.47303C22.5235 6.38985 22.454 6.32093 22.3705 6.27321L11.5838 0.0736577C11.5003 0.0254051 11.4055 0 11.3091 0C11.2127 0 11.118 0.0254051 11.0345 0.0736577L0.273466 6.32234C0.19019 6.37074 0.121089 6.4402 0.0730915 6.52376C0.0250944 6.60732 -0.000111673 6.70203 3.7192e-07 6.79842L0.025711 19.2513C0.0261586 19.3477 0.0518637 19.4423 0.100261 19.5256C0.148658 19.609 0.218054 19.6782 0.301515 19.7262L11.0882 25.9258C11.1716 25.9744 11.2664 26 11.3629 26C11.4594 26 11.5541 25.9744 11.6375 25.9258L22.3985 19.6771C22.4818 19.6287 22.5509 19.5593 22.5989 19.4757C22.6469 19.3921 22.6721 19.2974 22.672 19.201L22.6463 6.74695ZM19.4103 8.31087L14.676 11.0913C14.5959 11.1382 14.5052 11.1639 14.4124 11.1661C14.3196 11.1684 14.2278 11.1471 14.1455 11.1042L11.8829 9.9251C11.8392 9.90252 11.8024 9.86858 11.7764 9.82682C11.7503 9.78507 11.736 9.73706 11.7349 9.68785C11.7339 9.63863 11.7461 9.59004 11.7703 9.54719C11.7944 9.50434 11.8297 9.46881 11.8724 9.44434L13.9 8.27461C13.9277 8.25842 13.9506 8.23527 13.9665 8.20747C13.9825 8.17966 13.9908 8.14817 13.9908 8.11612C13.9908 8.08406 13.9825 8.05257 13.9665 8.02476C13.9506 7.99696 13.9277 7.9738 13.9 7.95761L11.6001 6.62998C11.5166 6.58172 11.4219 6.55632 11.3255 6.55632C11.2291 6.55632 11.1343 6.58172 11.0508 6.62998L5.96017 9.57769C5.93223 9.59364 5.90901 9.61671 5.89286 9.64455C5.8767 9.67238 5.86819 9.704 5.86819 9.73619C5.86819 9.76838 5.8767 9.8 5.89286 9.82784C5.90901 9.85567 5.93223 9.87873 5.96017 9.89468L11.0672 12.8295C11.1506 12.8776 11.2199 12.9468 11.2681 13.0301C11.3163 13.1135 11.3417 13.2081 11.3418 13.3044L11.3559 22.1792C11.3557 22.2412 11.3398 22.3021 11.3097 22.3564C11.2796 22.4106 11.2363 22.4563 11.1838 22.4892C11.1313 22.5221 11.0713 22.5412 11.0094 22.5447C10.9476 22.5482 10.8858 22.5359 10.83 22.509L3.1285 18.0793C3.04488 18.0314 2.97536 17.9622 2.92694 17.8788C2.87852 17.7955 2.85291 17.7008 2.8527 17.6044L2.84452 13.7653C2.84275 13.7118 2.85663 13.659 2.88445 13.6132C2.91227 13.5675 2.95282 13.5309 3.00112 13.508C3.0395 13.4913 3.08123 13.4838 3.12301 13.486C3.16479 13.4882 3.20548 13.5002 3.24186 13.5208L5.37583 14.7163C5.46035 14.7642 5.53077 14.8335 5.58001 14.9173C5.62925 15.0011 5.65557 15.0964 5.65631 15.1936V16.0603C5.65659 16.1244 5.67368 16.1873 5.70588 16.2428C5.73808 16.2982 5.78426 16.3442 5.83979 16.3761L8.23788 17.7553C8.26567 17.7713 8.29721 17.7797 8.3293 17.7797C8.36139 17.7797 8.3929 17.7711 8.42065 17.755C8.4484 17.7389 8.47139 17.7157 8.48732 17.6878C8.50325 17.6599 8.51153 17.6283 8.51135 17.5962V14.9608C8.51146 14.8642 8.48613 14.7694 8.43791 14.6858C8.38969 14.6022 8.32029 14.5329 8.23671 14.4847L3.10864 11.5335C3.02618 11.4861 2.95748 11.418 2.90932 11.336C2.86116 11.2539 2.8352 11.1607 2.834 11.0656V8.43019C2.83331 8.32143 2.86549 8.21501 2.92632 8.12489L2.95788 8.08278L2.99411 8.04418C3.02837 8.00883 3.06777 7.97885 3.11097 7.95528L11.0462 3.34889C11.1295 3.30063 11.224 3.27521 11.3202 3.27521C11.4165 3.27521 11.511 3.30063 11.5943 3.34889L19.4126 7.84532C19.4524 7.87 19.4851 7.90446 19.5078 7.94543C19.5304 7.98641 19.5422 8.03252 19.542 8.07934C19.5418 8.12617 19.5295 8.17215 19.5065 8.21289C19.4834 8.25364 19.4503 8.28777 19.4103 8.31205V8.31087Z" fill="white"/>
<path d="M14.1339 14.7467L14.1409 17.8593C14.141 17.9236 14.1581 17.9866 14.1903 18.0422C14.2225 18.0978 14.2688 18.1439 14.3244 18.1759C14.3801 18.2079 14.4432 18.2247 14.5074 18.2245C14.5716 18.2244 14.6346 18.2074 14.6901 18.1751L17.3722 16.6171C17.4555 16.5687 17.5246 16.4992 17.5726 16.4157C17.6206 16.3321 17.6458 16.2374 17.6457 16.141L17.6387 13.0365C17.6385 12.9723 17.6215 12.9092 17.5892 12.8536C17.557 12.7981 17.5107 12.752 17.4551 12.72C17.3994 12.688 17.3363 12.6712 17.2721 12.6713C17.208 12.6714 17.1449 12.6885 17.0894 12.7207L14.4097 14.2753C14.3266 14.323 14.2575 14.3916 14.2091 14.4743C14.1607 14.557 14.1348 14.6509 14.1339 14.7467Z" fill="#FF4E1F"/>
</svg>
