<svg width="95" height="23" viewBox="0 0 95 23" fill="none" xmlns="http://www.w3.org/2000/svg">
<path d="M35.0022 12.293C35.0121 13.1477 34.7853 13.9885 34.3471 14.7224C33.9089 15.4563 33.2763 16.0548 32.5192 16.4515C32.4531 16.4887 32.3846 16.5212 32.314 16.5488C32.1457 16.6212 31.976 16.6804 31.8011 16.7369C31.7511 16.7566 31.6985 16.7685 31.6446 16.7843C31.0105 16.9611 30.3551 17.0496 29.6968 17.0473C27.0191 17.0473 25.3291 16.1359 24.3743 14.68C24.3348 14.6189 24.3082 14.5504 24.296 14.4786C24.2838 14.4069 24.2863 14.3334 24.3034 14.2626C24.3205 14.1919 24.3518 14.1254 24.3955 14.0671C24.4391 14.0089 24.4941 13.9601 24.5571 13.9238L27.2151 12.3798C27.2577 12.355 27.3062 12.3419 27.3555 12.3419C27.4048 12.3418 27.4533 12.3548 27.496 12.3795C27.5387 12.4042 27.5742 12.4397 27.5987 12.4825C27.6233 12.5252 27.6361 12.5737 27.6359 12.6231V12.6297C27.6359 13.7252 28.4777 14.6024 29.5114 14.6024C29.7643 14.5979 30.0137 14.5429 30.2451 14.4409C30.4765 14.3388 30.6853 14.1916 30.8592 14.008C31.033 13.8243 31.1686 13.6078 31.2578 13.3711C31.347 13.1345 31.3882 12.8824 31.3789 12.6297C31.366 12.2422 31.2413 11.8668 31.0199 11.5486C30.7463 11.1724 30.3439 10.916 29.7744 10.6753C29.7706 10.6739 29.7664 10.6739 29.7626 10.6753C29.0129 10.3663 28.0884 10.1177 27.1954 9.76917L27.0047 9.69683C26.796 9.60915 26.5908 9.51665 26.3892 9.41933L26.3445 9.39434C25.647 8.9759 25.0715 8.3819 24.6753 7.6716C24.279 6.96131 24.076 6.15953 24.0863 5.34626C24.0862 5.03517 24.1153 4.72475 24.1731 4.41907C24.2053 4.2609 24.2462 4.1046 24.2954 3.95087C24.3443 3.78853 24.4014 3.62875 24.4664 3.47215C24.8479 2.56294 25.5119 1.80068 26.3602 1.29818C26.5015 1.21792 26.6473 1.1459 26.7969 1.0825L26.8245 1.07066C27.002 0.995694 27.3216 0.891796 27.3414 0.88522C27.9984 0.706883 28.6767 0.6184 29.3575 0.622187C31.5933 0.622187 33.349 1.4297 34.292 2.89348C34.331 2.95466 34.3571 3.02311 34.3689 3.09469C34.3807 3.16627 34.3778 3.23949 34.3605 3.30993C34.3431 3.38037 34.3117 3.44656 34.268 3.50451C34.2244 3.56246 34.1695 3.61095 34.1066 3.64707L32.0155 4.85439C31.9474 4.89437 31.8714 4.91879 31.7928 4.92588C31.7143 4.93296 31.6351 4.92255 31.561 4.89539C31.4869 4.86822 31.4198 4.82499 31.3644 4.76878C31.3091 4.71257 31.2669 4.64479 31.2408 4.57032C31.1183 4.19979 30.8751 3.881 30.5502 3.66479C30.2253 3.44859 29.8374 3.34743 29.4482 3.37746C29.1577 3.38994 28.8751 3.47632 28.6273 3.62844C28.3794 3.78056 28.1745 3.99338 28.0318 4.24678C27.8891 4.50909 27.8145 4.80302 27.8148 5.10164C27.8072 5.2221 27.8196 5.343 27.8516 5.45937C28.0173 6.28398 28.7367 6.62329 28.9827 6.75218L29.009 6.76533C29.8283 7.20985 30.9883 7.47289 32.0628 7.92925C32.0761 7.9328 32.089 7.93811 32.1009 7.94503C32.1273 7.95315 32.1528 7.96372 32.1772 7.97659C32.3219 8.04104 32.4666 8.10811 32.6073 8.17782C32.6412 8.19329 32.6742 8.21085 32.7059 8.23042C33.4122 8.64572 33.9965 9.24002 34.3996 9.95332C34.8028 10.6666 35.0107 11.4737 35.0022 12.293Z" fill="#313131"/>
<path d="M70.6011 9.94948V16.5082C70.6007 16.6417 70.5475 16.7696 70.4532 16.864C70.3588 16.9584 70.2308 17.0116 70.0974 17.0119H67.7892C67.6557 17.0119 67.5275 16.9589 67.4331 16.8644C67.3386 16.7699 67.2855 16.6418 67.2855 16.5082V10.7333C67.2855 10.6015 67.2781 10.4698 67.2632 10.3388C67.2632 10.319 67.2632 10.2993 67.2632 10.2783C67.2632 10.2572 67.2632 10.2099 67.2632 10.1757V10.348C67.2484 9.82477 67.0263 9.32889 66.6459 8.96941C66.2654 8.60993 65.7577 8.4163 65.2345 8.43112C64.7113 8.44595 64.2154 8.66801 63.856 9.04845C63.4965 9.4289 63.3029 9.93656 63.3177 10.4598V16.4911C63.3177 16.6306 63.2623 16.7644 63.1636 16.8631C63.0649 16.9618 62.9311 17.0172 62.7916 17.0172H60.5085C60.369 17.0172 60.2352 16.9618 60.1365 16.8631C60.0378 16.7644 59.9824 16.6306 59.9824 16.4911V5.57524C59.9823 5.50916 59.9951 5.44368 60.0203 5.38258C60.0455 5.32147 60.0824 5.26594 60.1291 5.21914C60.1758 5.17235 60.2312 5.13523 60.2923 5.1099C60.3533 5.08457 60.4187 5.07153 60.4848 5.07153H62.8153C62.8814 5.07153 62.9468 5.08457 63.0079 5.1099C63.0689 5.13523 63.1243 5.17235 63.171 5.21914C63.2177 5.26594 63.2546 5.32147 63.2798 5.38258C63.305 5.44368 63.3179 5.50916 63.3177 5.57524V5.70676C63.3176 5.72661 63.3228 5.74611 63.3328 5.76328C63.3428 5.78044 63.3571 5.79464 63.3744 5.80441C63.3917 5.81419 63.4113 5.81918 63.4311 5.8189C63.4509 5.81861 63.4704 5.81304 63.4873 5.80277C64.4175 5.28958 65.4705 5.04122 66.5319 5.08468C68.9755 5.08863 70.6011 7.04165 70.6011 9.94948Z" fill="#313131"/>
<path d="M53.7156 5.10693C50.4435 5.10693 47.729 7.49396 47.729 11.0541C47.729 14.6353 50.4435 17.0237 53.7156 17.0237C56.9246 17.0237 59.6339 14.6353 59.6339 11.0541C59.6391 7.49396 56.9246 5.10693 53.7156 5.10693ZM53.7156 13.6831C52.3268 13.6831 51.0656 12.6573 51.0656 11.0646C51.0656 9.49433 52.3268 8.44746 53.7156 8.44746C54.3998 8.46279 55.0507 8.74533 55.5291 9.2346C56.0076 9.72387 56.2755 10.381 56.2755 11.0653C56.2755 11.7496 56.0076 12.4067 55.5291 12.896C55.0507 13.3853 54.3998 13.6678 53.7156 13.6831Z" fill="#313131"/>
<path d="M18.3377 5.10693C15.0656 5.10693 12.3511 7.49396 12.3511 11.0541C12.3511 14.6353 15.0656 17.0237 18.3377 17.0237C21.5467 17.0237 24.256 14.6353 24.256 11.0541C24.2612 7.49396 21.5467 5.10693 18.3377 5.10693ZM18.3377 13.6831C16.9489 13.6831 15.6877 12.6573 15.6877 11.0646C15.6877 9.49433 16.9489 8.44746 18.3377 8.44746C19.0218 8.46279 19.6728 8.74533 20.1512 9.2346C20.6296 9.72387 20.8975 10.381 20.8975 11.0653C20.8975 11.7496 20.6296 12.4067 20.1512 12.896C19.6728 13.3853 19.0218 13.6678 18.3377 13.6831Z" fill="#313131"/>
<path d="M42.1635 5.10585H42.1424C40.4459 5.10585 39.3609 5.60561 38.9676 5.82524C38.9505 5.83464 38.9313 5.83942 38.9118 5.83909C38.8923 5.83877 38.8733 5.83335 38.8565 5.82338C38.8398 5.81341 38.8259 5.79923 38.8163 5.78226C38.8068 5.76528 38.8018 5.7461 38.8019 5.7266V5.60429C38.8019 5.4707 38.7488 5.34258 38.6544 5.24812C38.5599 5.15365 38.4318 5.10059 38.2982 5.10059H35.969C35.8356 5.10093 35.7076 5.15411 35.6132 5.2485C35.5189 5.34289 35.4657 5.47081 35.4653 5.60429V21.7085C35.4653 21.8421 35.5184 21.9702 35.6129 22.0647C35.7073 22.1591 35.8355 22.2122 35.969 22.2122H38.2982C38.4318 22.2122 38.5599 22.1591 38.6544 22.0647C38.7488 21.9702 38.8019 21.8421 38.8019 21.7085V16.4386C38.8019 16.4187 38.8073 16.3991 38.8174 16.382C38.8276 16.3648 38.8421 16.3506 38.8595 16.341C38.877 16.3313 38.8967 16.3265 38.9166 16.327C38.9365 16.3275 38.956 16.3334 38.9729 16.3439C39.3175 16.5675 40.2131 17.0015 41.9728 17.0015C44.7912 17.0015 47.3557 14.65 47.3557 11.0833C47.3557 7.53496 44.9819 5.10585 42.1635 5.10585ZM41.4467 13.682C40.0513 13.682 38.8072 12.6299 38.8072 11.0635C38.8049 10.7173 38.8717 10.374 39.0038 10.0539C39.1359 9.73376 39.3306 9.44324 39.5764 9.19936C39.8223 8.95547 40.1143 8.76312 40.4355 8.6336C40.7567 8.50407 41.1004 8.43997 41.4467 8.44505C42.9486 8.44505 44.0428 9.51297 44.0428 11.0635C44.0428 12.6141 42.9473 13.682 41.4467 13.682Z" fill="#313131"/>
<path d="M11.8619 12.2932C11.8718 13.1481 11.645 13.989 11.2065 14.723C10.768 15.457 10.135 16.0553 9.37758 16.4518C9.31153 16.4889 9.24298 16.5214 9.17242 16.5491C9.00539 16.6214 8.83442 16.6806 8.65951 16.7371C8.60953 16.7569 8.55692 16.7687 8.503 16.7845C7.86941 16.9614 7.21439 17.05 6.55655 17.0475C3.32913 17.0475 1.88903 15.7902 1.42741 15.0038C1.25544 14.7322 1.12262 14.4378 1.03286 14.1292C0.973674 13.874 1.03286 13.6031 1.25643 13.4716L3.65135 12.0762C3.72792 12.0317 3.8143 12.0068 3.90281 12.0037C3.99132 12.0006 4.07923 12.0194 4.15873 12.0584C4.23823 12.0974 4.30686 12.1555 4.35853 12.2274C4.4102 12.2994 4.44331 12.3829 4.45492 12.4707C4.48726 12.736 4.53335 12.9994 4.59301 13.2598C4.7024 13.645 4.93361 13.9844 5.25201 14.2272C5.57042 14.4699 5.95889 14.6031 6.35928 14.6066C6.61173 14.6006 6.86051 14.5448 7.09128 14.4422C7.32204 14.3397 7.53022 14.1925 7.70383 14.0091C7.87743 13.8257 8.01302 13.6098 8.10278 13.3737C8.19254 13.1377 8.23469 12.8862 8.22681 12.6338C8.21391 12.2464 8.08922 11.8709 7.86777 11.5528C7.59422 11.1766 7.19178 10.9202 6.62231 10.6795C6.62045 10.6787 6.61843 10.6782 6.61639 10.6782C6.61435 10.6782 6.61234 10.6787 6.61047 10.6795C6.00155 10.4283 4.56145 9.93905 4.03933 9.75887C3.90922 9.71664 3.78146 9.66747 3.65661 9.61157C2.94298 9.28409 2.32314 8.78243 1.85408 8.15274C1.38503 7.52305 1.08183 6.78554 0.972358 6.00802C0.943244 5.79224 0.928744 5.57474 0.928957 5.35701C0.928878 5.04591 0.957939 4.73549 1.01576 4.42982C1.04861 4.27179 1.08943 4.11552 1.13807 3.96162C1.18698 3.79928 1.24405 3.6395 1.30904 3.4829C1.69123 2.57413 2.35508 1.81208 3.20288 1.30893C3.3436 1.2287 3.6553 1.08535 3.66713 1.08141C3.84468 1.00644 4.16427 0.902543 4.18531 0.895967C4.84193 0.717557 5.51973 0.629072 6.20014 0.632934C8.43593 0.632934 10.1917 1.44045 11.1346 2.90423C11.1736 2.96541 11.1998 3.03386 11.2115 3.10544C11.2233 3.17702 11.2204 3.25024 11.2031 3.32068C11.1858 3.39112 11.1543 3.45731 11.1107 3.51526C11.067 3.5732 11.0121 3.6217 10.9492 3.65782L8.85941 4.86514C8.7914 4.90512 8.71537 4.92953 8.63679 4.93662C8.55821 4.94371 8.47904 4.9333 8.40497 4.90614C8.3309 4.87897 8.26376 4.83573 8.2084 4.77952C8.15304 4.72332 8.11081 4.65554 8.08477 4.58106C7.96176 4.21056 7.71834 3.89187 7.39326 3.6757C7.06818 3.45954 6.68013 3.35834 6.29089 3.38821C6.00318 3.40135 5.72345 3.48697 5.47767 3.6371C5.23189 3.78724 5.02802 3.99703 4.88498 4.24701C4.74272 4.50944 4.66856 4.80336 4.66929 5.10187C4.66151 5.22225 4.67351 5.34309 4.7048 5.45959C4.87051 6.2842 5.58991 6.62352 5.83716 6.7524L5.86214 6.76555C6.68149 7.21008 7.84278 7.47311 8.91596 7.92948C8.92943 7.9327 8.9423 7.93802 8.9541 7.94526C8.98046 7.95337 9.00599 7.96394 9.03038 7.97682C9.17505 8.04127 9.31972 8.10834 9.46044 8.17804C9.49438 8.19351 9.52732 8.21108 9.55908 8.23065C10.2665 8.64522 10.852 9.23919 11.2563 9.95252C11.6607 10.6658 11.8696 11.4733 11.8619 12.2932Z" fill="#313131"/>
<path d="M94.4962 11.9457H87.1168C87.1006 11.9459 87.0845 11.9496 87.0698 11.9565C87.0551 11.9635 87.0421 11.9736 87.0317 11.9861C87.0213 11.9987 87.0138 12.0133 87.0096 12.029C87.0055 12.0448 87.0048 12.0612 87.0077 12.0773C87.322 13.3451 88.1913 14.121 89.3316 14.121C90.0365 14.121 90.8427 13.9658 91.4279 13.1899C91.5036 13.0908 91.6129 13.0228 91.7352 12.9986C91.8575 12.9743 91.9844 12.9956 92.0921 13.0584L93.8689 14.0855C93.9299 14.121 93.9827 14.1689 94.0241 14.226C94.0654 14.2832 94.0944 14.3484 94.109 14.4174C94.1236 14.4864 94.1236 14.5577 94.109 14.6267C94.0944 14.6957 94.0654 14.7609 94.0241 14.8181C92.9535 16.2924 91.3043 17.0039 89.3316 17.0039C86.1752 17.0039 83.5527 14.5984 83.5527 11.0251C83.5527 7.47418 86.1699 5.04639 89.3526 5.04639C92.4498 5.04639 94.9355 7.33872 94.9999 11.0251V11.442C94.9999 11.5756 94.9469 11.7038 94.8524 11.7982C94.758 11.8927 94.6298 11.9457 94.4962 11.9457ZM87.1944 9.74284H91.403C91.4204 9.74294 91.4376 9.73896 91.4532 9.73121C91.4688 9.72347 91.4824 9.71219 91.4929 9.69826C91.5034 9.68433 91.5105 9.66815 91.5136 9.651C91.5167 9.63385 91.5157 9.61621 91.5108 9.59949C91.1544 8.48423 90.3127 7.96605 89.35 7.96605C88.8508 7.96847 88.3648 8.12613 87.9592 8.41715C87.5537 8.70818 87.2487 9.11817 87.0866 9.59029C87.0805 9.60754 87.0786 9.62601 87.0811 9.64414C87.0836 9.66226 87.0905 9.67953 87.101 9.69447C87.1116 9.70942 87.1256 9.72161 87.1418 9.73003C87.1581 9.73844 87.1761 9.74284 87.1944 9.74284Z" fill="#313131"/>
<path d="M82.5232 5.07153H79.7785C79.7487 5.07188 79.7203 5.08395 79.6993 5.10512C79.6784 5.12629 79.6667 5.15487 79.6667 5.18464V5.7107C79.6664 5.73031 79.6611 5.74952 79.6512 5.76645C79.6413 5.78337 79.6272 5.79744 79.6102 5.80725C79.5932 5.81707 79.574 5.8223 79.5544 5.82243C79.5348 5.82257 79.5154 5.8176 79.4983 5.80803C78.9907 5.5108 78.1148 5.1123 76.4735 5.09257H76.3419C73.5051 5.09257 71.1089 7.53615 71.1089 11.0503C71.1155 14.5854 73.5367 17.004 76.6931 17.004C78.2989 16.9948 79.1248 16.5608 79.4891 16.2873C79.5058 16.2751 79.5256 16.2678 79.5462 16.2662C79.5667 16.2646 79.5874 16.2687 79.6058 16.2781C79.6242 16.2875 79.6396 16.3018 79.6503 16.3195C79.6611 16.3371 79.6667 16.3574 79.6667 16.378V16.499C79.6667 18.2561 78.3239 19.0557 76.7878 19.0557C75.8553 19.0557 75.2701 18.7927 74.6375 18.1088C74.5601 18.0253 74.4566 17.9707 74.3441 17.9537C74.2316 17.9368 74.1166 17.9585 74.018 18.0154L71.8967 19.2398C71.8354 19.275 71.7823 19.3227 71.7407 19.3798C71.6991 19.4369 71.67 19.5021 71.6552 19.5712C71.6404 19.6403 71.6404 19.7117 71.655 19.7808C71.6697 19.8499 71.6987 19.9152 71.7402 19.9724C72.8226 21.4598 74.5586 22.1963 76.7878 22.1963C80.2638 22.1963 83.0098 20.3051 83.0098 16.8581L83.0256 5.57919C83.0263 5.51277 83.0138 5.44688 82.9889 5.38531C82.964 5.32375 82.9271 5.26775 82.8803 5.22053C82.8336 5.17332 82.778 5.13585 82.7167 5.11027C82.6554 5.0847 82.5896 5.07153 82.5232 5.07153ZM74.4468 11.0503C74.4468 9.4997 75.5423 8.43178 77.0442 8.43178C77.3904 8.42688 77.7342 8.4911 78.0552 8.62069C78.3763 8.75028 78.6683 8.94264 78.9141 9.18649C79.1599 9.43034 79.3546 9.72079 79.4868 10.0408C79.6189 10.3609 79.6859 10.704 79.6838 11.0503C79.6838 12.6206 78.4383 13.6688 77.0442 13.6688C75.5423 13.6688 74.4468 12.6206 74.4468 11.0503Z" fill="#313131"/>
</svg>
