<svg width="14" height="11" viewBox="0 0 14 11" fill="none" xmlns="http://www.w3.org/2000/svg">
<path d="M7 4.5C7.13261 4.5 7.25979 4.55268 7.35355 4.64645C7.44732 4.74021 7.5 4.86739 7.5 5V6H8.5C8.63261 6 8.75979 6.05268 8.85355 6.14645C8.94732 6.24021 9 6.36739 9 6.5C9 6.63261 8.94732 6.75979 8.85355 6.85355C8.75979 6.94732 8.63261 7 8.5 7H7.5V8C7.5 8.13261 7.44732 8.25979 7.35355 8.35355C7.25979 8.44732 7.13261 8.5 7 8.5C6.86739 8.5 6.74021 8.44732 6.64645 8.35355C6.55268 8.25979 6.5 8.13261 6.5 8V7H5.5C5.36739 7 5.24021 6.94732 5.14645 6.85355C5.05268 6.75979 5 6.63261 5 6.5C5 6.36739 5.05268 6.24021 5.14645 6.14645C5.24021 6.05268 5.36739 6 5.5 6H6.5V5C6.5 4.86739 6.55268 4.74021 6.64645 4.64645C6.74021 4.55268 6.86739 4.5 7 4.5ZM13.5 2.5V9.5C13.5 9.76522 13.3946 10.0196 13.2071 10.2071C13.0196 10.3946 12.7652 10.5 12.5 10.5H1.5C1.23478 10.5 0.98043 10.3946 0.792893 10.2071C0.605357 10.0196 0.5 9.76522 0.5 9.5V1C0.5 0.734784 0.605357 0.48043 0.792893 0.292893C0.98043 0.105357 1.23478 0 1.5 0H4.83313C5.04941 0.000536462 5.25978 0.0706595 5.43313 0.2L7.16687 1.5H12.5C12.7652 1.5 13.0196 1.60536 13.2071 1.79289C13.3946 1.98043 13.5 2.23478 13.5 2.5ZM1.5 3H4.83313L6.16687 2L4.83313 1H1.5V3ZM12.5 2.5H7.16687L5.43313 3.8C5.25978 3.92934 5.04941 3.99946 4.83313 4H1.5V9.5H12.5V2.5Z" fill="#808080"/>
</svg>
