<svg width="48" height="48" viewBox="0 0 48 48" fill="none" xmlns="http://www.w3.org/2000/svg">
<path d="M35.6463 17.7469C35.646 17.6507 35.6203 17.5562 35.5719 17.473C35.5235 17.3899 35.454 17.3209 35.3705 17.2732L24.5838 11.0737C24.5003 11.0254 24.4055 11 24.3091 11C24.2127 11 24.118 11.0254 24.0345 11.0737L13.2735 17.3223C13.1902 17.3707 13.1211 17.4402 13.0731 17.5238C13.0251 17.6073 12.9999 17.702 13 17.7984L13.0257 30.2513C13.0262 30.3477 13.0519 30.4423 13.1003 30.5256C13.1487 30.609 13.2181 30.6782 13.3015 30.7262L24.0882 36.9258C24.1716 36.9744 24.2664 37 24.3629 37C24.4594 37 24.5541 36.9744 24.6375 36.9258L35.3985 30.6771C35.4818 30.6287 35.5509 30.5593 35.5989 30.4757C35.6469 30.3921 35.6721 30.2974 35.672 30.201L35.6463 17.7469ZM32.4103 19.3109L27.676 22.0913C27.5959 22.1382 27.5052 22.1639 27.4124 22.1661C27.3196 22.1684 27.2278 22.1471 27.1455 22.1042L24.8829 20.9251C24.8392 20.9025 24.8024 20.8686 24.7764 20.8268C24.7503 20.7851 24.736 20.7371 24.7349 20.6878C24.7339 20.6386 24.7461 20.59 24.7703 20.5472C24.7944 20.5043 24.8297 20.4688 24.8724 20.4443L26.9 19.2746C26.9277 19.2584 26.9506 19.2353 26.9665 19.2075C26.9825 19.1797 26.9908 19.1482 26.9908 19.1161C26.9908 19.0841 26.9825 19.0526 26.9665 19.0248C26.9506 18.997 26.9277 18.9738 26.9 18.9576L24.6001 17.63C24.5166 17.5817 24.4219 17.5563 24.3255 17.5563C24.2291 17.5563 24.1343 17.5817 24.0508 17.63L18.9602 20.5777C18.9322 20.5936 18.909 20.6167 18.8929 20.6445C18.8767 20.6724 18.8682 20.704 18.8682 20.7362C18.8682 20.7684 18.8767 20.8 18.8929 20.8278C18.909 20.8557 18.9322 20.8787 18.9602 20.8947L24.0672 23.8295C24.1506 23.8776 24.2199 23.9468 24.2681 24.0301C24.3163 24.1135 24.3417 24.2081 24.3418 24.3044L24.3559 33.1792C24.3557 33.2412 24.3398 33.3021 24.3097 33.3564C24.2796 33.4106 24.2363 33.4563 24.1838 33.4892C24.1313 33.5221 24.0713 33.5412 24.0094 33.5447C23.9476 33.5482 23.8858 33.5359 23.83 33.509L16.1285 29.0793C16.0449 29.0314 15.9754 28.9622 15.9269 28.8788C15.8785 28.7955 15.8529 28.7008 15.8527 28.6044L15.8445 24.7653C15.8428 24.7118 15.8566 24.659 15.8845 24.6132C15.9123 24.5675 15.9528 24.5309 16.0011 24.508C16.0395 24.4913 16.0812 24.4838 16.123 24.486C16.1648 24.4882 16.2055 24.5002 16.2419 24.5208L18.3758 25.7163C18.4604 25.7642 18.5308 25.8335 18.58 25.9173C18.6292 26.0011 18.6556 26.0964 18.6563 26.1936V27.0603C18.6566 27.1244 18.6737 27.1873 18.7059 27.2428C18.7381 27.2982 18.7843 27.3442 18.8398 27.3761L21.2379 28.7553C21.2657 28.7713 21.2972 28.7797 21.3293 28.7797C21.3614 28.7797 21.3929 28.7711 21.4206 28.755C21.4484 28.7389 21.4714 28.7157 21.4873 28.6878C21.5032 28.6599 21.5115 28.6283 21.5113 28.5962V25.9608C21.5115 25.8642 21.4861 25.7694 21.4379 25.6858C21.3897 25.6022 21.3203 25.5329 21.2367 25.4847L16.1086 22.5335C16.0262 22.4861 15.9575 22.418 15.9093 22.336C15.8612 22.2539 15.8352 22.1607 15.834 22.0656V19.4302C15.8333 19.3214 15.8655 19.215 15.9263 19.1249L15.9579 19.0828L15.9941 19.0442C16.0284 19.0088 16.0678 18.9789 16.111 18.9553L24.0462 14.3489C24.1295 14.3006 24.224 14.2752 24.3202 14.2752C24.4165 14.2752 24.511 14.3006 24.5943 14.3489L32.4126 18.8453C32.4524 18.87 32.4851 18.9045 32.5078 18.9454C32.5304 18.9864 32.5422 19.0325 32.542 19.0793C32.5418 19.1262 32.5295 19.1721 32.5065 19.2129C32.4834 19.2536 32.4503 19.2878 32.4103 19.312V19.3109Z" fill="white"/>
<path d="M27.1339 25.7467L27.1409 28.8593C27.141 28.9236 27.1581 28.9866 27.1903 29.0422C27.2225 29.0978 27.2688 29.1439 27.3244 29.1759C27.3801 29.2079 27.4432 29.2247 27.5074 29.2245C27.5716 29.2244 27.6346 29.2074 27.6901 29.1751L30.3722 27.6171C30.4555 27.5687 30.5246 27.4992 30.5726 27.4157C30.6206 27.3321 30.6458 27.2374 30.6457 27.141L30.6387 24.0365C30.6385 23.9723 30.6215 23.9092 30.5892 23.8536C30.557 23.7981 30.5107 23.752 30.4551 23.72C30.3994 23.688 30.3363 23.6712 30.2721 23.6713C30.208 23.6714 30.1449 23.6885 30.0894 23.7207L27.4097 25.2753C27.3266 25.323 27.2575 25.3916 27.2091 25.4743C27.1607 25.557 27.1348 25.6509 27.1339 25.7467Z" fill="#FF4E1F"/>
<rect width="29" height="11" transform="translate(18.5 30)" fill="url(#paint0_linear_17903_58542)"/>
<path d="M20.1098 39L22.0098 31.7H23.2198L25.1098 39H24.1998L23.7198 37.06H21.5098L21.0298 39H20.1098ZM21.6898 36.3H23.5298L22.9698 34.05C22.8631 33.6233 22.7798 33.2667 22.7198 32.98C22.6598 32.6933 22.6231 32.5067 22.6098 32.42C22.5964 32.5067 22.5598 32.6933 22.4998 32.98C22.4398 33.2667 22.3564 33.62 22.2498 34.04L21.6898 36.3ZM28.6059 39C28.1192 39 27.7292 38.86 27.4359 38.58C27.1492 38.2933 27.0059 37.9167 27.0059 37.45V32.52H25.1059V31.7H27.9059V37.45C27.9059 37.6767 27.9692 37.8567 28.0959 37.99C28.2225 38.1167 28.3925 38.18 28.6059 38.18H30.3059V39H28.6059ZM30.922 40.8V33.5H31.822V34.55H31.832C31.8786 34.19 32.0353 33.91 32.302 33.71C32.5686 33.5033 32.9086 33.4 33.322 33.4C33.8753 33.4 34.3153 33.5833 34.642 33.95C34.9686 34.31 35.132 34.8067 35.132 35.44V37.05C35.132 37.6833 34.9686 38.1833 34.642 38.55C34.3153 38.9167 33.8753 39.1 33.322 39.1C32.9086 39.1 32.5686 38.9967 32.302 38.79C32.0353 38.5833 31.8786 38.3033 31.832 37.95H31.802L31.822 39.2V40.8H30.922ZM33.022 38.32C33.402 38.32 33.6986 38.22 33.912 38.02C34.1253 37.82 34.232 37.4967 34.232 37.05V35.45C34.232 34.9967 34.1253 34.6733 33.912 34.48C33.6986 34.28 33.402 34.18 33.022 34.18C32.6553 34.18 32.362 34.2967 32.142 34.53C31.9286 34.7633 31.822 35.0867 31.822 35.5V37C31.822 37.4133 31.9286 37.7367 32.142 37.97C32.362 38.2033 32.6553 38.32 33.022 38.32ZM36.118 39V31.7H37.018V34.55H37.028C37.0747 34.1833 37.2247 33.9 37.478 33.7C37.7314 33.5 38.068 33.4 38.488 33.4C39.0414 33.4 39.4814 33.57 39.808 33.91C40.1347 34.25 40.298 34.7133 40.298 35.3V39H39.398V35.45C39.398 35.0367 39.2914 34.72 39.078 34.5C38.8714 34.2733 38.588 34.16 38.228 34.16C37.8547 34.16 37.558 34.2767 37.338 34.51C37.1247 34.7433 37.018 35.0733 37.018 35.5V39H36.118ZM42.9141 39.1C42.3475 39.1 41.8975 38.9433 41.5641 38.63C41.2308 38.31 41.0641 37.8933 41.0641 37.38C41.0641 37.04 41.1408 36.7433 41.2941 36.49C41.4475 36.2367 41.6608 36.04 41.9341 35.9C42.2075 35.7533 42.5208 35.68 42.8741 35.68H44.5741V35.25C44.5741 34.5367 44.1841 34.18 43.4041 34.18C43.0575 34.18 42.7775 34.2433 42.5641 34.37C42.3508 34.4967 42.2375 34.6733 42.2241 34.9H41.3241C41.3575 34.4667 41.5575 34.11 41.9241 33.83C42.2975 33.5433 42.7908 33.4 43.4041 33.4C44.0708 33.4 44.5808 33.56 44.9341 33.88C45.2941 34.2 45.4741 34.6467 45.4741 35.22V39H44.5841V38H44.5641C44.5108 38.34 44.3408 38.61 44.0541 38.81C43.7675 39.0033 43.3875 39.1 42.9141 39.1ZM43.1341 38.34C43.5741 38.34 43.9241 38.2333 44.1841 38.02C44.4441 37.8067 44.5741 37.5167 44.5741 37.15V36.38H42.9741C42.6808 36.38 42.4408 36.47 42.2541 36.65C42.0741 36.8233 41.9841 37.0567 41.9841 37.35C41.9841 37.6567 42.0841 37.9 42.2841 38.08C42.4908 38.2533 42.7741 38.34 43.1341 38.34Z" fill="white"/>
<defs>
<linearGradient id="paint0_linear_17903_58542" x1="0" y1="0" x2="38.3954" y2="11.907" gradientUnits="userSpaceOnUse">
<stop stop-color="#FF4F20"/>
<stop offset="1" stop-color="#FF9D88"/>
</linearGradient>
</defs>
</svg>
