<svg width="16" height="16" viewBox="0 0 16 16" fill="none" xmlns="http://www.w3.org/2000/svg">
<path fill-rule="evenodd" clip-rule="evenodd" d="M16 8C16 12.4183 12.4183 16 8 16C3.58172 16 0 12.4183 0 8C0 3.58172 3.58172 0 8 0C12.4183 0 16 3.58172 16 8ZM8.28668 5.90595C7.50856 6.2296 5.95342 6.89947 3.62125 7.91555C3.24255 8.06615 3.04416 8.21348 3.02611 8.35754C2.99559 8.601 3.30047 8.69687 3.71564 8.82742C3.77211 8.84518 3.83063 8.86358 3.89062 8.88308C4.29909 9.01585 4.84854 9.17119 5.13418 9.17736C5.39329 9.18296 5.68248 9.07614 6.00175 8.8569C8.18077 7.386 9.30558 6.64254 9.3762 6.62652C9.42602 6.61521 9.49506 6.60099 9.54184 6.64257C9.58861 6.68414 9.58402 6.76288 9.57906 6.78401C9.54886 6.91276 8.35209 8.02539 7.73275 8.60118C7.53967 8.78069 7.40271 8.90802 7.37471 8.9371C7.312 9.00224 7.24808 9.06386 7.18665 9.12308C6.80717 9.48889 6.5226 9.76322 7.2024 10.2112C7.52907 10.4265 7.79048 10.6045 8.05126 10.7821C8.33609 10.976 8.62017 11.1695 8.98773 11.4105C9.08138 11.4718 9.17081 11.5356 9.25792 11.5977C9.58938 11.834 9.88716 12.0463 10.2551 12.0124C10.4688 11.9928 10.6896 11.7917 10.8018 11.1922C11.0668 9.77544 11.5877 6.70564 11.7081 5.44065C11.7187 5.32982 11.7054 5.18798 11.6948 5.12572C11.6841 5.06345 11.6618 4.97474 11.5809 4.90907C11.4851 4.83129 11.3371 4.81489 11.2709 4.81606C10.97 4.82136 10.5084 4.98188 8.28668 5.90595Z" fill="#BBBBBB"/>
</svg>
