<svg width="10" height="10" viewBox="0 0 10 10" fill="none" xmlns="http://www.w3.org/2000/svg">
<path fill-rule="evenodd" clip-rule="evenodd" d="M5.96102 5.69167V5.69067C5.90602 5.69467 5.62252 5.71167 4.99002 5.71167C4.48502 5.71167 4.12952 5.69667 4.00452 5.69067V5.69217C2.06052 5.60667 0.609524 5.26817 0.609524 4.86317C0.609524 4.45867 2.06052 4.12017 4.00452 4.03317V5.35517C4.13152 5.36417 4.49552 5.38567 4.99852 5.38567C5.60202 5.38567 5.90452 5.36067 5.96102 5.35567V4.03417C7.90102 4.12067 9.34852 4.45917 9.34852 4.86317C9.34852 5.26817 7.90102 5.60567 5.96102 5.69167ZM5.96102 3.89667V2.71367H8.66802V0.909668H1.29752V2.71367H4.00452V3.89617C1.80452 3.99717 0.150024 4.43317 0.150024 4.95517C0.150024 5.47717 1.80452 5.91267 4.00452 6.01417V9.80517H5.96102V6.01317C8.15753 5.91217 9.80802 5.47667 9.80802 4.95517C9.80802 4.43367 8.15753 3.99817 5.96102 3.89667Z" fill="#CCCCCC"/>
</svg>
