<svg width="16" height="14" viewBox="0 0 16 14" fill="none" xmlns="http://www.w3.org/2000/svg">
<path d="M14.362 3.66301C14.3717 3.80766 14.3717 3.95232 14.3717 4.09831C14.3717 8.54664 11.0697 13.6769 5.03173 13.6769V13.6743C3.2481 13.6769 1.50152 13.153 0 12.165C0.259354 12.197 0.520008 12.213 0.781312 12.2137C2.25944 12.215 3.69531 11.7064 4.85818 10.7698C3.4535 10.7425 2.22173 9.80321 1.79143 8.43198C2.28349 8.52931 2.79049 8.50931 3.27345 8.37399C1.74203 8.05668 0.64026 6.67678 0.64026 5.07424C0.64026 5.05957 0.64026 5.04557 0.64026 5.03157C1.09657 5.29222 1.60748 5.43687 2.13008 5.45287C0.687711 4.46428 0.243104 2.49643 1.11412 0.957879C2.78074 3.06105 5.23973 4.33962 7.87942 4.47495C7.61487 3.3057 7.97627 2.08046 8.82909 1.25852C10.1512 -0.016048 12.2306 0.0492805 13.4734 1.40451C14.2086 1.25586 14.9132 0.97921 15.558 0.58724C15.3129 1.36651 14.8001 2.02846 14.115 2.4491C14.7656 2.37044 15.4013 2.19179 16 1.91914C15.5593 2.59642 15.0042 3.18638 14.362 3.66301Z" fill="#BBBBBB"/>
</svg>
