<svg width="32" height="33" viewBox="0 0 32 33" fill="none" xmlns="http://www.w3.org/2000/svg">
<path d="M5 8.07788V24.0779C5 24.6083 5.21071 25.117 5.58579 25.4921C5.96086 25.8672 6.46957 26.0779 7 26.0779H27C27.2652 26.0779 27.5196 25.9725 27.7071 25.785C27.8946 25.5975 28 25.3431 28 25.0779V11.0779C28 10.8127 27.8946 10.5583 27.7071 10.3708C27.5196 10.1832 27.2652 10.0779 27 10.0779H7C6.46957 10.0779 5.96086 9.86717 5.58579 9.49209C5.21071 9.11702 5 8.60831 5 8.07788ZM5 8.07788C5 7.54745 5.21071 7.03874 5.58579 6.66367C5.96086 6.28859 6.46957 6.07788 7 6.07788H24" stroke="#ffffff" stroke-width="1.5" stroke-linecap="round" stroke-linejoin="round"/>
<path d="M22.5 19.3279C23.1904 19.3279 23.75 18.7682 23.75 18.0779C23.75 17.3875 23.1904 16.8279 22.5 16.8279C21.8096 16.8279 21.25 17.3875 21.25 18.0779C21.25 18.7682 21.8096 19.3279 22.5 19.3279Z" fill="#ffffff"/>
</svg>
