<svg width="200" height="46" viewBox="0 0 200 46" fill="none" xmlns="http://www.w3.org/2000/svg">
<g opacity="0.4">
<path fill-rule="evenodd" clip-rule="evenodd" d="M38.0118 34.3351L19.7485 44.93C19.6071 45.0117 19.4467 45.0548 19.2834 45.0548C19.12 45.0548 18.9596 45.0117 18.8182 44.93L0.511096 34.4128C0.36923 34.3318 0.251293 34.2147 0.169229 34.0735C0.0871653 33.9322 0.0438874 33.7718 0.0437845 33.6084L9.13846e-06 12.4941C-0.000715923 12.3308 0.0417169 12.1702 0.123009 12.0286C0.204301 11.887 0.321568 11.7693 0.462942 11.6876L18.7263 1.09157C18.8679 1.00983 19.0285 0.966797 19.192 0.966797C19.3555 0.966797 19.5161 1.00983 19.6576 1.09157L37.9648 11.6088C38.1064 11.6903 38.2242 11.8076 38.3062 11.949C38.3882 12.0904 38.4316 12.2508 38.4321 12.4142L38.4759 33.5285C38.476 33.6918 38.4333 33.8523 38.3518 33.9939C38.2704 34.1355 38.1531 34.2531 38.0118 34.3351ZM32.9404 15.0627L24.9086 19.7785C24.7729 19.8582 24.6191 19.9021 24.4617 19.9061C24.3044 19.9102 24.1486 19.8741 24.009 19.8014L20.1654 17.7987C20.0915 17.7602 20.0293 17.7025 19.9853 17.6317C19.9413 17.5609 19.9172 17.4796 19.9154 17.3962C19.9136 17.3129 19.9342 17.2306 19.9751 17.158C20.0161 17.0853 20.0757 17.025 20.1479 16.9834L23.5887 15.0003C23.636 14.9732 23.6753 14.9341 23.7027 14.8869C23.73 14.8397 23.7444 14.7862 23.7444 14.7316C23.7444 14.6771 23.73 14.6236 23.7027 14.5764C23.6753 14.5292 23.636 14.4901 23.5887 14.463L19.685 12.2173C19.5434 12.1355 19.3828 12.0925 19.2193 12.0925C19.0559 12.0925 18.8953 12.1355 18.7537 12.2173L10.1232 17.2099C10.0759 17.237 10.0366 17.2762 10.0093 17.3233C9.98197 17.3705 9.96757 17.4241 9.96757 17.4786C9.96757 17.5331 9.98197 17.5867 10.0093 17.6338C10.0366 17.681 10.0759 17.7201 10.1232 17.7473L18.7799 22.7235C18.9217 22.8049 19.0395 22.9223 19.1215 23.0636C19.2035 23.205 19.2469 23.3655 19.2472 23.529L19.2691 38.5759C19.2693 38.6848 19.2409 38.7918 19.1867 38.8862C19.1325 38.9806 19.0544 39.059 18.9602 39.1137C18.8661 39.1684 18.7592 39.1973 18.6503 39.1976C18.5415 39.1979 18.4344 39.1696 18.34 39.1154L5.28597 31.6385C5.1441 31.5575 5.02616 31.4404 4.9441 31.2992C4.86204 31.1579 4.81876 30.9975 4.81866 30.8341L4.80881 27.0847V24.2951C4.80874 24.2139 4.82992 24.1341 4.87026 24.0636C4.9106 23.9931 4.96869 23.9344 5.03874 23.8934C5.1088 23.8523 5.18838 23.8303 5.26958 23.8295C5.35077 23.8288 5.43076 23.8493 5.50157 23.889L9.12841 25.9235C9.27197 26.0044 9.39155 26.1218 9.47499 26.2638C9.55842 26.4059 9.60272 26.5675 9.60338 26.7323L9.60885 28.201C9.6077 28.3103 9.63543 28.4179 9.68924 28.513C9.74305 28.6082 9.82102 28.6874 9.91529 28.7427L13.9854 31.0814C14.0326 31.1084 14.0861 31.1226 14.1405 31.1224C14.1949 31.1223 14.2483 31.1079 14.2954 31.0806C14.3425 31.0534 14.3816 31.0143 14.4088 30.9671C14.436 30.92 14.4504 30.8666 14.4505 30.8122V26.335C14.4504 26.1714 14.4072 26.0106 14.3251 25.869C14.2431 25.7274 14.1251 25.6099 13.9832 25.5285L5.2805 20.5248C5.13891 20.4436 5.02125 20.3265 4.9394 20.1852C4.85754 20.044 4.81439 19.8837 4.81428 19.7205L4.80224 15.2564C4.80177 15.0929 4.84442 14.9321 4.92588 14.7903C5.00735 14.6485 5.12475 14.5307 5.26627 14.4487L18.7373 6.63581C18.8786 6.55405 19.0391 6.51101 19.2024 6.51101C19.3657 6.51101 19.5261 6.55405 19.6675 6.63581L32.9371 14.2583C33.0074 14.2991 33.0658 14.3577 33.1065 14.428C33.1472 14.4984 33.1688 14.5782 33.1692 14.6596C33.1695 14.7409 33.1486 14.8209 33.1084 14.8916C33.0683 14.9623 33.0104 15.0213 32.9404 15.0627ZM23.992 31.2443L23.9843 25.9759C23.9838 25.8125 24.0265 25.6518 24.108 25.5102C24.1894 25.3686 24.3069 25.251 24.4484 25.1693L28.9967 22.5329C29.091 22.4783 29.1979 22.4495 29.3068 22.4494C29.4157 22.4493 29.5228 22.4779 29.6171 22.5322C29.7115 22.5865 29.7899 22.6648 29.8445 22.759C29.8991 22.8533 29.9279 22.9602 29.928 23.0691L29.939 28.3321C29.9393 28.4955 29.8968 28.6561 29.8155 28.7978C29.7343 28.9396 29.6172 29.0575 29.476 29.1398L24.9233 31.7806C24.8291 31.8351 24.7221 31.8639 24.6132 31.864C24.5043 31.8641 24.3973 31.8356 24.3029 31.7812C24.2085 31.7269 24.1301 31.6487 24.0755 31.5544C24.021 31.4602 23.9921 31.3532 23.992 31.2443Z" fill="#8C8C8C"/>
<path d="M158.764 17.4799V27.1598C158.763 27.2997 158.706 27.4336 158.607 27.5322C158.508 27.6307 158.374 27.6861 158.234 27.686H154.331C154.191 27.686 154.056 27.6302 153.956 27.5308C153.857 27.4314 153.801 27.2966 153.801 27.1561V26.8321C153.801 26.8027 153.792 26.774 153.777 26.7491C153.761 26.7242 153.739 26.7042 153.712 26.6912C153.686 26.6782 153.656 26.6727 153.627 26.6755C153.598 26.6782 153.57 26.689 153.546 26.7066C152.443 27.5606 150.968 28.1673 148.968 28.1673C145.359 28.1673 142.941 26.0812 142.941 22.9032C142.941 19.7552 145.359 17.7009 149.683 17.7009H153.488C153.573 17.7004 153.654 17.6665 153.714 17.6065C153.774 17.5466 153.808 17.4654 153.809 17.3806C153.809 16.0323 152.872 15.1334 151.52 15.1334C150.168 15.1334 149.292 15.6109 148.93 16.6934C148.89 16.8184 148.806 16.9245 148.693 16.9915C148.58 17.0585 148.447 17.0817 148.318 17.0567L144.376 16.2626C144.318 16.2511 144.263 16.2275 144.214 16.1934C144.166 16.1593 144.125 16.1154 144.095 16.0646C144.064 16.0139 144.045 15.9573 144.037 15.8985C144.03 15.8397 144.035 15.78 144.052 15.7233C144.923 12.8712 147.666 11.0996 151.344 11.0996C155.897 11.0903 158.764 13.3693 158.764 17.4799ZM153.801 21.332V21.1447C153.801 21.1025 153.784 21.062 153.755 21.0322C153.725 21.0023 153.684 20.9856 153.642 20.9856H150.256C148.968 20.9856 148.162 21.6597 148.162 22.6541C148.162 23.6822 149.063 24.3246 150.41 24.3246C152.191 24.3152 153.801 23.1317 153.801 21.332Z" fill="#8C8C8C"/>
<path d="M163.855 22.1994C163.855 23.0346 164.467 23.6133 165.402 23.6133C165.887 23.5796 166.366 23.4781 166.823 23.3118C166.88 23.2941 166.94 23.2885 166.999 23.2955C167.058 23.3024 167.115 23.3217 167.166 23.352C167.217 23.3824 167.262 23.4232 167.296 23.4717C167.33 23.5203 167.354 23.5755 167.366 23.6339L167.995 26.7744C168.018 26.8901 168.002 27.0103 167.949 27.1158C167.896 27.2213 167.81 27.3061 167.703 27.3568C166.645 27.9086 165.467 28.1886 164.274 28.1714C160.922 28.1714 158.699 25.9242 158.699 22.5852V3.49872C158.699 3.35817 158.755 3.22336 158.854 3.12397C158.954 3.02458 159.089 2.96875 159.229 2.96875H163.325C163.465 2.96875 163.6 3.02458 163.7 3.12397C163.799 3.22336 163.855 3.35817 163.855 3.49872V22.1994Z" fill="#8C8C8C"/>
<path d="M183.055 27.6864H178.961C178.82 27.6864 178.686 27.6305 178.586 27.5311C178.487 27.4317 178.431 27.2969 178.431 27.1564V26.5253C178.431 26.4943 178.423 26.4638 178.406 26.4378C178.389 26.4117 178.365 26.3912 178.337 26.3788C178.308 26.3664 178.277 26.3626 178.246 26.368C178.216 26.3735 178.187 26.3878 178.165 26.4092C176.963 27.5328 175.356 28.1676 173.468 28.1676C169.697 28.1676 167.184 25.5028 167.184 21.4578V12.0943C167.184 11.9536 167.239 11.8186 167.339 11.7189C167.438 11.6192 167.573 11.563 167.714 11.5625H171.777C171.918 11.563 172.053 11.6192 172.152 11.7189C172.251 11.8186 172.307 11.9536 172.307 12.0943V20.3604C172.307 22.2556 173.431 23.544 175.079 23.544C177.109 23.544 178.431 22.1638 178.431 19.0495V12.1037C178.431 12.0339 178.444 11.9648 178.471 11.9003C178.497 11.8358 178.536 11.7772 178.586 11.7277C178.635 11.6783 178.693 11.6391 178.758 11.6124C178.822 11.5856 178.891 11.5719 178.961 11.5719H183.055C183.196 11.5719 183.331 11.6279 183.431 11.7276C183.53 11.8274 183.586 11.9626 183.586 12.1037V27.1601C183.585 27.3002 183.528 27.434 183.429 27.5326C183.329 27.6311 183.195 27.6864 183.055 27.6864Z" fill="#8C8C8C"/>
<path d="M199.467 20.9443H188.733C188.709 20.9444 188.687 20.9497 188.666 20.9596C188.645 20.9695 188.626 20.9839 188.611 21.0018C188.597 21.0196 188.586 21.0405 188.58 21.0629C188.574 21.0853 188.573 21.1087 188.577 21.1315C189.025 22.9424 190.272 24.0511 191.897 24.0511C192.969 24.0511 194.201 23.8001 195.045 22.5023C195.104 22.4104 195.189 22.3385 195.289 22.2963C195.39 22.2541 195.501 22.2437 195.607 22.2664L199.017 23.0042C199.096 23.02 199.169 23.0533 199.233 23.1017C199.296 23.15 199.348 23.2121 199.384 23.2833C199.42 23.3545 199.439 23.4329 199.441 23.5127C199.442 23.5925 199.426 23.6715 199.392 23.7439C197.965 26.7402 195.259 28.1785 191.901 28.1785C187.382 28.1785 183.645 24.744 183.645 19.639C183.645 14.5659 187.39 11.0977 191.931 11.0977C196.356 11.0977 199.907 14.373 200.001 19.639V20.4236C199.998 20.5631 199.94 20.6958 199.84 20.7931C199.74 20.8905 199.606 20.9448 199.467 20.9443ZM188.843 17.7981H194.862C194.887 17.7981 194.911 17.7922 194.934 17.7809C194.956 17.7697 194.975 17.7534 194.99 17.7333C195.004 17.7133 195.014 17.6901 195.018 17.6656C195.023 17.6411 195.021 17.6159 195.014 17.5921C194.506 16.0004 193.304 15.2607 191.927 15.2607C191.214 15.2637 190.52 15.4887 189.94 15.9045C189.36 16.3203 188.925 16.9062 188.693 17.5809C188.684 17.6054 188.681 17.6318 188.684 17.6578C188.687 17.6838 188.696 17.7087 188.711 17.7304C188.725 17.7521 188.745 17.7699 188.768 17.7824C188.791 17.7948 188.817 17.8015 188.843 17.8019V17.7981Z" fill="#8C8C8C"/>
<path d="M70.1419 12.3296L65.962 13.1798C65.8581 13.1996 65.7505 13.1796 65.6606 13.1238C65.5708 13.0679 65.5052 12.9803 65.477 12.8783C64.9714 11.1554 63.4395 10.3071 61.8796 10.3071C60.1455 10.3071 59.0424 11.2435 59.0424 12.442C59.0424 13.2903 59.417 13.9177 60.7447 14.2004L65.1268 15.1742C68.7823 15.9907 70.9321 17.9702 70.9321 21.2979C70.9321 25.7924 66.9283 28.1127 62.2316 28.1127C57.6772 28.1127 53.9019 26.0433 53.0892 22.2586C53.075 22.191 53.0745 22.1211 53.0876 22.0532C53.1007 21.9854 53.1272 21.9208 53.1656 21.8632C53.2039 21.8057 53.2533 21.7564 53.311 21.7182C53.3686 21.68 53.4332 21.6536 53.5011 21.6406L57.9787 20.7754C58.0794 20.7556 58.1839 20.7737 58.2721 20.8262C58.3603 20.8788 58.4259 20.9621 58.4563 21.0601C59.0649 22.974 60.5162 23.8111 62.5163 23.8111C64.4695 23.8111 65.6362 22.9309 65.6362 21.6444C65.6362 20.708 65.1942 20.105 63.683 19.7904L59.269 18.8541C56.2428 18.1631 53.5967 16.5937 53.5967 12.7622C53.5967 8.67975 56.9993 6.13477 61.9489 6.13477C66.3291 6.13477 69.5688 8.19473 70.5482 11.6873C70.5662 11.7563 70.5697 11.8282 70.5587 11.8986C70.5477 11.969 70.5224 12.0364 70.4843 12.0966C70.4462 12.1568 70.3962 12.2085 70.3373 12.2486C70.2784 12.2887 70.2119 12.3163 70.1419 12.3296Z" fill="#8C8C8C"/>
<path d="M88.6097 19.6322C88.6097 24.7091 84.5703 28.0949 79.7949 28.0949C74.9259 28.0949 70.8828 24.7091 70.8828 19.6322C70.8828 14.576 74.9222 11.2051 79.7949 11.2051C84.5703 11.192 88.6097 14.576 88.6097 19.6322ZM83.6733 19.6322C83.6733 17.1397 81.7819 15.4786 79.7949 15.4786C77.7106 15.4786 75.8192 17.1397 75.8192 19.6322C75.8192 22.1547 77.7106 23.784 79.7949 23.784C81.7819 23.7765 83.6733 22.1472 83.6733 19.6322Z" fill="#8C8C8C"/>
<path d="M105.536 12.3296L101.357 13.1798C101.253 13.1996 101.145 13.1796 101.055 13.1238C100.965 13.0679 100.9 12.9803 100.872 12.8783C100.366 11.1554 98.834 10.3071 97.2741 10.3071C95.54 10.3071 94.437 11.2435 94.437 12.442C94.437 13.2903 94.8115 13.9177 96.1392 14.2004L100.521 15.1742C104.177 15.9907 106.327 17.9702 106.327 21.2979C106.327 25.7924 102.323 28.1127 97.6262 28.1127C93.0718 28.1127 89.2964 26.0433 88.4837 22.2586C88.4695 22.191 88.469 22.1211 88.4821 22.0532C88.4952 21.9854 88.5217 21.9208 88.5601 21.8632C88.5984 21.8057 88.6479 21.7564 88.7055 21.7182C88.7631 21.68 88.8278 21.6536 88.8957 21.6406L93.3733 20.7754C93.474 20.7556 93.5785 20.7737 93.6666 20.8262C93.7548 20.8788 93.8204 20.9621 93.8508 21.0601C94.4594 22.974 95.9108 23.8111 97.9108 23.8111C99.864 23.8111 101.031 22.9309 101.031 21.6444C101.031 20.708 100.589 20.105 99.0775 19.7904L94.6636 18.8541C91.6373 18.1631 88.9912 16.5937 88.9912 12.7622C88.9912 8.67975 92.3939 6.13477 97.3434 6.13477C101.724 6.13477 104.963 8.19473 105.943 11.6873C105.961 11.7563 105.964 11.8282 105.953 11.8986C105.942 11.969 105.917 12.0364 105.879 12.0966C105.841 12.1568 105.791 12.2085 105.732 12.2486C105.673 12.2887 105.606 12.3163 105.536 12.3296Z" fill="#8C8C8C"/>
<path d="M124 19.6342C124 24.711 119.961 28.0969 115.186 28.0969C110.317 28.0969 106.273 24.711 106.273 19.6342C106.273 14.5779 110.313 11.2071 115.186 11.2071C119.961 11.194 124 14.5779 124 19.6342ZM119.064 19.6342C119.064 17.1416 117.172 15.4805 115.186 15.4805C113.101 15.4805 111.21 17.1416 111.21 19.6342C111.21 22.1567 113.101 23.7859 115.186 23.7859C117.172 23.7784 119.064 22.1492 119.064 19.6342Z" fill="#8C8C8C"/>
<path d="M138.197 28.1578H133.942C133.797 28.1571 133.655 28.114 133.534 28.0339C133.412 27.9537 133.317 27.84 133.259 27.7065L124.307 6.73239C124.28 6.66772 124.269 6.59722 124.275 6.52721C124.282 6.4572 124.305 6.38986 124.344 6.33122C124.383 6.27258 124.435 6.22448 124.497 6.19121C124.559 6.15795 124.629 6.14057 124.699 6.14063H129.557C129.704 6.14142 129.847 6.18554 129.97 6.26746C130.092 6.34939 130.187 6.4655 130.244 6.6013L135.909 20.3824C135.921 20.4115 135.941 20.4363 135.967 20.4538C135.994 20.4712 136.024 20.4806 136.056 20.4806C136.087 20.4806 136.118 20.4712 136.144 20.4538C136.17 20.4363 136.191 20.4115 136.203 20.3824L141.9 6.61254C141.956 6.47738 142.052 6.36187 142.173 6.28031C142.295 6.19875 142.438 6.15474 142.585 6.15374H147.454C147.524 6.15399 147.593 6.1716 147.655 6.20499C147.716 6.23838 147.769 6.28652 147.807 6.34511C147.846 6.4037 147.869 6.47092 147.876 6.54078C147.882 6.61064 147.871 6.68097 147.843 6.7455L138.894 27.7196C138.833 27.8527 138.735 27.9651 138.611 28.043C138.487 28.1208 138.343 28.1608 138.197 28.1578Z" fill="#8C8C8C"/>
<path d="M58.7825 35.3676C58.7397 35.4317 58.697 35.4797 58.6543 35.5118C58.6116 35.5385 58.5582 35.5518 58.4941 35.5518C58.4193 35.5518 58.3365 35.5225 58.2457 35.4637C58.1602 35.405 58.0534 35.3409 57.9252 35.2714C57.8024 35.1966 57.6502 35.1299 57.4686 35.0711C57.287 35.007 57.068 34.975 56.8116 34.975C56.5712 34.975 56.3523 35.0097 56.1546 35.0791C55.957 35.1432 55.7861 35.234 55.6419 35.3515C55.503 35.469 55.3935 35.6079 55.3134 35.7681C55.2386 35.923 55.2012 36.0886 55.2012 36.2649C55.2012 36.5159 55.284 36.7162 55.4496 36.8658C55.6152 37.0153 55.8235 37.1462 56.0745 37.2583C56.3255 37.3652 56.5953 37.4693 56.8837 37.5708C57.1721 37.6723 57.4418 37.8005 57.6929 37.9554C57.9439 38.1102 58.1522 38.3079 58.3178 38.5482C58.4834 38.7886 58.5662 39.101 58.5662 39.4856C58.5662 39.8595 58.4914 40.2173 58.3418 40.5592C58.1976 40.901 57.9866 41.2028 57.7089 41.4645C57.4365 41.7209 57.1054 41.9265 56.7155 42.0814C56.3309 42.2363 55.8983 42.3137 55.4176 42.3137C54.8995 42.3137 54.4401 42.2229 54.0395 42.0413C53.6443 41.8544 53.3211 41.6167 53.0701 41.3283L53.4226 40.7835C53.4707 40.7141 53.5214 40.6606 53.5749 40.6233C53.6336 40.5859 53.7084 40.5672 53.7992 40.5672C53.8846 40.5672 53.9701 40.6046 54.0556 40.6793C54.141 40.7541 54.2478 40.8396 54.376 40.9357C54.5042 41.0265 54.6644 41.1093 54.8567 41.1841C55.0544 41.2589 55.3027 41.2962 55.6018 41.2962C55.8635 41.2962 56.0985 41.2562 56.3069 41.1761C56.5205 41.096 56.6994 40.9891 56.8436 40.8556C56.9932 40.7221 57.1054 40.5672 57.1801 40.3909C57.2602 40.2093 57.3003 40.017 57.3003 39.8141C57.3003 39.5417 57.2175 39.3254 57.0519 39.1651C56.8864 39.0049 56.6781 38.8714 56.427 38.7645C56.176 38.6577 55.9063 38.5589 55.6178 38.4681C55.3294 38.372 55.0597 38.2518 54.8087 38.1076C54.5576 37.958 54.3493 37.7657 54.1837 37.5307C54.0182 37.2957 53.9354 36.9833 53.9354 36.5934C53.9354 36.2515 54.0021 35.923 54.1357 35.6079C54.2745 35.2874 54.4722 35.0044 54.7285 34.7587C54.9849 34.513 55.2947 34.318 55.6579 34.1738C56.0264 34.0243 56.4404 33.9495 56.8997 33.9495C57.3858 33.9495 57.8131 34.0323 58.1816 34.1978C58.5555 34.3581 58.8759 34.5771 59.143 34.8548L58.7825 35.3676ZM63.1231 41.1841C63.513 41.1841 63.8655 41.0773 64.1806 40.8636C64.5011 40.65 64.7735 40.3669 64.9978 40.0144C65.2275 39.6565 65.4038 39.2452 65.5266 38.7806C65.6495 38.3159 65.7109 37.8298 65.7109 37.3224C65.7109 36.5747 65.5613 36.0138 65.2622 35.64C64.9685 35.2607 64.5438 35.0711 63.9884 35.0711C63.5931 35.0711 63.2352 35.178 62.9148 35.3916C62.5997 35.5999 62.3299 35.8803 62.1056 36.2328C61.8813 36.5853 61.7077 36.9939 61.5848 37.4586C61.462 37.9233 61.4006 38.4094 61.4006 38.9168C61.4006 39.6645 61.5474 40.2307 61.8412 40.6152C62.135 40.9945 62.5623 41.1841 63.1231 41.1841ZM62.9869 42.2977C62.5436 42.2977 62.1376 42.2229 61.7691 42.0734C61.4006 41.9185 61.0828 41.6968 60.8157 41.4084C60.5486 41.12 60.3403 40.7675 60.1908 40.3509C60.0412 39.9343 59.9665 39.4589 59.9665 38.9248C59.9665 38.2411 60.0733 37.5975 60.2869 36.9939C60.5006 36.3904 60.7943 35.8643 61.1682 35.4156C61.5421 34.9616 61.9801 34.6038 62.4821 34.3421C62.9896 34.0803 63.5344 33.9495 64.1165 33.9495C64.5599 33.9495 64.9658 34.0269 65.3343 34.1818C65.7029 34.3314 66.0207 34.5504 66.2877 34.8388C66.5548 35.1272 66.7631 35.4797 66.9126 35.8963C67.0622 36.3129 67.137 36.7856 67.137 37.3144C67.137 37.9927 67.0301 38.6337 66.8165 39.2372C66.6028 39.8408 66.3091 40.3696 65.9352 40.8236C65.5667 41.2776 65.1287 41.6381 64.6213 41.9051C64.1139 42.1669 63.5691 42.2977 62.9869 42.2977ZM73.5072 35.3676C73.4644 35.4317 73.4217 35.4797 73.379 35.5118C73.3362 35.5385 73.2828 35.5518 73.2187 35.5518C73.144 35.5518 73.0612 35.5225 72.9704 35.4637C72.8849 35.405 72.7781 35.3409 72.6499 35.2714C72.5271 35.1966 72.3748 35.1299 72.1932 35.0711C72.0116 35.007 71.7927 34.975 71.5363 34.975C71.2959 34.975 71.0769 35.0097 70.8793 35.0791C70.6817 35.1432 70.5108 35.234 70.3666 35.3515C70.2277 35.469 70.1182 35.6079 70.0381 35.7681C69.9633 35.923 69.9259 36.0886 69.9259 36.2649C69.9259 36.5159 70.0087 36.7162 70.1743 36.8658C70.3399 37.0153 70.5482 37.1462 70.7992 37.2583C71.0502 37.3652 71.32 37.4693 71.6084 37.5708C71.8968 37.6723 72.1665 37.8005 72.4176 37.9554C72.6686 38.1102 72.8769 38.3079 73.0425 38.5482C73.2081 38.7886 73.2908 39.101 73.2908 39.4856C73.2908 39.8595 73.2161 40.2173 73.0665 40.5592C72.9223 40.901 72.7113 41.2028 72.4336 41.4645C72.1612 41.7209 71.83 41.9265 71.4401 42.0814C71.0556 42.2363 70.6229 42.3137 70.1422 42.3137C69.6241 42.3137 69.1648 42.2229 68.7642 42.0413C68.369 41.8544 68.0458 41.6167 67.7948 41.3283L68.1473 40.7835C68.1954 40.7141 68.2461 40.6606 68.2995 40.6233C68.3583 40.5859 68.4331 40.5672 68.5239 40.5672C68.6093 40.5672 68.6948 40.6046 68.7802 40.6793C68.8657 40.7541 68.9725 40.8396 69.1007 40.9357C69.2289 41.0265 69.3891 41.1093 69.5814 41.1841C69.779 41.2589 70.0274 41.2962 70.3265 41.2962C70.5882 41.2962 70.8232 41.2562 71.0315 41.1761C71.2452 41.096 71.4241 40.9891 71.5683 40.8556C71.7179 40.7221 71.83 40.5672 71.9048 40.3909C71.9849 40.2093 72.025 40.017 72.025 39.8141C72.025 39.5417 71.9422 39.3254 71.7766 39.1651C71.6111 39.0049 71.4028 38.8714 71.1517 38.7645C70.9007 38.6577 70.631 38.5589 70.3425 38.4681C70.0541 38.372 69.7844 38.2518 69.5333 38.1076C69.2823 37.958 69.074 37.7657 68.9084 37.5307C68.7429 37.2957 68.6601 36.9833 68.6601 36.5934C68.6601 36.2515 68.7268 35.923 68.8604 35.6079C68.9992 35.2874 69.1969 35.0044 69.4532 34.7587C69.7096 34.513 70.0194 34.318 70.3826 34.1738C70.7511 34.0243 71.1651 33.9495 71.6244 33.9495C72.1105 33.9495 72.5377 34.0323 72.9063 34.1978C73.2802 34.3581 73.6006 34.5771 73.8677 34.8548L73.5072 35.3676ZM77.8478 41.1841C78.2377 41.1841 78.5902 41.0773 78.9053 40.8636C79.2258 40.65 79.4982 40.3669 79.7225 40.0144C79.9522 39.6565 80.1284 39.2452 80.2513 38.7806C80.3741 38.3159 80.4356 37.8298 80.4356 37.3224C80.4356 36.5747 80.286 36.0138 79.9869 35.64C79.6931 35.2607 79.2685 35.0711 78.713 35.0711C78.3178 35.0711 77.9599 35.178 77.6395 35.3916C77.3243 35.5999 77.0546 35.8803 76.8303 36.2328C76.606 36.5853 76.4324 36.9939 76.3095 37.4586C76.1867 37.9233 76.1252 38.4094 76.1252 38.9168C76.1252 39.6645 76.2721 40.2307 76.5659 40.6152C76.8597 40.9945 77.2869 41.1841 77.8478 41.1841ZM77.7116 42.2977C77.2683 42.2977 76.8623 42.2229 76.4938 42.0734C76.1252 41.9185 75.8074 41.6968 75.5404 41.4084C75.2733 41.12 75.065 40.7675 74.9155 40.3509C74.7659 39.9343 74.6911 39.4589 74.6911 38.9248C74.6911 38.2411 74.798 37.5975 75.0116 36.9939C75.2253 36.3904 75.519 35.8643 75.8929 35.4156C76.2668 34.9616 76.7048 34.6038 77.2068 34.3421C77.7142 34.0803 78.259 33.9495 78.8412 33.9495C79.2845 33.9495 79.6905 34.0269 80.059 34.1818C80.4275 34.3314 80.7453 34.5504 81.0124 34.8388C81.2795 35.1272 81.4878 35.4797 81.6373 35.8963C81.7869 36.3129 81.8616 36.7856 81.8616 37.3144C81.8616 37.9927 81.7548 38.6337 81.5412 39.2372C81.3275 39.8408 81.0338 40.3696 80.6599 40.8236C80.2913 41.2776 79.8534 41.6381 79.346 41.9051C78.8386 42.1669 78.2938 42.2977 77.7116 42.2977ZM90.2084 34.0697L86.1384 42.1855H84.9527L82.8536 34.0697H84.0073C84.1141 34.0697 84.1996 34.099 84.2637 34.1578C84.3278 34.2165 84.3705 34.286 84.3919 34.3661L85.5936 39.5897C85.6257 39.7927 85.6524 39.993 85.6737 40.1906C85.6951 40.3882 85.7138 40.5885 85.7298 40.7915C85.7886 40.5939 85.8527 40.3963 85.9221 40.1986C85.9915 40.001 86.0716 39.7981 86.1624 39.5897L88.6701 34.3661C88.7129 34.2806 88.7716 34.2112 88.8464 34.1578C88.9212 34.099 89.0066 34.0697 89.1028 34.0697H90.2084ZM95.7114 35.0631C95.5939 35.0364 95.4764 35.0204 95.3589 35.015C95.2468 35.0044 95.1346 34.999 95.0224 34.999C94.702 34.999 94.3922 35.0524 94.0931 35.1593C93.794 35.2607 93.5135 35.405 93.2518 35.5919C92.9901 35.7788 92.7524 36.0032 92.5388 36.2649C92.3251 36.5213 92.1409 36.8043 91.986 37.1141C91.8364 37.4239 91.7189 37.7551 91.6335 38.1076C91.548 38.4548 91.5053 38.8126 91.5053 39.1811C91.5053 40.4684 91.9165 41.112 92.7391 41.112C93.0008 41.112 93.2572 41.0319 93.5082 40.8716C93.7592 40.706 93.9969 40.479 94.2212 40.1906C94.4509 39.8969 94.6619 39.5524 94.8542 39.1571C95.0465 38.7565 95.2174 38.3186 95.3669 37.8432L95.7114 35.0631ZM95.1666 40.0464C94.9744 40.3882 94.766 40.698 94.5417 40.9758C94.3227 41.2535 94.0877 41.4912 93.8367 41.6888C93.591 41.8811 93.3293 42.0307 93.0515 42.1375C92.7791 42.2443 92.4961 42.2977 92.2023 42.2977C91.8818 42.2977 91.5907 42.2363 91.329 42.1134C91.0673 41.9853 90.843 41.801 90.656 41.5606C90.4744 41.3149 90.3329 41.0158 90.2314 40.6633C90.1299 40.3055 90.0792 39.8969 90.0792 39.4375C90.0792 38.9568 90.1379 38.4895 90.2554 38.0355C90.3783 37.5761 90.5492 37.1435 90.7682 36.7376C90.9925 36.3316 91.2596 35.9604 91.5694 35.6239C91.8792 35.2821 92.2237 34.9883 92.6029 34.7426C92.9874 34.4916 93.3987 34.2993 93.8367 34.1658C94.2747 34.0269 94.734 33.9575 95.2147 33.9575C95.5619 33.9575 95.8984 33.9869 96.2242 34.0456C96.5553 34.099 96.8811 34.1952 97.2016 34.334L96.2322 42.1855H95.4951C95.3082 42.1855 95.18 42.1375 95.1106 42.0413C95.0465 41.9452 95.0144 41.8277 95.0144 41.6888L95.1666 40.0464ZM98.3752 42.1855L99.8093 30.3843H101.211L99.7773 42.1855H98.3752ZM109.273 34.0697L108.295 42.1855H107.59C107.243 42.1855 107.07 42.0146 107.07 41.6728L107.19 40.1906C106.763 40.885 106.279 41.4111 105.74 41.7689C105.206 42.1215 104.655 42.2977 104.089 42.2977C103.747 42.2977 103.446 42.2309 103.184 42.0974C102.922 41.9585 102.709 41.7583 102.543 41.4965C102.383 41.2348 102.273 40.9144 102.215 40.5351C102.156 40.1559 102.158 39.7206 102.223 39.2292L102.831 34.0697H104.25L103.641 39.2292C103.566 39.8648 103.603 40.3375 103.753 40.6473C103.908 40.9571 104.196 41.112 104.618 41.112C104.864 41.112 105.117 41.0452 105.379 40.9117C105.641 40.7782 105.892 40.5885 106.132 40.3428C106.373 40.0972 106.597 39.8007 106.805 39.4535C107.019 39.101 107.201 38.7111 107.35 38.2838L107.855 34.0697H109.273ZM114.541 34.983C114.205 34.983 113.895 35.0524 113.612 35.1913C113.329 35.3302 113.078 35.5225 112.859 35.7681C112.64 36.0085 112.453 36.2943 112.298 36.6254C112.143 36.9512 112.023 37.3037 111.938 37.683C112.76 37.5815 113.42 37.4666 113.916 37.3384C114.413 37.2049 114.795 37.0634 115.062 36.9138C115.329 36.7589 115.505 36.5934 115.591 36.4171C115.676 36.2408 115.719 36.0566 115.719 35.8643C115.719 35.7681 115.698 35.6693 115.655 35.5679C115.612 35.461 115.543 35.3649 115.447 35.2794C115.356 35.194 115.236 35.1245 115.086 35.0711C114.937 35.0124 114.755 34.983 114.541 34.983ZM116.801 40.6874C116.528 40.9704 116.261 41.2135 116 41.4164C115.738 41.614 115.471 41.7796 115.198 41.9131C114.931 42.0467 114.648 42.1428 114.349 42.2016C114.055 42.2657 113.738 42.2977 113.396 42.2977C112.931 42.2977 112.514 42.2203 112.146 42.0654C111.777 41.9105 111.465 41.6915 111.208 41.4084C110.952 41.12 110.755 40.7728 110.616 40.3669C110.477 39.961 110.407 39.507 110.407 39.0049C110.407 38.5883 110.45 38.1743 110.536 37.7631C110.626 37.3465 110.755 36.9512 110.92 36.5773C111.091 36.2035 111.297 35.8563 111.537 35.5358C111.783 35.2153 112.06 34.9403 112.37 34.7106C112.685 34.4756 113.03 34.2913 113.404 34.1578C113.783 34.0243 114.189 33.9575 114.621 33.9575C115.033 33.9575 115.388 34.0163 115.687 34.1338C115.986 34.2513 116.232 34.4008 116.424 34.5824C116.616 34.764 116.758 34.9643 116.849 35.1833C116.945 35.4023 116.993 35.6106 116.993 35.8082C116.993 36.1607 116.921 36.4865 116.777 36.7856C116.632 37.0794 116.368 37.3465 115.983 37.5868C115.599 37.8218 115.07 38.0275 114.397 38.2037C113.724 38.38 112.859 38.5215 111.801 38.6283C111.801 38.6871 111.799 38.7458 111.793 38.8046C111.793 38.858 111.793 38.9141 111.793 38.9728C111.793 39.6886 111.948 40.236 112.258 40.6152C112.573 40.9891 113.046 41.1761 113.676 41.1761C113.932 41.1761 114.159 41.1494 114.357 41.096C114.56 41.0425 114.739 40.9784 114.894 40.9037C115.054 40.8236 115.193 40.7381 115.311 40.6473C115.433 40.5512 115.543 40.4657 115.639 40.3909C115.74 40.3108 115.834 40.244 115.919 40.1906C116.005 40.1372 116.09 40.1105 116.176 40.1105C116.277 40.1105 116.368 40.1559 116.448 40.2467L116.801 40.6874ZM118.027 41.3043C118.027 41.1654 118.051 41.0345 118.099 40.9117C118.152 40.7888 118.222 40.682 118.307 40.5912C118.398 40.5004 118.505 40.4283 118.628 40.3749C118.75 40.3215 118.881 40.2948 119.02 40.2948C119.159 40.2948 119.29 40.3215 119.413 40.3749C119.536 40.4283 119.642 40.5004 119.733 40.5912C119.824 40.682 119.896 40.7888 119.95 40.9117C120.003 41.0345 120.03 41.1654 120.03 41.3043C120.03 41.4485 120.003 41.582 119.95 41.7048C119.896 41.8223 119.824 41.9265 119.733 42.0173C119.642 42.1081 119.536 42.1775 119.413 42.2256C119.29 42.279 119.159 42.3057 119.02 42.3057C118.881 42.3057 118.75 42.279 118.628 42.2256C118.505 42.1775 118.398 42.1081 118.307 42.0173C118.222 41.9265 118.152 41.8223 118.099 41.7048C118.051 41.582 118.027 41.4485 118.027 41.3043ZM127.919 40.7274C127.641 41.0319 127.377 41.2856 127.126 41.4885C126.875 41.6915 126.624 41.8544 126.373 41.9772C126.122 42.0947 125.86 42.1775 125.588 42.2256C125.321 42.2737 125.032 42.2977 124.723 42.2977C124.253 42.2977 123.836 42.2176 123.473 42.0574C123.115 41.8971 122.813 41.6728 122.567 41.3844C122.327 41.0906 122.143 40.7408 122.015 40.3348C121.892 39.9236 121.83 39.4722 121.83 38.9809C121.83 38.3239 121.932 37.6936 122.135 37.0901C122.343 36.4865 122.631 35.9524 123 35.4877C123.369 35.0231 123.807 34.6518 124.314 34.3741C124.827 34.0964 125.385 33.9575 125.988 33.9575C126.528 33.9575 126.979 34.0536 127.342 34.2459C127.706 34.4329 128.023 34.7079 128.296 35.0711L127.847 35.6079C127.81 35.6506 127.767 35.6854 127.719 35.7121C127.676 35.7388 127.625 35.7521 127.567 35.7521C127.492 35.7521 127.417 35.7201 127.342 35.656C127.273 35.5865 127.179 35.5118 127.062 35.4317C126.944 35.3462 126.798 35.2714 126.621 35.2073C126.45 35.1379 126.229 35.1032 125.956 35.1032C125.588 35.1032 125.241 35.2047 124.915 35.4076C124.589 35.6052 124.303 35.8776 124.058 36.2248C123.812 36.572 123.617 36.9833 123.473 37.4586C123.334 37.934 123.264 38.4441 123.264 38.9889C123.264 39.32 123.302 39.6218 123.377 39.8942C123.451 40.1612 123.564 40.3909 123.713 40.5832C123.863 40.7701 124.044 40.917 124.258 41.0238C124.477 41.1253 124.731 41.1761 125.019 41.1761C125.377 41.1761 125.676 41.1227 125.916 41.0158C126.162 40.909 126.368 40.7942 126.533 40.6713C126.699 40.5431 126.838 40.4256 126.95 40.3188C127.067 40.212 127.182 40.1586 127.294 40.1586C127.396 40.1586 127.487 40.204 127.567 40.2948L127.919 40.7274ZM132.115 41.1841C132.505 41.1841 132.857 41.0773 133.172 40.8636C133.493 40.65 133.765 40.3669 133.989 40.0144C134.219 39.6565 134.395 39.2452 134.518 38.7806C134.641 38.3159 134.703 37.8298 134.703 37.3224C134.703 36.5747 134.553 36.0138 134.254 35.64C133.96 35.2607 133.535 35.0711 132.98 35.0711C132.585 35.0711 132.227 35.178 131.906 35.3916C131.591 35.5999 131.322 35.8803 131.097 36.2328C130.873 36.5853 130.699 36.9939 130.576 37.4586C130.454 37.9233 130.392 38.4094 130.392 38.9168C130.392 39.6645 130.539 40.2307 130.833 40.6152C131.127 40.9945 131.554 41.1841 132.115 41.1841ZM131.979 42.2977C131.535 42.2977 131.129 42.2229 130.761 42.0734C130.392 41.9185 130.074 41.6968 129.807 41.4084C129.54 41.12 129.332 40.7675 129.182 40.3509C129.033 39.9343 128.958 39.4589 128.958 38.9248C128.958 38.2411 129.065 37.5975 129.279 36.9939C129.492 36.3904 129.786 35.8643 130.16 35.4156C130.534 34.9616 130.972 34.6038 131.474 34.3421C131.981 34.0803 132.526 33.9495 133.108 33.9495C133.552 33.9495 133.957 34.0269 134.326 34.1818C134.695 34.3314 135.012 34.5504 135.279 34.8388C135.546 35.1272 135.755 35.4797 135.904 35.8963C136.054 36.3129 136.129 36.7856 136.129 37.3144C136.129 37.9927 136.022 38.6337 135.808 39.2372C135.594 39.8408 135.301 40.3696 134.927 40.8236C134.558 41.2776 134.12 41.6381 133.613 41.9051C133.106 42.1669 132.561 42.2977 131.979 42.2977ZM137.267 42.1855L138.245 34.0617H138.95C139.275 34.0617 139.438 34.2219 139.438 34.5424L139.326 35.9845C139.727 35.3168 140.165 34.8121 140.64 34.4702C141.121 34.1231 141.623 33.9495 142.146 33.9495C142.696 33.9495 143.102 34.1391 143.364 34.5183C143.626 34.8922 143.757 35.429 143.757 36.1287C144.157 35.3863 144.609 34.8388 145.111 34.4863C145.618 34.1284 146.152 33.9495 146.713 33.9495C147.407 33.9495 147.899 34.2165 148.187 34.7507C148.476 35.2848 148.561 36.0405 148.444 37.018L147.835 42.1855H146.425L147.041 37.018C147.116 36.3824 147.095 35.9097 146.977 35.5999C146.865 35.2901 146.609 35.1352 146.208 35.1352C145.979 35.1352 145.749 35.194 145.519 35.3115C145.295 35.4236 145.076 35.5919 144.862 35.8162C144.649 36.0352 144.448 36.3103 144.261 36.6414C144.08 36.9672 143.917 37.3438 143.773 37.7711V37.7791L143.252 42.1855H141.842L142.451 37.018C142.531 36.3824 142.52 35.9097 142.419 35.5999C142.317 35.2901 142.066 35.1352 141.666 35.1352C141.409 35.1352 141.161 35.1993 140.921 35.3275C140.685 35.4557 140.461 35.6426 140.248 35.8883C140.039 36.1287 139.844 36.4251 139.663 36.7776C139.481 37.1248 139.315 37.5174 139.166 37.9554L138.661 42.1855H137.267Z" fill="#8C8C8C"/>
</g>
</svg>
