<svg width="146" height="32" viewBox="0 0 146 32" fill="none"
  xmlns="http://www.w3.org/2000/svg">
  <g id="Black - Horizontal 1" clip-path="url(#clip0_2217_16257)">
    <path id="Vector" fill-rule="evenodd" clip-rule="evenodd" d="M14.799 31.8319L28.0227 24.1605C28.1249 24.1012 28.2098 24.016 28.2688 23.9135C28.3278 23.811 28.3588 23.6948 28.3587 23.5765L28.327 8.2886C28.3267 8.17025 28.2953 8.05409 28.2359 7.95173C28.1765 7.84937 28.0912 7.76442 27.9887 7.70538L14.7332 0.0903441C14.6307 0.0311585 14.5144 0 14.396 0C14.2778 0 14.1614 0.0311585 14.0589 0.0903441L0.835196 7.76244C0.732834 7.82163 0.647925 7.90681 0.589065 8.00937C0.530205 8.11192 0.499482 8.2282 0.500007 8.34644L0.531703 23.6343C0.531777 23.7527 0.563113 23.8687 0.622531 23.9711C0.68195 24.0734 0.767344 24.1581 0.870062 24.2168L14.1255 31.8319C14.2279 31.891 14.3439 31.9222 14.4622 31.9222C14.5805 31.9222 14.6966 31.891 14.799 31.8319ZM18.5353 13.6207L24.3507 10.2062C24.4014 10.1762 24.4433 10.1335 24.4723 10.0823C24.5014 10.0311 24.5165 9.97321 24.5164 9.91433C24.5161 9.85546 24.5004 9.79767 24.471 9.7467C24.4416 9.69574 24.3993 9.65337 24.3483 9.6238L14.7404 4.10468C14.638 4.04549 14.5218 4.01432 14.4036 4.01432C14.2854 4.01432 14.1692 4.04549 14.0668 4.10468L4.31307 9.76168C4.21062 9.82103 4.1256 9.90633 4.06662 10.009C4.00763 10.1117 3.97675 10.2281 3.9771 10.3465L3.98582 13.5787C3.98588 13.6969 4.01714 13.813 4.07641 13.9153C4.13567 14.0175 4.22085 14.1024 4.32338 14.1611L10.6246 17.784C10.7274 17.843 10.8128 17.928 10.8722 18.0306C10.9316 18.1332 10.9629 18.2495 10.963 18.368V21.6098C10.9629 21.6492 10.9525 21.6879 10.9328 21.7219C10.9131 21.7561 10.8847 21.7844 10.8507 21.8041C10.8166 21.8239 10.7779 21.8343 10.7385 21.8344C10.6991 21.8344 10.6604 21.8243 10.6262 21.8047L7.67923 20.1113C7.61097 20.0713 7.55451 20.014 7.51555 19.9451C7.4766 19.8762 7.45652 19.7982 7.45736 19.719L7.45338 18.6557C7.45291 18.5364 7.42083 18.4194 7.36042 18.3165C7.30001 18.2136 7.21342 18.1285 7.10948 18.0701L4.48344 16.597C4.43218 16.5683 4.37426 16.5534 4.31547 16.5539C4.25668 16.5544 4.19905 16.5704 4.14833 16.6001C4.09761 16.6298 4.05555 16.6724 4.02635 16.7234C3.99714 16.7744 3.98179 16.8321 3.98184 16.891V18.9108L3.98898 21.6256C3.98906 21.7439 4.02039 21.8601 4.07981 21.9623C4.13923 22.0647 4.22462 22.1494 4.32734 22.208L13.7792 27.6218C13.8476 27.661 13.9251 27.6815 14.0039 27.6812C14.0826 27.6811 14.1601 27.6601 14.2283 27.6205C14.2965 27.5809 14.353 27.5241 14.3922 27.4557C14.4315 27.3874 14.4521 27.31 14.4519 27.2311L14.4361 16.3363C14.4359 16.2179 14.4044 16.1017 14.345 15.9993C14.2856 15.8969 14.2003 15.8121 14.0977 15.7531L7.82978 12.15C7.79554 12.1304 7.76708 12.102 7.74729 12.0679C7.7275 12.0337 7.71708 11.9949 7.71708 11.9555C7.71708 11.916 7.7275 11.8772 7.74729 11.8431C7.76708 11.8089 7.79554 11.7806 7.82978 11.7609L14.0787 8.14597C14.1812 8.08678 14.2976 8.05562 14.4159 8.05562C14.5343 8.05562 14.6505 8.08678 14.753 8.14597L17.5796 9.77199C17.6138 9.79162 17.6422 9.81995 17.662 9.8541C17.6818 9.88827 17.6923 9.92704 17.6923 9.96652C17.6923 10.006 17.6818 10.0448 17.662 10.0789C17.6422 10.1131 17.6138 10.1414 17.5796 10.1611L15.0882 11.5969C15.036 11.6271 14.9927 11.6707 14.9632 11.7233C14.9335 11.7759 14.9186 11.8355 14.9198 11.8958C14.9212 11.9562 14.9386 12.0151 14.9705 12.0663C15.0024 12.1176 15.0474 12.1593 15.1009 12.1872L17.8839 13.6373C17.9849 13.69 18.0977 13.7161 18.2117 13.7131C18.3256 13.7102 18.4369 13.6784 18.5353 13.6207Z" fill="currentColor"/>
    <path id="Vector_2" d="M17.8672 18.1074L17.8728 21.922C17.8729 22.0008 17.8938 22.0782 17.9332 22.1466C17.9727 22.2148 18.0295 22.2714 18.0978 22.3108C18.1662 22.3501 18.2437 22.3707 18.3225 22.3707C18.4014 22.3706 18.4789 22.3497 18.5471 22.3102L21.8435 20.3982C21.9457 20.3386 22.0304 20.2533 22.0893 20.1506C22.1481 20.048 22.1789 19.9316 22.1787 19.8134L22.1708 16.0027C22.1707 15.9238 22.1498 15.8464 22.1103 15.7782C22.0709 15.7099 22.014 15.6533 21.9457 15.6139C21.8774 15.5745 21.7998 15.5539 21.721 15.554C21.6421 15.554 21.5647 15.5749 21.4965 15.6144L18.2032 17.5232C18.1007 17.5825 18.0157 17.6676 17.9567 17.7702C17.8977 17.8727 17.8668 17.989 17.8672 18.1074Z" fill="var(--accent-600)"/>
    <path id="Vector_3" d="M115.667 16.1413V23.1501C115.667 23.2514 115.626 23.3483 115.554 23.4197C115.482 23.4911 115.385 23.5311 115.284 23.5311H112.458C112.356 23.5311 112.258 23.4907 112.187 23.4187C112.115 23.3467 112.074 23.2492 112.074 23.1474V22.9128C112.074 22.8915 112.068 22.8708 112.056 22.8527C112.045 22.8347 112.029 22.8202 112.01 22.8107C111.991 22.8014 111.969 22.7974 111.948 22.7995C111.927 22.8014 111.907 22.8092 111.89 22.822C111.091 23.4403 110.023 23.8796 108.574 23.8796C105.962 23.8796 104.211 22.3691 104.211 20.0681C104.211 17.7887 105.962 16.3013 109.092 16.3013H111.848C111.909 16.3009 111.968 16.2763 112.011 16.2329C112.055 16.1896 112.079 16.1308 112.08 16.0694C112.08 15.0932 111.402 14.4423 110.423 14.4423C109.444 14.4423 108.809 14.7881 108.547 15.5718C108.518 15.6624 108.457 15.7391 108.376 15.7877C108.294 15.8362 108.197 15.8529 108.104 15.8348L105.25 15.2599C105.208 15.2515 105.168 15.2344 105.133 15.2098C105.098 15.1851 105.068 15.1534 105.046 15.1166C105.024 15.0797 105.01 15.0388 105.004 14.9962C104.999 14.9536 105.003 14.9105 105.015 14.8694C105.646 12.8043 107.632 11.5216 110.295 11.5216C113.591 11.5148 115.667 13.165 115.667 16.1413ZM112.074 18.9304V18.7948C112.074 18.7643 112.062 18.7349 112.04 18.7134C112.019 18.6917 111.989 18.6796 111.959 18.6796H109.507C108.574 18.6796 107.991 19.1677 107.991 19.8877C107.991 20.6321 108.644 21.0972 109.619 21.0972C110.908 21.0904 112.074 20.2335 112.074 18.9304Z" fill="currentColor"/>
    <path id="Vector_4" d="M119.351 19.5582C119.351 20.163 119.795 20.582 120.471 20.582C120.823 20.5576 121.169 20.4841 121.501 20.3637C121.542 20.3508 121.585 20.3468 121.628 20.3519C121.671 20.3569 121.712 20.3708 121.749 20.3928C121.786 20.4148 121.818 20.4443 121.843 20.4795C121.868 20.5146 121.885 20.5546 121.894 20.5969L122.349 22.8708C122.366 22.9546 122.354 23.0416 122.316 23.118C122.278 23.1943 122.215 23.2557 122.138 23.2925C121.372 23.6921 120.519 23.8948 119.655 23.8823C117.228 23.8823 115.619 22.2552 115.619 19.8376V6.01788C115.619 5.91611 115.659 5.81851 115.731 5.74653C115.803 5.67458 115.9 5.63416 116.002 5.63416H118.968C119.069 5.63416 119.167 5.67458 119.239 5.74653C119.311 5.81851 119.351 5.91611 119.351 6.01788V19.5582Z" fill="currentColor"/>
    <path id="Vector_5" d="M133.255 23.5311H130.291C130.189 23.5311 130.092 23.4907 130.02 23.4187C129.948 23.3467 129.907 23.2492 129.907 23.1474V22.6905C129.908 22.668 129.901 22.646 129.889 22.6271C129.877 22.6083 129.86 22.5934 129.839 22.5844C129.818 22.5753 129.796 22.5728 129.773 22.5766C129.751 22.5805 129.731 22.5909 129.715 22.6064C128.844 23.42 127.681 23.8796 126.314 23.8796C123.583 23.8796 121.764 21.9501 121.764 19.0213V12.2417C121.764 12.1398 121.804 12.042 121.876 11.9698C121.948 11.8977 122.045 11.8569 122.147 11.8566H125.09C125.191 11.8569 125.289 11.8977 125.361 11.9698C125.433 12.042 125.473 12.1398 125.473 12.2417V18.2267C125.473 19.5989 126.287 20.5318 127.48 20.5318C128.95 20.5318 129.907 19.5325 129.907 17.2776V12.2484C129.907 12.1979 129.917 12.1479 129.936 12.1012C129.955 12.0545 129.983 12.012 130.019 11.9762C130.055 11.9404 130.097 11.9121 130.144 11.8927C130.191 11.8733 130.24 11.8633 130.291 11.8633H133.255C133.357 11.8633 133.455 11.9039 133.527 11.9761C133.6 12.0484 133.64 12.1463 133.64 12.2484V23.1501C133.639 23.2515 133.598 23.3485 133.526 23.4198C133.454 23.4911 133.356 23.5311 133.255 23.5311Z" fill="currentColor"/>
    <path id="Vector_6" d="M145.137 18.6498H137.365C137.349 18.6499 137.331 18.6537 137.316 18.6609C137.301 18.6681 137.288 18.6785 137.277 18.6914C137.266 18.7043 137.259 18.7195 137.254 18.7356C137.25 18.7519 137.25 18.7688 137.253 18.7854C137.577 20.0965 138.48 20.8993 139.657 20.8993C140.432 20.8993 141.324 20.7176 141.936 19.7779C141.978 19.7113 142.04 19.6593 142.112 19.6288C142.185 19.5981 142.265 19.5907 142.343 19.6071L144.812 20.1413C144.869 20.1527 144.922 20.1768 144.968 20.2118C145.014 20.2468 145.051 20.2918 145.078 20.3433C145.103 20.3949 145.117 20.4517 145.118 20.5094C145.12 20.5672 145.107 20.6244 145.083 20.6769C144.05 22.8464 142.091 23.8877 139.659 23.8877C136.387 23.8877 133.681 21.401 133.681 17.7047C133.681 14.0315 136.393 11.5203 139.681 11.5203C142.885 11.5203 145.456 13.8918 145.524 17.7047V18.2728C145.521 18.3737 145.48 18.4698 145.407 18.5403C145.335 18.6109 145.238 18.6502 145.137 18.6498ZM137.445 16.3718H141.803C141.821 16.3718 141.838 16.3675 141.855 16.3593C141.871 16.3512 141.884 16.3394 141.895 16.3249C141.906 16.3104 141.913 16.2936 141.916 16.2758C141.92 16.258 141.918 16.2399 141.913 16.2227C141.545 15.0701 140.675 14.5345 139.678 14.5345C139.162 14.5367 138.659 14.6997 138.24 15.0007C137.819 15.3017 137.503 15.726 137.337 16.2145C137.33 16.2323 137.327 16.2513 137.33 16.2701C137.331 16.289 137.338 16.307 137.349 16.3227C137.36 16.3384 137.375 16.3513 137.391 16.3604C137.407 16.3694 137.426 16.3742 137.445 16.3745V16.3718Z" fill="currentColor"/>
    <path id="Vector_7" d="M84.3453 21.3372C86.1396 21.3372 87.5941 19.7188 87.5941 17.7223C87.5941 15.7258 86.1396 14.1074 84.3453 14.1074C82.5509 14.1074 81.0964 15.7258 81.0964 17.7223C81.0964 19.7188 82.5509 21.3372 84.3453 21.3372Z" fill="var(--accent-600)"/>
    <path id="Vector_8" d="M51.4992 12.4125L48.4728 13.0281C48.3975 13.0424 48.3195 13.0279 48.2546 12.9875C48.1895 12.9471 48.1421 12.8836 48.1216 12.8098C47.7555 11.5623 46.6463 10.9481 45.5168 10.9481C44.2612 10.9481 43.4626 11.626 43.4626 12.4938C43.4626 13.1081 43.7338 13.5623 44.6951 13.7671L47.868 14.4722C50.5148 15.0633 52.0714 16.4966 52.0714 18.9061C52.0714 22.1603 49.1724 23.8403 45.7718 23.8403C42.4741 23.8403 39.7406 22.342 39.1521 19.6017C39.1418 19.5527 39.1414 19.5021 39.1509 19.4529C39.1605 19.4038 39.1796 19.357 39.2074 19.3154C39.2352 19.2737 39.271 19.238 39.3126 19.2103C39.3544 19.1827 39.4012 19.1636 39.4504 19.1542L42.6924 18.5278C42.7654 18.5134 42.841 18.5264 42.9048 18.5645C42.9686 18.6026 43.0161 18.6628 43.0382 18.7339C43.4789 20.1196 44.5297 20.7257 45.9779 20.7257C47.3921 20.7257 48.2368 20.0884 48.2368 19.1569C48.2368 18.4789 47.9168 18.0423 46.8226 17.8145L43.6267 17.1366C41.4355 16.6362 39.5196 15.5 39.5196 12.7257C39.5196 9.76977 41.9833 7.92706 45.567 7.92706C48.7385 7.92706 51.0843 9.41859 51.7934 11.9474C51.8065 11.9973 51.809 12.0494 51.801 12.1004C51.793 12.1513 51.7747 12.2001 51.7472 12.2437C51.7195 12.2873 51.6833 12.3248 51.6406 12.3538C51.5981 12.3829 51.5499 12.4028 51.4992 12.4125Z" fill="currentColor"/>
    <path id="Vector_9" d="M64.8687 17.7006C64.8687 21.3765 61.944 23.8281 58.4863 23.8281C54.9609 23.8281 52.0334 21.3765 52.0334 17.7006C52.0334 14.0396 54.9582 11.5989 58.4863 11.5989C61.944 11.5894 64.8687 14.0396 64.8687 17.7006ZM61.2945 17.7006C61.2945 15.8959 59.925 14.6931 58.4863 14.6931C56.9772 14.6931 55.6077 15.8959 55.6077 17.7006C55.6077 19.527 56.9772 20.7067 58.4863 20.7067C59.925 20.7013 61.2945 19.5216 61.2945 17.7006Z" fill="currentColor"/>
    <path id="Vector_10" d="M77.1263 12.4125L74.0998 13.0281C74.0246 13.0424 73.9466 13.0279 73.8817 12.9875C73.8166 12.9471 73.7691 12.8836 73.7487 12.8098C73.3826 11.5623 72.2734 10.9481 71.1439 10.9481C69.8883 10.9481 69.0897 11.626 69.0897 12.4938C69.0897 13.1081 69.3609 13.5623 70.3222 13.7671L73.4951 14.4722C76.1419 15.0633 77.6985 16.4966 77.6985 18.9061C77.6985 22.1603 74.7995 23.8403 71.3988 23.8403C68.1012 23.8403 65.3676 22.342 64.7792 19.6017C64.7689 19.5527 64.7685 19.5021 64.7779 19.4529C64.7876 19.4038 64.8067 19.357 64.8345 19.3154C64.8623 19.2737 64.8981 19.238 64.9397 19.2103C64.9815 19.1827 65.0283 19.1636 65.0775 19.1542L68.3195 18.5278C68.3925 18.5134 68.4681 18.5264 68.5318 18.5645C68.5957 18.6026 68.6432 18.6628 68.6653 18.7339C69.1059 20.1196 70.1568 20.7257 71.6049 20.7257C73.0192 20.7257 73.8639 20.0884 73.8639 19.1569C73.8639 18.4789 73.5439 18.0423 72.4497 17.8145L69.2537 17.1366C67.0626 16.6362 65.1466 15.5 65.1466 12.7257C65.1466 9.76977 67.6104 7.92706 71.1941 7.92706C74.3656 7.92706 76.7114 9.41859 77.4205 11.9474C77.4335 11.9973 77.4361 12.0494 77.4281 12.1004C77.4201 12.1513 77.4018 12.2001 77.3743 12.2437C77.3466 12.2873 77.3104 12.3248 77.2677 12.3538C77.2251 12.3829 77.177 12.4028 77.1263 12.4125Z" fill="currentColor"/>
    <path id="Vector_11" d="M90.4958 17.7006C90.4958 21.3765 87.571 23.8281 84.1134 23.8281C80.588 23.8281 77.6605 21.3765 77.6605 17.7006C77.6605 14.0396 80.5853 11.5989 84.1134 11.5989C87.571 11.5894 90.4958 14.0396 90.4958 17.7006ZM86.9215 17.7006C86.9215 15.8959 85.552 14.6931 84.1134 14.6931C82.6042 14.6931 81.2348 15.8959 81.2348 17.7006C81.2348 19.527 82.6042 20.7067 84.1134 20.7067C85.552 20.7013 86.9215 19.5216 86.9215 17.7006Z" fill="currentColor"/>
    <path id="Vector_12" d="M100.775 23.8728H97.6945C97.5891 23.8723 97.4863 23.8411 97.3983 23.783C97.3105 23.725 97.2414 23.6427 97.1995 23.546L90.7182 8.35957C90.6983 8.31275 90.6903 8.26169 90.6949 8.21101C90.6995 8.16031 90.7166 8.11155 90.7446 8.0691C90.7727 8.02664 90.8108 7.99181 90.8557 7.96773C90.9006 7.94365 90.9507 7.93106 91.0016 7.93109H94.5189C94.6254 7.93167 94.7294 7.96362 94.8179 8.02294C94.9064 8.08225 94.9756 8.16632 95.0165 8.26465L99.1182 18.243C99.1269 18.264 99.1417 18.282 99.1606 18.2946C99.1796 18.3072 99.2019 18.314 99.2246 18.314C99.2474 18.314 99.2696 18.3072 99.2886 18.2946C99.3076 18.282 99.3224 18.264 99.3311 18.243L103.456 8.27279C103.497 8.17493 103.566 8.09129 103.654 8.03224C103.742 7.97318 103.846 7.94131 103.952 7.9406H107.478C107.528 7.94077 107.578 7.95352 107.623 7.97769C107.668 8.00187 107.706 8.03673 107.734 8.07916C107.761 8.12157 107.778 8.17025 107.783 8.22083C107.787 8.27142 107.779 8.32235 107.76 8.36906L101.28 23.5555C101.236 23.6519 101.164 23.7333 101.075 23.7897C100.985 23.846 100.881 23.875 100.775 23.8728Z" fill="currentColor"/>
  </g>
  <defs>
    <clipPath id="clip0_2217_16257">
      <rect width="145.085" height="32" fill="currentColor" transform="translate(0.5)"/>
    </clipPath>
  </defs>
</svg>
