<svg width="28" height="32" viewBox="0 0 28 32" fill="none"
  xmlns="http://www.w3.org/2000/svg">
  <g id="Group 27">
    <path id="Vector" fill-rule="evenodd" clip-rule="evenodd" d="M14.299 31.8319L27.5227 24.1605C27.6249 24.1012 27.7098 24.016 27.7688 23.9135C27.8278 23.811 27.8588 23.6948 27.8587 23.5765L27.827 8.2886C27.8267 8.17025 27.7953 8.05409 27.7359 7.95173C27.6765 7.84937 27.5912 7.76442 27.4887 7.70538L14.2332 0.0903441C14.1307 0.0311585 14.0144 0 13.896 0C13.7778 0 13.6614 0.0311585 13.5589 0.0903441L0.335196 7.76244C0.232834 7.82163 0.147925 7.90681 0.0890655 8.00937C0.0302053 8.11192 -0.000518369 8.2282 6.61677e-06 8.34644L0.0317025 23.6343C0.0317769 23.7527 0.0631125 23.8687 0.122531 23.9711C0.18195 24.0734 0.267344 24.1581 0.370062 24.2168L13.6255 31.8319C13.7279 31.891 13.8439 31.9222 13.9622 31.9222C14.0805 31.9222 14.1966 31.891 14.299 31.8319ZM18.0353 13.6207L23.8507 10.2062C23.9014 10.1762 23.9433 10.1335 23.9723 10.0823C24.0014 10.0311 24.0165 9.97321 24.0164 9.91433C24.0161 9.85546 24.0004 9.79767 23.971 9.7467C23.9416 9.69574 23.8993 9.65337 23.8483 9.6238L14.2404 4.10468C14.138 4.04549 14.0218 4.01432 13.9036 4.01432C13.7854 4.01432 13.6692 4.04549 13.5668 4.10468L3.81307 9.76168C3.71062 9.82103 3.6256 9.90633 3.56662 10.009C3.50763 10.1117 3.47675 10.2281 3.4771 10.3465L3.48582 13.5787C3.48588 13.6969 3.51714 13.813 3.57641 13.9153C3.63567 14.0175 3.72085 14.1024 3.82338 14.1611L10.1246 17.784C10.2274 17.843 10.3128 17.928 10.3722 18.0306C10.4316 18.1332 10.4629 18.2495 10.463 18.368V21.6098C10.4629 21.6492 10.4525 21.6879 10.4328 21.7219C10.4131 21.7561 10.3847 21.7844 10.3507 21.8041C10.3166 21.8239 10.2779 21.8343 10.2385 21.8344C10.1991 21.8344 10.1604 21.8243 10.1262 21.8047L7.17923 20.1113C7.11097 20.0713 7.05451 20.014 7.01555 19.9451C6.9766 19.8762 6.95652 19.7982 6.95736 19.719L6.95338 18.6557C6.95291 18.5364 6.92083 18.4194 6.86042 18.3165C6.80001 18.2136 6.71342 18.1285 6.60948 18.0701L3.98344 16.597C3.93218 16.5683 3.87426 16.5534 3.81547 16.5539C3.75668 16.5544 3.69905 16.5704 3.64833 16.6001C3.59761 16.6298 3.55555 16.6724 3.52635 16.7234C3.49714 16.7744 3.48179 16.8321 3.48184 16.891V18.9108L3.48898 21.6256C3.48906 21.7439 3.52039 21.8601 3.57981 21.9623C3.63923 22.0647 3.72462 22.1494 3.82734 22.208L13.2792 27.6218C13.3476 27.661 13.4251 27.6815 13.5039 27.6812C13.5826 27.6811 13.6601 27.6601 13.7283 27.6205C13.7965 27.5809 13.853 27.5241 13.8922 27.4557C13.9315 27.3874 13.9521 27.31 13.9519 27.2311L13.9361 16.3363C13.9359 16.2179 13.9044 16.1017 13.845 15.9993C13.7856 15.8969 13.7003 15.8121 13.5977 15.7531L7.32978 12.15C7.29554 12.1304 7.26708 12.102 7.24729 12.0679C7.2275 12.0337 7.21708 11.9949 7.21708 11.9555C7.21708 11.916 7.2275 11.8772 7.24729 11.8431C7.26708 11.8089 7.29554 11.7806 7.32978 11.7609L13.5787 8.14597C13.6812 8.08678 13.7976 8.05562 13.9159 8.05562C14.0343 8.05562 14.1505 8.08678 14.253 8.14597L17.0796 9.77199C17.1138 9.79162 17.1422 9.81995 17.162 9.8541C17.1818 9.88827 17.1923 9.92704 17.1923 9.96652C17.1923 10.006 17.1818 10.0448 17.162 10.0789C17.1422 10.1131 17.1138 10.1414 17.0796 10.1611L14.5882 11.5969C14.536 11.6271 14.4927 11.6707 14.4632 11.7233C14.4335 11.7759 14.4186 11.8355 14.4198 11.8958C14.4212 11.9562 14.4386 12.0151 14.4705 12.0663C14.5024 12.1176 14.5474 12.1593 14.6009 12.1872L17.3839 13.6373C17.4849 13.69 17.5977 13.7161 17.7117 13.7131C17.8256 13.7102 17.9369 13.6784 18.0353 13.6207Z" fill="currentColor"/>
    <path id="Vector_2" d="M17.3672 18.1076L17.3728 21.9222C17.3729 22.001 17.3938 22.0784 17.4332 22.1467C17.4727 22.2149 17.5295 22.2716 17.5978 22.3109C17.6662 22.3503 17.7437 22.3709 17.8225 22.3709C17.9014 22.3707 17.9789 22.3499 18.0471 22.3104L21.3435 20.3984C21.4457 20.3387 21.5304 20.2535 21.5893 20.1508C21.6481 20.0482 21.6789 19.9318 21.6787 19.8136L21.6708 16.0029C21.6707 15.924 21.6498 15.8465 21.6103 15.7783C21.5709 15.7101 21.514 15.6535 21.4457 15.6141C21.3774 15.5747 21.2998 15.5541 21.221 15.5542C21.1421 15.5542 21.0647 15.5751 20.9965 15.6145L17.7032 17.5234C17.6007 17.5827 17.5157 17.6678 17.4567 17.7703C17.3977 17.8728 17.3668 17.9892 17.3672 18.1076Z" fill="var(--accent-600)"/>
  </g>
</svg>
