<svg width="201" height="44" viewBox="0 0 201 44" fill="none"
  xmlns="http://www.w3.org/2000/svg">
  <g id="Black - Horizontal 1" clip-path="url(#clip0_1226_221786)">
    <path id="Vector" fill-rule="evenodd" clip-rule="evenodd" d="M20.2112 43.7688L38.4402 33.2207C38.5811 33.1391 38.6981 33.022 38.7794 32.8811C38.8607 32.7401 38.9035 32.5803 38.9034 32.4177L38.8596 11.3968C38.8593 11.2341 38.8159 11.0744 38.734 10.9336C38.6521 10.7929 38.5346 10.6761 38.3933 10.5949L20.1206 0.124223C19.9793 0.042843 19.8189 0 19.6557 0C19.4927 0 19.3323 0.042843 19.191 0.124223L0.962069 10.6734C0.820963 10.7547 0.703916 10.8719 0.622777 11.0129C0.541638 11.1539 0.499285 11.3138 0.500009 11.4764L0.543702 32.4972C0.543805 32.6599 0.587001 32.8195 0.66891 32.9603C0.750819 33.1009 0.868535 33.2174 1.01013 33.2981L19.2828 43.7688C19.4239 43.8501 19.5839 43.893 19.7469 43.893C19.9101 43.893 20.0701 43.8501 20.2112 43.7688ZM25.3617 18.7285L33.3783 14.0336C33.4482 13.9923 33.506 13.9336 33.546 13.8632C33.586 13.7928 33.6069 13.7132 33.6067 13.6322C33.6064 13.5513 33.5847 13.4718 33.5441 13.4017C33.5036 13.3316 33.4452 13.2734 33.375 13.2327L20.1305 5.64393C19.9893 5.56255 19.8292 5.51969 19.6662 5.51969C19.5032 5.51969 19.343 5.56255 19.2019 5.64393L5.75634 13.4223C5.6151 13.5039 5.49791 13.6212 5.4166 13.7624C5.33529 13.9035 5.29271 14.0636 5.2932 14.2264L5.30521 18.6707C5.30531 18.8333 5.34839 18.9929 5.43009 19.1335C5.51179 19.274 5.62921 19.3908 5.77054 19.4715L14.4568 24.453C14.5985 24.5341 14.7162 24.651 14.7982 24.7921C14.88 24.9331 14.9232 25.0931 14.9232 25.256V29.7134C14.9231 29.7677 14.9088 29.8208 14.8816 29.8676C14.8544 29.9146 14.8154 29.9536 14.7684 29.9806C14.7214 30.0078 14.6681 30.0222 14.6138 30.0224C14.5595 30.0224 14.5061 30.0084 14.459 29.9815L10.3966 27.6531C10.3025 27.5981 10.2247 27.5192 10.171 27.4245C10.1173 27.3298 10.0896 27.2226 10.0907 27.1137L10.0853 25.6516C10.0846 25.4876 10.0404 25.3267 9.95712 25.1852C9.87385 25.0436 9.75449 24.9267 9.6112 24.8464L5.9912 22.8209C5.92052 22.7814 5.84069 22.7609 5.75964 22.7616C5.6786 22.7624 5.59916 22.7844 5.52923 22.8252C5.45933 22.866 5.40135 22.9246 5.36108 22.9947C5.32082 23.0648 5.29966 23.1442 5.29974 23.2251V26.0023L5.30957 29.7352C5.30968 29.8978 5.35288 30.0576 5.43478 30.1982C5.51669 30.3389 5.63441 30.4555 5.776 30.536L18.8054 37.98C18.8997 38.0339 19.0065 38.062 19.1152 38.0617C19.2237 38.0615 19.3305 38.0326 19.4245 37.9782C19.5185 37.9237 19.5964 37.8456 19.6505 37.7516C19.7047 37.6577 19.7331 37.5512 19.7327 37.4427L19.711 22.4624C19.7107 22.2996 19.6673 22.1398 19.5854 21.9991C19.5036 21.8583 19.386 21.7416 19.2445 21.6605L10.6041 16.7062C10.5569 16.6792 10.5177 16.6403 10.4904 16.5933C10.4631 16.5463 10.4488 16.493 10.4488 16.4388C10.4488 16.3845 10.4631 16.3312 10.4904 16.2842C10.5177 16.2372 10.5569 16.1983 10.6041 16.1713L19.2183 11.2007C19.3596 11.1193 19.52 11.0765 19.6832 11.0765C19.8464 11.0765 20.0065 11.1193 20.1479 11.2007L24.0443 13.4365C24.0914 13.4635 24.1307 13.5024 24.1579 13.5494C24.1852 13.5964 24.1996 13.6497 24.1996 13.704C24.1996 13.7582 24.1852 13.8116 24.1579 13.8585C24.1307 13.9055 24.0914 13.9444 24.0443 13.9715L20.6099 15.9457C20.5379 15.9872 20.4783 16.0472 20.4376 16.1195C20.3966 16.1919 20.3761 16.2738 20.3778 16.3568C20.3796 16.4397 20.4037 16.5207 20.4477 16.5912C20.4916 16.6617 20.5536 16.7191 20.6275 16.7575L24.4637 18.7513C24.603 18.8238 24.7585 18.8596 24.9157 18.8555C25.0727 18.8516 25.2262 18.8078 25.3617 18.7285Z" fill="currentColor"/>
    <path id="Vector_2" d="M24.4409 24.8976L24.4486 30.1427C24.4488 30.251 24.4776 30.3575 24.532 30.4515C24.5863 30.5452 24.6647 30.6232 24.7589 30.6772C24.8531 30.7313 24.96 30.7597 25.0686 30.7597C25.1774 30.7595 25.2841 30.7308 25.3781 30.6765L29.9222 28.0475C30.0632 27.9655 30.18 27.8482 30.2611 27.7071C30.3422 27.5659 30.3847 27.406 30.3843 27.2434L30.3734 22.0037C30.3733 21.8951 30.3445 21.7887 30.2901 21.6949C30.2357 21.6011 30.1574 21.5232 30.0632 21.4691C29.969 21.4149 29.862 21.3865 29.7534 21.3867C29.6447 21.3867 29.5379 21.4154 29.4439 21.4697L24.9041 24.0944C24.7628 24.1759 24.6456 24.293 24.5643 24.4339C24.483 24.5749 24.4404 24.7348 24.4409 24.8976Z" fill="#FF4F20"/>
    <path id="Vector_3" d="M159.259 22.1939V31.831C159.258 31.9702 159.202 32.1036 159.103 32.2016C159.004 32.2999 158.869 32.3549 158.73 32.3549H154.835C154.694 32.3549 154.56 32.2993 154.461 32.2003C154.361 32.1013 154.306 31.9673 154.306 31.8272V31.5047C154.305 31.4754 154.297 31.4469 154.281 31.4221C154.265 31.3973 154.243 31.3774 154.217 31.3643C154.191 31.3515 154.161 31.346 154.132 31.3488C154.103 31.3515 154.075 31.3623 154.051 31.3798C152.95 32.23 151.478 32.834 149.481 32.834C145.879 32.834 143.466 30.7571 143.466 27.5932C143.466 24.4591 145.879 22.4139 150.195 22.4139H153.993C154.078 22.4133 154.159 22.3796 154.219 22.3199C154.279 22.2602 154.312 22.1795 154.313 22.095C154.313 20.7527 153.378 19.8578 152.029 19.8578C150.679 19.8578 149.805 20.3332 149.444 21.4108C149.404 21.5354 149.32 21.6409 149.207 21.7076C149.095 21.7744 148.961 21.7973 148.833 21.7725L144.898 20.982C144.84 20.9704 144.785 20.9469 144.737 20.913C144.688 20.8791 144.648 20.8355 144.617 20.7849C144.587 20.7342 144.567 20.6779 144.56 20.6194C144.553 20.5608 144.558 20.5015 144.575 20.445C145.444 17.6056 148.182 15.8418 151.853 15.8418C156.397 15.8325 159.259 18.1015 159.259 22.1939ZM154.306 26.0289V25.8425C154.306 25.8006 154.289 25.7601 154.259 25.7305C154.229 25.7006 154.189 25.684 154.147 25.684H150.767C149.481 25.684 148.678 26.3552 148.678 27.3452C148.678 28.3688 149.577 29.0083 150.921 29.0083C152.698 28.9989 154.306 27.8206 154.306 26.0289Z" fill="currentColor"/>
    <path id="Vector_4" d="M164.337 26.8917C164.337 27.7232 164.948 28.2993 165.881 28.2993C166.366 28.2658 166.843 28.1647 167.3 27.9992C167.356 27.9815 167.416 27.976 167.475 27.9829C167.534 27.9898 167.591 28.009 167.642 28.0392C167.693 28.0695 167.738 28.1101 167.772 28.1584C167.806 28.2067 167.83 28.2617 167.842 28.3198L168.47 31.4465C168.493 31.5617 168.477 31.6814 168.424 31.7863C168.371 31.8913 168.285 31.9758 168.178 32.0263C167.123 32.5757 165.947 32.8545 164.756 32.8373C161.41 32.8373 159.191 30.6 159.191 27.2758V8.27372C159.191 8.13378 159.247 7.99958 159.346 7.90062C159.445 7.80167 159.58 7.74609 159.72 7.74609H163.808C163.948 7.74609 164.083 7.80167 164.182 7.90062C164.281 7.99958 164.337 8.13378 164.337 8.27372V26.8917Z" fill="currentColor"/>
    <path id="Vector_5" d="M183.504 32.3553H179.418C179.277 32.3553 179.143 32.2997 179.044 32.2007C178.944 32.1017 178.889 31.9677 178.889 31.8277V31.1993C178.889 31.1684 178.881 31.1382 178.864 31.1123C178.847 31.0864 178.823 31.0659 178.795 31.0535C178.766 31.0411 178.735 31.0375 178.704 31.0427C178.674 31.0481 178.646 31.0625 178.623 31.0838C177.423 32.2024 175.82 32.8344 173.936 32.8344C170.171 32.8344 167.663 30.1814 167.663 26.1543V16.8322C167.663 16.6921 167.718 16.5577 167.817 16.4585C167.917 16.3592 168.051 16.3032 168.192 16.3027H172.248C172.388 16.3032 172.523 16.3592 172.622 16.4585C172.721 16.5577 172.777 16.6921 172.777 16.8322V25.0617C172.777 26.9485 173.898 28.2312 175.543 28.2312C177.569 28.2312 178.889 26.8571 178.889 23.7566V16.8415C178.889 16.7721 178.902 16.7033 178.928 16.6391C178.955 16.5748 178.994 16.5165 179.043 16.4672C179.092 16.4181 179.151 16.379 179.215 16.3524C179.279 16.3258 179.348 16.3121 179.418 16.3121H183.504C183.644 16.3121 183.779 16.3678 183.879 16.4671C183.979 16.5664 184.035 16.7011 184.035 16.8415V31.8314C184.033 31.9708 183.976 32.1041 183.877 32.2022C183.778 32.3003 183.644 32.3553 183.504 32.3553Z" fill="currentColor"/>
    <path id="Vector_6" d="M199.883 25.6429H189.169C189.147 25.6431 189.122 25.6483 189.102 25.6582C189.081 25.6681 189.062 25.6824 189.048 25.7002C189.033 25.7179 189.023 25.7387 189.016 25.7609C189.01 25.7833 189.01 25.8066 189.014 25.8294C189.461 27.6322 190.705 28.736 192.328 28.736C193.397 28.736 194.627 28.4861 195.47 27.1941C195.528 27.1026 195.614 27.031 195.713 26.989C195.814 26.9469 195.924 26.9366 196.031 26.9592L199.434 27.6938C199.513 27.7094 199.586 27.7426 199.649 27.7907C199.713 27.8388 199.763 27.9007 199.801 27.9716C199.836 28.0424 199.855 28.1205 199.857 28.1999C199.859 28.2794 199.842 28.358 199.808 28.4302C198.384 31.4133 195.683 32.8451 192.332 32.8451C187.821 32.8451 184.09 29.4258 184.09 24.3434C184.09 19.2927 187.829 15.8398 192.362 15.8398C196.778 15.8398 200.322 19.1007 200.416 24.3434V25.1246C200.412 25.2633 200.356 25.3955 200.255 25.4925C200.156 25.5894 200.021 25.6435 199.883 25.6429ZM189.279 22.5107H195.287C195.311 22.5107 195.335 22.5047 195.358 22.4936C195.38 22.4824 195.399 22.4662 195.414 22.4462C195.429 22.4263 195.438 22.4031 195.442 22.3787C195.448 22.3543 195.446 22.3293 195.438 22.3056C194.932 20.7209 193.732 19.9844 192.358 19.9844C191.646 19.9874 190.952 20.2115 190.375 20.6254C189.795 21.0393 189.36 21.6227 189.13 22.2944C189.12 22.3189 189.117 22.345 189.12 22.3709C189.122 22.3968 189.132 22.4216 189.147 22.4432C189.162 22.4648 189.182 22.4826 189.205 22.495C189.227 22.5074 189.253 22.5141 189.279 22.5144V22.5107Z" fill="currentColor"/>
    <path id="Vector_7" d="M116.081 29.3395C118.555 29.3395 120.56 27.1141 120.56 24.3689C120.56 21.6238 118.555 19.3984 116.081 19.3984C113.608 19.3984 111.603 21.6238 111.603 24.3689C111.603 27.1141 113.608 29.3395 116.081 29.3395Z" fill="#FF4F20"/>
    <path id="Vector_8" d="M70.8026 17.0678L66.6307 17.9143C66.527 17.934 66.4195 17.9141 66.3299 17.8585C66.2402 17.8029 66.1748 17.7157 66.1466 17.6141C65.6419 15.8989 64.1129 15.0543 62.5559 15.0543C60.8251 15.0543 59.7241 15.9865 59.7241 17.1797C59.7241 18.0243 60.098 18.6489 61.4232 18.9304L65.797 19.8999C69.4456 20.7128 71.5914 22.6835 71.5914 25.9965C71.5914 30.4711 67.5952 32.7811 62.9073 32.7811C58.3615 32.7811 54.5933 30.7209 53.7821 26.953C53.7679 26.8856 53.7673 26.8161 53.7804 26.7484C53.7937 26.6809 53.82 26.6166 53.8584 26.5594C53.8967 26.502 53.946 26.4529 54.0034 26.4149C54.061 26.3768 54.1255 26.3506 54.1933 26.3377L58.6625 25.4763C58.763 25.4566 58.8673 25.4745 58.9552 25.5269C59.0432 25.5793 59.1086 25.662 59.1391 25.7597C59.7466 27.6652 61.1952 28.4985 63.1914 28.4985C65.141 28.4985 66.3055 27.6223 66.3055 26.3414C66.3055 25.4092 65.8643 24.8089 64.3559 24.4957L59.9503 23.5635C56.9298 22.8755 54.2886 21.3131 54.2886 17.4985C54.2886 13.4341 57.6849 10.9004 62.6251 10.9004C66.997 10.9004 70.2307 12.9512 71.2083 16.4284C71.2262 16.497 71.2298 16.5686 71.2187 16.6387C71.2077 16.7088 71.1825 16.7759 71.1445 16.8358C71.1064 16.8958 71.0565 16.9473 70.9976 16.9872C70.9389 17.0271 70.8726 17.0546 70.8026 17.0678Z" fill="currentColor"/>
    <path id="Vector_9" d="M89.2325 24.3391C89.2325 29.3935 85.2007 32.7643 80.4344 32.7643C75.5746 32.7643 71.5391 29.3935 71.5391 24.3391C71.5391 19.3052 75.5708 15.9493 80.4344 15.9493C85.2007 15.9362 89.2325 19.3052 89.2325 24.3391ZM84.3054 24.3391C84.3054 21.8576 82.4176 20.2038 80.4344 20.2038C78.354 20.2038 76.4662 21.8576 76.4662 24.3391C76.4662 26.8504 78.354 28.4725 80.4344 28.4725C82.4176 28.465 84.3054 26.843 84.3054 24.3391Z" fill="currentColor"/>
    <path id="Vector_10" d="M106.13 17.0678L101.958 17.9143C101.854 17.934 101.747 17.9141 101.657 17.8585C101.567 17.8029 101.502 17.7157 101.474 17.6141C100.969 15.8989 99.4401 15.0543 97.8831 15.0543C96.1522 15.0543 95.0513 15.9865 95.0513 17.1797C95.0513 18.0243 95.4251 18.6489 96.7504 18.9304L101.124 19.8999C104.773 20.7128 106.919 22.6835 106.919 25.9965C106.919 30.4711 102.922 32.7811 98.2345 32.7811C93.6887 32.7811 89.9205 30.7209 89.1092 26.953C89.095 26.8856 89.0945 26.8161 89.1076 26.7484C89.1208 26.6809 89.1472 26.6166 89.1855 26.5594C89.2238 26.502 89.2732 26.4529 89.3305 26.4149C89.3881 26.3768 89.4526 26.3506 89.5205 26.3377L93.9896 25.4763C94.0902 25.4566 94.1945 25.4745 94.2823 25.5269C94.3704 25.5793 94.4358 25.662 94.4662 25.7597C95.0737 27.6652 96.5223 28.4985 98.5186 28.4985C100.468 28.4985 101.633 27.6223 101.633 26.3414C101.633 25.4092 101.191 24.8089 99.6831 24.4957L95.2775 23.5635C92.2569 22.8755 89.6158 21.3131 89.6158 17.4985C89.6158 13.4341 93.012 10.9004 97.9522 10.9004C102.324 10.9004 105.558 12.9512 106.535 16.4284C106.553 16.497 106.557 16.5686 106.546 16.6387C106.535 16.7088 106.51 16.7759 106.472 16.8358C106.434 16.8958 106.384 16.9473 106.325 16.9872C106.266 17.0271 106.2 17.0546 106.13 17.0678Z" fill="currentColor"/>
    <path id="Vector_11" d="M124.56 24.3391C124.56 29.3935 120.528 32.7643 115.762 32.7643C110.902 32.7643 106.866 29.3935 106.866 24.3391C106.866 19.3052 110.898 15.9493 115.762 15.9493C120.528 15.9362 124.56 19.3052 124.56 24.3391ZM119.633 24.3391C119.633 21.8576 117.745 20.2038 115.762 20.2038C113.681 20.2038 111.793 21.8576 111.793 24.3391C111.793 26.8504 113.681 28.4725 115.762 28.4725C117.745 28.465 119.633 26.843 119.633 24.3391Z" fill="currentColor"/>
    <path id="Vector_12" d="M138.729 32.8241H134.483C134.338 32.8234 134.196 32.7805 134.075 32.7007C133.953 32.6209 133.858 32.5078 133.801 32.3748L124.866 11.4934C124.838 11.4291 124.827 11.3589 124.834 11.2892C124.84 11.2195 124.864 11.1524 124.902 11.0941C124.941 11.0357 124.994 10.9878 125.055 10.9547C125.117 10.9216 125.186 10.9043 125.257 10.9043H130.105C130.252 10.9051 130.395 10.949 130.517 11.0306C130.639 11.1121 130.735 11.2277 130.791 11.3629L136.445 25.0831C136.457 25.112 136.478 25.1368 136.504 25.1542C136.53 25.1715 136.561 25.1808 136.592 25.1808C136.623 25.1808 136.654 25.1715 136.68 25.1542C136.706 25.1368 136.727 25.112 136.739 25.0831L142.425 11.3741C142.481 11.2396 142.577 11.1246 142.698 11.0434C142.82 10.9622 142.963 10.9184 143.109 10.9174H147.969C148.039 10.9176 148.108 10.9351 148.169 10.9684C148.231 11.0016 148.283 11.0496 148.322 11.1079C148.36 11.1662 148.383 11.2331 148.39 11.3027C148.396 11.3722 148.385 11.4423 148.358 11.5065L139.425 32.3879C139.364 32.5204 139.266 32.6323 139.143 32.7099C139.019 32.7872 138.875 32.8271 138.729 32.8241Z" fill="currentColor"/>
  </g>
  <defs>
    <clipPath id="clip0_1226_221786">
      <rect width="200" height="44" fill="currentColor" transform="translate(0.5)"/>
    </clipPath>
  </defs>
</svg>
