<svg width="16" height="16" viewBox="0 0 16 16" fill="none" xmlns="http://www.w3.org/2000/svg">
<g clip-path="url(#clip0_33558_37012)">
<path d="M16 8C16 9.58225 15.5308 11.129 14.6518 12.4446C13.7727 13.7602 12.5233 14.7855 11.0615 15.391C9.59966 15.9965 7.99113 16.155 6.43928 15.8463C4.88743 15.5376 3.46197 14.7757 2.34315 13.6569C1.22433 12.538 0.462403 11.1126 0.153721 9.56072C-0.15496 8.00887 0.00346624 6.40034 0.608967 4.93853C1.21447 3.47672 2.23985 2.22729 3.55544 1.34824C4.87104 0.469192 6.41775 0 8 0C10.1217 0 12.1566 0.842855 13.6569 2.34315C15.1572 3.84344 16 5.87827 16 8Z" fill="#F7931A"/>
<path fill-rule="evenodd" clip-rule="evenodd" d="M5.68598 3.6531L7.52452 4.14547L7.93543 2.61383L8.85471 2.86329L8.4598 4.33165L9.20962 4.5331L9.60525 3.04874L10.5405 3.29892L10.1376 4.79128C10.1376 4.79128 11.6649 5.12947 12.0242 6.37165C12.3834 7.61383 11.2343 8.26619 10.8794 8.29092C10.8794 8.29092 12.2176 9.02474 11.758 10.4684C11.2983 11.912 9.88743 12.1702 8.40307 11.8393L8.00016 13.3869L7.06489 13.1367L7.4758 11.6131L6.73398 11.4109L6.32307 12.9455L5.39507 12.696L5.80671 11.1687L3.91943 10.6596L4.39507 9.60365C4.39507 9.60365 4.92743 9.7491 5.12889 9.7971C5.33034 9.8451 5.4598 9.63565 5.51652 9.42619C5.57325 9.21674 6.4278 5.74547 6.50852 5.45965C6.58925 5.17383 6.55652 4.95056 6.21762 4.86256C5.87871 4.77456 5.41762 4.6371 5.41762 4.6371L5.68598 3.6531ZM7.54052 8.25019L7.03143 10.2742C7.03143 10.2742 9.5558 11.1855 9.87871 9.90328C10.2016 8.6211 7.54052 8.25019 7.54052 8.25019ZM7.77471 7.29019L8.27434 5.43565C8.27434 5.43565 10.4358 5.82256 10.1696 6.85456C9.90343 7.88656 8.62925 7.49092 7.77471 7.29019Z" fill="white"/>
</g>
<defs>
<clipPath id="clip0_33558_37012">
<rect width="16" height="16" fill="white"/>
</clipPath>
</defs>
</svg>
