<svg width="20" height="20" viewBox="0 0 20 20" fill="none" xmlns="http://www.w3.org/2000/svg">
<g id="Icon 03">
<path id="Vector" d="M18.0151 3.86955C17.9189 3.64729 17.7595 3.45822 17.5567 3.32584C17.3539 3.19347 17.1167 3.12363 16.8745 3.12502H3.12449C2.88256 3.1255 2.64597 3.19617 2.44342 3.32846C2.24086 3.46076 2.08105 3.64899 1.98337 3.87032C1.88569 4.09165 1.85434 4.33658 1.89312 4.57538C1.93189 4.81418 2.03914 5.03659 2.20183 5.21565L2.20808 5.22268L7.49949 10.8727V16.875C7.49944 17.1013 7.56078 17.3233 7.67699 17.5174C7.79319 17.7115 7.95989 17.8704 8.15933 17.9772C8.35876 18.084 8.58343 18.1347 8.80941 18.1239C9.03538 18.113 9.25417 18.0411 9.44246 17.9156L11.9425 16.2485C12.1138 16.1343 12.2544 15.9796 12.3515 15.798C12.4487 15.6165 12.4995 15.4137 12.4995 15.2078V10.8727L17.7917 5.22268L17.7979 5.21565C17.9623 5.03741 18.0706 4.8147 18.1092 4.57531C18.1479 4.33592 18.1151 4.09045 18.0151 3.86955ZM11.5886 10.0219C11.3714 10.252 11.2502 10.5563 11.2495 10.8727V15.2078L8.74949 16.875V10.8727C8.75022 10.5551 8.62947 10.2494 8.41199 10.018L3.12449 4.37502H16.8745L11.5886 10.0219Z" fill="#C2C2C2" style="fill:#C2C2C2;fill:color(display-p3 0.7600 0.7600 0.7600);fill-opacity:1;"/>
</g>
</svg>
