<svg width="20" height="21" viewBox="0 0 20 21" fill="none" xmlns="http://www.w3.org/2000/svg">
<g id="CheckCircle">
<path id="Vector" d="M10 2.375C8.39303 2.375 6.82214 2.85152 5.486 3.74431C4.14985 4.6371 3.10844 5.90605 2.49348 7.3907C1.87852 8.87535 1.71762 10.509 2.03112 12.0851C2.34463 13.6612 3.11846 15.1089 4.25476 16.2452C5.39106 17.3815 6.8388 18.1554 8.4149 18.4689C9.99099 18.7824 11.6247 18.6215 13.1093 18.0065C14.594 17.3916 15.8629 16.3502 16.7557 15.014C17.6485 13.6779 18.125 12.107 18.125 10.5C18.1227 8.34581 17.266 6.28051 15.7427 4.75727C14.2195 3.23403 12.1542 2.37727 10 2.375ZM13.5672 9.06719L9.19219 13.4422C9.13415 13.5003 9.06522 13.5464 8.98934 13.5779C8.91347 13.6093 8.83214 13.6255 8.75 13.6255C8.66787 13.6255 8.58654 13.6093 8.51067 13.5779C8.43479 13.5464 8.36586 13.5003 8.30782 13.4422L6.43282 11.5672C6.31554 11.4499 6.24966 11.2909 6.24966 11.125C6.24966 10.9591 6.31554 10.8001 6.43282 10.6828C6.55009 10.5655 6.70915 10.4997 6.875 10.4997C7.04086 10.4997 7.19992 10.5655 7.31719 10.6828L8.75 12.1164L12.6828 8.18281C12.7409 8.12474 12.8098 8.07868 12.8857 8.04725C12.9616 8.01583 13.0429 7.99965 13.125 7.99965C13.2071 7.99965 13.2884 8.01583 13.3643 8.04725C13.4402 8.07868 13.5091 8.12474 13.5672 8.18281C13.6253 8.24088 13.6713 8.30982 13.7027 8.38569C13.7342 8.46156 13.7504 8.54288 13.7504 8.625C13.7504 8.70712 13.7342 8.78844 13.7027 8.86431C13.6713 8.94018 13.6253 9.00912 13.5672 9.06719Z" fill="#FF4F20" style="fill:#FF4F20;fill:color(display-p3 1.0000 0.3098 0.1255);fill-opacity:1;"/>
</g>
</svg>
