<svg width="8" height="5" viewBox="0 0 8 5" fill="none" xmlns="http://www.w3.org/2000/svg">
<path d="M0.538168 4.19115C0.500269 4.0998 0.490313 3.99926 0.509559 3.90225C0.528805 3.80524 0.576389 3.71612 0.646293 3.64615L3.64629 0.646155C3.69273 0.599667 3.74787 0.562787 3.80857 0.537625C3.86927 0.512463 3.93433 0.499512 4.00004 0.499512C4.06575 0.499512 4.13081 0.512463 4.19151 0.537625C4.25221 0.562787 4.30736 0.599667 4.35379 0.646155L7.35379 3.64615C7.4238 3.71608 7.47148 3.80521 7.49081 3.90225C7.51013 3.99929 7.50023 4.09989 7.46235 4.1913C7.42448 4.28271 7.36033 4.36083 7.27803 4.41577C7.19574 4.4707 7.09899 4.49998 7.00004 4.49991H1.00004C0.901153 4.49988 0.804489 4.47054 0.722277 4.41558C0.640064 4.36063 0.575993 4.28253 0.538168 4.19115Z" fill="#5C5C5C" style="fill:#5C5C5C;fill:color(display-p3 0.3608 0.3608 0.3608);fill-opacity:1;"/>
</svg>
