<svg width="8" height="5" viewBox="0 0 8 5" fill="none" xmlns="http://www.w3.org/2000/svg">
<path d="M7.00039 0.5H1.00039C0.901446 0.499922 0.8047 0.529205 0.722403 0.58414C0.640106 0.639075 0.575959 0.717194 0.538082 0.808605C0.500206 0.900017 0.490304 1.00061 0.509629 1.09765C0.528954 1.1947 0.576638 1.28382 0.646643 1.35375L3.64664 4.35375C3.69308 4.40024 3.74822 4.43712 3.80892 4.46228C3.86962 4.48744 3.93469 4.50039 4.00039 4.50039C4.0661 4.50039 4.13116 4.48744 4.19186 4.46228C4.25256 4.43712 4.30771 4.40024 4.35414 4.35375L7.35414 1.35375C7.42415 1.28382 7.47183 1.1947 7.49116 1.09765C7.51048 1.00061 7.50058 0.900017 7.4627 0.808605C7.42483 0.717194 7.36068 0.639075 7.27838 0.58414C7.19609 0.529205 7.09934 0.499922 7.00039 0.5Z" fill="#F5F5F5" style="fill:#F5F5F5;fill:color(display-p3 0.9608 0.9608 0.9608);fill-opacity:1;"/>
</svg>
