<svg width="20" height="20" viewBox="0 0 20 20" fill="none" xmlns="http://www.w3.org/2000/svg">
<g id="Icon">
<path id="Vector" d="M12.5 4.375V11.875C12.5 12.0408 12.4342 12.1997 12.3169 12.3169C12.1997 12.4342 12.0408 12.5 11.875 12.5H8.75C8.58424 12.5 8.42527 12.4342 8.30806 12.3169C8.19085 12.1997 8.125 12.0408 8.125 11.875V4.375C8.125 4.20924 8.19085 4.05027 8.30806 3.93306C8.42527 3.81585 8.58424 3.75 8.75 3.75H11.875C12.0408 3.75 12.1997 3.81585 12.3169 3.93306C12.4342 4.05027 12.5 4.20924 12.5 4.375ZM17.5 3.75H14.375C14.2092 3.75 14.0503 3.81585 13.9331 3.93306C13.8158 4.05027 13.75 4.20924 13.75 4.375V8.125C13.75 8.29076 13.8158 8.44973 13.9331 8.56694C14.0503 8.68415 14.2092 8.75 14.375 8.75H17.5C17.6658 8.75 17.8247 8.68415 17.9419 8.56694C18.0592 8.44973 18.125 8.29076 18.125 8.125V4.375C18.125 4.20924 18.0592 4.05027 17.9419 3.93306C17.8247 3.81585 17.6658 3.75 17.5 3.75ZM17.5 10H14.375C14.2092 10 14.0503 10.0658 13.9331 10.1831C13.8158 10.3003 13.75 10.4592 13.75 10.625V13.75C13.75 14.0815 13.8817 14.3995 14.1161 14.6339C14.3505 14.8683 14.6685 15 15 15H16.875C17.2065 15 17.5245 14.8683 17.7589 14.6339C17.9933 14.3995 18.125 14.0815 18.125 13.75V10.625C18.125 10.4592 18.0592 10.3003 17.9419 10.1831C17.8247 10.0658 17.6658 10 17.5 10ZM6.25 3.75H3.125C2.95924 3.75 2.80027 3.81585 2.68306 3.93306C2.56585 4.05027 2.5 4.20924 2.5 4.375V8.125C2.5 8.29076 2.56585 8.44973 2.68306 8.56694C2.80027 8.68415 2.95924 8.75 3.125 8.75H6.25C6.41576 8.75 6.57473 8.68415 6.69194 8.56694C6.80915 8.44973 6.875 8.29076 6.875 8.125V4.375C6.875 4.20924 6.80915 4.05027 6.69194 3.93306C6.57473 3.81585 6.41576 3.75 6.25 3.75ZM6.25 10H3.125C2.95924 10 2.80027 10.0658 2.68306 10.1831C2.56585 10.3003 2.5 10.4592 2.5 10.625V16.25C2.5 16.5815 2.6317 16.8995 2.86612 17.1339C3.10054 17.3683 3.41848 17.5 3.75 17.5H5.625C5.95652 17.5 6.27446 17.3683 6.50888 17.1339C6.7433 16.8995 6.875 16.5815 6.875 16.25V10.625C6.875 10.4592 6.80915 10.3003 6.69194 10.1831C6.57473 10.0658 6.41576 10 6.25 10Z" fill="#F5F5F5" style="fill:#F5F5F5;fill:color(display-p3 0.9608 0.9608 0.9608);fill-opacity:1;"/>
</g>
</svg>
