<svg width="150" height="40" viewBox="0 0 150 40" fill="none" xmlns="http://www.w3.org/2000/svg">
<path fill-rule="evenodd" clip-rule="evenodd" d="M11.6463 32.9264L22.4167 26.6783C22.5 26.6299 22.5692 26.5606 22.6172 26.4771C22.6652 26.3936 22.6905 26.2989 22.6904 26.2026L22.6645 13.7509C22.6643 13.6545 22.6387 13.5599 22.5903 13.4765C22.5419 13.3932 22.4725 13.324 22.389 13.2759L11.5927 7.07358C11.5092 7.02538 11.4145 7 11.3181 7C11.2217 7 11.127 7.02538 11.0435 7.07358L0.273011 13.3224C0.189638 13.3706 0.120482 13.4399 0.0725421 13.5235C0.0246017 13.607 -0.000422201 13.7017 5.38922e-06 13.798L0.025821 26.2497C0.0258817 26.3461 0.051404 26.4407 0.0997995 26.524C0.148195 26.6073 0.217746 26.6763 0.301408 26.7241L11.0977 32.9264C11.181 32.9746 11.2757 33 11.372 33C11.4683 33 11.5629 32.9746 11.6463 32.9264ZM14.6893 18.0938L19.4259 15.3128C19.4672 15.2883 19.5014 15.2536 19.525 15.2119C19.5487 15.1702 19.561 15.123 19.5608 15.075C19.5607 15.0271 19.5479 14.98 19.5239 14.9385C19.4999 14.897 19.4655 14.8625 19.424 14.8384L11.5985 10.3432C11.5151 10.295 11.4205 10.2696 11.3242 10.2696C11.2279 10.2696 11.1333 10.295 11.0499 10.3432L3.10567 14.9507C3.02222 14.999 2.95298 15.0685 2.90494 15.1521C2.8569 15.2358 2.83175 15.3306 2.83203 15.427L2.83913 18.0596C2.83919 18.1559 2.86464 18.2504 2.91291 18.3337C2.96118 18.417 3.03057 18.4861 3.11406 18.534L8.24629 21.4847C8.33001 21.5328 8.39958 21.602 8.44796 21.6856C8.49635 21.7691 8.52185 21.8639 8.52188 21.9604V24.6007C8.52182 24.6328 8.51334 24.6643 8.49729 24.6921C8.48123 24.7199 8.45817 24.743 8.43041 24.759C8.40264 24.7751 8.37114 24.7836 8.33906 24.7837C8.30698 24.7838 8.27543 24.7754 8.24758 24.7595L5.84734 23.3803C5.79175 23.3477 5.74576 23.3009 5.71403 23.2448C5.6823 23.1887 5.66595 23.1253 5.66663 23.0608L5.6634 22.1947C5.66301 22.0975 5.63688 22.0022 5.58768 21.9184C5.53848 21.8346 5.46796 21.7654 5.38329 21.7177L3.24444 20.5179C3.20268 20.4945 3.15551 20.4824 3.10763 20.4828C3.05974 20.4833 3.01281 20.4963 2.9715 20.5205C2.93018 20.5447 2.89593 20.5793 2.87214 20.6209C2.84835 20.6624 2.83585 20.7095 2.8359 20.7574V22.4025L2.84171 24.6136C2.84177 24.71 2.86729 24.8046 2.91568 24.8879C2.96408 24.9712 3.03363 25.0402 3.11729 25.088L10.8156 29.4974C10.8713 29.5293 10.9345 29.546 10.9987 29.5459C11.0629 29.5457 11.1259 29.5286 11.1814 29.4964C11.2369 29.4641 11.283 29.4179 11.315 29.3622C11.3469 29.3065 11.3637 29.2434 11.3636 29.1792L11.3507 20.3056C11.3505 20.2092 11.3249 20.1145 11.2765 20.0312C11.2281 19.9478 11.1587 19.8786 11.0751 19.8306L5.96996 16.8959C5.94207 16.8799 5.9189 16.8569 5.90278 16.829C5.88666 16.8012 5.87817 16.7696 5.87817 16.7375C5.87817 16.7053 5.88666 16.6738 5.90278 16.6459C5.9189 16.6181 5.94207 16.595 5.96996 16.579L11.0596 13.6347C11.1431 13.5865 11.2378 13.5611 11.3342 13.5611C11.4306 13.5611 11.5253 13.5865 11.6088 13.6347L13.911 14.9591C13.9389 14.9751 13.962 14.9982 13.9782 15.026C13.9943 15.0538 14.0028 15.0854 14.0028 15.1175C14.0028 15.1497 13.9943 15.1813 13.9782 15.2091C13.962 15.2369 13.9389 15.26 13.911 15.276L11.8818 16.4454C11.8393 16.47 11.8041 16.5056 11.7799 16.5484C11.7558 16.5912 11.7436 16.6398 11.7447 16.6889C11.7458 16.7381 11.76 16.786 11.7859 16.8278C11.8119 16.8695 11.8486 16.9036 11.8922 16.9263L14.1588 18.1074C14.2411 18.1502 14.333 18.1715 14.4258 18.1691C14.5186 18.1667 14.6093 18.1408 14.6893 18.0938Z" fill="white" style="fill:white;fill:white;fill-opacity:1;"/>
<path d="M14.1445 21.7481L14.1491 24.8551C14.1491 24.9193 14.1661 24.9824 14.1983 25.0379C14.2305 25.0935 14.2767 25.1397 14.3324 25.1717C14.3881 25.2038 14.4512 25.2206 14.5154 25.2205C14.5796 25.2204 14.6427 25.2035 14.6983 25.1713L17.3832 23.614C17.4664 23.5654 17.5354 23.4959 17.5834 23.4123C17.6313 23.3287 17.6564 23.234 17.6562 23.1376L17.6497 20.0339C17.6496 19.9697 17.6326 19.9066 17.6004 19.851C17.5683 19.7955 17.522 19.7493 17.4664 19.7173C17.4107 19.6852 17.3476 19.6684 17.2834 19.6685C17.2191 19.6685 17.1561 19.6855 17.1005 19.7177L14.4182 21.2724C14.3347 21.3206 14.2655 21.39 14.2174 21.4735C14.1694 21.557 14.1442 21.6517 14.1445 21.7481Z" fill="#FF4E1F" style="fill:#FF4E1F;fill:color(display-p3 1.0000 0.3059 0.1216);fill-opacity:1;"/>
<path d="M93.8016 20.1469V25.8555C93.801 25.938 93.7678 26.0169 93.7093 26.075C93.6507 26.1332 93.5716 26.1658 93.4891 26.1658H91.1875C91.1046 26.1658 91.0252 26.1329 90.9665 26.0743C90.9079 26.0156 90.875 25.9361 90.875 25.8533V25.6622C90.8748 25.6449 90.8698 25.6279 90.8606 25.6132C90.8513 25.5986 90.8382 25.5867 90.8226 25.5791C90.8071 25.5714 90.7897 25.5682 90.7724 25.5698C90.7552 25.5714 90.7387 25.5778 90.7248 25.5882C90.0743 26.0918 89.2041 26.4496 88.0246 26.4496C85.8965 26.4496 84.4707 25.2193 84.4707 23.3452C84.4707 21.4887 85.8965 20.2772 88.4465 20.2772H90.6906C90.7406 20.2769 90.7884 20.257 90.8238 20.2216C90.8591 20.1863 90.8791 20.1384 90.8794 20.0884C90.8794 19.2932 90.3272 18.7631 89.5299 18.7631C88.7325 18.7631 88.2157 19.0447 88.0025 19.6831C87.979 19.7568 87.9293 19.8194 87.8627 19.8589C87.7961 19.8984 87.7174 19.9121 87.6414 19.8973L85.3167 19.4291C85.2824 19.4222 85.2499 19.4083 85.2214 19.3882C85.1928 19.3681 85.1688 19.3423 85.1508 19.3123C85.1328 19.2824 85.1212 19.249 85.1169 19.2143C85.1126 19.1797 85.1155 19.1445 85.1256 19.111C85.6391 17.429 87.2571 16.3843 89.4261 16.3843C92.1108 16.3788 93.8016 17.7228 93.8016 20.1469ZM90.875 22.4186V22.3082C90.875 22.2833 90.8651 22.2594 90.8475 22.2418C90.8299 22.2242 90.806 22.2143 90.7811 22.2143H88.7844C88.0246 22.2143 87.5497 22.6119 87.5497 23.1983C87.5497 23.8046 88.0809 24.1834 88.875 24.1834C89.9252 24.1779 90.875 23.4799 90.875 22.4186Z" fill="white" style="fill:white;fill:white;fill-opacity:1;"/>
<path d="M96.8021 22.9297C96.8021 23.4223 97.1632 23.7636 97.7143 23.7636C98.0006 23.7437 98.2828 23.6838 98.5525 23.5858C98.586 23.5753 98.6214 23.572 98.6562 23.5761C98.6911 23.5802 98.7247 23.5916 98.7549 23.6095C98.7851 23.6274 98.8112 23.6514 98.8315 23.6801C98.8518 23.7087 98.8659 23.7413 98.8728 23.7757L99.2439 25.6278C99.2575 25.696 99.248 25.7669 99.2167 25.8291C99.1855 25.8913 99.1344 25.9413 99.0716 25.9712C98.4478 26.2966 97.7529 26.4617 97.0495 26.4516C95.0726 26.4516 93.7617 25.1264 93.7617 23.1573V11.9014C93.7617 11.8185 93.7947 11.739 93.8533 11.6804C93.9119 11.6218 93.9914 11.5889 94.0743 11.5889H96.4895C96.5724 11.5889 96.6519 11.6218 96.7105 11.6804C96.7692 11.739 96.8021 11.8185 96.8021 11.9014V22.9297Z" fill="white" style="fill:white;fill:white;fill-opacity:1;"/>
<path d="M108.125 26.1655H105.711C105.628 26.1655 105.549 26.1325 105.49 26.0739C105.431 26.0153 105.399 25.9358 105.399 25.8529V25.4807C105.399 25.4625 105.394 25.4445 105.384 25.4291C105.374 25.4138 105.36 25.4017 105.343 25.3943C105.326 25.387 105.308 25.3848 105.29 25.388C105.272 25.3912 105.255 25.3996 105.242 25.4123C104.533 26.0749 103.585 26.4493 102.472 26.4493C100.248 26.4493 98.7656 24.8777 98.7656 22.4923V16.9704C98.7656 16.8874 98.7985 16.8078 98.8571 16.749C98.9157 16.6902 98.9952 16.657 99.0782 16.6567H101.475C101.558 16.657 101.637 16.6902 101.696 16.749C101.754 16.8078 101.787 16.8874 101.787 16.9704V21.8451C101.787 22.9627 102.45 23.7226 103.422 23.7226C104.619 23.7226 105.399 22.9086 105.399 21.072V16.9759C105.398 16.9348 105.406 16.894 105.422 16.856C105.438 16.8179 105.461 16.7833 105.49 16.7542C105.519 16.725 105.553 16.7019 105.591 16.6862C105.629 16.6704 105.67 16.6623 105.711 16.6623H108.125C108.208 16.6623 108.288 16.6953 108.347 16.7541C108.406 16.8129 108.439 16.8927 108.439 16.9759V25.8551C108.438 25.9377 108.405 26.0167 108.346 26.0748C108.287 26.1329 108.208 26.1655 108.125 26.1655Z" fill="white" style="fill:white;fill:white;fill-opacity:1;"/>
<path d="M117.804 22.1896H111.473C111.46 22.1898 111.446 22.1928 111.434 22.1987C111.421 22.2046 111.41 22.213 111.402 22.2236C111.393 22.2341 111.387 22.2464 111.383 22.2596C111.38 22.2728 111.379 22.2866 111.382 22.3001C111.646 23.368 112.381 24.0218 113.34 24.0218C113.971 24.0218 114.698 23.8738 115.196 23.1085C115.231 23.0543 115.281 23.0119 115.34 22.987C115.399 22.9621 115.465 22.956 115.527 22.9693L117.539 23.4045C117.585 23.4138 117.628 23.4334 117.665 23.4619C117.703 23.4904 117.733 23.5271 117.755 23.5691C117.776 23.611 117.787 23.6573 117.788 23.7043C117.789 23.7514 117.779 23.798 117.759 23.8407C116.918 25.6077 115.322 26.4559 113.342 26.4559C110.677 26.4559 108.473 24.4304 108.473 21.4199C108.473 18.4281 110.681 16.3828 113.36 16.3828C115.969 16.3828 118.063 18.3144 118.118 21.4199V21.8826C118.117 21.9648 118.083 22.0431 118.024 22.1005C117.965 22.1579 117.886 22.19 117.804 22.1896ZM111.538 20.3343H115.088C115.103 20.3342 115.117 20.3308 115.13 20.3241C115.143 20.3175 115.155 20.3079 115.163 20.2961C115.172 20.2843 115.178 20.2706 115.18 20.2561C115.183 20.2417 115.182 20.2268 115.177 20.2128C114.878 19.2741 114.169 18.8379 113.357 18.8379C112.937 18.8396 112.527 18.9723 112.185 19.2176C111.843 19.4628 111.587 19.8083 111.45 20.2062C111.445 20.2206 111.443 20.2362 111.444 20.2515C111.446 20.2669 111.452 20.2816 111.46 20.2943C111.469 20.3071 111.481 20.3176 111.494 20.325C111.508 20.3323 111.523 20.3363 111.538 20.3365V20.3343Z" fill="white" style="fill:white;fill:white;fill-opacity:1;"/>
<path d="M68.2906 24.3788C69.752 24.3788 70.9367 23.0606 70.9367 21.4345C70.9367 19.8084 69.752 18.4902 68.2906 18.4902C66.8292 18.4902 65.6445 19.8084 65.6445 21.4345C65.6445 23.0606 66.8292 24.3788 68.2906 24.3788Z" fill="#FF4E1F" style="fill:#FF4E1F;fill:color(display-p3 1.0000 0.3059 0.1216);fill-opacity:1;"/>
<path d="M41.5376 17.1098L39.0726 17.6112C39.0113 17.6229 38.9479 17.6111 38.8949 17.5782C38.8419 17.5452 38.8032 17.4936 38.7866 17.4334C38.4884 16.4174 37.585 15.9171 36.6651 15.9171C35.6424 15.9171 34.9919 16.4693 34.9919 17.1761C34.9919 17.6764 35.2128 18.0463 35.9958 18.2131L38.5801 18.7874C40.7358 19.2689 42.0037 20.4362 42.0037 22.3987C42.0037 25.0492 39.6425 26.4176 36.8727 26.4176C34.1868 26.4176 31.9604 25.1972 31.4811 22.9653C31.4728 22.9254 31.4724 22.8842 31.4802 22.8441C31.4879 22.8041 31.5036 22.766 31.5262 22.7321C31.5488 22.6982 31.5779 22.6691 31.6119 22.6465C31.6459 22.624 31.684 22.6085 31.7241 22.6008L34.3647 22.0906C34.424 22.0789 34.4857 22.0895 34.5376 22.1205C34.5896 22.1515 34.6283 22.2006 34.6463 22.2585C35.0052 23.3871 35.8611 23.8808 37.0406 23.8808C38.1924 23.8808 38.8805 23.3617 38.8805 22.603C38.8805 22.0508 38.6198 21.6952 37.7286 21.5097L35.1256 20.9575C33.3409 20.55 31.7804 19.6245 31.7804 17.3649C31.7804 14.9574 33.7871 13.4565 36.7059 13.4565C39.2891 13.4565 41.1997 14.6714 41.7773 16.731C41.7878 16.7717 41.7899 16.8141 41.7834 16.8556C41.777 16.8971 41.762 16.9369 41.7396 16.9724C41.7171 17.0079 41.6876 17.0384 41.6528 17.0621C41.6181 17.0857 41.5789 17.102 41.5376 17.1098Z" fill="white" style="fill:white;fill:white;fill-opacity:1;"/>
<path d="M52.4267 21.417C52.4267 24.411 50.0446 26.4077 47.2284 26.4077C44.357 26.4077 41.9727 24.411 41.9727 21.417C41.9727 18.4352 44.3548 16.4473 47.2284 16.4473C50.0446 16.4396 52.4267 18.4352 52.4267 21.417ZM49.5156 21.417C49.5156 19.9471 48.4001 18.9675 47.2284 18.9675C45.9992 18.9675 44.8838 19.9471 44.8838 21.417C44.8838 22.9046 45.9992 23.8654 47.2284 23.8654C48.4001 23.861 49.5156 22.9002 49.5156 21.417Z" fill="white" style="fill:white;fill:white;fill-opacity:1;"/>
<path d="M62.4107 17.1098L59.9457 17.6112C59.8844 17.6229 59.8209 17.6111 59.7679 17.5782C59.7149 17.5452 59.6763 17.4936 59.6596 17.4334C59.3615 16.4174 58.4581 15.9171 57.5381 15.9171C56.5155 15.9171 55.865 16.4693 55.865 17.1761C55.865 17.6764 56.0859 18.0463 56.8689 18.2131L59.4531 18.7874C61.6089 19.2689 62.8767 20.4362 62.8767 22.3987C62.8767 25.0492 60.5155 26.4176 57.7457 26.4176C55.0599 26.4176 52.8335 25.1972 52.3542 22.9653C52.3458 22.9254 52.3455 22.8842 52.3532 22.8441C52.361 22.8041 52.3766 22.766 52.3992 22.7321C52.4218 22.6982 52.451 22.6691 52.485 22.6465C52.5189 22.624 52.5571 22.6085 52.5971 22.6008L55.2377 22.0906C55.2971 22.0789 55.3587 22.0895 55.4107 22.1205C55.4627 22.1515 55.5014 22.2006 55.5193 22.2585C55.8782 23.3871 56.7341 23.8808 57.9136 23.8808C59.0655 23.8808 59.7535 23.3617 59.7535 22.603C59.7535 22.0508 59.4929 21.6952 58.6016 21.5097L55.9986 20.9575C54.2139 20.55 52.6534 19.6245 52.6534 17.3649C52.6534 14.9574 54.6601 13.4565 57.579 13.4565C60.1621 13.4565 62.0727 14.6714 62.6503 16.731C62.6609 16.7717 62.663 16.8141 62.6565 16.8556C62.65 16.8971 62.6351 16.9369 62.6126 16.9724C62.5901 17.0079 62.5606 17.0384 62.5259 17.0621C62.4911 17.0857 62.4519 17.102 62.4107 17.1098Z" fill="white" style="fill:white;fill:white;fill-opacity:1;"/>
<path d="M73.2998 21.417C73.2998 24.411 70.9176 26.4077 68.1014 26.4077C65.2301 26.4077 62.8457 24.411 62.8457 21.417C62.8457 18.4352 65.2279 16.4473 68.1014 16.4473C70.9176 16.4396 73.2998 18.4352 73.2998 21.417ZM70.3886 21.417C70.3886 19.9471 69.2732 18.9675 68.1014 18.9675C66.8723 18.9675 65.7569 19.9471 65.7569 21.417C65.7569 22.9046 66.8723 23.8654 68.1014 23.8654C69.2732 23.861 70.3886 22.9002 70.3886 21.417Z" fill="white" style="fill:white;fill:white;fill-opacity:1;"/>
<path d="M81.6722 26.4437H79.163C79.0773 26.4432 78.9935 26.4178 78.9219 26.3706C78.8503 26.3233 78.794 26.2562 78.7599 26.1775L73.481 13.8085C73.4648 13.7703 73.4582 13.7287 73.462 13.6875C73.4657 13.6462 73.4797 13.6065 73.5025 13.5719C73.5254 13.5373 73.5565 13.5089 73.593 13.4893C73.6295 13.4697 73.6704 13.4594 73.7118 13.4595H76.5766C76.6634 13.4599 76.7481 13.486 76.8202 13.5343C76.8922 13.5826 76.9485 13.6511 76.9819 13.7311L80.3226 21.8583C80.3298 21.8754 80.3418 21.8901 80.3572 21.9004C80.3727 21.9107 80.3908 21.9162 80.4093 21.9162C80.4279 21.9162 80.446 21.9107 80.4615 21.9004C80.4769 21.8901 80.4889 21.8754 80.496 21.8583L83.8556 13.7378C83.8891 13.6581 83.9452 13.5899 84.0171 13.5418C84.0889 13.4938 84.1733 13.4678 84.2598 13.4672H87.1312C87.1725 13.4674 87.2132 13.4777 87.2496 13.4974C87.286 13.5171 87.3169 13.5455 87.3396 13.5801C87.3624 13.6146 87.3762 13.6543 87.3799 13.6955C87.3836 13.7367 87.3771 13.7781 87.3609 13.8162L82.083 26.1852C82.0472 26.2637 81.9893 26.33 81.9163 26.3759C81.8433 26.4219 81.7584 26.4454 81.6722 26.4437Z" fill="white" style="fill:white;fill:white;fill-opacity:1;"/>
<rect width="27" height="10" transform="translate(123 16)" fill="url(#paint0_linear_23602_35681)" style=""/>
<path d="M124.899 24L126.609 17.43H127.698L129.399 24H128.58L128.148 22.254H126.159L125.727 24H124.899ZM126.321 21.57H127.977L127.473 19.545C127.377 19.161 127.302 18.84 127.248 18.582C127.194 18.324 127.161 18.156 127.149 18.078C127.137 18.156 127.104 18.324 127.05 18.582C126.996 18.84 126.921 19.158 126.825 19.536L126.321 21.57ZM132.545 24C132.107 24 131.756 23.874 131.492 23.622C131.234 23.364 131.105 23.025 131.105 22.605V18.168H129.395V17.43H131.915V22.605C131.915 22.809 131.972 22.971 132.086 23.091C132.2 23.205 132.353 23.262 132.545 23.262H134.075V24H132.545ZM134.63 25.62V19.05H135.44V19.995H135.449C135.491 19.671 135.632 19.419 135.872 19.239C136.112 19.053 136.418 18.96 136.79 18.96C137.288 18.96 137.684 19.125 137.978 19.455C138.272 19.779 138.419 20.226 138.419 20.796V22.245C138.419 22.815 138.272 23.265 137.978 23.595C137.684 23.925 137.288 24.09 136.79 24.09C136.418 24.09 136.112 23.997 135.872 23.811C135.632 23.625 135.491 23.373 135.449 23.055H135.422L135.44 24.18V25.62H134.63ZM136.52 23.388C136.862 23.388 137.129 23.298 137.321 23.118C137.513 22.938 137.609 22.647 137.609 22.245V20.805C137.609 20.397 137.513 20.106 137.321 19.932C137.129 19.752 136.862 19.662 136.52 19.662C136.19 19.662 135.926 19.767 135.728 19.977C135.536 20.187 135.44 20.478 135.44 20.85V22.2C135.44 22.572 135.536 22.863 135.728 23.073C135.926 23.283 136.19 23.388 136.52 23.388ZM139.306 24V17.43H140.116V19.995H140.125C140.167 19.665 140.302 19.41 140.53 19.23C140.758 19.05 141.061 18.96 141.439 18.96C141.937 18.96 142.333 19.113 142.627 19.419C142.921 19.725 143.068 20.142 143.068 20.67V24H142.258V20.805C142.258 20.433 142.162 20.148 141.97 19.95C141.784 19.746 141.529 19.644 141.205 19.644C140.869 19.644 140.602 19.749 140.404 19.959C140.212 20.169 140.116 20.466 140.116 20.85V24H139.306ZM145.423 24.09C144.913 24.09 144.508 23.949 144.208 23.667C143.908 23.379 143.758 23.004 143.758 22.542C143.758 22.236 143.827 21.969 143.965 21.741C144.103 21.513 144.295 21.336 144.541 21.21C144.787 21.078 145.069 21.012 145.387 21.012H146.917V20.625C146.917 19.983 146.566 19.662 145.864 19.662C145.552 19.662 145.3 19.719 145.108 19.833C144.916 19.947 144.814 20.106 144.802 20.31H143.992C144.022 19.92 144.202 19.599 144.532 19.347C144.868 19.089 145.312 18.96 145.864 18.96C146.464 18.96 146.923 19.104 147.241 19.392C147.565 19.68 147.727 20.082 147.727 20.598V24H146.926V23.1H146.908C146.86 23.406 146.707 23.649 146.449 23.829C146.191 24.003 145.849 24.09 145.423 24.09ZM145.621 23.406C146.017 23.406 146.332 23.31 146.566 23.118C146.8 22.926 146.917 22.665 146.917 22.335V21.642H145.477C145.213 21.642 144.997 21.723 144.829 21.885C144.667 22.041 144.586 22.251 144.586 22.515C144.586 22.791 144.676 23.01 144.856 23.172C145.042 23.328 145.297 23.406 145.621 23.406Z" fill="white" style="fill:white;fill:white;fill-opacity:1;"/>
<defs>
<linearGradient id="paint0_linear_23602_35681" x1="0" y1="0" x2="35.5948" y2="11.305" gradientUnits="userSpaceOnUse">
<stop stop-color="#FF4F20" style="stop-color:#FF4F20;stop-color:color(display-p3 1.0000 0.3098 0.1255);stop-opacity:1;"/>
<stop offset="1" stop-color="#FF9D88" style="stop-color:#FF9D88;stop-color:color(display-p3 1.0000 0.6173 0.5333);stop-opacity:1;"/>
</linearGradient>
</defs>
</svg>
