<svg width="20" height="20" viewBox="0 0 20 20" fill="none" xmlns="http://www.w3.org/2000/svg">
<g id="Icon">
<path id="Vector" d="M17.5 4.375V5.625C17.5 5.79076 17.4342 5.94973 17.3169 6.06694C17.1997 6.18415 17.0408 6.25 16.875 6.25H7.5C7.33424 6.25 7.17527 6.18415 7.05806 6.06694C6.94085 5.94973 6.875 5.79076 6.875 5.625V4.375C6.875 4.20924 6.94085 4.05027 7.05806 3.93306C7.17527 3.81585 7.33424 3.75 7.5 3.75H16.875C17.0408 3.75 17.1997 3.81585 17.3169 3.93306C17.4342 4.05027 17.5 4.20924 17.5 4.375ZM4.375 3.75H3.125C2.95924 3.75 2.80027 3.81585 2.68306 3.93306C2.56585 4.05027 2.5 4.20924 2.5 4.375V5.625C2.5 5.79076 2.56585 5.94973 2.68306 6.06694C2.80027 6.18415 2.95924 6.25 3.125 6.25H4.375C4.54076 6.25 4.69973 6.18415 4.81694 6.06694C4.93415 5.94973 5 5.79076 5 5.625V4.375C5 4.20924 4.93415 4.05027 4.81694 3.93306C4.69973 3.81585 4.54076 3.75 4.375 3.75ZM16.875 8.75H7.5C7.33424 8.75 7.17527 8.81585 7.05806 8.93306C6.94085 9.05027 6.875 9.20924 6.875 9.375V10.625C6.875 10.7908 6.94085 10.9497 7.05806 11.0669C7.17527 11.1842 7.33424 11.25 7.5 11.25H16.875C17.0408 11.25 17.1997 11.1842 17.3169 11.0669C17.4342 10.9497 17.5 10.7908 17.5 10.625V9.375C17.5 9.20924 17.4342 9.05027 17.3169 8.93306C17.1997 8.81585 17.0408 8.75 16.875 8.75ZM4.375 8.75H3.125C2.95924 8.75 2.80027 8.81585 2.68306 8.93306C2.56585 9.05027 2.5 9.20924 2.5 9.375V10.625C2.5 10.7908 2.56585 10.9497 2.68306 11.0669C2.80027 11.1842 2.95924 11.25 3.125 11.25H4.375C4.54076 11.25 4.69973 11.1842 4.81694 11.0669C4.93415 10.9497 5 10.7908 5 10.625V9.375C5 9.20924 4.93415 9.05027 4.81694 8.93306C4.69973 8.81585 4.54076 8.75 4.375 8.75ZM16.875 13.75H7.5C7.33424 13.75 7.17527 13.8158 7.05806 13.9331C6.94085 14.0503 6.875 14.2092 6.875 14.375V15.625C6.875 15.7908 6.94085 15.9497 7.05806 16.0669C7.17527 16.1842 7.33424 16.25 7.5 16.25H16.875C17.0408 16.25 17.1997 16.1842 17.3169 16.0669C17.4342 15.9497 17.5 15.7908 17.5 15.625V14.375C17.5 14.2092 17.4342 14.0503 17.3169 13.9331C17.1997 13.8158 17.0408 13.75 16.875 13.75ZM4.375 13.75H3.125C2.95924 13.75 2.80027 13.8158 2.68306 13.9331C2.56585 14.0503 2.5 14.2092 2.5 14.375V15.625C2.5 15.7908 2.56585 15.9497 2.68306 16.0669C2.80027 16.1842 2.95924 16.25 3.125 16.25H4.375C4.54076 16.25 4.69973 16.1842 4.81694 16.0669C4.93415 15.9497 5 15.7908 5 15.625V14.375C5 14.2092 4.93415 14.0503 4.81694 13.9331C4.69973 13.8158 4.54076 13.75 4.375 13.75Z" fill="#F5F5F5" style="fill:#F5F5F5;fill:color(display-p3 0.9608 0.9608 0.9608);fill-opacity:1;"/>
</g>
</svg>
