<svg width="21" height="20" viewBox="0 0 21 20" fill="none"
  xmlns="http://www.w3.org/2000/svg">
  <g id="Chart">
    <path id="Vector" d="M17.2 1.90039H4.60005C4.12266 1.90039 3.66482 2.09003 3.32726 2.4276C2.98969 2.76516 2.80005 3.223 2.80005 3.70039V16.3004C2.80005 16.7778 2.98969 17.2356 3.32726 17.5732C3.66482 17.9107 4.12266 18.1004 4.60005 18.1004H17.2C17.6774 18.1004 18.1353 17.9107 18.4728 17.5732C18.8104 17.2356 19 16.7778 19 16.3004V3.70039C19 3.223 18.8104 2.76516 18.4728 2.4276C18.1353 2.09003 17.6774 1.90039 17.2 1.90039Z" stroke="currentColor" stroke-width="2" stroke-linecap="round" stroke-linejoin="round"/>
    <path id="Vector_2" d="M15.787 6.63281L12.7684 11.662L8.40702 9.16901L6.57642 11.9176" stroke="currentColor" stroke-width="2" stroke-linecap="round" stroke-linejoin="round"/>
  </g>
</svg>
