<svg width="21" height="20" viewBox="0 0 21 20" fill="none"
  xmlns="http://www.w3.org/2000/svg">
  <g id="Chart" clip-path="url(#clip0_2796_41714)">
    <path id="Vector" d="M8.99812 7.55596L8.9975 7.55561L7.0899 8.384L6.67375 8.10684L6.67363 8.10701C6.67359 8.10708 6.67355 8.10715 6.6735 8.10721L4.63975 11.1608L4.63469 11.1684L4.6299 11.1762C4.39264 11.5623 4.31441 12.0254 4.41169 12.4681C4.50897 12.9107 4.77417 13.2983 5.15147 13.5494C5.52877 13.8004 5.98875 13.8953 6.4346 13.8141C6.88045 13.7329 7.2774 13.4818 7.5419 13.1138L7.54698 13.1068L7.5518 13.0995L8.68085 11.4076L12.1078 13.3661L12.1085 13.3665C12.9348 13.8371 13.9839 13.5619 14.4757 12.7488L14.4767 12.7471L17.8244 7.16428C17.9497 6.9693 18.0349 6.75135 18.0753 6.52308C18.1162 6.29157 18.11 6.05419 18.0572 5.82511C18.0043 5.59603 17.9058 5.37995 17.7676 5.18977C17.6294 4.99959 17.4543 4.83921 17.2528 4.7182C17.0512 4.59719 16.8273 4.51803 16.5945 4.48545C16.3617 4.45287 16.1247 4.46754 15.8976 4.52857C15.6706 4.58961 15.4582 4.69577 15.2731 4.84071C15.0905 4.98367 14.9382 5.16147 14.825 5.36375L12.3571 9.47689L8.99812 7.55596ZM1.3999 3C1.3999 2.33696 1.66329 1.70107 2.13214 1.23223C2.60098 0.763392 3.23686 0.5 3.8999 0.5H17.8999C18.5629 0.5 19.1988 0.763392 19.6677 1.23223C20.1365 1.70107 20.3999 2.33696 20.3999 3V17C20.3999 17.663 20.1365 18.2989 19.6677 18.7678C19.1988 19.2366 18.5629 19.5 17.8999 19.5H3.8999C3.23686 19.5 2.60098 19.2366 2.13214 18.7678C1.66329 18.2989 1.3999 17.663 1.3999 17V3Z" fill="currentColor" stroke="currentColor"/>
  </g>
  <defs>
    <clipPath id="clip0_2796_41714">
      <rect width="20" height="20" fill="white" transform="translate(0.899902)"/>
    </clipPath>
  </defs>
</svg>
