<svg width="21" height="20" viewBox="0 0 21 20" fill="none"
  xmlns="http://www.w3.org/2000/svg">
  <g id="dashboard-low" clip-path="url(#clip0_2895_29153)">
    <path id="Vector" d="M10.2834 1.16667V1.16658L10.2741 1.16675C9.55375 1.18009 8.96671 1.76702 8.96671 2.5C8.96671 3.23448 9.56557 3.83333 10.3 3.83333H10.3001H10.3001H10.3002H10.3002H10.3003H10.3003H10.3004H10.3004H10.3005H10.3005H10.3006H10.3006H10.3007H10.3007H10.3008H10.3008H10.3009H10.3009H10.3009H10.301H10.301H10.3011H10.3011H10.3012H10.3012H10.3013H10.3013H10.3013H10.3014H10.3014H10.3015H10.3015H10.3016H10.3016H10.3016H10.3017H10.3017H10.3018H10.3018H10.3019H10.3019H10.3019H10.302H10.302H10.3021H10.3021H10.3021H10.3022H10.3022H10.3023H10.3023H10.3023H10.3024H10.3024H10.3025H10.3025H10.3025H10.3026H10.3026H10.3027H10.3027H10.3027H10.3028H10.3028H10.3029H10.3029H10.3029H10.303H10.303H10.303H10.3031H10.3031H10.3032H10.3032H10.3032H10.3033H10.3033H10.3033H10.3034H10.3034H10.3034H10.3035H10.3035H10.3036H10.3036H10.3036H10.3037H10.3037H10.3037H10.3038H10.3038H10.3038H10.3039H10.3039H10.3039H10.304H10.304H10.304H10.3041H10.3041H10.3041H10.3042H10.3042H10.3042H10.3043H10.3043H10.3043H10.3044H10.3044H10.3044H10.3045H10.3045H10.3045H10.3046H10.3046H10.3046H10.3047H10.3047H10.3047H10.3047H10.3048H10.3048H10.3048H10.3049H10.3049H10.3049H10.305H10.305H10.305H10.3051H10.3051H10.3051H10.3051H10.3052H10.3052H10.3052H10.3053H10.3053H10.3053H10.3054H10.3054H10.3054H10.3054H10.3055H10.3055H10.3055H10.3056H10.3056H10.3056H10.3056H10.3057H10.3057H10.3057H10.3058H10.3058H10.3058H10.3058H10.3059H10.3059H10.3059H10.306H10.306H10.306H10.306H10.3061H10.3061H10.3061H10.3061H10.3062H10.3062H10.3062H10.3063H10.3063H10.3063H10.3063H10.3064H10.3064H10.3064H10.3064H10.3065H10.3065H10.3065H10.3066H10.3066H10.3066H10.3066H10.3067H10.3067H10.3067H10.3067H10.3068H10.3068H10.3068H10.3068H10.3069H10.3069H10.3069H10.3069H10.307H10.307H10.307H10.307H10.3071H10.3071H10.3071H10.3071H10.3072H10.3072H10.3072H10.3072H10.3073H10.3073H10.3073H10.3073H10.3074H10.3074H10.3074H10.3074H10.3075H10.3075H10.3075H10.3075H10.3076H10.3076H10.3076H10.3076H10.3077H10.3077H10.3077H10.3077H10.3078H10.3078H10.3078H10.3078H10.3079H10.3079H10.3079H10.3079H10.308H10.308H10.308H10.308H10.3081H10.3081H10.3081H10.3081H10.3082H10.3082H10.3082H10.3082H10.3083H10.3083H10.3083H10.3083H10.3084H10.3084H10.3084H10.3084H10.3085H10.3085H10.3085H10.3085H10.3086H10.3086H10.3086H10.3086H10.3087H10.3087H10.3087H10.3087H10.3087H10.3088H10.3088H10.3088H10.3088H10.3089H10.3089H10.3089H10.3089H10.309H10.309H10.309H10.309H10.3091H10.3091H10.3091H10.3091H10.3092H10.3092H10.3092H10.3092H10.3093H10.3093H10.3093H10.3093H10.3094H10.3094H10.3094H10.3094H10.3095H10.3095H10.3095H10.3095H10.3096H10.3096H10.3096H10.3096H10.3097H10.3097H10.3097H10.3097H10.3098H10.3098H10.3098H10.3098H10.3099H10.3099H10.3099H10.31H10.31H10.31H10.31H10.3101H10.3101H10.3101H10.3101H10.3102H10.3102H10.3102H10.3102H10.3103H10.3103H10.3103H10.3103H10.3104H10.3104H10.3104H10.3105H10.3105H10.3105H10.3105H10.3106H10.3106H10.3106H10.3106H10.3107H10.3107H10.3107H10.3108H10.3108H10.3108H10.3108H10.3109H10.3109H10.3109H10.3109H10.311H10.311H10.311H10.3111H10.3111H10.3111H10.3111H10.3112H10.3112H10.3112H10.3113H10.3113H10.3113H10.3113H10.3114H10.3114H10.3114H10.3115H10.3115H10.3115H10.3116H10.3116H10.3116H10.3116H10.3117H10.3117H10.3117H10.3118H10.3118H10.3118H10.3119H10.3119H10.3119H10.312H10.312H10.312H10.312H10.3121H10.3121H10.3121H10.3122H10.3122H10.3122H10.3123H10.3123H10.3123H10.3124H10.3124H10.3124H10.3125H10.3125H10.3125H10.3126H10.3126H10.3126H10.3127H10.3127H10.3127H10.3128H10.3128H10.3128H10.3129H10.3129H10.3129H10.313H10.313H10.313H10.3131H10.3131H10.3131H10.3132H10.3132H10.3132H10.3133H10.3133H10.3134H10.3134H10.3134H10.3135H10.3135H10.3135H10.3136H10.3136H10.3136H10.3137H10.3137H10.3138H10.3138H10.3138H10.3139H10.3139H10.3139H10.314H10.314H10.3141H10.3141H10.3141H10.3142H10.3142H10.3143H10.3143H10.3143H10.3144H10.3144H10.3145H10.3145H10.3145H10.3146H10.3146H10.3147H10.3147H10.3147H10.3148H10.3148H10.3149H10.3149H10.3149H10.315H10.315H10.3151H10.3151H10.3152H10.3152H10.3152H10.3153H10.3153H10.3154H10.3154H10.3155H10.3155H10.3156H10.3156H10.3156H10.3157H10.3157H10.3158H10.3158H10.3159H10.3159H10.316H10.316H10.3161H10.3161H10.3161H10.3162H10.3162H10.3163H10.3163H10.3164H10.3164H10.3165H10.3165H10.3166H10.3166H10.3167H10.3167H10.325C11.0613 3.83333 11.6667 3.24929 11.6667 2.5C11.6667 1.76552 11.0679 1.16667 10.3334 1.16667H10.3167H10.3H10.2834ZM17.9087 10.3889L17.9088 10.3888L17.9021 10.3873C17.1927 10.2267 16.4757 10.6767 16.3131 11.3863C16.1423 12.104 16.5911 12.8226 17.3009 12.9864C17.4017 13.0112 17.5072 13.025 17.6084 13.025C18.2149 13.025 18.7668 12.6149 18.9041 11.9866C19.0763 11.267 18.6139 10.5587 17.9087 10.3889ZM16.9966 6.40253L17.0063 6.39538L17.0157 6.38778C17.5839 5.9253 17.6802 5.08985 17.2256 4.51488C16.7695 3.93808 15.9311 3.84716 15.3588 4.29771C14.7679 4.75622 14.6838 5.59572 15.1294 6.17239L15.135 6.17968L15.1409 6.18676C15.4047 6.50326 15.7883 6.675 16.1834 6.675C16.4681 6.675 16.7548 6.58074 16.9966 6.40253ZM12.1259 14.7446L12.1263 14.7442C13.1345 13.7349 13.1348 12.0993 12.1261 11.0906C11.4618 10.4255 10.527 10.2019 9.67939 10.4114L7.41194 8.14395C6.89167 7.62368 6.04676 7.62368 5.5265 8.14395C5.00623 8.66421 5.00623 9.50912 5.5265 10.0294L7.79394 12.2968C7.58439 13.1445 7.80824 14.0786 8.47316 14.7436C9.48173 15.7521 11.1173 15.7521 12.1259 14.7446ZM3.60108 6.36278L3.61042 6.37038L3.62012 6.37753C3.86398 6.55722 4.15115 6.65 4.44172 6.65C4.82126 6.65 5.21217 6.49148 5.48215 6.15401L5.48392 6.15178C5.93855 5.57681 5.8422 4.74136 5.27402 4.27889L5.27405 4.27885L5.2685 4.27446C4.6971 3.82265 3.85888 3.91204 3.40172 4.4871C2.93516 5.06332 3.03331 5.90064 3.60108 6.36278ZM3.23743 12.97L3.25644 12.9673L3.27518 12.9631C3.99749 12.8026 4.44744 12.0834 4.28814 11.3665C4.12816 10.6466 3.40924 10.1915 2.6873 10.3629C1.97537 10.5235 1.51671 11.2278 1.6874 11.9522C1.82506 12.584 2.38786 12.9917 2.98338 12.9917C3.08069 12.9917 3.17851 12.9784 3.23743 12.97ZM10.3 19.5C5.05369 19.5 0.800049 15.2464 0.800049 10C0.800049 4.75364 5.05369 0.5 10.3 0.5C15.5464 0.5 19.8 4.75364 19.8 10C19.8 15.2464 15.5464 19.5 10.3 19.5Z" fill="currentColor" stroke="currentColor"/>
  </g>
  <defs>
    <clipPath id="clip0_2895_29153">
      <rect width="20" height="20" fill="white" transform="translate(0.300049)"/>
    </clipPath>
  </defs>
</svg>
