<svg width="21" height="20" viewBox="0 0 21 20" fill="none"
  xmlns="http://www.w3.org/2000/svg">
  <path fill-rule="evenodd" clip-rule="evenodd" d="M13.4924 20C9.68925 20 6.61078 16.9165 6.61078 13.1184C6.61078 9.31534 9.68925 6.23688 13.4924 6.23688C17.2955 6.23688 20.3739 9.32033 20.3739 13.1184C20.3739 16.9215 17.2905 20 13.4924 20ZM8.47357 15.6V11.05H11.284V11.8603H9.39166V12.8825H11.0655V13.6553H9.39166V14.7897H11.284V15.6H8.47357ZM11.8437 15.6L13.0678 13.2502L11.9249 11.05H12.9554L13.4301 12.0473C13.4759 12.1387 13.5133 12.2218 13.5425 12.2966C13.5758 12.3714 13.5966 12.4254 13.6049 12.4586C13.6133 12.4254 13.632 12.3714 13.6611 12.2966C13.6903 12.2218 13.7257 12.1387 13.7673 12.0473L14.2545 11.05H15.26L14.1171 13.2502L15.3412 15.6H14.3107L13.7611 14.4781C13.7194 14.3867 13.682 14.3015 13.6486 14.2225C13.6153 14.1436 13.5904 14.0833 13.5737 14.0418C13.5612 14.0833 13.5404 14.1436 13.5112 14.2225C13.4821 14.3015 13.4446 14.3867 13.3988 14.4781L12.8492 15.6H11.8437ZM15.8759 11.05V15.6H16.8127V13.9421H17.431C17.7516 13.9421 18.0305 13.8818 18.2679 13.7613C18.5052 13.6408 18.6905 13.4725 18.8237 13.2564C18.957 13.0362 19.0236 12.7827 19.0236 12.496C19.0236 12.2052 18.957 11.9517 18.8237 11.7356C18.6947 11.5195 18.5094 11.3513 18.2679 11.2307C18.0305 11.1102 17.7516 11.05 17.431 11.05H15.8759ZM17.431 13.1318H16.8127V11.8603H17.431C17.6308 11.8603 17.7891 11.9205 17.9056 12.041C18.0264 12.1615 18.0868 12.3132 18.0868 12.496C18.0868 12.6789 18.0264 12.8305 17.9056 12.951C17.7891 13.0715 17.6308 13.1318 17.431 13.1318Z" fill="url(#paint0_linear_5435_119)"/>
  <path fill-rule="evenodd" clip-rule="evenodd" d="M13.8733 4.9925C11.6694 4.89255 9.42548 5.68216 7.74132 7.36632C6.05716 9.05547 5.26755 11.2944 5.3675 13.4983C2.48394 12.6787 0.375 10.025 0.375 6.88156C0.375 3.07846 3.45845 0 7.25655 0C10.4 0 13.0537 2.10895 13.8733 4.9925ZM7.74091 7.36632C7.77387 7.33336 7.80703 7.30075 7.84041 7.26848L7.51833 6.6502L8.66125 4.45H7.65573L7.16858 5.44726C7.12694 5.53867 7.09155 5.62178 7.06241 5.69657C7.03326 5.77137 7.01452 5.82539 7.0062 5.85863C6.99787 5.82539 6.97705 5.77137 6.94374 5.69657C6.9146 5.62178 6.87712 5.53867 6.83132 5.44726L6.35666 4.45H5.32616L6.46908 6.6502L5.24497 9H6.25049L6.80009 7.87808C6.84589 7.78666 6.88337 7.70148 6.91251 7.62253C6.94166 7.54358 6.96248 7.48333 6.97497 7.44178C6.99162 7.48333 7.0166 7.54358 7.04991 7.62253C7.08322 7.70148 7.1207 7.78666 7.16233 7.87808L7.20287 7.96083C7.37074 7.75617 7.55008 7.55771 7.74091 7.36632ZM11.6691 4.63075C11.8928 4.74237 12.0683 4.89499 12.1955 5.0886C11.844 5.14527 11.4953 5.22499 11.152 5.32779C11.061 5.28278 10.9544 5.26027 10.8322 5.26027H10.2139V5.67289C9.89369 5.81368 9.58067 5.97607 9.27712 6.16008V4.45H10.8322C11.1528 4.45 11.4318 4.51025 11.6691 4.63075ZM1.87484 4.45V9H4.68531V8.18972H2.79293V7.05534H4.46672V6.28246H2.79293V5.26027H4.68531V4.45H1.87484Z" fill="url(#paint1_linear_5435_119)"/>
  <defs>
    <linearGradient id="paint0_linear_5435_119" x1="6.61078" y1="6.23688" x2="20.1273" y2="19.5843" gradientUnits="userSpaceOnUse">
      <stop stop-color="#FFD64D"/>
      <stop offset="1" stop-color="#FFAD33"/>
    </linearGradient>
    <linearGradient id="paint1_linear_5435_119" x1="0.375" y1="0" x2="13.6314" y2="13.0906" gradientUnits="userSpaceOnUse">
      <stop stop-color="#FFD64D"/>
      <stop offset="1" stop-color="#FFAD33"/>
    </linearGradient>
  </defs>
</svg>
