<svg width="21" height="20" viewBox="0 0 21 20" fill="none"
  xmlns="http://www.w3.org/2000/svg">
  <g id="newspaper-alt" clip-path="url(#clip0_2796_18645)">
    <path id="Vector" d="M4.53335 15.8333V0.5H20.2V16.6667C20.2 18.2314 18.9314 19.5 17.3667 19.5H4.03335C2.46865 19.5 1.20001 18.2314 1.20001 16.6667V9.66667H1.86668V15.8333C1.86668 16.5678 2.46554 17.1667 3.20001 17.1667C3.93449 17.1667 4.53335 16.5678 4.53335 15.8333ZM7.92251 16.3333H13.4775C13.8508 16.3333 14.1266 16.1051 14.2861 15.866C14.4484 15.6226 14.5333 15.315 14.5333 15C14.5333 14.685 14.4484 14.3775 14.2863 14.1342C14.1272 13.8954 13.8516 13.6667 13.4783 13.6667H7.92251C7.54926 13.6667 7.27339 13.8949 7.11393 14.134C6.95165 14.3774 6.86668 14.685 6.86668 15C6.86668 15.315 6.95165 15.6226 7.11393 15.866C7.27339 16.1051 7.54926 16.3333 7.92251 16.3333ZM8.20001 13H16.5333C17.2678 13 17.8667 12.4011 17.8667 11.6667C17.8667 10.9322 17.2678 10.3333 16.5333 10.3333H8.20001C7.46554 10.3333 6.86668 10.9322 6.86668 11.6667C6.86668 12.4011 7.46554 13 8.20001 13ZM8.20001 9.66667H16.5333C17.2678 9.66667 17.8667 9.06781 17.8667 8.33333C17.8667 7.59886 17.2678 7 16.5333 7H8.20001C7.46554 7 6.86668 7.59886 6.86668 8.33333C6.86668 9.06781 7.46554 9.66667 8.20001 9.66667ZM8.20001 6.33333H16.5333C17.2678 6.33333 17.8667 5.73448 17.8667 5C17.8667 4.26552 17.2678 3.66667 16.5333 3.66667H8.20001C7.46554 3.66667 6.86668 4.26552 6.86668 5C6.86668 5.73448 7.46554 6.33333 8.20001 6.33333Z" fill="currentColor" stroke="currentColor"/>
  </g>
  <defs>
    <clipPath id="clip0_2796_18645">
      <rect width="20" height="20" fill="currentColor" transform="translate(0.700012)"/>
    </clipPath>
  </defs>
</svg>
