<svg width="18" height="20" viewBox="0 0 18 20" fill="none"
  xmlns="http://www.w3.org/2000/svg">
  <g id="Group">
    <path id="Vector" d="M3.01515 18.3333C2.17803 18.3333 1.5 17.6553 1.5 16.8182V10.7576C1.5 9.92045 2.17803 9.24242 3.01515 9.24242C3.85227 9.24242 4.5303 9.92045 4.5303 10.7576V16.8182C4.5303 17.6553 3.85227 18.3333 3.01515 18.3333Z" stroke="currentColor" stroke-width="2" stroke-miterlimit="10" stroke-linecap="round" stroke-linejoin="round"/>
    <path id="Vector_2" d="M15.1364 18.3333C14.2992 18.3333 13.6212 17.6553 13.6212 16.8182V8.48485C13.6212 7.64773 14.2992 6.9697 15.1364 6.9697C15.9735 6.9697 16.6515 7.64773 16.6515 8.48485V16.8182C16.6515 17.6553 15.9735 18.3333 15.1364 18.3333Z" stroke="currentColor" stroke-width="2" stroke-miterlimit="10" stroke-linecap="round" stroke-linejoin="round"/>
    <path id="Vector_3" d="M9.0757 18.3333C8.23858 18.3333 7.56055 17.6553 7.56055 16.8182V3.18182C7.56055 2.3447 8.23858 1.66667 9.0757 1.66667C9.91282 1.66667 10.5908 2.3447 10.5908 3.18182V16.8182C10.5908 17.6553 9.91282 18.3333 9.0757 18.3333Z" stroke="currentColor" stroke-width="2" stroke-miterlimit="10" stroke-linecap="round" stroke-linejoin="round"/>
  </g>
</svg>
