<svg width="21" height="20" viewBox="0 0 21 20" fill="none"
  xmlns="http://www.w3.org/2000/svg">
  <g id="ellipsis" clip-path="url(#clip0_2897_50277)">
    <path id="Vector" d="M8.10004 10C8.10004 8.89531 8.99535 8 10.1 8C11.2047 8 12.1 8.89531 12.1 10C12.1 11.1047 11.2047 12 10.1 12C8.99535 12 8.10004 11.1047 8.10004 10ZM0.600037 10C0.600037 8.89531 1.49535 8 2.60004 8C3.70473 8 4.60004 8.89531 4.60004 10C4.60004 11.1047 3.70473 12 2.60004 12C1.49535 12 0.600037 11.1047 0.600037 10ZM15.6 10C15.6 8.89531 16.4953 8 17.6 8C18.7047 8 19.6 8.89531 19.6 10C19.6 11.1047 18.7047 12 17.6 12C16.4953 12 15.6 11.1047 15.6 10Z" fill="currentColor" stroke="currentColor"/>
  </g>
  <defs>
    <clipPath id="clip0_2897_50277">
      <rect width="20" height="20" fill="white" transform="translate(0.100037)"/>
    </clipPath>
  </defs>
</svg>
