<svg width="21" height="20" viewBox="0 0 21 20" fill="none"
  xmlns="http://www.w3.org/2000/svg">
  <g id="star">
    <path id="Vector" d="M14.4437 18.2001L10.5218 16.0138C10.5104 16.0077 10.4976 16.0077 10.4862 16.0138L6.56584 18.2039C5.80223 18.6304 4.90831 17.9425 5.05376 17.0387L5.80071 12.404C5.80299 12.3911 5.79844 12.3775 5.78935 12.3684L2.44777 8.91395C1.89779 8.34579 2.20081 7.3549 2.95988 7.23748L7.57566 6.52311C7.58778 6.52084 7.59915 6.5125 7.60445 6.50114L9.56273 2.28383C9.94454 1.46188 11.0483 1.46113 11.4309 2.28307L13.3937 6.49887C13.399 6.51099 13.4104 6.51932 13.4225 6.52084L18.039 7.23067C18.7988 7.34733 19.1026 8.33821 18.5526 8.90713L15.2141 12.3646C15.205 12.3737 15.2012 12.3873 15.2035 12.4002L15.9542 17.0342C16.1004 17.9372 15.208 18.6258 14.4437 18.2001Z" stroke="currentColor" stroke-width="2" stroke-miterlimit="10" stroke-linecap="round" stroke-linejoin="round"/>
  </g>
</svg>
