<svg width="21" height="20" viewBox="0 0 21 20" fill="none"
  xmlns="http://www.w3.org/2000/svg">
  <g id="star" clip-path="url(#clip0_2895_40122)">
    <path id="Vector" d="M19.9837 7.81512L19.9838 7.81546C20.0281 7.95131 19.9795 8.10175 19.8627 8.18623L19.8617 8.18696L14.7659 11.8936L14.4699 12.1089L14.5857 12.4561L16.6489 18.6449C16.6489 18.6449 16.6489 18.6449 16.6489 18.6449C16.695 18.7835 16.6467 18.9339 16.5313 19.0191L16.5309 19.0194C16.4717 19.0632 16.4032 19.0846 16.3334 19.0846C16.2652 19.0846 16.1979 19.0641 16.1395 19.0225C16.1394 19.0225 16.1394 19.0225 16.1394 19.0225L10.7907 15.2019L10.5 14.9943L10.2094 15.2019L4.85974 19.0234C4.74231 19.1071 4.58461 19.106 4.46835 19.0203C4.35195 18.9338 4.30459 18.783 4.3502 18.6461C4.3502 18.6461 4.35021 18.6461 4.35021 18.6461L6.41353 12.4569L6.52928 12.1097L6.23332 11.8945L1.13779 8.18802C1.13775 8.18798 1.1377 8.18795 1.13765 8.18791C1.02039 8.10239 0.971874 7.95186 1.01635 7.81512C1.06108 7.67758 1.18924 7.58464 1.33337 7.58464H7.67753H8.03794L8.15189 7.24271L10.1836 1.14604L10.1837 1.14573C10.2289 1.00966 10.3558 0.917969 10.5 0.917969C10.6437 0.917969 10.7701 1.00911 10.8156 1.14573L10.8157 1.1461L12.8482 7.24277L12.9622 7.58464H13.3225H19.6667C19.8108 7.58464 19.939 7.67758 19.9837 7.81512Z" fill="currentColor" stroke="currentColor"/>
  </g>
  <defs>
    <clipPath id="clip0_2895_40122">
      <rect width="20" height="20" fill="white" transform="translate(0.5)"/>
    </clipPath>
  </defs>
</svg>
