<svg width="20" height="20" viewBox="0 0 20 20" fill="none"
  xmlns="http://www.w3.org/2000/svg">
  <g id="Group">
    <path id="Vector" d="M7.72723 18.3333C11.0744 18.3333 13.7878 15.6199 13.7878 12.2727C13.7878 8.92555 11.0744 6.21212 7.72723 6.21212C4.38005 6.21212 1.66663 8.92555 1.66663 12.2727C1.66663 15.6199 4.38005 18.3333 7.72723 18.3333Z" stroke="currentColor" stroke-width="2" stroke-miterlimit="10" stroke-linecap="round" stroke-linejoin="round"/>
    <path id="Vector_2" d="M16.0606 14.5455C17.3158 14.5455 18.3333 13.5279 18.3333 12.2727C18.3333 11.0175 17.3158 10 16.0606 10C14.8054 10 13.7878 11.0175 13.7878 12.2727C13.7878 13.5279 14.8054 14.5455 16.0606 14.5455Z" stroke="currentColor" stroke-width="2" stroke-miterlimit="10" stroke-linecap="round" stroke-linejoin="round"/>
    <path id="Vector_3" d="M16.0606 6.21212C17.3158 6.21212 18.3333 5.19458 18.3333 3.93939C18.3333 2.6842 17.3158 1.66666 16.0606 1.66666C14.8054 1.66666 13.7878 2.6842 13.7878 3.93939C13.7878 5.19458 14.8054 6.21212 16.0606 6.21212Z" stroke="currentColor" stroke-width="2" stroke-miterlimit="10" stroke-linecap="round" stroke-linejoin="round"/>
    <path id="Vector_4" d="M3.18178 4.69697C4.01857 4.69697 4.69693 4.01861 4.69693 3.18182C4.69693 2.34502 4.01857 1.66666 3.18178 1.66666C2.34498 1.66666 1.66663 2.34502 1.66663 3.18182C1.66663 4.01861 2.34498 4.69697 3.18178 4.69697Z" stroke="currentColor" stroke-width="2" stroke-miterlimit="10" stroke-linecap="round" stroke-linejoin="round"/>
  </g>
</svg>
