<svg width="20" height="20" viewBox="0 0 20 20" fill="none" xmlns="http://www.w3.org/2000/svg">
<g id="Checkbox">
<path id="Base" d="M0 6.4C0 4.15979 0 3.03969 0.435974 2.18404C0.819467 1.43139 1.43139 0.819467 2.18404 0.435974C3.03969 0 4.15979 0 6.4 0H13.6C15.8402 0 16.9603 0 17.816 0.435974C18.5686 0.819467 19.1805 1.43139 19.564 2.18404C20 3.03969 20 4.15979 20 6.4V13.6C20 15.8402 20 16.9603 19.564 17.816C19.1805 18.5686 18.5686 19.1805 17.816 19.564C16.9603 20 15.8402 20 13.6 20H6.4C4.15979 20 3.03969 20 2.18404 19.564C1.43139 19.1805 0.819467 18.5686 0.435974 17.816C0 16.9603 0 15.8402 0 13.6V6.4Z" fill="#FF4F20"/>
<path id="Check" fill-rule="evenodd" clip-rule="evenodd" d="M9.91898 13.6427C9.57318 14.0789 8.93779 14.1487 8.50548 13.7981L5.33329 11.2255C4.96496 10.9273 4.89079 10.3623 5.16663 9.96403C5.44246 9.56757 5.96413 9.48467 6.3333 9.78382L9.04164 11.9806L13.5333 6.31388C13.8333 5.93724 14.36 5.89309 14.7083 6.21656C15.0583 6.54004 15.0992 7.1095 14.7992 7.48704L9.91898 13.6427Z" fill="white"/>
</g>
</svg>
