<svg width="42" height="54" viewBox="0 0 42 54" fill="none" xmlns="http://www.w3.org/2000/svg">
<g id="&#244;&#128;&#164;&#159; 1">
<path id="Vector" d="M8.39062 52.8828C5.73438 52.8828 3.70312 52.1719 2.29688 50.75C0.890625 49.3438 0.1875 47.3125 0.1875 44.6562V9.59375C0.1875 6.90625 0.890625 4.85156 2.29688 3.42969C3.71875 2.00781 5.75781 1.29688 8.41406 1.29688H33.5156C36.1875 1.29688 38.2266 2.01563 39.6328 3.45312C41.0391 4.875 41.7422 6.92188 41.7422 9.59375V34.1094C41.7422 35.3281 41.5547 36.2891 41.1797 36.9922C40.8203 37.6797 40.2344 38.3516 39.4219 39.0078C38.4375 39.8828 37.8125 40.875 37.5469 41.9844C37.2969 43.0781 37.3594 44.1094 37.7344 45.0781C38.125 46.0625 38.7812 46.7969 39.7031 47.2812C40.2656 47.6094 40.75 48 41.1562 48.4531C41.5781 48.9062 41.7891 49.4844 41.7891 50.1875C41.7891 50.9688 41.5391 51.6094 41.0391 52.1094C40.5391 52.625 39.8984 52.8828 39.1172 52.8828H8.39062ZM9.65625 47.5156H32.8125C32.2031 46.3594 31.8828 45.1094 31.8516 43.7656C31.8359 42.4062 32.1328 41.0938 32.7422 39.8281C32.5703 39.8594 32.3672 39.875 32.1328 39.875H9.77344C8.42969 39.875 7.39844 40.2422 6.67969 40.9766C5.96094 41.7109 5.60156 42.6094 5.60156 43.6719C5.60156 44.7812 5.9375 45.6953 6.60938 46.4141C7.28125 47.1484 8.29688 47.5156 9.65625 47.5156ZM8.36719 35.7266C8.78906 35.7266 9.15625 35.5781 9.46875 35.2812C9.78125 34.9688 9.9375 34.5938 9.9375 34.1562V7.32031C9.9375 6.88281 9.78125 6.51563 9.46875 6.21875C9.15625 5.90625 8.78906 5.75 8.36719 5.75C7.94531 5.75 7.57812 5.90625 7.26562 6.21875C6.96875 6.51563 6.82031 6.88281 6.82031 7.32031V34.1562C6.82031 34.5938 6.96875 34.9688 7.26562 35.2812C7.57812 35.5781 7.94531 35.7266 8.36719 35.7266Z" fill="#FF4F20"/>
</g>
</svg>
