<svg width="42" height="54" viewBox="0 0 42 54" fill="none" xmlns="http://www.w3.org/2000/svg">
<g id="&#244;&#130;&#135;&#179; 1">
<path id="Vector" d="M12.4219 34.2734H29.6016C30.0703 34.2734 30.4531 34.1172 30.75 33.8047C31.0625 33.4766 31.2188 33.0781 31.2188 32.6094C31.2188 32.1562 31.0625 31.7812 30.75 31.4844C30.4531 31.1719 30.0703 31.0156 29.6016 31.0156H12.4219C11.9531 31.0156 11.5547 31.1719 11.2266 31.4844C10.9141 31.7812 10.7578 32.1562 10.7578 32.6094C10.7578 33.0781 10.9141 33.4766 11.2266 33.8047C11.5547 34.1172 11.9531 34.2734 12.4219 34.2734ZM12.4219 41.3047H21C21.4531 41.3047 21.8359 41.1484 22.1484 40.8359C22.4609 40.5234 22.6172 40.1484 22.6172 39.7109C22.6172 39.2578 22.4609 38.875 22.1484 38.5625C21.8359 38.2344 21.4531 38.0703 21 38.0703H12.4219C11.9531 38.0703 11.5547 38.2344 11.2266 38.5625C10.9141 38.875 10.7578 39.2578 10.7578 39.7109C10.7578 40.1484 10.9141 40.5234 11.2266 40.8359C11.5547 41.1484 11.9531 41.3047 12.4219 41.3047ZM20.4141 22.3203C20.9609 22.3203 21.4141 22.1875 21.7734 21.9219C22.1328 21.6562 22.3359 21.3203 22.3828 20.9141C22.3828 20.8672 22.3828 20.8281 22.3828 20.7969C22.3984 20.75 22.4062 20.7109 22.4062 20.6797C22.4531 20.2891 22.6328 19.9375 22.9453 19.625C23.2734 19.2969 23.7031 18.9609 24.2344 18.6172C25.1406 18.0391 25.8438 17.4453 26.3438 16.8359C26.8438 16.2109 27.0938 15.3828 27.0938 14.3516C27.0938 12.8516 26.4922 11.6719 25.2891 10.8125C24.1016 9.95312 22.6719 9.52344 21 9.52344C19.5938 9.52344 18.3281 9.80469 17.2031 10.3672C16.0938 10.9297 15.375 11.7109 15.0469 12.7109C15 12.8672 14.9609 13.0234 14.9297 13.1797C14.9141 13.3203 14.9062 13.4687 14.9062 13.625C14.9062 14.1094 15.0703 14.5078 15.3984 14.8203C15.7266 15.1172 16.1172 15.2656 16.5703 15.2656C16.9297 15.2656 17.2422 15.2031 17.5078 15.0781C17.7891 14.9375 18.0234 14.7266 18.2109 14.4453L18.4453 14.1641C18.7109 13.7109 19.0312 13.375 19.4062 13.1562C19.7812 12.9375 20.1953 12.8281 20.6484 12.8281C21.2734 12.8281 21.7734 13 22.1484 13.3438C22.5234 13.6719 22.7109 14.0859 22.7109 14.5859C22.7109 15.0859 22.5312 15.5078 22.1719 15.8516C21.8281 16.1797 21.2891 16.5938 20.5547 17.0938C19.9141 17.5312 19.3828 18.0078 18.9609 18.5234C18.5547 19.0234 18.3516 19.6484 18.3516 20.3984C18.3516 20.4297 18.3516 20.4609 18.3516 20.4922C18.3516 20.5234 18.3516 20.5547 18.3516 20.5859C18.3516 21.7422 19.0391 22.3203 20.4141 22.3203ZM20.4141 27.9219C21.0547 27.9219 21.6016 27.7266 22.0547 27.3359C22.5234 26.9297 22.7578 26.4141 22.7578 25.7891C22.7578 25.1484 22.5312 24.625 22.0781 24.2188C21.625 23.8125 21.0703 23.6094 20.4141 23.6094C19.7578 23.6094 19.1953 23.8125 18.7266 24.2188C18.2734 24.625 18.0469 25.1484 18.0469 25.7891C18.0469 26.3984 18.2734 26.9062 18.7266 27.3125C19.1953 27.7188 19.7578 27.9219 20.4141 27.9219ZM0.398438 44.6562V9.54688C0.398438 6.90625 1.08594 4.89062 2.46094 3.5C3.83594 2.10938 5.83594 1.41406 8.46094 1.41406H33.5391C36.1641 1.41406 38.1641 2.10938 39.5391 3.5C40.9141 4.89062 41.6016 6.90625 41.6016 9.54688V44.6562C41.6016 47.2969 40.9141 49.3047 39.5391 50.6797C38.1641 52.0703 36.1641 52.7656 33.5391 52.7656H8.46094C5.83594 52.7656 3.83594 52.0703 2.46094 50.6797C1.08594 49.3047 0.398438 47.2969 0.398438 44.6562Z" fill="#FF4F20"/>
</g>
</svg>
