<svg width="335" height="156" viewBox="0 0 335 156" fill="none" xmlns="http://www.w3.org/2000/svg">
<path fill-rule="evenodd" clip-rule="evenodd" d="M29.345 29.9151L41.6864 22.7057C41.7819 22.6499 41.8611 22.5699 41.9162 22.4735C41.9712 22.3772 42.0001 22.268 42 22.1569L41.9704 7.7895C41.9701 7.67829 41.9408 7.56911 41.8853 7.47292C41.8299 7.37672 41.7504 7.29688 41.6546 7.24141L29.2836 0.0849041C29.1879 0.0292823 29.0794 0 28.9689 0C28.8585 0 28.7499 0.0292823 28.6543 0.0849041L16.3128 7.29502C16.2173 7.35065 16.1381 7.4307 16.0831 7.52708C16.0282 7.62346 15.9995 7.73274 16 7.84386L16.0296 22.2112C16.0297 22.3224 16.0589 22.4316 16.1144 22.5277C16.1698 22.6238 16.2495 22.7035 16.3454 22.7586L28.7164 29.9151C28.8119 29.9707 28.9203 30 29.0307 30C29.1411 30 29.2495 29.9707 29.345 29.9151ZM32.8319 12.8005L38.2594 9.59166C38.3067 9.56348 38.3458 9.52334 38.373 9.47522C38.4001 9.4271 38.4142 9.37267 38.414 9.31734C38.4138 9.26201 38.3992 9.2077 38.3717 9.15981C38.3442 9.11191 38.3047 9.07209 38.2572 9.04431L29.2903 3.85752C29.1947 3.80189 29.0863 3.7726 28.976 3.7726C28.8656 3.7726 28.7572 3.80189 28.6617 3.85752L19.5587 9.17388C19.463 9.22965 19.3837 9.30982 19.3287 9.40631C19.2736 9.5028 19.2448 9.61219 19.2451 9.72347L19.2532 12.7611C19.2533 12.8721 19.2825 12.9812 19.3378 13.0773C19.3931 13.1734 19.4726 13.2531 19.5683 13.3084L25.4491 16.7132C25.545 16.7686 25.6247 16.8485 25.6802 16.9449C25.7356 17.0412 25.7649 17.1506 25.7649 17.262V20.3085C25.7648 20.3456 25.7551 20.3819 25.7367 20.414C25.7183 20.446 25.6919 20.4726 25.6601 20.4912C25.6283 20.5097 25.5922 20.5195 25.5554 20.5196C25.5186 20.5197 25.4825 20.5101 25.4506 20.4917L22.7002 18.9003C22.6365 18.8627 22.5838 18.8088 22.5475 18.744C22.5111 18.6793 22.4924 18.6061 22.4932 18.5317L22.4895 17.5323C22.489 17.4202 22.4591 17.3102 22.4027 17.2136C22.3463 17.1169 22.2655 17.037 22.1685 16.982L19.7177 15.5976C19.6698 15.5706 19.6158 15.5566 19.5609 15.5571C19.506 15.5576 19.4523 15.5726 19.4049 15.6006C19.3576 15.6285 19.3183 15.6684 19.2911 15.7164C19.2638 15.7643 19.2495 15.8186 19.2495 15.8739V17.7721L19.2562 20.3234C19.2563 20.4346 19.2855 20.5438 19.341 20.6399C19.3964 20.736 19.4761 20.8157 19.572 20.8708L28.3932 25.9585C28.457 25.9954 28.5294 26.0147 28.6029 26.0145C28.6765 26.0142 28.7487 25.9946 28.8123 25.9574C28.8759 25.9202 28.9287 25.8668 28.9654 25.8025C29.002 25.7383 29.0212 25.6655 29.0211 25.5914L29.0063 15.3526C29.0061 15.2414 28.9767 15.1322 28.9213 15.036C28.8659 14.9398 28.7863 14.8599 28.6905 14.8045L22.8407 11.4184C22.8088 11.3999 22.7822 11.3733 22.7638 11.3412C22.7453 11.3091 22.7356 11.2727 22.7356 11.2356C22.7356 11.1985 22.7453 11.162 22.7638 11.1299C22.7822 11.0978 22.8088 11.0712 22.8407 11.0527L28.6728 7.65545C28.7684 7.59983 28.877 7.57055 28.9874 7.57055C29.0979 7.57055 29.2064 7.59983 29.3021 7.65545L31.94 9.18356C31.972 9.20202 31.9986 9.22864 32.017 9.26074C32.0355 9.29285 32.0452 9.32929 32.0452 9.36639C32.0452 9.40349 32.0355 9.43993 32.017 9.47203C31.9986 9.50413 31.972 9.53075 31.94 9.54921L29.6149 10.8986C29.5661 10.9269 29.5258 10.968 29.4982 11.0174C29.4705 11.0668 29.4566 11.1228 29.4578 11.1795C29.459 11.2362 29.4753 11.2916 29.505 11.3397C29.5348 11.3879 29.5768 11.4272 29.6268 11.4534L32.224 12.8162C32.3184 12.8656 32.4237 12.8901 32.53 12.8874C32.6363 12.8847 32.7402 12.8548 32.8319 12.8005Z" fill="#0B0B0B"/>
<path d="M32.207 17.0168L32.2122 20.6017C32.2123 20.6758 32.2318 20.7486 32.2686 20.8127C32.3055 20.8769 32.3585 20.9301 32.4223 20.9671C32.4861 21.0041 32.5584 21.0235 32.632 21.0234C32.7056 21.0233 32.7779 21.0037 32.8416 20.9666L35.918 19.1697C36.0134 19.1137 36.0925 19.0335 36.1474 18.937C36.2023 18.8406 36.2311 18.7313 36.2309 18.6201L36.2235 15.0389C36.2234 14.9648 36.2039 14.892 36.167 14.8279C36.1302 14.7637 36.0772 14.7105 36.0134 14.6735C35.9496 14.6365 35.8773 14.6171 35.8037 14.6172C35.7301 14.6173 35.6578 14.6369 35.5941 14.674L32.5206 16.4679C32.425 16.5235 32.3456 16.6036 32.2906 16.6999C32.2355 16.7963 32.2067 16.9056 32.207 17.0168Z" fill="#FF4E1F"/>
<path d="M126.192 16.2126V22.7209C126.191 22.815 126.153 22.905 126.086 22.9713C126.018 23.0376 125.927 23.0748 125.833 23.0747H123.187C123.092 23.0747 123.001 23.0372 122.933 22.9704C122.866 22.9036 122.828 22.8129 122.828 22.7184V22.5006C122.828 22.4808 122.822 22.4615 122.811 22.4448C122.801 22.4281 122.786 22.4146 122.768 22.4058C122.75 22.3971 122.73 22.3935 122.71 22.3953C122.69 22.3971 122.671 22.4044 122.655 22.4162C121.908 22.9904 120.907 23.3983 119.552 23.3983C117.106 23.3983 115.467 21.9957 115.467 19.859C115.467 17.7424 117.106 16.3612 120.037 16.3612H122.616C122.673 16.3609 122.729 16.3381 122.769 16.2978C122.81 16.2575 122.833 16.2029 122.833 16.1459C122.833 15.2393 122.198 14.635 121.282 14.635C120.365 14.635 119.771 14.956 119.526 15.6838C119.499 15.7679 119.442 15.8392 119.366 15.8843C119.289 15.9293 119.199 15.9449 119.111 15.9281L116.439 15.3942C116.4 15.3864 116.362 15.3706 116.33 15.3476C116.297 15.3247 116.269 15.2952 116.248 15.2611C116.228 15.227 116.215 15.1889 116.21 15.1494C116.205 15.1099 116.208 15.0697 116.22 15.0316C116.81 13.114 118.669 11.9229 121.163 11.9229C124.248 11.9166 126.192 13.4489 126.192 16.2126ZM122.828 18.8026V18.6767C122.828 18.6483 122.817 18.6211 122.796 18.601C122.776 18.581 122.749 18.5697 122.72 18.5697H120.425C119.552 18.5697 119.006 19.023 119.006 19.6915C119.006 20.3828 119.616 20.8147 120.529 20.8147C121.736 20.8084 122.828 20.0126 122.828 18.8026Z" fill="#0B0B0B"/>
<path d="M129.657 19.3935C129.657 19.9534 130.069 20.3414 130.697 20.3414C131.024 20.3188 131.345 20.2508 131.653 20.1393C131.691 20.1274 131.731 20.1237 131.771 20.1283C131.811 20.133 131.849 20.1459 131.883 20.1663C131.918 20.1866 131.948 20.214 131.971 20.2465C131.994 20.2791 132.01 20.3161 132.018 20.3552L132.441 22.4608C132.456 22.5384 132.445 22.619 132.41 22.6897C132.374 22.7604 132.316 22.8173 132.244 22.8513C131.533 23.2213 130.741 23.409 129.939 23.3975C127.686 23.3975 126.191 21.8908 126.191 19.6521V6.85533C126.191 6.76109 126.229 6.67071 126.296 6.60407C126.363 6.53743 126.453 6.5 126.548 6.5H129.301C129.395 6.5 129.486 6.53743 129.553 6.60407C129.62 6.67071 129.657 6.76109 129.657 6.85533V19.3935Z" fill="#0B0B0B"/>
<path d="M142.726 23.1753H139.954C139.859 23.1753 139.768 23.1376 139.7 23.0704C139.633 23.0032 139.595 22.9121 139.595 22.8171V22.3906C139.596 22.3696 139.59 22.349 139.578 22.3314C139.567 22.3138 139.551 22.2999 139.531 22.2916C139.512 22.2832 139.491 22.2806 139.47 22.2843C139.45 22.288 139.43 22.2976 139.415 22.3121C138.601 23.0715 137.513 23.5006 136.235 23.5006C133.68 23.5006 131.979 21.6995 131.979 18.9655V12.6368C131.979 12.5417 132.016 12.4505 132.084 12.3831C132.151 12.3157 132.242 12.2777 132.337 12.2773H135.089C135.185 12.2777 135.276 12.3157 135.343 12.3831C135.411 12.4505 135.448 12.5417 135.448 12.6368V18.2238C135.448 19.5047 136.209 20.3755 137.325 20.3755C138.7 20.3755 139.595 19.4427 139.595 17.3378V12.6431C139.595 12.596 139.604 12.5493 139.622 12.5057C139.64 12.4621 139.667 12.4224 139.7 12.389C139.733 12.3556 139.773 12.3291 139.817 12.3111C139.86 12.293 139.907 12.2837 139.954 12.2837H142.726C142.822 12.2837 142.914 12.3215 142.981 12.389C143.049 12.4564 143.087 12.5478 143.087 12.6431V22.8197C143.086 22.9143 143.047 23.0048 142.98 23.0714C142.912 23.138 142.821 23.1753 142.726 23.1753Z" fill="#0B0B0B"/>
<path d="M153.816 18.5792H146.526C146.51 18.5793 146.495 18.5828 146.48 18.5895C146.466 18.5962 146.454 18.6058 146.444 18.6178C146.433 18.6298 146.426 18.6438 146.422 18.6589C146.418 18.6739 146.418 18.6897 146.42 18.705C146.724 19.9216 147.571 20.6664 148.675 20.6664C149.403 20.6664 150.24 20.4978 150.813 19.6259C150.853 19.5642 150.911 19.5159 150.979 19.4875C151.047 19.4592 151.122 19.4522 151.195 19.4674L153.511 19.9631C153.564 19.9737 153.614 19.9961 153.657 20.0286C153.7 20.0611 153.735 20.1028 153.76 20.1506C153.784 20.1984 153.797 20.2511 153.798 20.3047C153.799 20.3583 153.788 20.4114 153.765 20.4601C152.796 22.4731 150.958 23.4394 148.678 23.4394C145.609 23.4394 143.07 21.1319 143.07 17.7022C143.07 14.2939 145.614 11.9639 148.698 11.9639C151.703 11.9639 154.115 14.1644 154.178 17.7022V18.2294C154.176 18.3231 154.137 18.4122 154.07 18.4776C154.002 18.5431 153.911 18.5795 153.816 18.5792ZM146.601 16.4655H150.689C150.705 16.4654 150.722 16.4615 150.737 16.4539C150.752 16.4464 150.765 16.4354 150.775 16.422C150.785 16.4085 150.792 16.3929 150.795 16.3764C150.798 16.36 150.797 16.3431 150.792 16.3271C150.447 15.2577 149.63 14.7607 148.696 14.7607C148.211 14.7628 147.739 14.9139 147.346 15.1933C146.952 15.4726 146.656 15.8663 146.499 16.3195C146.493 16.336 146.491 16.3537 146.493 16.3712C146.495 16.3887 146.501 16.4054 146.511 16.42C146.521 16.4346 146.534 16.4465 146.55 16.4549C146.566 16.4632 146.583 16.4677 146.601 16.468V16.4655Z" fill="#0B0B0B"/>
<path d="M96.4432 21.0019C98.1356 21.0019 99.5075 19.5057 99.5075 17.6601C99.5075 15.8145 98.1356 14.3184 96.4432 14.3184C94.7508 14.3184 93.3789 15.8145 93.3789 17.6601C93.3789 19.5057 94.7508 21.0019 96.4432 21.0019Z" fill="#FF4E1F"/>
<path d="M65.7724 12.7828L62.9327 13.3535C62.8621 13.3668 62.789 13.3534 62.7279 13.3159C62.6669 13.2784 62.6224 13.2196 62.6032 13.1511C62.2597 11.9945 61.219 11.425 60.1592 11.425C58.9811 11.425 58.2317 12.0536 58.2317 12.8582C58.2317 13.4277 58.4861 13.8488 59.3882 14.0387L62.3653 14.6924C64.8487 15.2405 66.3093 16.5694 66.3093 18.8034C66.3093 21.8206 63.5892 23.3782 60.3984 23.3782C57.3042 23.3782 54.7393 21.989 54.1872 19.4483C54.1776 19.4029 54.1772 19.356 54.1861 19.3104C54.195 19.2648 54.213 19.2215 54.2391 19.1829C54.2651 19.1442 54.2987 19.1111 54.3379 19.0855C54.377 19.0598 54.4209 19.0421 54.4671 19.0334L57.5091 18.4526C57.5775 18.4393 57.6484 18.4514 57.7083 18.4867C57.7682 18.522 57.8128 18.5779 57.8335 18.6437C58.247 19.9285 59.233 20.4905 60.5917 20.4905C61.9187 20.4905 62.7113 19.8996 62.7113 19.0359C62.7113 18.4074 62.4111 18.0025 61.3844 17.7913L58.3856 17.1628C56.3297 16.6989 54.532 15.6453 54.532 13.0732C54.532 10.3325 56.8437 8.62402 60.2062 8.62402C63.1821 8.62402 65.3831 10.0069 66.0485 12.3515C66.0606 12.3978 66.0631 12.4461 66.0556 12.4934C66.0481 12.5406 66.0309 12.5859 66.005 12.6263C65.9792 12.6667 65.9452 12.7015 65.9051 12.7284C65.8651 12.7553 65.8199 12.7738 65.7724 12.7828Z" fill="#0B0B0B"/>
<path d="M78.3183 17.6999C78.3183 21.1113 75.5835 23.3865 72.3503 23.3865C69.0538 23.3865 66.3164 21.1113 66.3164 17.6999C66.3164 14.3022 69.0513 12.0371 72.3503 12.0371C75.5835 12.0283 78.3183 14.3022 78.3183 17.6999ZM74.9761 17.6999C74.9761 16.025 73.6956 14.9088 72.3503 14.9088C70.9392 14.9088 69.6586 16.025 69.6586 17.6999C69.6586 19.3949 70.9392 20.4897 72.3503 20.4897C73.6956 20.4847 74.9761 19.3899 74.9761 17.6999Z" fill="#0B0B0B"/>
<path d="M89.9052 12.7828L87.0655 13.3535C86.9949 13.3668 86.9218 13.3534 86.8608 13.3159C86.7997 13.2784 86.7552 13.2196 86.736 13.1511C86.3925 11.9945 85.3518 11.425 84.292 11.425C83.1139 11.425 82.3645 12.0536 82.3645 12.8582C82.3645 13.4277 82.619 13.8488 83.521 14.0387L86.4981 14.6924C88.9815 15.2405 90.4421 16.5694 90.4421 18.8034C90.4421 21.8206 87.722 23.3782 84.5312 23.3782C81.437 23.3782 78.8722 21.989 78.32 19.4483C78.3104 19.4029 78.31 19.356 78.3189 19.3104C78.3278 19.2648 78.3458 19.2215 78.3719 19.1829C78.398 19.1442 78.4315 19.1111 78.4707 19.0855C78.5098 19.0598 78.5538 19.0421 78.5999 19.0334L81.6419 18.4526C81.7103 18.4393 81.7813 18.4514 81.8412 18.4867C81.9011 18.522 81.9456 18.5779 81.9663 18.6437C82.3798 19.9285 83.3658 20.4905 84.7246 20.4905C86.0515 20.4905 86.8441 19.8996 86.8441 19.0359C86.8441 18.4074 86.5439 18.0025 85.5172 17.7913L82.5185 17.1628C80.4625 16.6989 78.6648 15.6453 78.6648 13.0732C78.6648 10.3325 80.9765 8.62402 84.3391 8.62402C87.3149 8.62402 89.5159 10.0069 90.1813 12.3515C90.1934 12.3978 90.1959 12.4461 90.1884 12.4934C90.1809 12.5406 90.1637 12.5859 90.1378 12.6263C90.112 12.6667 90.078 12.7015 90.0379 12.7284C89.9979 12.7553 89.9527 12.7738 89.9052 12.7828Z" fill="#0B0B0B"/>
<path d="M102.451 17.6999C102.451 21.1113 99.7163 23.3865 96.4831 23.3865C93.1866 23.3865 90.4492 21.1113 90.4492 17.6999C90.4492 14.3022 93.1841 12.0371 96.4831 12.0371C99.7163 12.0283 102.451 14.3022 102.451 17.6999ZM99.109 17.6999C99.109 16.025 97.8284 14.9088 96.4831 14.9088C95.072 14.9088 93.7914 16.025 93.7914 17.6999C93.7914 19.3949 95.072 20.4897 96.4831 20.4897C97.8284 20.4847 99.109 19.3899 99.109 17.6999Z" fill="#0B0B0B"/>
<path d="M112.213 23.382H109.313C109.214 23.3815 109.117 23.3527 109.034 23.299C108.951 23.2453 108.886 23.169 108.847 23.0796L102.746 9.02448C102.727 8.98114 102.72 8.9339 102.724 8.88699C102.728 8.84007 102.744 8.79494 102.771 8.75565C102.797 8.71636 102.833 8.68412 102.875 8.66183C102.918 8.63954 102.965 8.62789 103.013 8.62793H106.323C106.424 8.62846 106.522 8.65803 106.605 8.71293C106.688 8.76783 106.753 8.84563 106.792 8.93664L110.653 18.1716C110.661 18.1911 110.675 18.2077 110.693 18.2194C110.711 18.2311 110.732 18.2374 110.753 18.2374C110.775 18.2374 110.795 18.2311 110.813 18.2194C110.831 18.2077 110.845 18.1911 110.853 18.1716L114.736 8.94416C114.775 8.85359 114.84 8.77619 114.923 8.72154C115.006 8.66688 115.103 8.63739 115.203 8.63672H118.522C118.569 8.63689 118.616 8.64868 118.659 8.67106C118.701 8.69344 118.736 8.72569 118.763 8.76496C118.789 8.80422 118.805 8.84926 118.809 8.89608C118.813 8.94289 118.806 8.99003 118.787 9.03327L112.687 23.0884C112.646 23.1775 112.579 23.2529 112.495 23.3051C112.41 23.3572 112.312 23.384 112.213 23.382Z" fill="#0B0B0B"/>
<path d="M17.0579 57.3898L17.3508 55.7135H26.5137L26.2044 57.3898H22.5914L20.8988 67.106H18.9621L20.6709 57.3898H17.0579ZM29.8565 64.6484L30.4912 61.1005C30.5726 60.5309 30.3122 60.2054 29.7426 60.2054H28.0337C27.4804 60.2054 27.0735 60.5309 26.9758 61.1005L26.3574 64.6484C26.2435 65.2018 26.5364 65.5436 27.0898 65.5436H28.7986C29.3683 65.5436 29.7589 65.2018 29.8565 64.6484ZM31.663 64.6159C31.4189 66.0969 30.2471 67.106 28.7498 67.106H26.5852C25.1205 67.106 24.2905 66.0969 24.5346 64.6159L25.1693 61.133C25.4134 59.6357 26.6015 58.643 28.0663 58.643H30.2308C31.7281 58.643 32.5419 59.6357 32.2978 61.133L31.663 64.6159ZM35.827 62.3862L35.4364 64.6484C35.3388 65.2018 35.6154 65.5436 36.1688 65.5436H37.8777C38.4473 65.5436 38.8379 65.2018 38.9355 64.6484L39.5703 61.1005C39.6679 60.5471 39.3912 60.2054 38.8216 60.2054C38.5287 60.2054 38.3008 60.2867 38.0404 60.5146L35.827 62.3862ZM36.0549 58.643L36.2502 59.9938L36.1851 60.3844L37.3406 59.3916C37.959 58.8708 38.6263 58.643 39.3587 58.643C40.8397 58.643 41.6372 59.6357 41.3768 61.1005L40.7583 64.6159C40.4979 66.1132 39.3261 67.106 37.8288 67.106H36.8361C36.0549 67.106 35.4527 66.813 35.1435 66.2759L34.4111 70.361H32.6046L34.6715 58.643H36.0549ZM57.2518 59.5706H55.3151L55.5429 58.3012C55.6406 57.7316 55.3639 57.3898 54.8105 57.3898H51.6857C51.1161 57.3898 50.7255 57.7316 50.6279 58.3012L49.5374 64.5182C49.4235 65.0879 49.7002 65.4134 50.2535 65.4134H53.3783C53.948 65.4134 54.3386 65.0879 54.4525 64.5182L54.6803 63.2325H56.6171L56.3567 64.6159C56.1125 66.0969 54.9245 67.106 53.4434 67.106H49.6188C48.1541 67.106 47.324 66.0969 47.5682 64.6159L48.7074 58.2035C48.9678 56.7062 50.1559 55.7135 51.6206 55.7135H55.4453C56.9263 55.7135 57.7563 56.7062 57.4959 58.2035L57.2518 59.5706ZM64.558 58.643L64.2813 60.2054C63.3862 60.2054 63.1583 60.303 62.8979 60.5146L60.6845 62.3862L59.8545 67.106H58.048L59.529 58.643H60.9124L61.1077 59.9938L61.0426 60.3844L62.1981 59.3916C62.8003 58.8871 63.4838 58.643 64.558 58.643ZM66.7063 70.361H64.6719L66.4296 67.106H66.3157L64.737 58.643H66.5761L67.6991 65.0879L71.0843 58.643H73.0047L66.7063 70.361ZM75.3861 62.3862L74.9955 64.6484C74.8978 65.2018 75.1745 65.5436 75.7278 65.5436H77.4367C78.0063 65.5436 78.3969 65.2018 78.4946 64.6484L79.1293 61.1005C79.227 60.5471 78.9503 60.2054 78.3807 60.2054C78.0877 60.2054 77.8599 60.2867 77.5995 60.5146L75.3861 62.3862ZM75.6139 58.643L75.8092 59.9938L75.7441 60.3844L76.8996 59.3916C77.5181 58.8708 78.1854 58.643 78.9177 58.643C80.3988 58.643 81.1962 59.6357 80.9358 61.1005L80.3174 64.6159C80.057 66.1132 78.8852 67.106 77.3879 67.106H76.3951C75.6139 67.106 75.0117 66.813 74.7025 66.2759L73.9701 70.361H72.1636L74.2305 58.643H75.6139ZM81.9712 60.2054L82.2479 58.643H84.2823L84.7217 56.2017L86.6259 55.6646L86.0888 58.643H88.1232L87.8628 60.2054H85.8284L84.6078 67.106H82.8012L84.0056 60.2054H81.9712ZM93.2877 64.6484L93.9224 61.1005C94.0038 60.5309 93.7434 60.2054 93.1738 60.2054H91.4649C90.9115 60.2054 90.5047 60.5309 90.407 61.1005L89.7886 64.6484C89.6746 65.2018 89.9676 65.5436 90.5209 65.5436H92.2298C92.7994 65.5436 93.19 65.2018 93.2877 64.6484ZM95.0942 64.6159C94.8501 66.0969 93.6783 67.106 92.181 67.106H90.0164C88.5517 67.106 87.7216 66.0969 87.9658 64.6159L88.6005 61.133C88.8446 59.6357 90.0327 58.643 91.4974 58.643H93.662C95.1593 58.643 95.9731 59.6357 95.7289 61.133L95.0942 64.6159ZM101.501 67.106L103.503 55.7135H105.44L103.438 67.106H101.501ZM112.682 67.106H110.876L111.934 61.1005C112.015 60.5471 111.755 60.2054 111.185 60.2054C110.908 60.2054 110.664 60.2867 110.404 60.5146L108.19 62.3862L107.36 67.106H105.554L107.035 58.643H108.418L108.614 59.9938L108.548 60.3844L109.704 59.3916C110.322 58.8708 110.99 58.643 111.722 58.643C113.203 58.643 114.001 59.6357 113.74 61.1005L112.682 67.106ZM119.117 67.106H116.968L115.39 58.643H117.229L118.352 65.0716L121.737 58.643H123.657L119.117 67.106ZM128.716 64.3392H130.522L130.473 64.6159C130.229 66.0969 129.057 67.106 127.56 67.106H125.395C123.931 67.106 123.101 66.0969 123.345 64.6159L123.98 61.133C124.224 59.6357 125.412 58.643 126.876 58.643H129.041C130.538 58.643 131.352 59.6357 131.108 61.133L130.685 63.5255H125.363L125.168 64.6484C125.054 65.2018 125.347 65.5436 125.9 65.5436H127.609C128.178 65.5436 128.569 65.2018 128.667 64.6484L128.716 64.3392ZM125.786 61.1005L125.607 62.077H129.122L129.301 61.1005C129.383 60.5309 129.122 60.2054 128.553 60.2054H126.844C126.291 60.2054 125.884 60.5309 125.786 61.1005ZM137.437 62.1258C138.869 62.1258 139.666 63.1023 139.406 64.5508L139.39 64.681C139.129 66.1295 137.99 67.106 136.558 67.106H134.263C132.814 67.106 132.001 66.1295 132.261 64.681L132.31 64.3555H134.116L134.068 64.7135C133.97 65.2343 134.23 65.5436 134.751 65.5436H136.59C137.111 65.5436 137.469 65.2181 137.567 64.6973L137.632 64.4043C137.713 63.8835 137.469 63.558 136.932 63.558H134.946C133.514 63.558 132.701 62.5978 132.961 61.133L132.977 61.0679C133.238 59.6195 134.377 58.643 135.809 58.643H137.941C139.39 58.643 140.203 59.6195 139.943 61.0679L139.878 61.3934H138.071L138.136 61.0354C138.218 60.5146 137.974 60.2054 137.453 60.2054H135.776C135.256 60.2054 134.881 60.5146 134.8 61.0354L134.751 61.2958C134.654 61.8166 134.914 62.1258 135.435 62.1258H137.437ZM141.063 60.2054L141.34 58.643H143.375L143.814 56.2017L145.718 55.6646L145.181 58.643H147.215L146.955 60.2054H144.921L143.7 67.106H141.893L143.098 60.2054H141.063ZM154.121 62.4025L153.308 67.106H151.485L152.591 60.8401C152.64 60.4983 152.478 60.303 152.152 60.303C151.973 60.303 151.827 60.3681 151.615 60.5309L149.434 62.3862L148.604 67.106H146.798L148.279 58.643H149.662L149.857 59.9938L149.792 60.3844L150.98 59.3753C151.631 58.8057 152.217 58.643 152.64 58.643C153.698 58.643 154.414 59.3428 154.431 60.4169L155.667 59.3753C156.318 58.8057 156.921 58.643 157.328 58.643C158.564 58.643 159.313 59.5706 159.085 60.9215L157.995 67.106H156.188L157.279 60.8401C157.328 60.4983 157.181 60.303 156.839 60.303C156.66 60.303 156.514 60.3681 156.302 60.5309L154.121 62.4025ZM165.748 64.3392H167.554L167.505 64.6159C167.261 66.0969 166.089 67.106 164.592 67.106H162.427C160.963 67.106 160.133 66.0969 160.377 64.6159L161.012 61.133C161.256 59.6357 162.444 58.643 163.908 58.643H166.073C167.57 58.643 168.384 59.6357 168.14 61.133L167.717 63.5255H162.395L162.2 64.6484C162.086 65.2018 162.379 65.5436 162.932 65.5436H164.641C165.21 65.5436 165.601 65.2018 165.699 64.6484L165.748 64.3392ZM162.818 61.1005L162.639 62.077H166.154L166.333 61.1005C166.415 60.5309 166.154 60.2054 165.585 60.2054H163.876C163.323 60.2054 162.916 60.5309 162.818 61.1005ZM176.161 67.106H174.355L175.412 61.1005C175.494 60.5471 175.233 60.2054 174.664 60.2054C174.387 60.2054 174.143 60.2867 173.883 60.5146L171.669 62.3862L170.839 67.106H169.033L170.514 58.643H171.897L172.092 59.9938L172.027 60.3844L173.183 59.3916C173.801 58.8708 174.469 58.643 175.201 58.643C176.682 58.643 177.479 59.6357 177.219 61.1005L176.161 67.106ZM178.429 60.2054L178.706 58.643H180.74L181.18 56.2017L183.084 55.6646L182.547 58.643H184.581L184.321 60.2054H182.286L181.066 67.106H179.259L180.464 60.2054H178.429ZM196.318 55.7135L198.287 67.106H196.334L195.894 64.4369H191.403L190.035 67.106H187.985L193.958 55.7135H196.318ZM194.82 57.7641L192.216 62.7605H195.65L194.82 57.7641ZM206.47 67.106H204.664L205.721 61.1005C205.803 60.5471 205.542 60.2054 204.973 60.2054C204.696 60.2054 204.452 60.2867 204.192 60.5146L201.978 62.3862L201.148 67.106H199.342L200.823 58.643H202.206L202.401 59.9938L202.336 60.3844L203.492 59.3916C204.11 58.8708 204.778 58.643 205.51 58.643C206.991 58.643 207.788 59.6357 207.528 61.1005L206.47 67.106ZM214.386 63.3627L214.809 61.0191C214.858 60.5146 214.581 60.2054 214.06 60.2054H212.351C211.782 60.2054 211.391 60.5309 211.293 61.1005L210.675 64.6484C210.561 65.2018 210.838 65.5436 211.407 65.5436C211.7 65.5436 211.912 65.4622 212.189 65.2343L214.386 63.3627ZM213.979 65.7551L214.044 65.3645L212.888 66.341C212.27 66.8781 211.619 67.106 210.887 67.106C209.389 67.106 208.608 66.0969 208.852 64.6322L209.487 61.133C209.731 59.6357 210.903 58.643 212.4 58.643H213.393C214.174 58.643 214.776 58.9359 215.085 59.4567L215.232 58.643H217.038L215.557 67.106H214.174L213.979 65.7551ZM217.667 67.106L219.783 55.0625H221.589L219.473 67.106H217.667ZM224.148 70.361H222.113L223.871 67.106H223.757L222.179 58.643H224.018L225.141 65.0879L228.526 58.643H230.446L224.148 70.361ZM235.309 62.1258C236.741 62.1258 237.539 63.1023 237.278 64.5508L237.262 64.681C237.002 66.1295 235.862 67.106 234.43 67.106H232.135C230.687 67.106 229.873 66.1295 230.134 64.681L230.182 64.3555H231.989L231.94 64.7135C231.842 65.2343 232.103 65.5436 232.624 65.5436H234.463C234.984 65.5436 235.342 65.2181 235.439 64.6973L235.504 64.4043C235.586 63.8835 235.342 63.558 234.805 63.558H232.819C231.387 63.558 230.573 62.5978 230.833 61.133L230.85 61.0679C231.11 59.6195 232.249 58.643 233.682 58.643H235.814C237.262 58.643 238.076 59.6195 237.815 61.0679L237.75 61.3934H235.944L236.009 61.0354C236.09 60.5146 235.846 60.2054 235.325 60.2054H233.649C233.128 60.2054 232.754 60.5146 232.672 61.0354L232.624 61.2958C232.526 61.8166 232.786 62.1258 233.307 62.1258H235.309ZM238.936 60.2054L239.213 58.643H241.247L241.686 56.2017L243.591 55.6646L243.054 58.643H245.088L244.828 60.2054H242.793L241.573 67.106H239.766L240.97 60.2054H238.936ZM250.106 62.1258C251.538 62.1258 252.336 63.1023 252.075 64.5508L252.059 64.681C251.799 66.1295 250.659 67.106 249.227 67.106H246.932C245.484 67.106 244.67 66.1295 244.931 64.681L244.979 64.3555H246.786L246.737 64.7135C246.639 65.2343 246.9 65.5436 247.421 65.5436H249.26C249.78 65.5436 250.139 65.2181 250.236 64.6973L250.301 64.4043C250.383 63.8835 250.139 63.558 249.601 63.558H247.616C246.184 63.558 245.37 62.5978 245.63 61.133L245.647 61.0679C245.907 59.6195 247.046 58.643 248.478 58.643H250.61C252.059 58.643 252.873 59.6195 252.612 61.0679L252.547 61.3934H250.741L250.806 61.0354C250.887 60.5146 250.643 60.2054 250.122 60.2054H248.446C247.925 60.2054 247.551 60.5146 247.469 61.0354L247.421 61.2958C247.323 61.8166 247.583 62.1258 248.104 62.1258H250.106Z" fill="#7A7A7A"/>
<g filter="url(#filter0_dddddd_1116_9286)">
<path d="M36.0392 78.1689L35.7369 79.9219C35.4044 81.7657 34.3466 83.2165 32.8655 84.0023C34.0746 84.7882 34.6186 86.239 34.2861 88.0827L33.9839 89.8357C33.5003 92.6769 31.2636 94.5811 28.4225 94.5811H16.6045L20.3222 73.4236H32.1402C34.9813 73.4236 36.553 75.3277 36.0392 78.1689ZM29.3595 89.5939L29.8128 86.9341C29.9337 86.3296 29.6617 86.0274 29.0572 86.0274H22.7704L21.9846 90.5007H28.2713C28.8759 90.5007 29.2386 90.1984 29.3595 89.5939ZM30.8405 81.0403L31.3241 78.4107C31.4148 77.8062 31.173 77.5039 30.5684 77.5039H24.2817L23.4958 81.947H29.7826C30.3871 81.947 30.7498 81.6448 30.8405 81.0403ZM54.5199 82.7933C54.0967 85.1811 52.4646 86.9341 50.2581 87.4177L52.4646 94.5811H47.5681L45.6035 87.5386H42.1276L40.8884 94.5811H36.2035L39.9212 73.4236H51.4369C54.2781 73.4236 55.8498 75.3277 55.3359 78.1689L54.5199 82.7933ZM49.8954 82.5515L50.6208 78.4107C50.7115 77.8062 50.4697 77.5039 49.8652 77.5039H43.8807L42.8228 83.4583H48.8073C49.4118 83.4583 49.7745 83.156 49.8954 82.5515ZM70.0463 73.4236L73.2502 94.5811H68.5048L67.9306 90.1078H60.7672L58.6213 94.5811H53.6644L64.3036 73.4236H70.0463ZM66.3891 78.4107L62.7016 86.0274H67.3563L66.3891 78.4107ZM75.0769 94.5811L78.7946 73.4236H83.4794L79.7618 94.5811H75.0769ZM95.8835 94.5811L90.2919 82.0377L88.0854 94.5811H83.4006L87.1182 73.4236H91.5009L97.0925 85.9669L99.2989 73.4236H103.984L100.266 94.5811H95.8835ZM132.381 78.1689L132.079 79.9219C131.747 81.7657 130.689 83.2165 129.208 84.0023C130.417 84.7882 130.961 86.239 130.628 88.0827L130.326 89.8357C129.842 92.6769 127.606 94.5811 124.765 94.5811H112.947L116.664 73.4236H128.482C131.323 73.4236 132.895 75.3277 132.381 78.1689ZM125.702 89.5939L126.155 86.9341C126.276 86.3296 126.004 86.0274 125.399 86.0274H119.113L118.327 90.5007H124.614C125.218 90.5007 125.581 90.1984 125.702 89.5939ZM127.183 81.0403L127.666 78.4107C127.757 77.8062 127.515 77.5039 126.911 77.5039H120.624L119.838 81.947H126.125C126.729 81.947 127.092 81.6448 127.183 81.0403ZM147.114 73.4236L150.318 94.5811H145.573L144.998 90.1078H137.835L135.689 94.5811H130.732L141.371 73.4236H147.114ZM143.457 78.4107L139.769 86.0274H144.424L143.457 78.4107ZM150.903 77.5039L151.629 73.4236H168.585L167.859 77.5039H161.724L158.731 94.5811H154.047L157.039 77.5039H150.903ZM167.846 77.5039L168.571 73.4236H185.527L184.802 77.5039H178.666L175.674 94.5811H170.989L173.981 77.5039H167.846ZM183.609 94.5811L187.327 73.4236H192.012L188.989 90.5007H199.054L198.359 94.5811H183.609ZM200.788 94.5811L204.506 73.4236H219.256L218.53 77.5039H208.465L207.679 81.947H216.233L215.508 86.0274H206.954L206.168 90.5007H216.233L215.538 94.5811H200.788Z" fill="url(#paint0_linear_1116_9286)"/>
</g>
<path d="M222.52 89.2685H221.231L220.684 91.0128H221.98L222.52 89.2685ZM225.259 88.2183L225.063 88.8263C225.018 88.9819 224.942 89.0945 224.836 89.1641C224.729 89.2337 224.572 89.2685 224.363 89.2685H223.724L223.177 91.0128H224.08C224.228 91.0128 224.33 91.0557 224.387 91.1417C224.445 91.2277 224.445 91.3813 224.387 91.6024L224.246 92.0691H222.901L222.121 94.5811H221.439C221.37 94.5811 221.308 94.5647 221.255 94.5319C221.202 94.4992 221.159 94.4562 221.126 94.4029C221.093 94.3456 221.073 94.2801 221.065 94.2064C221.061 94.1327 221.073 94.0549 221.102 93.973L221.703 92.0691H220.408L219.8 94.0467C219.742 94.2433 219.646 94.3825 219.511 94.4644C219.376 94.5422 219.23 94.5811 219.075 94.5811H218.418L219.21 92.0691H218.479C218.328 92.0691 218.223 92.0241 218.166 91.934C218.113 91.8439 218.115 91.6904 218.172 91.4734L218.307 91.0128H219.486L220.027 89.2685H218.7L218.878 88.6666C218.927 88.5111 219.005 88.3985 219.112 88.3289C219.218 88.2552 219.378 88.2183 219.591 88.2183H220.309L220.936 86.2038C220.989 86.0483 221.077 85.9275 221.2 85.8415C221.327 85.7514 221.468 85.7064 221.624 85.7064H222.299L221.513 88.2183H222.797L223.583 85.7064H224.24C224.387 85.7064 224.5 85.7555 224.578 85.8538C224.66 85.952 224.676 86.0749 224.627 86.2223L224.007 88.2183H225.259ZM233.484 89.5449C233.484 90.2819 233.365 90.9595 233.128 91.5778C232.89 92.196 232.559 92.7283 232.133 93.1746C231.711 93.6168 231.21 93.9628 230.628 94.2126C230.047 94.4582 229.412 94.5811 228.724 94.5811H225.598L226.691 85.7002H229.824C230.389 85.7002 230.896 85.7964 231.347 85.9889C231.801 86.1813 232.186 86.4475 232.501 86.7873C232.817 87.1271 233.058 87.5325 233.226 88.0033C233.398 88.4742 233.484 88.9881 233.484 89.5449ZM231.85 89.5818C231.85 89.1846 231.801 88.8243 231.703 88.5008C231.605 88.1774 231.461 87.903 231.273 87.6778C231.089 87.4486 230.862 87.2725 230.591 87.1497C230.321 87.0268 230.012 86.9654 229.664 86.9654H228.141L227.355 93.3097H228.884C229.33 93.3097 229.736 93.2237 230.1 93.0518C230.464 92.8798 230.776 92.6342 231.034 92.3148C231.296 91.9913 231.496 91.6003 231.635 91.1417C231.779 90.6791 231.85 90.1591 231.85 89.5818ZM237.712 91.1172L237.282 94.5811H235.691L236.121 91.1294L233.806 85.7002H235.224C235.364 85.7002 235.472 85.733 235.55 85.7985C235.628 85.864 235.685 85.952 235.722 86.0626L236.864 89.1334C236.917 89.2849 236.962 89.4323 236.999 89.5756C237.036 89.7148 237.069 89.8499 237.098 89.981C237.163 89.8458 237.233 89.7107 237.306 89.5756C237.384 89.4364 237.468 89.289 237.558 89.1334L239.468 86.0626C239.526 85.9684 239.601 85.8845 239.695 85.8108C239.79 85.7371 239.902 85.7002 240.033 85.7002H241.354L237.712 91.1172ZM249.187 89.5449C249.187 90.0362 249.132 90.505 249.021 90.9513C248.915 91.3935 248.761 91.805 248.561 92.1858C248.36 92.5666 248.117 92.9105 247.83 93.2176C247.543 93.5247 247.222 93.7867 246.866 94.0037C246.514 94.2207 246.131 94.3886 245.717 94.5074C245.304 94.622 244.87 94.6793 244.415 94.6793C243.85 94.6793 243.342 94.579 242.892 94.3784C242.442 94.1778 242.057 93.9014 241.737 93.5493C241.422 93.1971 241.181 92.7816 241.013 92.3025C240.845 91.8235 240.761 91.3035 240.761 90.7425C240.761 90.2512 240.814 89.7844 240.921 89.3422C241.031 88.8959 241.187 88.4824 241.387 88.1016C241.592 87.7208 241.836 87.3769 242.118 87.0698C242.405 86.7627 242.724 86.5007 243.076 86.2837C243.433 86.0626 243.817 85.8947 244.231 85.7801C244.645 85.6613 245.081 85.602 245.539 85.602C246.104 85.602 246.612 85.7023 247.062 85.9029C247.513 86.1035 247.896 86.3799 248.211 86.732C248.526 87.0841 248.768 87.5018 248.935 87.9849C249.103 88.464 249.187 88.984 249.187 89.5449ZM247.554 89.5818C247.554 89.1805 247.502 88.8161 247.4 88.4885C247.302 88.161 247.156 87.8805 246.964 87.6471C246.776 87.4137 246.544 87.2336 246.27 87.1067C245.996 86.9797 245.687 86.9163 245.343 86.9163C244.9 86.9163 244.497 87.0064 244.133 87.1865C243.772 87.3667 243.463 87.6226 243.205 87.9542C242.947 88.2859 242.747 88.6851 242.603 89.1518C242.464 89.6186 242.395 90.1365 242.395 90.7057C242.395 91.1069 242.444 91.4713 242.542 91.7989C242.64 92.1264 242.784 92.4069 242.972 92.6403C243.16 92.8696 243.39 93.0477 243.66 93.1746C243.934 93.2974 244.245 93.3589 244.593 93.3589C245.04 93.3589 245.445 93.2688 245.809 93.0886C246.174 92.9085 246.485 92.6546 246.743 92.3271C247.001 91.9995 247.199 91.6044 247.339 91.1417C247.482 90.675 247.554 90.155 247.554 89.5818ZM253.056 89.9441C253.375 89.9441 253.649 89.8991 253.879 89.809C254.112 89.7148 254.304 89.5879 254.456 89.4282C254.607 89.2644 254.72 89.074 254.794 88.857C254.867 88.64 254.904 88.4066 254.904 88.1569C254.904 87.772 254.784 87.4711 254.542 87.2541C254.304 87.0371 253.938 86.9286 253.443 86.9286H252.509L252.141 89.9441H253.056ZM253.59 85.7002C254.102 85.7002 254.54 85.7555 254.904 85.8661C255.273 85.9725 255.574 86.124 255.807 86.3205C256.041 86.513 256.212 86.7443 256.323 87.0145C256.434 87.2848 256.489 87.5816 256.489 87.9051C256.489 88.2449 256.44 88.5663 256.341 88.8693C256.247 89.1723 256.11 89.4466 255.93 89.6923C255.75 89.938 255.529 90.1529 255.267 90.3372C255.005 90.5214 254.708 90.6647 254.376 90.7671C254.47 90.8244 254.554 90.894 254.628 90.9759C254.706 91.0578 254.773 91.1561 254.831 91.2707L256.415 94.5811H254.984C254.71 94.5811 254.528 94.4746 254.438 94.2617L253.136 91.3813C253.086 91.2748 253.025 91.1991 252.951 91.154C252.882 91.1049 252.771 91.0803 252.62 91.0803H251.999L251.569 94.5811H249.985L251.066 85.7002H253.59Z" fill="#FF4F20"/>
<path d="M322.823 72.4093V65.8431C323.937 65.535 324.76 64.5237 324.76 63.3147C324.76 61.8615 323.578 60.6797 322.125 60.6797C321.755 60.6797 321.404 60.7572 321.085 60.8947L316.503 55.1675C316.818 54.7335 317.01 54.2026 317.01 53.6252C317.01 52.1721 315.828 50.9902 314.375 50.9902C313.598 50.9902 312.907 51.3332 312.424 51.8699L305.335 48.3242C305.368 48.1595 305.385 47.989 305.385 47.8127C305.385 46.3596 304.203 45.1777 302.75 45.1777C301.539 45.1777 300.528 46.0012 300.22 47.1152H291.716C291.408 46.0012 290.397 45.1777 289.188 45.1777C287.735 45.1777 286.553 46.3596 286.553 47.8127C286.553 47.989 286.572 48.1595 286.605 48.3242L281.451 50.9011C280.969 50.3664 280.277 50.0215 279.5 50.0215C278.047 50.0215 276.865 51.2034 276.865 52.6565C276.865 53.1854 277.024 53.6756 277.293 54.0883L272.909 59.0212C272.558 58.8468 272.169 58.7402 271.75 58.7402C270.297 58.7402 269.115 59.9221 269.115 61.3752C269.115 62.5862 269.939 63.5956 271.053 63.9037V70.4699C269.939 70.7779 269.115 71.7893 269.115 72.9983C269.115 74.4514 270.297 75.6333 271.75 75.6333C272.808 75.6333 273.715 75.0036 274.135 74.1007L280.769 75.207C280.907 76.5342 282.015 77.5727 283.375 77.5727C283.552 77.5727 283.722 77.5534 283.887 77.5204L285.495 80.7347C284.96 81.2191 284.615 81.9108 284.615 82.6877C284.615 84.1409 285.797 85.3227 287.25 85.3227C288.161 85.3227 288.965 84.8577 289.44 84.1525L296.256 86.4252C296.252 86.4717 296.24 86.5162 296.24 86.5627C296.24 87.7737 297.064 88.785 298.178 89.0931V95.6574C297.064 95.9654 296.24 96.9768 296.24 98.1877C296.24 99.6409 297.422 100.823 298.875 100.823C300.328 100.823 301.51 99.6409 301.51 98.1877C301.51 96.9787 300.687 95.9654 299.573 95.6574V89.0912C300.687 88.7831 301.51 87.7717 301.51 86.5608C301.51 85.685 301.076 84.9139 300.417 84.4334L301.739 80.9072L307.867 82.6587C307.867 82.6684 307.865 82.678 307.865 82.6877C307.865 83.8967 308.689 84.91 309.803 85.2181V95.6593C308.689 95.9674 307.865 96.9787 307.865 98.1897C307.865 99.6428 309.047 100.825 310.5 100.825C311.953 100.825 313.135 99.6428 313.135 98.1897C313.135 96.9807 312.312 95.9674 311.198 95.6593V85.2181C312.312 84.91 313.135 83.8987 313.135 82.6877C313.135 82.399 313.077 82.1259 312.992 81.8662L320.409 76.9198C320.872 77.3228 321.466 77.5727 322.125 77.5727C323.578 77.5727 324.76 76.3909 324.76 74.9377C324.76 73.7287 323.937 72.7174 322.823 72.4093ZM307.311 70.931C307.307 70.8438 307.298 70.7566 307.284 70.6714L313.191 68.046L319.61 73.6629L307.311 70.931ZM304.688 72.3027C304.004 72.3027 303.448 71.7467 303.448 71.0627C303.448 70.3788 304.004 69.8227 304.688 69.8227C305.372 69.8227 305.928 70.3788 305.928 71.0627C305.928 71.7467 305.372 72.3027 304.688 72.3027ZM304.688 68.4277C303.235 68.4277 302.053 69.6096 302.053 71.0627C302.053 71.9385 302.487 72.7096 303.145 73.1882L300.886 79.2138L297.201 78.1617L294.363 68.2301L304.947 60.9529L306.164 61.9003L312.031 67.0347L306.712 69.3984C306.23 68.8114 305.507 68.4277 304.688 68.4277ZM283.629 72.3279L281.674 61.0846L288.672 60.3852V60.3774C289.052 61.3655 290.003 62.0727 291.125 62.0727C291.135 62.0727 291.143 62.0708 291.152 62.0708L292.747 67.6489L285.063 72.9305C284.666 72.5972 284.173 72.3822 283.629 72.3279ZM291.125 60.6777C290.441 60.6777 289.885 60.1217 289.885 59.4377C289.885 58.7538 290.441 58.1977 291.125 58.1977C291.809 58.1977 292.365 58.7538 292.365 59.4377C292.365 60.1217 291.809 60.6777 291.125 60.6777ZM285.855 74.0794L293.15 69.0632L295.62 77.7103L286.006 74.9629C286.006 74.9532 286.008 74.9455 286.008 74.9358C286.01 74.6355 285.948 74.3507 285.855 74.0794ZM312.688 55.6325C313.147 56.018 313.73 56.2602 314.375 56.2602C314.745 56.2602 315.096 56.1827 315.416 56.0452L319.998 61.7705C319.682 62.2045 319.49 62.7354 319.49 63.3127C319.49 63.4464 319.51 63.5743 319.529 63.7022L313.437 66.4089L307.053 60.823L306.154 60.1236L312.688 55.6325ZM320.674 72.7406L314.594 67.4222L320.099 64.977C320.44 65.3897 320.897 65.6959 321.428 65.8412V72.4074C321.158 72.4829 320.903 72.5914 320.674 72.7406ZM323.365 63.3127C323.365 63.9967 322.809 64.5527 322.125 64.5527C321.441 64.5527 320.885 63.9967 320.885 63.3127C320.885 62.6288 321.441 62.0727 322.125 62.0727C322.809 62.0727 323.365 62.6288 323.365 63.3127ZM314.375 52.3852C315.059 52.3852 315.615 52.9413 315.615 53.6252C315.615 54.3092 315.059 54.8652 314.375 54.8652C313.691 54.8652 313.135 54.3092 313.135 53.6252C313.135 52.9413 313.691 52.3852 314.375 52.3852ZM302.75 46.5727C303.434 46.5727 303.99 47.1288 303.99 47.8127C303.99 48.4967 303.434 49.0527 302.75 49.0527C302.066 49.0527 301.51 48.4967 301.51 47.8127C301.51 47.1288 302.066 46.5727 302.75 46.5727ZM302.75 50.4477C303.527 50.4477 304.219 50.1048 304.701 49.5681L311.791 53.1137C311.758 53.2784 311.74 53.4489 311.74 53.6252C311.74 53.9275 311.802 54.2123 311.895 54.4835L304.998 59.2265L291.621 48.8222C291.662 48.7234 291.689 48.6168 291.718 48.5102H300.222C300.528 49.6243 301.539 50.4477 302.75 50.4477ZM289.188 46.5727C289.872 46.5727 290.428 47.1288 290.428 47.8127C290.428 48.4967 289.872 49.0527 289.188 49.0527C288.504 49.0527 287.948 48.4967 287.948 47.8127C287.948 47.1288 288.504 46.5727 289.188 46.5727ZM287.237 49.5681C287.719 50.1029 288.411 50.4477 289.188 50.4477C289.777 50.4477 290.317 50.2462 290.757 49.9169L303.793 60.0539L293.96 66.8138L292.493 61.6794C293.249 61.2164 293.76 60.389 293.76 59.4377C293.76 57.9846 292.578 56.8027 291.125 56.8027C289.821 56.8027 288.744 57.756 288.535 59.0018V58.996L281.434 59.7051L280.62 55.0319C281.513 54.6095 282.135 53.7066 282.135 52.6565C282.135 52.4802 282.116 52.3097 282.083 52.145L287.237 49.5681ZM274.201 60.4278C274.135 60.2573 274.056 60.0945 273.957 59.9434L278.342 55.0105C278.619 55.1481 278.923 55.2334 279.246 55.2663L280.043 59.8446L274.201 60.4278ZM279.5 51.4165C280.184 51.4165 280.74 51.9725 280.74 52.6565C280.74 53.3404 280.184 53.8965 279.5 53.8965C278.816 53.8965 278.26 53.3404 278.26 52.6565C278.26 51.9725 278.816 51.4165 279.5 51.4165ZM270.51 61.3752C270.51 60.6913 271.066 60.1352 271.75 60.1352C272.434 60.1352 272.99 60.6913 272.99 61.3752C272.99 62.0592 272.434 62.6152 271.75 62.6152C271.066 62.6152 270.51 62.0592 270.51 61.3752ZM271.75 74.2402C271.066 74.2402 270.51 73.6842 270.51 73.0002C270.51 72.3163 271.066 71.7602 271.75 71.7602C272.434 71.7602 272.99 72.3163 272.99 73.0002C272.99 73.6842 272.434 74.2402 271.75 74.2402ZM280.99 73.8334L274.356 72.727C274.242 71.6401 273.475 70.7547 272.446 70.4699V63.9037C273.42 63.6344 274.166 62.8264 274.339 61.817L280.281 61.2222L282.253 72.5624C281.699 72.8259 281.252 73.2754 280.99 73.8334ZM282.135 74.9377C282.135 74.2538 282.691 73.6977 283.375 73.6977C284.059 73.6977 284.615 74.2538 284.615 74.9377C284.615 75.6217 284.059 76.1777 283.375 76.1777C282.691 76.1777 282.135 75.6217 282.135 74.9377ZM287.25 83.9277C286.566 83.9277 286.01 83.3717 286.01 82.6877C286.01 82.0038 286.566 81.4477 287.25 81.4477C287.934 81.4477 288.49 82.0038 288.49 82.6877C288.49 83.3717 287.934 83.9277 287.25 83.9277ZM289.872 82.8253C289.874 82.7788 289.885 82.7342 289.885 82.6877C289.885 81.2346 288.703 80.0527 287.25 80.0527C287.074 80.0527 286.903 80.0721 286.739 80.105L285.131 76.8907C285.32 76.7202 285.483 76.5245 285.617 76.3056L296.072 79.2913L297.509 84.321C297.184 84.5206 296.899 84.7822 296.686 85.0999L289.872 82.8253ZM300.115 98.1877C300.115 98.8717 299.559 99.4277 298.875 99.4277C298.191 99.4277 297.635 98.8717 297.635 98.1877C297.635 97.5038 298.191 96.9477 298.875 96.9477C299.559 96.9477 300.115 97.5038 300.115 98.1877ZM298.875 87.8027C298.191 87.8027 297.635 87.2467 297.635 86.5627C297.635 85.8788 298.191 85.3227 298.875 85.3227C299.559 85.3227 300.115 85.8788 300.115 86.5627C300.115 87.2467 299.559 87.8027 298.875 87.8027ZM299.11 83.951C299.03 83.9432 298.955 83.9277 298.875 83.9277C298.866 83.9277 298.858 83.9297 298.848 83.9297L297.651 79.7408L300.394 80.5235L299.11 83.951ZM302.231 79.5994L304.453 73.6725C304.533 73.6803 304.608 73.6958 304.688 73.6958C305.693 73.6958 306.561 73.1223 307.005 72.2911L319.504 75.0675C319.515 75.3078 319.562 75.5384 319.636 75.7573L312.219 80.7037C311.754 80.3027 311.159 80.0527 310.5 80.0527C309.549 80.0527 308.722 80.5642 308.257 81.3218L302.231 79.5994ZM311.74 98.1877C311.74 98.8717 311.184 99.4277 310.5 99.4277C309.816 99.4277 309.26 98.8717 309.26 98.1877C309.26 97.5038 309.816 96.9477 310.5 96.9477C311.184 96.9477 311.74 97.5038 311.74 98.1877ZM310.5 83.9277C309.816 83.9277 309.26 83.3717 309.26 82.6877C309.26 82.0038 309.816 81.4477 310.5 81.4477C311.184 81.4477 311.74 82.0038 311.74 82.6877C311.74 83.3717 311.184 83.9277 310.5 83.9277ZM322.125 76.1777C321.441 76.1777 320.885 75.6217 320.885 74.9377C320.885 74.2538 321.441 73.6977 322.125 73.6977C322.809 73.6977 323.365 74.2538 323.365 74.9377C323.365 75.6217 322.809 76.1777 322.125 76.1777Z" fill="#FF4F20"/>
<defs>
<filter id="filter0_dddddd_1116_9286" x="-10.6908" y="73.4233" width="257.243" height="82.5742" filterUnits="userSpaceOnUse" color-interpolation-filters="sRGB">
<feFlood flood-opacity="0" result="BackgroundImageFix"/>
<feColorMatrix in="SourceAlpha" type="matrix" values="0 0 0 0 0 0 0 0 0 0 0 0 0 0 0 0 0 0 127 0" result="hardAlpha"/>
<feOffset dy="0.944196"/>
<feGaussianBlur stdDeviation="0.377678"/>
<feColorMatrix type="matrix" values="0 0 0 0 0 0 0 0 0 0 0 0 0 0 0 0 0 0 0.0196802 0"/>
<feBlend mode="normal" in2="BackgroundImageFix" result="effect1_dropShadow_1116_9286"/>
<feColorMatrix in="SourceAlpha" type="matrix" values="0 0 0 0 0 0 0 0 0 0 0 0 0 0 0 0 0 0 127 0" result="hardAlpha"/>
<feOffset dy="2.26903"/>
<feGaussianBlur stdDeviation="0.907613"/>
<feColorMatrix type="matrix" values="0 0 0 0 0 0 0 0 0 0 0 0 0 0 0 0 0 0 0.0282725 0"/>
<feBlend mode="normal" in2="effect1_dropShadow_1116_9286" result="effect2_dropShadow_1116_9286"/>
<feColorMatrix in="SourceAlpha" type="matrix" values="0 0 0 0 0 0 0 0 0 0 0 0 0 0 0 0 0 0 127 0" result="hardAlpha"/>
<feOffset dy="4.27239"/>
<feGaussianBlur stdDeviation="1.70896"/>
<feColorMatrix type="matrix" values="0 0 0 0 0 0 0 0 0 0 0 0 0 0 0 0 0 0 0.035 0"/>
<feBlend mode="normal" in2="effect2_dropShadow_1116_9286" result="effect3_dropShadow_1116_9286"/>
<feColorMatrix in="SourceAlpha" type="matrix" values="0 0 0 0 0 0 0 0 0 0 0 0 0 0 0 0 0 0 127 0" result="hardAlpha"/>
<feOffset dy="7.62121"/>
<feGaussianBlur stdDeviation="3.04848"/>
<feColorMatrix type="matrix" values="0 0 0 0 0 0 0 0 0 0 0 0 0 0 0 0 0 0 0.0417275 0"/>
<feBlend mode="normal" in2="effect3_dropShadow_1116_9286" result="effect4_dropShadow_1116_9286"/>
<feColorMatrix in="SourceAlpha" type="matrix" values="0 0 0 0 0 0 0 0 0 0 0 0 0 0 0 0 0 0 127 0" result="hardAlpha"/>
<feOffset dy="14.2546"/>
<feGaussianBlur stdDeviation="5.70186"/>
<feColorMatrix type="matrix" values="0 0 0 0 0 0 0 0 0 0 0 0 0 0 0 0 0 0 0.0503198 0"/>
<feBlend mode="normal" in2="effect4_dropShadow_1116_9286" result="effect5_dropShadow_1116_9286"/>
<feColorMatrix in="SourceAlpha" type="matrix" values="0 0 0 0 0 0 0 0 0 0 0 0 0 0 0 0 0 0 127 0" result="hardAlpha"/>
<feOffset dy="34.1203"/>
<feGaussianBlur stdDeviation="13.6481"/>
<feColorMatrix type="matrix" values="0 0 0 0 0 0 0 0 0 0 0 0 0 0 0 0 0 0 0.07 0"/>
<feBlend mode="normal" in2="effect5_dropShadow_1116_9286" result="effect6_dropShadow_1116_9286"/>
<feBlend mode="normal" in="SourceGraphic" in2="effect6_dropShadow_1116_9286" result="shape"/>
</filter>
<linearGradient id="paint0_linear_1116_9286" x1="16" y1="73.5817" x2="217.971" y2="94.8586" gradientUnits="userSpaceOnUse">
<stop stop-color="#0A0A0A"/>
<stop offset="1" stop-color="#555555"/>
</linearGradient>
</defs>
</svg>
