<svg width="28" height="32" viewBox="0 0 28 32" fill="none" xmlns="http://www.w3.org/2000/svg">
<g id="Secondary Graphic Container">
<path id="Vector" fill-rule="evenodd" clip-rule="evenodd" d="M14.5003 31.9094L27.6645 24.2194C27.7663 24.1599 27.8508 24.0745 27.9095 23.9718C27.9682 23.869 27.9991 23.7525 27.999 23.634L27.9674 8.3088C27.9671 8.19017 27.9358 8.07372 27.8767 7.97111C27.8175 7.8685 27.7327 7.78334 27.6306 7.72417L14.4348 0.0905643C14.3328 0.0312345 14.217 0 14.0992 0C13.9813 0 13.8656 0.0312345 13.7635 0.0905643L0.599313 7.78136C0.497411 7.84069 0.412885 7.92608 0.35429 8.02889C0.295694 8.13169 0.265109 8.24826 0.265632 8.36679L0.297185 23.692C0.297259 23.8106 0.328454 23.927 0.387605 24.0295C0.446757 24.1321 0.531765 24.217 0.634022 24.2758L13.8298 31.9094C13.9317 31.9688 14.0473 32 14.165 32C14.2827 32 14.3984 31.9688 14.5003 31.9094ZM18.2197 13.6539L24.009 10.2311C24.0594 10.201 24.1012 10.1582 24.1301 10.1069C24.159 10.0556 24.1741 9.99752 24.1739 9.9385C24.1737 9.87948 24.1581 9.82155 24.1288 9.77046C24.0994 9.71937 24.0573 9.6769 24.0066 9.64726L14.4419 4.11469C14.34 4.05535 14.2244 4.02411 14.1067 4.02411C13.9889 4.02411 13.8733 4.05535 13.7714 4.11469L4.06154 9.78548C3.95954 9.84496 3.87491 9.93048 3.81619 10.0334C3.75747 10.1363 3.72673 10.253 3.72707 10.3717L3.73575 13.6118C3.73583 13.7303 3.76693 13.8467 3.82593 13.9492C3.88493 14.0517 3.96974 14.1367 4.0718 14.1956L10.3447 17.8274C10.447 17.8865 10.532 17.9717 10.5912 18.0745C10.6503 18.1773 10.6815 18.294 10.6815 18.4128V21.6624C10.6814 21.7019 10.6711 21.7407 10.6514 21.7749C10.6318 21.8091 10.6036 21.8375 10.5697 21.8573C10.5358 21.877 10.4973 21.8875 10.4581 21.8876C10.4188 21.8877 10.3803 21.8774 10.3462 21.8578L7.41254 20.1603C7.3446 20.1202 7.28839 20.0627 7.24961 19.9936C7.21082 19.9246 7.19084 19.8465 7.19167 19.7671L7.18772 18.7011C7.18725 18.5816 7.15531 18.4642 7.09518 18.3611C7.03504 18.258 6.94884 18.1728 6.84537 18.1141L4.23114 16.6374C4.1801 16.6086 4.12245 16.5937 4.06393 16.5943C4.0054 16.5948 3.94804 16.6108 3.89754 16.6406C3.84704 16.6704 3.80518 16.713 3.7761 16.7641C3.74702 16.8153 3.73175 16.8732 3.73181 16.9321V18.9569L3.7389 21.6783C3.73898 21.7969 3.77017 21.9133 3.82932 22.0159C3.88847 22.1184 3.97349 22.2034 4.07574 22.2622L13.4851 27.6891C13.5531 27.7284 13.6303 27.749 13.7087 27.7487C13.7872 27.7485 13.8643 27.7275 13.9321 27.6878C14 27.6482 14.0563 27.5912 14.0954 27.5227C14.1344 27.4542 14.1549 27.3765 14.1548 27.2975L14.139 16.3761C14.1387 16.2575 14.1075 16.141 14.0484 16.0384C13.9892 15.9357 13.9043 15.8506 13.8022 15.7915L7.56242 12.1796C7.52833 12.1599 7.5 12.1315 7.48031 12.0973C7.46061 12.063 7.45023 12.0242 7.45023 11.9846C7.45023 11.945 7.46061 11.9062 7.48031 11.8719C7.5 11.8377 7.52833 11.8093 7.56242 11.7896L13.7832 8.16582C13.8853 8.10649 14.001 8.07525 14.1189 8.07525C14.2367 8.07525 14.3525 8.10649 14.4545 8.16582L17.2683 9.7958C17.3024 9.81549 17.3308 9.84389 17.3505 9.87813C17.3702 9.91237 17.3805 9.95124 17.3805 9.99081C17.3805 10.0304 17.3702 10.0693 17.3505 10.1035C17.3308 10.1377 17.3024 10.1661 17.2683 10.1858L14.7882 11.6252C14.7362 11.6554 14.6932 11.6992 14.6637 11.7519C14.6342 11.8046 14.6193 11.8643 14.6206 11.9248C14.6219 11.9853 14.6393 12.0443 14.671 12.0957C14.7027 12.1471 14.7476 12.189 14.8008 12.2169L17.5713 13.6706C17.6719 13.7233 17.7842 13.7495 17.8976 13.7466C18.011 13.7437 18.1219 13.7118 18.2197 13.6539Z" fill="#0B0B0B"/>
<path id="Vector_2" d="M17.5527 18.1504L17.5583 21.9743C17.5584 22.0534 17.5791 22.131 17.6185 22.1994C17.6578 22.2678 17.7143 22.3246 17.7823 22.364C17.8504 22.4035 17.9275 22.4242 18.006 22.4241C18.0845 22.424 18.1616 22.4032 18.2296 22.3636L21.5111 20.4468C21.6129 20.3871 21.6973 20.3015 21.7558 20.1986C21.8144 20.0958 21.8451 19.9792 21.8448 19.8606L21.8369 16.0406C21.8368 15.9616 21.8161 15.8839 21.7767 15.8155C21.7374 15.7471 21.6809 15.6903 21.6128 15.6509C21.5448 15.6115 21.4677 15.5907 21.3892 15.5908C21.3107 15.5909 21.2336 15.6118 21.1656 15.6514L17.8872 17.565C17.7852 17.6242 17.7006 17.7096 17.6418 17.8124C17.5831 17.9152 17.5524 18.0318 17.5527 18.1504Z" fill="#FF4E1F"/>
</g>
</svg>
