<svg width="30" height="30" viewBox="0 0 30 30" fill="none" xmlns="http://www.w3.org/2000/svg">
<g id="Group 4">
<path id="Subtract" fill-rule="evenodd" clip-rule="evenodd" d="M29.6634 14.9997C29.6634 23.0999 23.0969 29.6663 14.9967 29.6663C6.89657 29.6663 0.330078 23.0999 0.330078 14.9997C0.330078 6.8995 6.89657 0.333008 14.9967 0.333008C23.0969 0.333008 29.6634 6.8995 29.6634 14.9997ZM15.5226 11.1607C14.096 11.754 11.2449 12.9821 6.96932 14.8449C6.27502 15.121 5.91132 15.3911 5.87821 15.6553C5.82225 16.1016 6.38121 16.2774 7.14236 16.5167C7.2459 16.5493 7.35317 16.583 7.46315 16.6187C8.212 16.8622 9.21935 17.1469 9.74302 17.1583C10.218 17.1685 10.7482 16.9727 11.3336 16.5707C15.3284 13.8741 17.3906 12.5111 17.52 12.4817C17.6114 12.461 17.738 12.4349 17.8237 12.5111C17.9095 12.5874 17.901 12.7317 17.892 12.7704C17.8366 13.0065 15.6425 15.0463 14.507 16.1019C14.1531 16.431 13.902 16.6645 13.8507 16.7178C13.7357 16.8372 13.6185 16.9502 13.5059 17.0587C12.8102 17.7294 12.2884 18.2323 13.5348 19.0536C14.1337 19.4483 14.6129 19.7747 15.091 20.1003C15.6132 20.4559 16.134 20.8105 16.8079 21.2522C16.9795 21.3648 17.1435 21.4817 17.3032 21.5955C17.9109 22.0287 18.4568 22.4179 19.1313 22.3559C19.5232 22.3198 19.928 21.9513 20.1336 20.8522C20.6195 18.2547 21.5745 12.6268 21.7953 10.3076C21.8146 10.1044 21.7903 9.8444 21.7707 9.73025C21.7512 9.6161 21.7104 9.45346 21.562 9.33306C21.3863 9.19047 21.115 9.1604 20.9937 9.16254C20.442 9.17226 19.5957 9.46655 15.5226 11.1607Z" fill="url(#paint0_linear_1085_8137)"/>
</g>
<defs>
<linearGradient id="paint0_linear_1085_8137" x1="14.9967" y1="0.333008" x2="14.9967" y2="29.4488" gradientUnits="userSpaceOnUse">
<stop stop-color="#2AABEE"/>
<stop offset="1" stop-color="#229ED9"/>
</linearGradient>
</defs>
</svg>
