<svg width="1em" height="1em" viewBox="0 0 16 16" fill="none"
  xmlns="http://www.w3.org/2000/svg">
  <g id="pause">
    <path id="Vector" d="M4.00063 2.08301H5.33263C5.65508 2.08301 5.91663 2.34455 5.91663 2.66701V13.3323C5.91663 13.6546 5.65532 13.9163 5.33196 13.9163H4.00063C3.67842 13.9163 3.41663 13.655 3.41663 13.3317V2.66701C3.41663 2.34455 3.67817 2.08301 4.00063 2.08301ZM10.668 2.08301H11.9993C12.3217 2.08301 12.5833 2.34455 12.5833 2.66701V13.3323C12.5833 13.6546 12.322 13.9163 11.9986 13.9163H10.6673C10.3451 13.9163 10.0833 13.655 10.0833 13.3317V2.66701C10.0833 2.3448 10.3446 2.08301 10.668 2.08301Z" fill="currentColor" stroke="currentColor" stroke-width="1.5"/>
  </g>
</svg>
